<svg xmlns="http://www.w3.org/2000/svg" width="55" height="55" viewBox="0 0 55 55">
  <g id="Group_3625" data-name="Group 3625" transform="translate(-301 -1375)">
    <g id="Symbol_350_39" data-name="Symbol 350 – 39" transform="translate(109 153)">
      <rect id="Rectangle_2707" data-name="Rectangle 2707" width="55" height="55" transform="translate(192 1222)" fill="none"/>
    </g>
    <g id="Group_3545" data-name="Group 3545" transform="translate(311 1384)">
      <path id="Path_2204" data-name="Path 2204" d="M4.68,17.58V14.44A13.443,13.443,0,0,1,18.12,1h0A13.443,13.443,0,0,1,31.56,14.44v3.14" fill="none" stroke="#cf3338" stroke-linecap="round" stroke-linejoin="round" stroke-miterlimit="10" stroke-width="2"/>
      <path id="Path_2205" data-name="Path 2205" d="M3.99,26.25a4.46,4.46,0,1,1,5.93-4.21,4.222,4.222,0,0,1-.19,1.28" fill="none" stroke="#f08b8f" stroke-linecap="round" stroke-linejoin="round" stroke-miterlimit="10" stroke-width="2"/>
      <path id="Path_2206" data-name="Path 2206" d="M26.26,23.48a4.529,4.529,0,0,1-.24-1.44,4.46,4.46,0,1,1,5.55,4.33" fill="none" stroke="#f08b8f" stroke-linecap="round" stroke-linejoin="round" stroke-miterlimit="10" stroke-width="2"/>
      <line id="Line_1637" data-name="Line 1637" y2="3.08" transform="translate(8.21 32.71)" fill="none" stroke="#f08b8f" stroke-linecap="round" stroke-linejoin="round" stroke-miterlimit="10" stroke-width="2"/>
      <line id="Line_1638" data-name="Line 1638" y2="3.08" transform="translate(27.63 32.71)" fill="none" stroke="#f08b8f" stroke-linecap="round" stroke-linejoin="round" stroke-miterlimit="10" stroke-width="2"/>
      <line id="Line_1639" data-name="Line 1639" x2="5.68" y2="5.69" transform="translate(15.16 11.89)" fill="none" stroke="#f08b8f" stroke-linecap="round" stroke-linejoin="round" stroke-miterlimit="10" stroke-width="2"/>
      <line id="Line_1640" data-name="Line 1640" x1="5.68" y2="5.69" transform="translate(15.16 11.89)" fill="none" stroke="#f08b8f" stroke-linecap="round" stroke-linejoin="round" stroke-miterlimit="10" stroke-width="2"/>
      <path id="Path_2207" data-name="Path 2207" d="M29.17,24.39l-3.45-.77a36.406,36.406,0,0,0-15.89,0l-3.45.77a3.069,3.069,0,0,0-2.4,2.99v2.27a3.06,3.06,0,0,0,3.06,3.06H28.5a3.06,3.06,0,0,0,3.06-3.06V27.38A3.042,3.042,0,0,0,29.17,24.39Z" fill="none" stroke="#cf3338" stroke-linecap="round" stroke-linejoin="round" stroke-miterlimit="10" stroke-width="2"/>
    </g>
  </g>
</svg>
