<svg xmlns="http://www.w3.org/2000/svg" width="60" height="60" viewBox="0 0 60 60">
  <g id="Group_3448" data-name="Group 3448" transform="translate(-3003 -1441)">
    <g id="Symbol_349_8" data-name="Symbol 349 – 8" transform="translate(1086 -10)">
      <rect id="Rectangle_2707" data-name="Rectangle 2707" width="60" height="60" transform="translate(1917 1451)" fill="none"/>
    </g>
    <g id="Group_3512" data-name="Group 3512" transform="translate(3014 1452)">
      <g id="Group_3512-2" data-name="Group 3512">
        <path id="Path_2150" data-name="Path 2150" d="M34.6,2a1,1,0,0,1,1,1V13a1,1,0,0,1-1,1h-10a1,1,0,0,1-1-1V3a1,1,0,0,1,1-1h10m0-2h-10a3,3,0,0,0-3,3V13a3,3,0,0,0,3,3h10a3,3,0,0,0,3-3V3a3,3,0,0,0-3-3Z" fill="#f08b8f"/>
      </g>
      <g id="Group_3513" data-name="Group 3513">
        <path id="Path_2151" data-name="Path 2151" d="M13,16H3a3,3,0,0,1-3-3V3A3,3,0,0,1,3,0H13a3,3,0,0,1,3,3V13A3,3,0,0,1,13,16Z" fill="#cf3339"/>
      </g>
      <g id="Group_3514" data-name="Group 3514">
        <path id="Path_2152" data-name="Path 2152" d="M13,23.6a1,1,0,0,1,1,1v10a1,1,0,0,1-1,1H3a1,1,0,0,1-1-1v-10a1,1,0,0,1,1-1H13m0-2H3a3,3,0,0,0-3,3v10a3,3,0,0,0,3,3H13a3,3,0,0,0,3-3v-10a3,3,0,0,0-3-3Z" fill="#f08b8f"/>
      </g>
      <g id="Group_3515" data-name="Group 3515">
        <path id="Path_2153" data-name="Path 2153" d="M34.6,37.6h-10a3,3,0,0,1-3-3v-10a3,3,0,0,1,3-3h10a3,3,0,0,1,3,3v10A3,3,0,0,1,34.6,37.6Z" fill="#cf3339"/>
      </g>
    </g>
  </g>
</svg>
