<svg xmlns="http://www.w3.org/2000/svg" width="55" height="55" viewBox="0 0 55 55">
  <g id="Group_3624" data-name="Group 3624" transform="translate(-191 -1375)">
    <g id="Symbol_350_38" data-name="Symbol 350 – 38" transform="translate(-1 153)">
      <rect id="Rectangle_2707" data-name="Rectangle 2707" width="55" height="55" transform="translate(192 1222)" fill="none"/>
    </g>
    <g id="Group_3544" data-name="Group 3544" transform="translate(201 1384)">
      <line id="Line_1632" data-name="Line 1632" y2="3.1" transform="translate(6.02 32.43)" fill="none" stroke="#cf3338" stroke-linejoin="round" stroke-miterlimit="10" stroke-width="2"/>
      <line id="Line_1633" data-name="Line 1633" y2="7.95" transform="translate(6.02 16.28)" fill="none" stroke="#f08b8f" stroke-linecap="round" stroke-linejoin="round" stroke-miterlimit="10" stroke-width="2"/>
      <line id="Line_1634" data-name="Line 1634" x2="19.14" transform="translate(1 12.22)" fill="none" stroke="#cf3338" stroke-linecap="round" stroke-linejoin="round" stroke-miterlimit="10" stroke-width="2"/>
      <line id="Line_1635" data-name="Line 1635" y2="3.63" transform="translate(6.02 4.63)" fill="none" stroke="#f08b8f" stroke-linecap="round" stroke-linejoin="round" stroke-miterlimit="10" stroke-width="2"/>
      <path id="Path_2201" data-name="Path 2201" d="M13.6,32.43H3.38C2.06,32.43,1,31.06,1,29.38V4.05C1,2.36,2.06,1,3.38,1H17.77c1.31,0,2.38,1.36,2.38,3.05V16.29" fill="none" stroke="#cf3338" stroke-linecap="round" stroke-linejoin="round" stroke-miterlimit="10" stroke-width="2"/>
      <path id="Path_2202" data-name="Path 2202" d="M33.7,21.42H13.3a.992.992,0,0,1-.99-.99V17.65a1,1,0,0,1,1-1h20.4a.992.992,0,0,1,.99.99v2.78A1,1,0,0,1,33.7,21.42Z" fill="none" stroke="#cf3338" stroke-linecap="round" stroke-linejoin="round" stroke-miterlimit="10" stroke-width="2"/>
      <path id="Path_2203" data-name="Path 2203" d="M29.39,34.51H17.62a3,3,0,0,1-3-3V21.42H32.39V31.5A3.011,3.011,0,0,1,29.39,34.51Z" fill="none" stroke="#cf3338" stroke-linecap="round" stroke-linejoin="round" stroke-miterlimit="10" stroke-width="2"/>
      <rect id="Rectangle_2755" data-name="Rectangle 2755" width="10.14" height="7.47" transform="translate(18.43 24.23)" stroke-width="2" stroke="#f08b8f" stroke-linecap="round" stroke-linejoin="round" stroke-miterlimit="10" fill="none"/>
      <g id="Group_3544-2" data-name="Group 3544">
        <circle id="Ellipse_793" data-name="Ellipse 793" cx="0.85" cy="0.85" r="0.85" transform="translate(17.62 18.19)" fill="#f08b8f"/>
        <circle id="Ellipse_794" data-name="Ellipse 794" cx="0.85" cy="0.85" r="0.85" transform="translate(20.97 18.19)" fill="#f08b8f"/>
        <circle id="Ellipse_795" data-name="Ellipse 795" cx="0.85" cy="0.85" r="0.85" transform="translate(24.33 18.19)" fill="#f08b8f"/>
        <circle id="Ellipse_796" data-name="Ellipse 796" cx="0.85" cy="0.85" r="0.85" transform="translate(27.69 18.19)" fill="#f08b8f"/>
      </g>
      <line id="Line_1636" data-name="Line 1636" x2="3.36" transform="translate(21.82 27.97)" fill="none" stroke="#f08b8f" stroke-linecap="round" stroke-linejoin="round" stroke-miterlimit="10" stroke-width="2"/>
    </g>
  </g>
</svg>
