<svg xmlns="http://www.w3.org/2000/svg" viewBox="0 0 55 55">
  <defs>
    <style>
      .cls-1 {
        fill: #fff;
      }

      .cls-1, .cls-2, .cls-3, .cls-4 {
        stroke: #cf3339;
        stroke-linecap: round;
        stroke-miterlimit: 10;
        stroke-width: 2px;
      }

      .cls-2, .cls-3, .cls-4, .cls-5 {
        fill: none;
      }

      .cls-2 {
        opacity: 0.3;
      }

      .cls-4 {
        stroke-linejoin: round;
      }
    </style>
  </defs>
  <g id="ico-menu-sport" transform="translate(5 15)">
    <g id="Group_3389" data-name="Group 3389">
      <path id="Path_2030" data-name="Path 2030" class="cls-1" d="M14,22.7h-.3a2.9,2.9,0,0,1-2.9-2.9V3.9A2.9,2.9,0,0,1,13.7,1H14a2.9,2.9,0,0,1,2.9,2.9V19.8A2.9,2.9,0,0,1,14,22.7Z"/>
      <path id="Path_2031" data-name="Path 2031" class="cls-1" d="M7.9,18.4H7.6a2.9,2.9,0,0,1-2.9-2.9V8.2A2.9,2.9,0,0,1,7.6,5.3h.3a2.9,2.9,0,0,1,2.9,2.9v7.3A2.9,2.9,0,0,1,7.9,18.4Z"/>
      <path id="Path_2032" data-name="Path 2032" class="cls-1" d="M31.5,22.7h.3a2.9,2.9,0,0,0,2.9-2.9V3.9A2.9,2.9,0,0,0,31.8,1h-.3a2.9,2.9,0,0,0-2.9,2.9V19.8A2.9,2.9,0,0,0,31.5,22.7Z"/>
      <path id="Path_2033" data-name="Path 2033" class="cls-1" d="M37.6,18.4h.3a2.9,2.9,0,0,0,2.9-2.9V8.2a2.9,2.9,0,0,0-2.9-2.9h-.3a2.9,2.9,0,0,0-2.9,2.9v7.3A2.9,2.9,0,0,0,37.6,18.4Z"/>
    </g>
    <line id="Line_1581" data-name="Line 1581" class="cls-2" x2="3.9" transform="translate(40.8 11.1)"/>
    <line id="Line_1582" data-name="Line 1582" class="cls-3" x2="11.7" transform="translate(16.9 11.1)"/>
    <line id="Line_1583" data-name="Line 1583" class="cls-2" x2="3.7" transform="translate(1 11.1)"/>
    <g id="Group_3390" data-name="Group 3390">
      <path id="Path_2034" data-name="Path 2034" class="cls-4" d="M13.8,1a2.923,2.923,0,0,0-3.1,2.7V8A2.923,2.923,0,0,0,7.6,5.3,2.8,2.8,0,0,0,4.7,8v7.7a2.923,2.923,0,0,0,3.1,2.7,2.923,2.923,0,0,0,3.1-2.7V20A2.923,2.923,0,0,0,14,22.7,2.923,2.923,0,0,0,17.1,20V3.7A3.264,3.264,0,0,0,13.8,1Z"/>
      <path id="Path_2035" data-name="Path 2035" class="cls-4" d="M37.8,5.3A2.923,2.923,0,0,0,34.7,8V3.7A2.923,2.923,0,0,0,31.6,1a2.923,2.923,0,0,0-3.1,2.7V20a2.923,2.923,0,0,0,3.1,2.7A2.923,2.923,0,0,0,34.7,20V15.7a3.13,3.13,0,0,0,6.2,0V8A2.988,2.988,0,0,0,37.8,5.3Z"/>
    </g>
    <g id="Symbol_350_9" data-name="Symbol 350 – 9" transform="translate(-197 -1237)">
      <rect id="Rectangle_2707" data-name="Rectangle 2707" class="cls-5" width="55" height="55" transform="translate(192 1222)"/>
    </g>
  </g>
</svg>
