<svg xmlns="http://www.w3.org/2000/svg" width="60" height="60" viewBox="0 0 60 60">
  <g id="Group_3454" data-name="Group 3454" transform="translate(-1915 -1441)">
    <g id="Symbol_349_1" data-name="Symbol 349 – 1" transform="translate(-2 -10)">
      <rect id="Rectangle_2707" data-name="Rectangle 2707" width="60" height="60" transform="translate(1917 1451)" fill="none"/>
    </g>
    <g id="Group_3648" data-name="Group 3648" transform="translate(1925 1453)">
      <path id="Path_2297" data-name="Path 2297" d="M19.85,35.68a67.667,67.667,0,0,1-11.9-9.59C3.34,21.25,1,16.57,1,12.17A11.182,11.182,0,0,1,12.17,1a11.062,11.062,0,0,1,5.08,1.22,10.927,10.927,0,0,1,2.91,2.15l.19.2.19-.2a11.489,11.489,0,0,1,2.91-2.15,11.181,11.181,0,0,1,16.26,9.95c0,4.4-2.34,9.08-6.94,13.92a67.667,67.667,0,0,1-11.9,9.59l-.51.33Z" fill="none" stroke="#cf3339" stroke-linejoin="round" stroke-miterlimit="10" stroke-width="2"/>
      <path id="Path_2298" data-name="Path 2298" d="M30.97,11.17c1.17,3.61-2.58,8.71-6.15,9.76" fill="none" stroke="#f08b8f" stroke-linecap="round" stroke-linejoin="round" stroke-miterlimit="10" stroke-width="2"/>
    </g>
  </g>
</svg>
