<svg xmlns="http://www.w3.org/2000/svg" width="55" height="55" viewBox="0 0 55 55">
  <g id="Group_3627" data-name="Group 3627" transform="translate(-517 -1375)">
    <g id="Symbol_350_41" data-name="Symbol 350 – 41" transform="translate(325 153)">
      <rect id="Rectangle_2707" data-name="Rectangle 2707" width="55" height="55" transform="translate(192 1222)" fill="none"/>
    </g>
    <g id="Group_3546" data-name="Group 3546" transform="translate(528 1381)">
      <g id="Group_3547" data-name="Group 3547">
        <g id="Group_3546-2" data-name="Group 3546">
          <path id="Path_2208" data-name="Path 2208" d="M1.02,6.88c0,3.24-.02,17.5-.02,19.8,0,3.49,1.88,7.74,15.45,15.07,5.75-3.11,9.76-5.91,12.26-8.54,2.13-2.25,3.12-4.33,3.12-6.53,0-2.83.04-16.62.05-19.8a25.065,25.065,0,0,1-11.5-3.14A22.794,22.794,0,0,1,16.45,1a22.794,22.794,0,0,1-3.93,2.74A25.065,25.065,0,0,1,1.02,6.88Z" fill="none" stroke="#cf3339" stroke-linecap="round" stroke-linejoin="round" stroke-miterlimit="10" stroke-width="2"/>
        </g>
      </g>
      <g id="Group_3550" data-name="Group 3550">
        <g id="Group_3549" data-name="Group 3549">
          <g id="Group_3548" data-name="Group 3548">
            <path id="Path_2209" data-name="Path 2209" d="M4.98,10.61c0,2.41-.02,13-.02,14.71,0,2.59,1.4,5.75,11.48,11.2a37.076,37.076,0,0,0,9.11-6.35,7.025,7.025,0,0,0,2.32-4.85c0-2.1.03-12.34.04-14.71a18.712,18.712,0,0,1-8.54-2.33,16.954,16.954,0,0,1-2.92-2.03,16.954,16.954,0,0,1-2.92,2.03A18.721,18.721,0,0,1,4.98,10.61Z" fill="none" stroke="#f08b8f" stroke-linecap="round" stroke-linejoin="round" stroke-miterlimit="10" stroke-width="2"/>
          </g>
        </g>
        <line id="Line_1641" data-name="Line 1641" x2="16.29" y2="16.3" transform="translate(11.2 9.49)" fill="none" stroke="#f08b8f" stroke-linecap="round" stroke-linejoin="round" stroke-miterlimit="10" stroke-width="2"/>
        <line id="Line_1642" data-name="Line 1642" x2="19.61" y2="19.61" transform="translate(5.58 10.91)" fill="none" stroke="#f08b8f" stroke-linecap="round" stroke-linejoin="round" stroke-miterlimit="10" stroke-width="2"/>
      </g>
    </g>
  </g>
</svg>
