<svg xmlns="http://www.w3.org/2000/svg" viewBox="0 0 18 18">
  <defs>
    <style>
      .cls-1, .cls-2 {
        fill: none;
      }

      .cls-2 {
        stroke: #000;
        stroke-linecap: round;
        stroke-linejoin: round;
        stroke-miterlimit: 10;
        stroke-width: 2px;
      }
    </style>
  </defs>
  <g id="ico-op-modal" transform="translate(-1937 -2452)">
    <g id="Symbol_340_1" data-name="Symbol 340 – 1" transform="translate(-39 6)">
      <rect id="Rectangle_2737" data-name="Rectangle 2737" class="cls-1" width="18" height="18" transform="translate(1976 2446)"/>
    </g>
    <g id="Group_3336" data-name="Group 3336" transform="translate(1938 2454)">
      <path id="Path_1936" data-name="Path 1936" class="cls-2" d="M12.2,9.9v1.5a2.051,2.051,0,0,1-2.1,2.1h-7A2.051,2.051,0,0,1,1,11.4v-7A2.051,2.051,0,0,1,3.1,2.3H4.3"/>
      <g id="Group_3335" data-name="Group 3335">
        <path id="Path_1937" data-name="Path 1937" d="M14.9,0,7.2,1.7,9.4,3.4a.3.3,0,0,1,0,.4L7,6,8.5,7.6l2.4-2.3a.3.3,0,0,1,.4,0l1.6,2.5Z"/>
      </g>
    </g>
  </g>
</svg>
