<svg xmlns="http://www.w3.org/2000/svg" viewBox="0 0 55 55">
  <defs>
    <style>
      .cls-1, .cls-2 {
        fill: none;
      }

      .cls-2 {
        stroke: #cf3339;
        stroke-linecap: round;
        stroke-linejoin: round;
        stroke-miterlimit: 10;
        stroke-width: 2px;
      }

      .cls-3 {
        fill: #cf3339;
        opacity: 0.3;
      }
    </style>
  </defs>
  <g id="ico-menu-gadget" transform="translate(-843 -1221)">
    <g id="Symbol_350_7" data-name="Symbol 350 – 7" transform="translate(651 -1)">
      <rect id="Rectangle_2707" data-name="Rectangle 2707" class="cls-1" width="55" height="55" transform="translate(192 1222)"/>
    </g>
    <g id="Group_3424" data-name="Group 3424" transform="translate(859 1229)">
      <path id="Path_2080" data-name="Path 2080" class="cls-2" d="M19.1,39H4a2.946,2.946,0,0,1-3-3V4A2.946,2.946,0,0,1,4,1H19.1a2.946,2.946,0,0,1,3,3V36A3.009,3.009,0,0,1,19.1,39Z"/>
      <circle id="Ellipse_770" data-name="Ellipse 770" class="cls-3" cx="1.7" cy="1.7" r="1.7" transform="translate(9.9 32.4)"/>
      <path id="Path_2081" data-name="Path 2081" class="cls-3" d="M15.4,5.5H7.7A.472.472,0,0,1,7.2,5h0a.472.472,0,0,1,.5-.5h7.6a.472.472,0,0,1,.5.5h0C15.9,5.2,15.7,5.5,15.4,5.5Z"/>
    </g>
  </g>
</svg>
