<svg xmlns="http://www.w3.org/2000/svg" width="40" height="40" viewBox="0 0 40 40">
  <g id="Symbol_319_3" data-name="Symbol 319 – 3" transform="translate(-2804 -1132)">
    <rect id="Rectangle_2525" data-name="Rectangle 2525" width="40" height="40" transform="translate(2804 1132)" fill="#fff"/>
    <g id="Group_3278" data-name="Group 3278" transform="translate(2779.458 1137.518)" opacity="0.4">
      <path id="Path_1433" data-name="Path 1433" d="M44.42,3.929A9.262,9.262,0,0,1,49.14.837C54.021-.627,60.2,2.464,60.53,9.462A12.772,12.772,0,0,1,56.625,18.9c-2.115,2.115-4.394,4.068-6.672,6.021L45.56,28.826c-.325.325-.651.651-1.139.163-2.929-2.441-6.021-4.719-8.787-7.16-2.441-2.115-4.882-4.394-6.184-7.648a10.054,10.054,0,0,1,.651-9.6A9.115,9.115,0,0,1,42.793,2.464,14.672,14.672,0,0,0,44.42,3.929Z" transform="translate(0 0)" fill="none" stroke="#5b6670" stroke-miterlimit="10" stroke-width="1"/>
    </g>
  </g>
</svg>
