<svg xmlns="http://www.w3.org/2000/svg" width="55" height="55" viewBox="0 0 55 55">
  <g id="Group_3622" data-name="Group 3622" transform="translate(-1061 -1221)">
    <g id="Symbol_350_36" data-name="Symbol 350 – 36" transform="translate(869 -1)">
      <rect id="Rectangle_2707" data-name="Rectangle 2707" width="55" height="55" transform="translate(192 1222)" fill="none"/>
    </g>
    <g id="Group_3538" data-name="Group 3538" transform="translate(1067.896 1227.934)">
      <g id="Group_3538-2" data-name="Group 3538" transform="translate(10.025 2.995)">
        <path id="Path_2189" data-name="Path 2189" d="M34.933,30.918A18.063,18.063,0,0,0,8.82,6.563" transform="translate(-8.559 -2.68)" fill="none" stroke="#cf3339" stroke-linecap="round" stroke-linejoin="round" stroke-miterlimit="10" stroke-width="2"/>
        <path id="Path_2190" data-name="Path 2190" d="M8.6,12.384a13.786,13.786,0,1,1,20.745,17.86" transform="translate(-8.6 -2.005)" fill="none" stroke="#f08b8f" stroke-linecap="round" stroke-linejoin="round" stroke-miterlimit="10" stroke-width="2"/>
        <line id="Line_1630" data-name="Line 1630" x1="6.935" y2="6.935" transform="translate(13.525 19.867)" fill="none" stroke="#f08b8f" stroke-linecap="round" stroke-linejoin="round" stroke-miterlimit="10" stroke-width="2"/>
        <line id="Line_1631" data-name="Line 1631" x1="11.827" y2="11.827" transform="translate(7.873 13.989)" fill="none" stroke="#f08b8f" stroke-linecap="round" stroke-linejoin="round" stroke-miterlimit="10" stroke-width="2"/>
      </g>
      <path id="Path_2191" data-name="Path 2191" d="M11.68,33.587H32.414a5.9,5.9,0,0,0,5.9-5.9V26.64H26.69L24.73,28.528a3.567,3.567,0,0,1-2.47,1h-5a3.546,3.546,0,0,1-2.47-1L12.832,26.64H11.7" transform="translate(2.002 4.808)" fill="none" stroke="#cf3339" stroke-linecap="square" stroke-linejoin="round" stroke-miterlimit="10" stroke-width="2"/>
      <g id="Group_3540" data-name="Group 3540" transform="translate(1 0.998)">
        <g id="Group_3539" data-name="Group 3539">
          <path id="Path_2192" data-name="Path 2192" d="M11.652,37.661H1.617A.623.623,0,0,1,1,37.032V13.317a.613.613,0,0,1,.617-.617H11.652a.613.613,0,0,1,.617.617V37.032A.623.623,0,0,1,11.652,37.661Z" transform="translate(-1 1.196)" fill="none" stroke="#f08b8f" stroke-linecap="round" stroke-linejoin="round" stroke-miterlimit="10" stroke-width="2"/>
          <path id="Path_2193" data-name="Path 2193" d="M9.478,14.894H3.03V2.473A1.393,1.393,0,0,1,5.061,1.167L8.124,2.817A2.652,2.652,0,0,1,9.478,5.157Z" transform="translate(-0.619 -0.998)" fill="none" stroke="#f08b8f" stroke-linecap="round" stroke-linejoin="round" stroke-miterlimit="10" stroke-width="2"/>
        </g>
        <path id="Path_2194" data-name="Path 2194" d="M11.569,14.882H9.859V5.263A2.72,2.72,0,0,0,8.5,2.864l-3.064-1.7A1.4,1.4,0,0,0,3.411,2.508V14.882H1.7a.694.694,0,0,0-.7.7V39.154a.7.7,0,0,0,.7.7h9.868a.7.7,0,0,0,.7-.7V15.582A.694.694,0,0,0,11.569,14.882Z" transform="translate(-1 -0.998)" fill="none" stroke="#cf3339" stroke-linecap="round" stroke-linejoin="round" stroke-miterlimit="10" stroke-width="2"/>
      </g>
    </g>
  </g>
</svg>
