<svg xmlns="http://www.w3.org/2000/svg" viewBox="0 0 22.5 22.5">
  <defs>
    <style>
      .cls-1 {
        fill: none;
        stroke: #000;
        stroke-miterlimit: 10;
        stroke-width: 1.5px;
      }
    </style>
  </defs>
  <path id="ico-glob-link" class="cls-1" d="M11.5,1A10.5,10.5,0,1,1,1,11.5,10.484,10.484,0,0,1,11.5,1Zm0,0V21.934M1,11.5H21.934M18.9,4.17a11.265,11.265,0,0,1-7.4,2.377A11.138,11.138,0,0,1,4.1,4.17M18.9,18.764a11.138,11.138,0,0,0-7.4-2.377,11.138,11.138,0,0,0-7.4,2.377m7.264,3.1A12.574,12.574,0,0,1,6.151,11.5,12.451,12.451,0,0,1,11.368,1.2m.4,20.67A12.574,12.574,0,0,0,16.981,11.5,12.451,12.451,0,0,0,11.764,1.2" transform="translate(-0.25 -0.25)"/>
</svg>
