<svg xmlns="http://www.w3.org/2000/svg" width="55" height="55" viewBox="0 0 55 55">
  <g id="ico-menu-other" transform="translate(-1061 -1375)">
    <g id="Symbol_350_3" data-name="Symbol 350 – 3" transform="translate(869 153)">
      <rect id="Rectangle_2707" data-name="Rectangle 2707" width="55" height="55" transform="translate(192 1222)" fill="none"/>
    </g>
    <g id="Group_3560" data-name="Group 3560" transform="translate(4.412 -0.817)">
      <ellipse id="Ellipse_114" data-name="Ellipse 114" cx="3.166" cy="3.166" rx="3.166" ry="3.166" transform="translate(1070.35 1400.278)" fill="#f1c1c3"/>
      <path id="Path_1356" data-name="Path 1356" d="M1326.78,1231.208a3.929,3.929,0,1,1,3.93-3.929A3.933,3.933,0,0,1,1326.78,1231.208Zm0-6.332a2.4,2.4,0,1,0,2.4,2.4A2.405,2.405,0,0,0,1326.78,1224.876Z" transform="translate(-253.264 176.165)" fill="#cf3339"/>
      <ellipse id="Ellipse_115" data-name="Ellipse 115" cx="3.166" cy="3.166" rx="3.166" ry="3.166" transform="translate(1080.921 1400.278)" fill="#f1c1c3"/>
      <path id="Path_1357" data-name="Path 1357" d="M1340.631,1231.208a3.929,3.929,0,1,1,3.93-3.93A3.933,3.933,0,0,1,1340.631,1231.208Zm0-6.332a2.4,2.4,0,1,0,2.4,2.4A2.405,2.405,0,0,0,1340.631,1224.876Z" transform="translate(-256.544 176.166)" fill="#cf3339"/>
      <ellipse id="Ellipse_116" data-name="Ellipse 116" cx="3.166" cy="3.166" rx="3.166" ry="3.166" transform="translate(1091.491 1400.278)" fill="#f1c1c3"/>
      <path id="Path_1358" data-name="Path 1358" d="M1354.482,1231.208a3.929,3.929,0,1,1,3.93-3.93A3.933,3.933,0,0,1,1354.482,1231.208Zm0-6.332a2.4,2.4,0,1,0,2.4,2.4A2.405,2.405,0,0,0,1354.482,1224.876Z" transform="translate(-259.825 176.166)" fill="#cf3339"/>
    </g>
  </g>
</svg>
