<svg xmlns="http://www.w3.org/2000/svg" width="40" height="40" viewBox="0 0 40 40">
  <g id="ico-art-fav-bl" transform="translate(-22 -33)">
    <g id="Rectangle_3811" data-name="Rectangle 3811" transform="translate(22 33)" fill="none" stroke="rgba(112,112,112,0)" stroke-width="1">
      <rect width="40" height="40" stroke="none"/>
      <rect x="0.5" y="0.5" width="39" height="39" fill="none"/>
    </g>
    <g id="Group_3278" transform="translate(-2.542 38.518)">
      <path id="Path_1433" d="M44.4,3.9A9.287,9.287,0,0,1,49.1.8,8.99,8.99,0,0,1,60.5,9.5a12.242,12.242,0,0,1-3.9,9.4c-2.1,2.1-4.4,4.1-6.7,6l-4.4,3.9c-.3.3-.7.7-1.1.2-2.9-2.4-6-4.7-8.8-7.2-2.4-2.1-4.9-4.4-6.2-7.6a9.962,9.962,0,0,1,.7-9.6A9.109,9.109,0,0,1,42.8,2.5,10.7,10.7,0,0,0,44.4,3.9Z" fill="none" stroke="#000" stroke-miterlimit="10" stroke-width="1"/>
    </g>
  </g>
</svg>
