<svg xmlns="http://www.w3.org/2000/svg" width="55" height="55" viewBox="0 0 55 55">
  <g id="Group_3623" data-name="Group 3623" transform="translate(-1168 -1221)">
    <g id="Symbol_350_37" data-name="Symbol 350 – 37" transform="translate(976 -1)">
      <rect id="Rectangle_2707" data-name="Rectangle 2707" width="55" height="55" transform="translate(192 1222)" fill="none"/>
    </g>
    <g id="Group_3542" data-name="Group 3542" transform="translate(1177.525 1229.531)">
      <rect id="Rectangle_2754" data-name="Rectangle 2754" width="4.705" height="12.211" transform="translate(21.112 12.569) rotate(45)" stroke-width="2" stroke="#f08b8f" stroke-linecap="round" stroke-linejoin="round" stroke-miterlimit="10" fill="none"/>
      <g id="Group_3542-2" data-name="Group 3542" transform="translate(15.074 1)">
        <path id="Path_2195" data-name="Path 2195" d="M18.384,2.925h0a2.262,2.262,0,0,0,0,3.187l8.93,8.93a2.262,2.262,0,0,0,3.187,0h0a2.262,2.262,0,0,0,0-3.187l-8.93-8.93A2.241,2.241,0,0,0,18.384,2.925Z" transform="translate(-12.276 -0.789)" fill="none" stroke="#cf3338" stroke-linecap="round" stroke-linejoin="round" stroke-miterlimit="10" stroke-width="2"/>
        <path id="Path_2196" data-name="Path 2196" d="M22.5,1.665h0a2.262,2.262,0,0,0,0,3.187L28.1,10.444a2.262,2.262,0,0,0,3.187,0h0a2.262,2.262,0,0,0,0-3.187L25.691,1.665A2.241,2.241,0,0,0,22.5,1.665Z" transform="translate(-11.586 -1)" fill="none" stroke="#cf3338" stroke-linecap="round" stroke-linejoin="round" stroke-miterlimit="10" stroke-width="2"/>
        <path id="Path_2197" data-name="Path 2197" d="M13.714,3.675h0a2.262,2.262,0,0,0,0,3.187L27.221,20.369a2.262,2.262,0,0,0,3.187,0h0a2.262,2.262,0,0,0,0-3.187L16.9,3.675A2.241,2.241,0,0,0,13.714,3.675Z" transform="translate(-13.057 -0.664)" fill="none" stroke="#cf3338" stroke-linecap="round" stroke-linejoin="round" stroke-miterlimit="10" stroke-width="2"/>
      </g>
      <g id="Group_3543" data-name="Group 3543" transform="translate(1.008 15.076)">
        <path id="Path_2198" data-name="Path 2198" d="M15.041,30.5h0a2.262,2.262,0,0,0,0-3.187l-8.93-8.93a2.262,2.262,0,0,0-3.187,0h0a2.262,2.262,0,0,0,0,3.187l8.93,8.93A2.241,2.241,0,0,0,15.041,30.5Z" transform="translate(-0.797 -12.276)" fill="none" stroke="#cf3338" stroke-linecap="round" stroke-linejoin="round" stroke-miterlimit="10" stroke-width="2"/>
        <path id="Path_2199" data-name="Path 2199" d="M10.443,31.283h0a2.262,2.262,0,0,0,0-3.187L4.851,22.5a2.262,2.262,0,0,0-3.187,0h0a2.262,2.262,0,0,0,0,3.187l5.592,5.592A2.241,2.241,0,0,0,10.443,31.283Z" transform="translate(-1.008 -11.586)" fill="none" stroke="#cf3338" stroke-linecap="round" stroke-linejoin="round" stroke-miterlimit="10" stroke-width="2"/>
        <path id="Path_2200" data-name="Path 2200" d="M20.368,30.408h0a2.262,2.262,0,0,0,0-3.187L6.861,13.714a2.262,2.262,0,0,0-3.187,0h0a2.262,2.262,0,0,0,0,3.187L17.181,30.408A2.241,2.241,0,0,0,20.368,30.408Z" transform="translate(-0.671 -13.057)" fill="none" stroke="#cf3338" stroke-linecap="round" stroke-linejoin="round" stroke-miterlimit="10" stroke-width="2"/>
      </g>
    </g>
  </g>
</svg>
