<svg xmlns="http://www.w3.org/2000/svg" viewBox="0 0 55 55">
  <defs>
    <style>
      .cls-1, .cls-2, .cls-4, .cls-5, .cls-7 {
        fill: none;
      }

      .cls-1, .cls-2, .cls-3, .cls-4, .cls-5 {
        stroke: #cf3339;
        stroke-miterlimit: 10;
        stroke-width: 2px;
      }

      .cls-2, .cls-4, .cls-6 {
        opacity: 0.3;
      }

      .cls-3 {
        fill: #fff;
      }

      .cls-4, .cls-5 {
        stroke-linecap: round;
      }
    </style>
  </defs>
  <g id="ico-menu-health" transform="translate(10 7)">
    <path id="Path_2082" data-name="Path 2082" class="cls-1" d="M1,17.4a16.4,16.4,0,0,1,32.8,0"/>
    <path id="Path_2083" data-name="Path 2083" class="cls-1" d="M33.8,17.4A16.4,16.4,0,0,1,1,17.4"/>
    <circle id="Ellipse_771" data-name="Ellipse 771" class="cls-2" cx="12.5" cy="12.5" r="12.5" transform="translate(4.9 4.9)"/>
    <path id="Path_2084" data-name="Path 2084" class="cls-3" d="M11.9,28.7h-.3V24.4a.684.684,0,0,0-.7-.7h-.3V17.2a1.981,1.981,0,0,0-1-1.8L7.3,14.1a1.041,1.041,0,0,0-1.5,1v8.6H5.5a.684.684,0,0,0-.7.7v4.3H4.5a.648.648,0,0,0-.5.6V39.5a.536.536,0,0,0,.5.5h7.4a.472.472,0,0,0,.5-.5V29.3A.5.5,0,0,0,11.9,28.7Z"/>
    <line id="Line_1594" data-name="Line 1594" class="cls-4" x1="6.3" y2="6.3" transform="translate(18.9 19.5)"/>
    <line id="Line_1595" data-name="Line 1595" class="cls-4" x1="3.7" y2="3.6" transform="translate(20.9 14.2)"/>
    <line id="Line_1596" data-name="Line 1596" class="cls-5" y2="6.2" transform="translate(17.4 33.8)"/>
    <line id="Line_1597" data-name="Line 1597" class="cls-5" x2="9.9" transform="translate(12.5 40)"/>
    <g id="Group_3425" data-name="Group 3425" class="cls-6">
      <path id="Path_2085" data-name="Path 2085" class="cls-1" d="M11.9,40H4.5a.536.536,0,0,1-.5-.5V29.3a.472.472,0,0,1,.5-.5h7.4a.472.472,0,0,1,.5.5V39.5C12.5,39.8,12.2,40,11.9,40Z"/>
      <path id="Path_2086" data-name="Path 2086" class="cls-1" d="M11.7,28.7H4.8V24.4a.684.684,0,0,1,.7-.7H11a.684.684,0,0,1,.7.7Z"/>
      <path id="Path_2087" data-name="Path 2087" class="cls-1" d="M10.7,23.8H5.8V15.2a1.041,1.041,0,0,1,1.5-1l2.3,1.3a1.981,1.981,0,0,1,1,1.8v6.5Z"/>
    </g>
    <g id="Symbol_350_10" data-name="Symbol 350 – 10" transform="translate(-202 -1229)">
      <rect id="Rectangle_2707" data-name="Rectangle 2707" class="cls-7" width="55" height="55" transform="translate(192 1222)"/>
    </g>
  </g>
</svg>
