<svg xmlns="http://www.w3.org/2000/svg" viewBox="0 0 55 55">
  <defs>
    <style>
      .cls-1, .cls-3, .cls-5, .cls-6 {
        fill: none;
      }

      .cls-2, .cls-6 {
        opacity: 0.3;
      }

      .cls-3, .cls-4, .cls-5, .cls-6 {
        stroke: #cf3339;
        stroke-linejoin: round;
        stroke-miterlimit: 10;
        stroke-width: 2px;
      }

      .cls-3, .cls-4, .cls-6 {
        stroke-linecap: round;
      }

      .cls-4 {
        fill: #fff;
      }
    </style>
  </defs>
  <g id="ico-menu-donate" transform="translate(-843 -1375)">
    <g id="Symbol_350_16" data-name="Symbol 350 – 16" transform="translate(651 153)">
      <rect id="Rectangle_2707" data-name="Rectangle 2707" class="cls-1" width="55" height="55" transform="translate(192 1222)"/>
    </g>
    <g id="Group_3411" data-name="Group 3411" transform="translate(850 1383)">
      <g id="Group_3410" data-name="Group 3410">
        <g id="Group_3408" data-name="Group 3408" class="cls-2">
          <path id="Path_2056" data-name="Path 2056" class="cls-3" d="M4.1,26.3H9.8a20.083,20.083,0,0,1,6.7-3.7L21.9,21a2.66,2.66,0,0,1,3.3,1.7h0a2.611,2.611,0,0,1-1.4,3.2l-3.3,1.5h0a7.67,7.67,0,0,0,4.4,1.4h6.4a7.111,7.111,0,0,0,3.2-.7l2.6-1.2A2.2,2.2,0,0,1,40,28h0a2.272,2.272,0,0,1-.9,2.9h0a34.281,34.281,0,0,1-10.8,4l-3.2.6a41.144,41.144,0,0,1-7.8.7H9.1a40.322,40.322,0,0,1-6-.4Z"/>
          <path id="Path_2057" data-name="Path 2057" class="cls-3" d="M32.9,28.6l.5-2.2a2,2,0,0,0-2-2.4h0a2.051,2.051,0,0,0-1.9,1.3l-1.3,3.4"/>
          <path id="Path_2058" data-name="Path 2058" class="cls-4" d="M3.4,37.2H5.3a2.433,2.433,0,0,0,2.4-2.4V27a2.433,2.433,0,0,0-2.4-2.4H3.4A2.433,2.433,0,0,0,1,27v7.9A2.416,2.416,0,0,0,3.4,37.2Z"/>
        </g>
        <g id="Group_3409" data-name="Group 3409">
          <path id="Path_2059" data-name="Path 2059" class="cls-3" d="M40.1,28a2.2,2.2,0,0,0-2.9-1.1l-2.6,1.2a7.111,7.111,0,0,1-3.2.7H25a7.67,7.67,0,0,1-4.4-1.4l3.3-1.5a2.7,2.7,0,0,0,1.4-3.2A2.66,2.66,0,0,0,22,21l-5.4,1.6a18.316,18.316,0,0,0-6.7,3.7H7.6a1.943,1.943,0,0,0-1.9-1.7H3a2.006,2.006,0,0,0-2,2v8.7a2.006,2.006,0,0,0,2,2H5.7a1.975,1.975,0,0,0,1.8-1.2h10a41.144,41.144,0,0,0,7.8-.7l3.2-.6a32.812,32.812,0,0,0,10.8-4A2.183,2.183,0,0,0,40.1,28Z"/>
        </g>
      </g>
      <path id="Path_2060" data-name="Path 2060" class="cls-5" d="M21.5,16a28.582,28.582,0,0,1-5.1-4.1q-3-3.15-3-6a4.8,4.8,0,0,1,4.8-4.8,5.45,5.45,0,0,1,2.2.5,3.805,3.805,0,0,1,1.3.9l.1.1.1-.1a3.805,3.805,0,0,1,1.3-.9,3.379,3.379,0,0,1,2-.6A4.8,4.8,0,0,1,30,5.8q0,2.85-3,6a27.663,27.663,0,0,1-5.1,4.1l-.2.1Z"/>
      <path id="Path_2061" data-name="Path 2061" class="cls-6" d="M26.3,5.4c.5,1.6-1.1,3.8-2.7,4.2"/>
    </g>
  </g>
</svg>
