<svg xmlns="http://www.w3.org/2000/svg" width="55" height="55" viewBox="0 0 55 55">
  <g id="Group_3629" data-name="Group 3629" transform="translate(-735 -1375)">
    <g id="Symbol_350_43" data-name="Symbol 350 – 43" transform="translate(543 153)">
      <rect id="Rectangle_2707" data-name="Rectangle 2707" width="55" height="55" transform="translate(192 1222)" fill="none"/>
    </g>
    <g id="Group_3551" data-name="Group 3551" transform="translate(746 1386)">
      <path id="Path_2210" data-name="Path 2210" d="M12.6,24.394V20.726l-7.052-5.9L9.081,10.52h7.357V6.285l-1.6-1.745,5.108-3.09" transform="translate(0.232 0.023)" fill="none" stroke="#f08b8f" stroke-linecap="round" stroke-linejoin="round" stroke-miterlimit="10" stroke-width="2"/>
      <path id="Path_2211" data-name="Path 2211" d="M18.89,12.7l3.321-2.575h2.911V7.63l1.913-1.64" transform="translate(0.913 0.255)" fill="none" stroke="#f08b8f" stroke-linecap="round" stroke-linejoin="round" stroke-miterlimit="10" stroke-width="2"/>
      <path id="Path_2212" data-name="Path 2212" d="M19.214,31.49a15.834,15.834,0,0,1-2.838.263A15.365,15.365,0,1,1,30.691,22" fill="none" stroke="#cf3339" stroke-linecap="round" stroke-linejoin="round" stroke-miterlimit="10" stroke-width="2"/>
      <path id="Path_2213" data-name="Path 2213" d="M23.624,16.3l2.386,4.835,5.329.767-3.857,3.763.914,5.308-4.772-2.5-4.772,2.5.914-5.308L15.91,21.9l5.329-.767Z" transform="translate(0.761 0.781)" fill="none" stroke="#cf3339" stroke-linecap="round" stroke-linejoin="round" stroke-miterlimit="10" stroke-width="2"/>
    </g>
  </g>
</svg>
