<svg xmlns="http://www.w3.org/2000/svg" viewBox="0 0 55 55">
  <defs>
    <style>
      .cls-1 {
        fill: none;
      }

      .cls-2 {
        fill: #cf3339;
      }

      .cls-3 {
        fill: #f1c1c3;
      }

      .cls-4 {
        fill: #fff;
      }
    </style>
  </defs>
  <g id="ico-menu-city" transform="translate(-625 -1375)">
    <g id="Symbol_350_12" data-name="Symbol 350 – 12" transform="translate(433 153)">
      <rect id="Rectangle_2707" data-name="Rectangle 2707" class="cls-1" width="55" height="55" transform="translate(192 1222)"/>
    </g>
    <g id="Group_3430" data-name="Group 3430" transform="translate(639 1380)">
      <g id="Group_3429" data-name="Group 3429">
        <g id="Group_3428" data-name="Group 3428">
          <g id="Group_3427" data-name="Group 3427">
            <path id="Path_2088" data-name="Path 2088" class="cls-2" d="M9.7,2c.2.2.4.3.6.5s.3.4.2.6v.8c0,.5.2.7.6.7H12c.2,0,.4.1.4.3a13.552,13.552,0,0,1,.2,2c0,.6-.1,1.2-.1,1.8a1.136,1.136,0,0,1-.3.8c-.1.1-.2.3-.3.4a.471.471,0,0,0,.1.6.367.367,0,0,0,.3.1.756.756,0,0,0,.4-.1c.6-.4,1.2-.9,1.8-1.3A.551.551,0,0,1,15,9a.367.367,0,0,1,.3.1,2.994,2.994,0,0,1,.8.4c.1,0,.2.1.3.1h.2a2.353,2.353,0,0,1,.8-.2,1,1,0,0,0,.5-.4,2.092,2.092,0,0,1,.4-.6c0-.4.2-.4.3-.4h.2l1.2.3c.1,0,.2.1.3.2.6.5,1.1,1,1.7,1.5a.984.984,0,0,1,.3.8,16.2,16.2,0,0,0-.1,2.2c0,.2,0,.4.2.5.8.8,1.6,1.7,2.4,2.5v.3c0,.1-.1.1-.1.2a20.024,20.024,0,0,1-.4,2.4c0,.2-.1.3-.3.4s-.5.2-.7.3c-.1,0-.2.1-.3.1h0c-1.5,0-3-.1-4.4-.1h0a1.421,1.421,0,0,0-.6.2c-.7.6-1.4,1.3-2.1,1.9-.2.2-.3.4-.2.6.1.6.3,1.2.4,1.8,0,.2.2.3.3.5a1.38,1.38,0,0,1,.3.4.637.637,0,0,1,0,.6c-.1.2-.3.3-.4.5a.367.367,0,0,1-.3.1.758.758,0,0,1-.4-.2c-.3-.4-.7-.7-1-1.1a.764.764,0,0,0-.5-.2c-.7-.1-.6-.4-.6-.7V22.2a.53.53,0,0,0-.6-.6,2.769,2.769,0,0,1-.9-.1h0a6.785,6.785,0,0,0-2.5.9A1.656,1.656,0,0,0,9,23.7a22.6,22.6,0,0,1,.1,2.6.749.749,0,0,1-.1.5,39.471,39.471,0,0,1-2.3,4.6.749.749,0,0,0-.1.5c.1.5.2,1.1.3,1.6.1.3.3.5.5.5h.2c.2,0,.3-.1.5-.1h.2a.758.758,0,0,1,.4.2,1.82,1.82,0,0,1,.4,1.1c0,.8,0,.8.6,1.4a.349.349,0,0,1,.1.2,1.623,1.623,0,0,1,.5.9,17.417,17.417,0,0,0,.5,2.2c0,.1.1.3.2.3.3.2.5.4.8.6.1.1.2.1.4.1h.2c.1,0,.3-.1.4-.1h0a.6.6,0,0,1,.4.1c.5.5,1,.9,1.5,1.4.2.2.2.3.1.5-.1.3-.3.6-.4.9-.1.2-.2.3-.4.3a.367.367,0,0,1-.3-.1,2.6,2.6,0,0,0-.7-.3,2,2,0,0,0-.8.3c-.1,0-.2.1-.3.1-.1-.4-.4-.7-.3-1.1v-.3a.55.55,0,0,0-.3-.5c-.4-.2-.8-.5-1.2-.7-.3-.1-.6-.1-.9-.2a.55.55,0,0,1-.5-.3c-.9-1.1-1.8-2.3-2.7-3.4a5.547,5.547,0,0,0-.6-.8l-.1-.1-.1.1-.3.9a.1.1,0,0,1-.1.1H4.7c-.7.1-.7.1-.7-.5A16.152,16.152,0,0,1,4,35a3.81,3.81,0,0,1,.3-1c.5-1.3.9-2.7,1.4-4,0-.1.1-.2.2-.4.6-.9,1.3-1.7,1.9-2.6a.592.592,0,0,0,.1-.7,8.331,8.331,0,0,1-.4-1.5,2.075,2.075,0,0,0-.6-1,1.374,1.374,0,0,1-.4-1.2,5.7,5.7,0,0,0,.1-1.3.764.764,0,0,0-.2-.5c-.7-.7-1.4-1.4-2-2.1a.764.764,0,0,1-.2-.5c0-.3-.1-.6-.1-.9a.548.548,0,0,1,.4-.6h.2c.3-.1.4-.2.4-.5V15.1a.55.55,0,0,1,.3-.5c.1,0,.1-.1.2-.1a.847.847,0,0,0,.3-.9.349.349,0,0,0-.2-.1H5.2c-.1,0-.1-.1-.1-.2v-.6a1.421,1.421,0,0,0-.2-.6c-.7-.8-1.3-1.5-2-2.3-.2,0-.3-.2-.3-.4a1.952,1.952,0,0,0-.1-.7,1.905,1.905,0,0,0-.5-1V7.4l.1-.1a20.035,20.035,0,0,1,1-2.6c.1-.2.2-.4.5-.4h.3c.6,0,1.2-.1,1.8-.1.4,0,.6-.2.6-.5a.472.472,0,0,1,.5-.5h.5a.472.472,0,0,0,.5-.5V2.5a.55.55,0,0,1,.5-.3,2.509,2.509,0,0,1,1-.2h.4m0-2h-1a2.2,2.2,0,0,0-.8.1A2.4,2.4,0,0,0,6,1.2a3.072,3.072,0,0,0-1.5,1H3.3A3.051,3.051,0,0,0,1.1,4,24.13,24.13,0,0,1,.3,6.5a1.689,1.689,0,0,0-.3,1v.3A2.016,2.016,0,0,0,.3,8.9a.215.215,0,0,1,.2.2h0v.3a2.5,2.5,0,0,0,.8,1.8c.3.4.7.8,1,1.2.2.3.5.5.7.8v.2a1.445,1.445,0,0,0,.2.7,1.412,1.412,0,0,0-.1.9v.1a2.345,2.345,0,0,0-1,2.2v.2a2.769,2.769,0,0,0,.1.9,2.875,2.875,0,0,0,.7,1.5c.6.6,1.1,1.2,1.7,1.8v.6a3.218,3.218,0,0,0,.9,2.9l.1.1.3.9c-.5.7-1,1.4-1.6,2.1a3,3,0,0,0-.6,1.1c-.5,1.4-.9,2.7-1.4,4.1l-.1.2A9.012,9.012,0,0,0,2,35v2.3a2.288,2.288,0,0,0,2.3,2.6h.8c.6.8,1.3,1.6,1.9,2.4a2.936,2.936,0,0,0,1.9,1.1h.4c.1,0,.1.1.2.1a4.329,4.329,0,0,0,.4,1.1.1.1,0,0,0,.1.1,1.981,1.981,0,0,0,1.1,1.1,1.7,1.7,0,0,0,.7.1,2.92,2.92,0,0,0,.9-.2h.1l.1-.1a3.553,3.553,0,0,0,1,.2,2.388,2.388,0,0,0,2.2-1.5,4.179,4.179,0,0,0,.4-1,2.622,2.622,0,0,0-.5-2.8l-.2-.2A17.877,17.877,0,0,0,14.4,39a2.352,2.352,0,0,0-1.7-.6h-.3l-.3-1.5a4.087,4.087,0,0,0-1-2l-.1-.1h0a3.652,3.652,0,0,0-.8-2.3,2.43,2.43,0,0,0-1.4-.9c.7-1.3,1.3-2.6,1.9-3.8l.2-.3a3.194,3.194,0,0,0,.3-1.4,19.269,19.269,0,0,0-.1-2.4c.1,0,.2-.1.4-.1v.3a2.586,2.586,0,0,0,1.8,2.6c.1.2.3.3.4.5l.3.3a2.732,2.732,0,0,0,1.9.8,2.342,2.342,0,0,0,1.7-.7l.6-.6a2.549,2.549,0,0,0,.1-3.1c-.1-.1-.1-.2-.2-.3l-.1.1v-.1c-.1-.3-.1-.5-.2-.8.4-.3.8-.7,1.2-1,1.3,0,2.7.1,4,.1h.1a2.958,2.958,0,0,0,1-.2c.3-.1.5-.2.8-.3H25a2.817,2.817,0,0,0,1.5-2l.3-2.1a1.884,1.884,0,0,0,.2-.8V16a1.974,1.974,0,0,0-.6-1.4l-.7-.6-1.4-1.5v-.4a4.869,4.869,0,0,1,.1-1.2,2.8,2.8,0,0,0-1-2.4l-.9-.9a4.62,4.62,0,0,1-.7-.7,2.281,2.281,0,0,0-1.2-.6L19.4,6h-.8a2.583,2.583,0,0,0-2.1,1.2l-.1.1a.1.1,0,0,1-.1.1c-.1,0-.1-.1-.2-.1A2.016,2.016,0,0,0,15,7h-.3V6.8A11.019,11.019,0,0,0,14.5,5l-.1-.4a2.333,2.333,0,0,0-1.9-2A2.6,2.6,0,0,0,11.6,1a1.38,1.38,0,0,0-.4-.3L11,.5A1.9,1.9,0,0,0,9.7,0Z"/>
          </g>
        </g>
      </g>
      <path id="Path_2089" data-name="Path 2089" class="cls-3" d="M22.5,6.7c0,3.3-5.9,10.7-5.9,10.7S10.7,10,10.7,6.7a5.9,5.9,0,1,1,11.8,0Z"/>
      <circle id="Ellipse_772" data-name="Ellipse 772" class="cls-4" cx="2.6" cy="2.6" r="2.6" transform="translate(14 3.5)"/>
    </g>
  </g>
</svg>
