<?xml version="1.0" standalone="no"?>
<!DOCTYPE svg PUBLIC "-//W3C//DTD SVG 1.1//EN" "http://www.w3.org/Graphics/SVG/1.1/DTD/svg11.dtd" >
<svg xmlns="http://www.w3.org/2000/svg">
<metadata></metadata>
<defs>
<font id="sukhumvit_tadmaimedium" horiz-adv-x="0" >
<font-face units-per-em="2048" ascent="1536" descent="-512" />
<missing-glyph horiz-adv-x="512" />
<glyph unicode="&#xe2f;&#xe2f;" horiz-adv-x="1523" d="M1366 0h-176v856q-55 -116 -223 -188v-668h-176v856q-41 -87 -143 -139.5t-222 -52.5q-92 0 -159.5 30t-107.5 86t-58.5 128.5t-18.5 164.5v74h172v-76q0 -135 51 -201.5t160 -66.5q77 0 155.5 45.5t128.5 119t50 148.5v31h168v-342q93 42 162 132t69 179v31h168v-1147z " />
<glyph unicode="&#xe4f;&#x22;" horiz-adv-x="1118" d="M559 53q-119 0 -219.5 59.5t-158.5 160.5t-58 219q0 182 127.5 309t308.5 127t308.5 -127t127.5 -309q0 -118 -58 -219t-158.5 -160.5t-219.5 -59.5zM559 123q154 0 261.5 107.5t107.5 261.5t-107.5 261t-261.5 107t-261.5 -107t-107.5 -261t107.5 -261.5t261.5 -107.5z M559 240q-106 0 -180 72.5t-74 176.5q0 106 74 180t178 74q106 0 180 -73.5t74 -177.5q0 -105 -74.5 -178.5t-177.5 -73.5zM559 344q60 0 101.5 42.5t41.5 105.5q0 60 -42 101.5t-103 41.5q-60 0 -102.5 -43t-42.5 -103t43 -102.5t104 -42.5zM477 989h-96l-21 416h138z M737 989h-96l-20 416h137z" />
<glyph unicode="&#xe24;&#xe32;" horiz-adv-x="1949" d="M1796 -410h-176v1133q0 145 -72.5 219t-204.5 74q-178 0 -286 -113q30 -79 30 -180v-1133h-176v1133q0 146 -76 219.5t-219 73.5q-119 0 -210.5 -51t-124.5 -131l145 -127v-35q-94 -46 -94 -164v-307q0 -27 10 -40.5t37 -13.5h110v-147h-157q-83 0 -129.5 51t-46.5 133 v303q0 62 28 113.5t82 79.5l-168 143q35 139 180.5 241.5t337.5 102.5q238 0 361 -135q173 135 377 135q208 0 325 -122.5t117 -321.5v-1133z" />
<glyph unicode="&#xe26;&#xe32;" horiz-adv-x="1959" d="M1806 -410h-176v1133q0 145 -72 219t-204 74q-174 0 -283 -109q33 -76 33 -184v-1133h-176v1133q0 146 -75 219.5t-218 73.5q-122 0 -214.5 -49.5t-123.5 -128.5l166 -144v-35q-90 -64 -90 -167v-308q0 -82 -47 -133.5t-129 -50.5h-136v147h89q27 0 37 13.5t10 40.5v272 q0 62 29 115t81 78l-188 157q36 139 179.5 241.5t336.5 102.5q228 0 356 -131q167 131 373 131q208 0 325 -122.5t117 -321.5v-1133z" />
<glyph unicode="fi" horiz-adv-x="1120" d="M961 0h-173v850h-432v-850h-168v850h-151v139h151v33q0 178 94 278.5t279 100.5q145 0 252 -58l-39 -124q-76 43 -205 43q-113 0 -163 -62t-50 -180v-31h605v-989z" />
<glyph unicode="fl" horiz-adv-x="1181" d="M1022 0h-172v1165q-105 97 -240 97q-117 0 -185.5 -65t-68.5 -177v-31h285v-139h-285v-850h-168v850h-151v139h151v33q0 161 108 270t265 109q168 0 289 -113l20 92h152v-1380z" />
<glyph unicode="&#xd;" horiz-adv-x="399" />
<glyph unicode=" "  horiz-adv-x="512" />
<glyph unicode="&#x09;" horiz-adv-x="512" />
<glyph unicode="&#xa0;" horiz-adv-x="512" />
<glyph unicode="!" horiz-adv-x="520" d="M328 385h-135l-23 680v315h180v-315zM385 102q0 -53 -33.5 -87.5t-91.5 -34.5t-91.5 34.5t-33.5 87.5t33.5 88t91.5 35t91.5 -35t33.5 -88z" />
<glyph unicode="&#x22;" horiz-adv-x="692" d="M250 926h-111l-24 483h159zM553 926h-111l-24 483h160z" />
<glyph unicode="#" horiz-adv-x="1171" d="M727 0h-143l88 410h-283l-88 -410h-143l88 410h-189v122h215l58 267h-189v123h215l88 409h144l-88 -409h282l88 409h144l-88 -409h188v-123h-215l-57 -267h188v-122h-215zM700 530l58 271h-287l-57 -271h286z" />
<glyph unicode="$" horiz-adv-x="1171" d="M637 -205h-115v185q-217 0 -370 75l43 142q135 -64 327 -64v479q-45 15 -73 25.5t-71.5 30t-71 38.5t-60 48.5t-51 62.5t-31 78.5t-12.5 97.5q0 148 91 241.5t279 113.5v188h115v-184q172 -9 301 -72l-41 -141q-120 50 -260 59v-455q63 -21 107 -39.5t99 -52.5 t88.5 -72.5t57 -97t23.5 -129.5q0 -160 -98.5 -250t-276.5 -114v-193zM637 575v-432q101 18 159 71t58 142q0 83 -56 132.5t-161 86.5zM522 784v408q-108 -13 -161.5 -64t-53.5 -131q0 -44 15.5 -78t47.5 -58.5t66.5 -41.5t85.5 -35z" />
<glyph unicode="%" horiz-adv-x="1589" d="M492 0h-144l750 1352h143zM377 743q76 0 113.5 71.5t37.5 174.5q0 105 -37.5 177.5t-113.5 72.5t-114 -72.5t-38 -175.5q0 -67 14.5 -121t50 -90.5t87.5 -36.5zM377 631q-137 0 -214 102.5t-77 257.5t77 258t214 103q135 0 213 -103.5t78 -257.5t-78 -257t-213 -103z M1212 92q76 0 114 71.5t38 174.5q0 104 -38 177t-114 73t-113.5 -72.5t-37.5 -175.5q0 -105 37.5 -176.5t113.5 -71.5zM1212 -20q-137 0 -213.5 102.5t-76.5 257.5t76.5 257.5t213.5 102.5q135 0 213 -103t78 -257t-78 -257t-213 -103z" />
<glyph unicode="&#x26;" horiz-adv-x="1298" d="M1233 0h-193l-77 92q-156 -112 -367 -112q-117 0 -207.5 30.5t-146 85.5t-83.5 125.5t-28 155.5q0 68 20.5 127t60.5 107t82 84.5t101 76.5l-16 21q-70 83 -104.5 151.5t-34.5 142.5q0 148 87 231t251 83q168 0 248.5 -83t80.5 -220q0 -35 -9.5 -68t-21.5 -58t-39 -54.5 t-45 -47.5t-56.5 -46.5t-58 -41.5t-63.5 -43l344 -411q72 123 72 280v109h172v-109q0 -243 -133 -411zM856 219l-362 434q-86 -63 -132.5 -126.5t-46.5 -143.5q0 -115 74 -177.5t211 -62.5q155 0 256 76zM508 868l12 -16q105 63 162 121.5t57 128.5q0 73 -40 114t-124 41 q-80 0 -124.5 -40.5t-44.5 -118.5q0 -117 102 -230z" />
<glyph unicode="'" horiz-adv-x="389" d="M250 926h-111l-24 483h159z" />
<glyph unicode="(" horiz-adv-x="612" d="M592 -195l-41 -75q-86 50 -157.5 125.5t-129 179.5t-89.5 243.5t-32 301.5t32 301.5t89.5 243.5t129 179.5t157.5 125.5l41 -76q-142 -94 -217.5 -304t-75.5 -470q0 -262 75.5 -471.5t217.5 -303.5z" />
<glyph unicode=")" horiz-adv-x="612" d="M61 -270l-41 75q142 94 217.5 303.5t75.5 471.5q0 260 -75.5 470t-217.5 304l41 76q86 -50 157.5 -125.5t129 -179.5t89.5 -243.5t32 -301.5t-32 -301.5t-89.5 -243.5t-129 -179.5t-157.5 -125.5z" />
<glyph unicode="*" horiz-adv-x="1040" d="M918 752l-113 -109l-223 221l-15 -2l37 -334h-168l39 334l-14 2l-223 -221l-115 109l285 192v17l-285 188l115 111l223 -220l14 4l-39 336h168l-37 -336l15 -4l223 220l113 -111l-285 -188v-17z" />
<glyph unicode="+" horiz-adv-x="1171" d="M664 147h-156v365h-356v139h356v365h156v-365h356v-139h-356v-365z" />
<glyph unicode="," horiz-adv-x="495" d="M213 -256h-107l62 473h201z" />
<glyph unicode="-" horiz-adv-x="663" d="M602 481h-541v140h541v-140z" />
<glyph unicode="." horiz-adv-x="495" d="M373 102q0 -53 -33.5 -87.5t-91.5 -34.5t-91.5 34.5t-33.5 87.5t33.5 88t91.5 35t91.5 -35t33.5 -88z" />
<glyph unicode="/" horiz-adv-x="759" d="M158 -82h-138l582 1462h137z" />
<glyph unicode="0" horiz-adv-x="1171" d="M586 127q311 0 311 539q0 538 -311 538q-312 0 -312 -538q0 -539 312 -539zM586 -20q-232 0 -360 180t-128 506t128 506t360 180t359.5 -180t127.5 -506t-127.5 -506t-359.5 -180z" />
<glyph unicode="1" horiz-adv-x="1171" d="M1012 0h-815v160h325v1007l-282 -90v144l311 110h147v-1171h314v-160z" />
<glyph unicode="2" horiz-adv-x="1171" d="M1024 0h-897v133l332 336q73 75 104.5 108t82 89.5t71 87.5t45 75t33 82t8.5 80q0 100 -68.5 150.5t-189.5 50.5q-159 0 -318 -74l-45 148q176 86 365 86q216 0 324 -95.5t108 -265.5q0 -80 -29.5 -159.5t-89.5 -160.5t-121 -147t-155 -155l-215 -205h655v-164z" />
<glyph unicode="3" horiz-adv-x="1171" d="M127 61l45 144q144 -70 338 -70q154 0 231.5 64.5t77.5 177.5q0 115 -76.5 174t-210.5 59h-194v148h194q112 0 180 61.5t68 175.5q0 201 -299 201q-172 0 -307 -66l-45 144q160 78 363 78q233 0 346.5 -98t113.5 -257q0 -120 -52 -191.5t-146 -113.5q109 -31 173 -111.5 t64 -205.5q0 -183 -125 -289t-354 -106q-230 0 -385 81z" />
<glyph unicode="4" horiz-adv-x="1171" d="M754 401v652l-461 -652h461zM922 0h-172v254h-656v121l682 956h146v-930h155v-147h-155v-254z" />
<glyph unicode="5" horiz-adv-x="1171" d="M123 61l45 144q144 -70 342 -70q161 0 247.5 77t86.5 198q0 134 -77 203t-249 69h-336v121l51 528h705v-164h-553l-31 -325h166q243 0 371.5 -113t128.5 -317q0 -201 -135.5 -316.5t-372.5 -115.5q-234 0 -389 81z" />
<glyph unicode="6" horiz-adv-x="1171" d="M301 592q0 -214 92 -339.5t228 -125.5q124 0 198 86t74 238q0 128 -58.5 205t-191.5 77q-106 0 -193.5 -39.5t-148.5 -101.5zM963 1274l-43 -135q-115 65 -256 65q-167 0 -264 -124t-101 -351q56 62 150 108t219 46q177 0 289 -118.5t112 -318.5q0 -201 -123.5 -333.5 t-324.5 -132.5q-238 0 -368 171t-130 500q0 332 146 516.5t390 184.5q165 0 304 -78z" />
<glyph unicode="7" horiz-adv-x="1171" d="M465 0h-184l553 1171h-687v160h889v-117z" />
<glyph unicode="8" horiz-adv-x="1171" d="M881 365q0 124 -71.5 184.5t-223.5 60.5t-223.5 -60.5t-71.5 -184.5q0 -111 78.5 -176.5t216.5 -65.5t216.5 65.5t78.5 176.5zM803 692q105 -21 177.5 -112.5t72.5 -219.5q0 -177 -124 -278.5t-343 -101.5t-343 101.5t-124 278.5q0 128 72.5 219.5t177.5 112.5 q-95 31 -153 108.5t-58 194.5q0 166 113 261.5t315 95.5t315 -95.5t113 -261.5q0 -117 -58 -194.5t-153 -108.5zM842 987q0 107 -68 164t-188 57t-188 -57t-68 -164q0 -114 66.5 -173.5t189.5 -59.5t189.5 59.5t66.5 173.5z" />
<glyph unicode="9" horiz-adv-x="1171" d="M870 739q0 214 -91.5 339.5t-227.5 125.5q-125 0 -198.5 -85.5t-73.5 -237.5q0 -128 58 -205.5t191 -77.5q106 0 193.5 39.5t148.5 101.5zM174 53l43 135q119 -61 275 -61q192 0 283.5 120.5t96.5 354.5q-56 -62 -149.5 -107.5t-218.5 -45.5q-177 0 -289.5 118 t-112.5 318q0 201 124 334t325 133q238 0 368 -171.5t130 -500.5q0 -347 -140 -523.5t-413 -176.5q-173 0 -322 73z" />
<glyph unicode=":" horiz-adv-x="536" d="M393 856q0 -53 -33.5 -88t-91.5 -35t-91.5 35t-33.5 88t33.5 88t91.5 35t91.5 -35t33.5 -88zM393 102q0 -53 -33.5 -87.5t-91.5 -34.5t-91.5 34.5t-33.5 87.5t33.5 88t91.5 35t91.5 -35t33.5 -88z" />
<glyph unicode=";" horiz-adv-x="536" d="M393 856q0 -53 -33.5 -88t-91.5 -35t-91.5 35t-33.5 88t33.5 88t91.5 35t91.5 -35t33.5 -88zM223 -256h-106l61 473h201z" />
<glyph unicode="&#x3c;" horiz-adv-x="1171" d="M1008 51l-873 473v115l873 473v-164l-699 -366l699 -367v-164z" />
<glyph unicode="=" horiz-adv-x="1171" d="M999 328h-827v139h827v-139zM999 696h-827v140h827v-140z" />
<glyph unicode="&#x3e;" horiz-adv-x="1171" d="M1036 524l-872 -473v164l698 367l-698 366v164l872 -473v-115z" />
<glyph unicode="?" horiz-adv-x="1011" d="M545 328h-142q-28 48 -28 118q0 62 25 118t62.5 96.5t81.5 86t81.5 85.5t62.5 95.5t25 116.5q0 84 -63.5 140.5t-186.5 56.5q-161 0 -320 -74l-45 148q176 86 367 86q211 0 317.5 -90.5t106.5 -249.5q0 -75 -27 -142t-67 -114t-87.5 -95t-87.5 -86t-67 -86.5t-27 -97.5 q0 -63 19 -112zM598 102q0 -53 -33.5 -87.5t-91.5 -34.5t-91.5 34.5t-33.5 87.5t33.5 88t91.5 35t91.5 -35t33.5 -88z" />
<glyph unicode="@" horiz-adv-x="1679" d="M1044 696v242q-59 35 -172 35q-266 0 -266 -293q0 -144 58 -215.5t149 -71.5q101 0 166 84t65 219zM1141 158l43 -84q-145 -94 -363 -94q-149 0 -274.5 43.5t-220.5 127t-149 217t-54 302.5q0 146 51 277.5t143.5 233t234 161t310.5 59.5q210 0 368.5 -86.5t242 -239 t83.5 -348.5q0 -229 -78.5 -346t-199.5 -117q-76 0 -126.5 53.5t-55.5 133.5q-36 -69 -123 -126t-187 -57q-148 0 -232.5 108.5t-84.5 297.5q0 87 20.5 159.5t65 134t126 96t193.5 34.5q172 0 318 -78v-492q0 -161 100 -161q29 0 56 18.5t51.5 59.5t39.5 118t15 182 q0 85 -21.5 164.5t-68.5 152.5t-114.5 127t-167 86t-218.5 32q-149 0 -272 -50.5t-204.5 -137t-126 -202.5t-44.5 -247q0 -146 47.5 -261t131.5 -187.5t193 -110t236 -37.5q182 0 316 84z" />
<glyph unicode="A" horiz-adv-x="1282" d="M1241 0h-182l-135 371h-568l-133 -371h-182l510 1380h180zM866 530l-139 379l-84 271h-4l-84 -271l-139 -379h450z" />
<glyph unicode="B" horiz-adv-x="1261" d="M678 0h-514v1380h512q211 0 324.5 -101.5t113.5 -268.5q0 -56 -20 -106t-52 -84.5t-66 -58t-69 -36.5q49 -9 94.5 -33.5t84 -63.5t62 -98t23.5 -129q0 -184 -124.5 -292.5t-368.5 -108.5zM336 158h340q154 0 238.5 63t84.5 180q0 234 -325 234h-338v-477zM336 791h342 q115 0 189.5 59.5t74.5 167.5q0 99 -70.5 152t-195.5 53h-340v-432z" />
<glyph unicode="C" horiz-adv-x="1171" d="M1049 203l45 -150q-149 -73 -349 -73q-166 0 -292 50.5t-205 145t-118.5 223.5t-39.5 291q0 210 75 369.5t224 250.5t356 91q189 0 336 -66l-45 -147q-115 53 -288 53q-227 0 -354.5 -144t-127.5 -407q0 -261 126 -406t358 -145q165 0 299 64z" />
<glyph unicode="D" horiz-adv-x="1339" d="M565 0h-401v1380h401q338 0 509 -174t171 -514q0 -341 -171.5 -516.5t-508.5 -175.5zM340 164h225q251 0 377.5 126t126.5 402t-126 400.5t-378 124.5h-225v-1053z" />
<glyph unicode="E" horiz-adv-x="1118" d="M1020 0h-856v1380h844v-161h-668v-424h627v-162h-627v-471h680v-162z" />
<glyph unicode="F" horiz-adv-x="1077" d="M340 0h-176v1380h827v-161h-651v-445h610v-162h-610v-612z" />
<glyph unicode="G" horiz-adv-x="1318" d="M1176 0h-144l-28 162q-100 -182 -338 -182q-269 0 -422.5 193t-153.5 521q0 333 179.5 520t504.5 187q186 0 342 -70l-45 -147q-117 57 -295 57q-240 0 -375 -138.5t-135 -408.5q0 -249 114 -402t294 -153q154 0 242 82t88 252v141h-277v160h449v-774z" />
<glyph unicode="H" horiz-adv-x="1351" d="M1188 0h-176v631h-672v-631h-176v1380h176v-585h672v585h176v-1380z" />
<glyph unicode="I" horiz-adv-x="512" d="M344 0h-176v1380h176v-1380z" />
<glyph unicode="J" horiz-adv-x="782" d="M446 399v981h177v-981q0 -214 -87.5 -314.5t-271.5 -100.5q-150 0 -244 53l46 149q71 -43 196 -43q184 0 184 256z" />
<glyph unicode="K" horiz-adv-x="1236" d="M1217 0h-218l-567 688v84l553 608h209l-588 -645zM340 0h-176v1380h176v-1380z" />
<glyph unicode="L" horiz-adv-x="1052" d="M991 0h-827v1380h176v-1216h651v-164z" />
<glyph unicode="M" horiz-adv-x="1622" d="M1458 0h-176v840q0 149 16 290h-4q-35 -112 -94 -245l-295 -662h-188l-295 662q-59 133 -94 245h-4q16 -141 16 -290v-840h-176v1380h213l325 -735q24 -52 45 -102t38 -95t24 -61h4q7 16 24 61t38 95t45 102l325 735h213v-1380z" />
<glyph unicode="N" horiz-adv-x="1363" d="M1200 0h-188l-549 891q-56 90 -135 250h-4q16 -110 16 -303v-838h-176v1380h188l549 -891q59 -94 135 -249h4q-16 110 -16 303v837h176v-1380z" />
<glyph unicode="O" horiz-adv-x="1417" d="M709 127q220 0 331 145t111 418t-111 418t-331 145t-331.5 -145t-111.5 -418t111.5 -418t331.5 -145zM709 -20q-127 0 -230 35.5t-175 98.5t-120.5 152t-71 195t-22.5 229q0 154 36.5 281.5t110 224.5t194 151t278.5 54t278 -54t193.5 -151t110 -224.5t36.5 -281.5 q0 -123 -22.5 -229t-71 -195t-120 -152t-174.5 -98.5t-230 -35.5z" />
<glyph unicode="P" horiz-adv-x="1159" d="M340 0h-176v1380h452q106 0 193 -33.5t144.5 -92t88.5 -137t31 -167.5q0 -189 -128.5 -314.5t-340.5 -125.5h-264v-510zM340 674h264q137 0 215 73.5t78 202.5q0 125 -73 196t-208 71h-276v-543z" />
<glyph unicode="Q" horiz-adv-x="1417" d="M1098 -315h-690v151h26q87 0 145 40.5t83 105.5q-146 8 -256.5 64.5t-179 151.5t-102.5 218.5t-34 273.5q0 154 36.5 281.5t110 224.5t194 151t278.5 54t278 -54t193.5 -151t110 -224.5t36.5 -281.5q0 -139 -30 -257t-90 -212t-157.5 -154.5t-224.5 -78.5 q-47 -113 -127 -152h400v-151zM709 127q220 0 331 145t111 418t-111 418t-331 145t-331.5 -145t-111.5 -418t111.5 -418t331.5 -145z" />
<glyph unicode="R" horiz-adv-x="1208" d="M1126 0h-192l-316 543h-278v-543h-176v1380h493q106 0 193 -32.5t144.5 -88.5t88.5 -131t31 -161q0 -144 -84.5 -254.5t-230.5 -151.5zM340 707h305q136 0 214.5 70.5t78.5 189.5q0 117 -73 183.5t-208 66.5h-317v-510z" />
<glyph unicode="S" horiz-adv-x="1085" d="M102 57l45 146q129 -66 330 -66q154 0 245 57t91 175q0 34 -10 63t-23.5 50.5t-41 42t-49 33.5t-62 29t-65.5 24.5t-73 23.5q-46 15 -74.5 25.5t-74 31t-74.5 40t-63 50.5t-54 65t-33.5 81.5t-13.5 101.5q0 169 116 270t353 101q187 0 338 -74l-45 -145q-125 61 -293 61 q-153 0 -226 -56t-73 -153q0 -25 6 -47.5t13 -40t24.5 -35t29 -28.5t39 -25.5t41.5 -21.5t49 -20t49.5 -18t54.5 -18q50 -17 82.5 -30t79 -35t77.5 -43t65 -53.5t54 -67.5t33.5 -83t13.5 -103q0 -192 -136 -288.5t-370 -96.5q-228 0 -375 77z" />
<glyph unicode="T" horiz-adv-x="1052" d="M614 0h-176v1219l-418 -2v163h1012v-163l-418 2v-1219z" />
<glyph unicode="U" horiz-adv-x="1368" d="M1032 551v829h176v-827q0 -286 -138 -429.5t-386 -143.5t-386 143.5t-138 429.5v827h176v-829q0 -202 89.5 -305t258.5 -103t258.5 103t89.5 305z" />
<glyph unicode="V" horiz-adv-x="1257" d="M719 0h-180l-502 1380h182l299 -835l109 -355h4l108 355l299 835h183z" />
<glyph unicode="W" horiz-adv-x="1804" d="M1421 0h-172l-276 899q-47 153 -70 291h-4q-23 -138 -70 -291l-274 -899h-172l-322 1380h179l174 -768q36 -157 63 -413h4q39 234 92 399l242 782h174l242 -782q53 -165 92 -399h4q27 248 64 413l174 768h178z" />
<glyph unicode="X" horiz-adv-x="1269" d="M1212 0h-196l-379 594h-4l-379 -594h-197l478 719l-439 661h197l340 -536h4l340 536h197l-439 -661z" />
<glyph unicode="Y" horiz-adv-x="1163" d="M670 0h-176v588l-461 792h186l361 -641h4l360 641h186l-460 -792v-588z" />
<glyph unicode="Z" horiz-adv-x="1122" d="M1028 0h-946v123l704 1096h-655v161h885v-123l-705 -1095h717v-162z" />
<glyph unicode="[" horiz-adv-x="581" d="M541 -242h-377v1643h377v-131h-226v-1381h226v-131z" />
<glyph unicode="\" horiz-adv-x="759" d="M739 -82h-137l-582 1462h138z" />
<glyph unicode="]" horiz-adv-x="581" d="M418 -242h-377v131h225v1381h-225v131h377v-1643z" />
<glyph unicode="^" horiz-adv-x="1069" d="M987 565h-180l-272 633l-273 -633h-180l377 815h151z" />
<glyph unicode="_" horiz-adv-x="888" d="M889 -276h-889v139h889v-139z" />
<glyph unicode="`" horiz-adv-x="614" d="M319 1110l-344 203l95 129l303 -256z" />
<glyph unicode="a" horiz-adv-x="1032" d="M721 408v79h-207q-128 0 -196 -54.5t-68 -153.5q0 -74 47 -119t121 -45q128 0 215.5 91t87.5 202zM883 0h-129l-33 168q-21 -34 -38 -57t-46 -50t-61.5 -43t-81 -27t-107.5 -11q-133 0 -219 79t-86 220q0 167 113.5 251t320.5 84h205v33q0 113 -60 168t-167 55 q-164 0 -308 -67l-39 121q62 36 155 61t198 25q191 0 287 -97t96 -268v-645z" />
<glyph unicode="b" horiz-adv-x="1146" d="M328 692v-207q0 -154 86.5 -252t201.5 -98q118 0 193.5 90.5t75.5 286.5q0 167 -67 254.5t-185 87.5q-87 0 -167.5 -45t-137.5 -117zM295 0h-139v1380h172v-538q43 64 135 116t203 52q78 0 143.5 -28.5t110 -76t75 -112t44.5 -135t14 -146.5q0 -254 -111 -393t-299 -139 q-103 0 -189.5 54.5t-125.5 133.5z" />
<glyph unicode="c" horiz-adv-x="942" d="M829 174l39 -127q-125 -67 -307 -67q-156 0 -265 69.5t-159.5 184t-50.5 262.5q0 110 29.5 202.5t87.5 162.5t152 109.5t216 39.5q170 0 289 -64l-39 -129q-115 53 -252 53q-155 0 -234 -103t-79 -271q0 -170 81 -273.5t241 -103.5q138 0 251 55z" />
<glyph unicode="d" horiz-adv-x="1146" d="M819 485v215q-50 72 -120.5 113t-145.5 41q-134 0 -212.5 -90.5t-78.5 -267.5q0 -183 77 -272t191 -89q115 0 202 98t87 252zM991 0h-139l-33 168q-39 -79 -125.5 -133.5t-189.5 -54.5q-185 0 -297.5 137t-112.5 377q0 144 48.5 259.5t147.5 186t234 70.5 q101 0 176.5 -47t118.5 -113v530h172v-1380z" />
<glyph unicode="e" horiz-adv-x="1028" d="M844 172l39 -127q-130 -65 -318 -65q-236 0 -357.5 136.5t-121.5 379.5q0 112 25 203t77.5 162t141 110t207.5 39q197 0 297 -111t100 -307q0 -98 -21 -174h-657q35 -299 326 -299q153 0 262 53zM774 545v47q0 141 -56 214t-181 73q-138 0 -207.5 -91t-77.5 -243h522z " />
<glyph unicode="f" horiz-adv-x="690" d="M356 0h-168v850h-151v139h151v53q0 359 320 359q113 0 203 -49l-39 -125q-62 35 -156 35q-95 0 -127.5 -53.5t-32.5 -168.5v-51h285v-139h-285v-850z" />
<glyph unicode="g" horiz-adv-x="1144" d="M819 506v182q-41 72 -116 119t-150 47q-133 0 -212 -89.5t-79 -258.5q0 -91 22.5 -160.5t60.5 -109.5t85 -60t100 -20q126 0 207.5 96t81.5 254zM819 86v102q-39 -79 -125.5 -133.5t-189.5 -54.5q-184 0 -297 135.5t-113 368.5q0 103 28.5 194t81.5 161t135.5 110.5 t184.5 40.5q99 0 174 -50t121 -118l29 147h143v-905q0 -132 -33.5 -229t-96 -154.5t-145 -85t-186.5 -27.5q-103 0 -203 28t-161 67l43 137q133 -78 297 -78q74 0 127.5 15t97.5 52t66 106t22 171z" />
<glyph unicode="h" horiz-adv-x="1157" d="M1008 0h-168v616q0 111 -53.5 174.5t-149.5 63.5q-188 0 -309 -154v-700h-172v1380h172v-530q45 60 136.5 110t203.5 50q159 0 249.5 -105t90.5 -289v-616z" />
<glyph unicode="i" horiz-adv-x="491" d="M332 0h-172v989h172v-989zM360 1290q0 -49 -30 -80.5t-84 -31.5t-84.5 31.5t-30.5 80.5t30.5 81t84.5 32t84 -32t30 -81z" />
<glyph unicode="j" horiz-adv-x="491" d="M-115 -377l43 135q47 -20 105 -20q75 0 101 48.5t26 164.5v1038h172v-1036q0 -184 -64.5 -275.5t-230.5 -91.5q-89 0 -152 37zM360 1290q0 -49 -30 -80.5t-84 -31.5t-84.5 31.5t-30.5 80.5t30.5 81t84.5 32t84 -32t30 -81z" />
<glyph unicode="k" horiz-adv-x="1038" d="M1010 0h-203l-203 260q-205 258 -205 264v58l385 407h205l-414 -436zM328 0h-172v1380h172v-1380z" />
<glyph unicode="l" horiz-adv-x="491" d="M332 0h-172v1380h172v-1380z" />
<glyph unicode="m" horiz-adv-x="1638" d="M1489 0h-168v649q0 98 -38.5 153.5t-117.5 55.5q-84 0 -150 -53t-108 -131v-674h-168v649q0 98 -38 153.5t-115 55.5q-86 0 -153.5 -46t-106.5 -120v-692h-172v989h143l29 -147q114 168 303 168q96 0 160 -50t94 -141q51 83 134.5 137t184.5 54q143 0 215 -97.5 t72 -263.5v-649z" />
<glyph unicode="n" horiz-adv-x="1155" d="M1006 0h-168v616q0 111 -53.5 174.5t-149.5 63.5q-187 0 -309 -162v-692h-172v989h143l29 -147q43 64 135.5 116t204.5 52q159 0 249.5 -105t90.5 -289v-616z" />
<glyph unicode="o" horiz-adv-x="1105" d="M553 119q149 0 223 103.5t74 273.5q0 169 -74 271.5t-223 102.5t-223 -102.5t-74 -271.5q0 -170 74 -273.5t223 -103.5zM553 -20q-118 0 -208.5 39.5t-146.5 110.5t-84 163.5t-28 202.5t28 202.5t84 162.5t146.5 109.5t208.5 39.5t208.5 -39.5t146.5 -109.5t84 -162.5 t28 -202.5t-28 -202.5t-84 -163.5t-146.5 -110.5t-208.5 -39.5z" />
<glyph unicode="p" horiz-adv-x="1144" d="M326 692v-207q0 -154 86.5 -252t201.5 -98q118 0 193.5 90.5t75.5 286.5q0 167 -67 254.5t-185 87.5q-87 0 -167.5 -45t-137.5 -117zM326 -391h-172v1380h143l29 -147q43 64 135 116t203 52q78 0 143.5 -28.5t110 -76t75 -112t44.5 -135t14 -146.5q0 -254 -111 -393 t-299 -139q-103 0 -189.5 54.5t-125.5 133.5v-559z" />
<glyph unicode="q" horiz-adv-x="1144" d="M819 485v203q-101 166 -266 166q-134 0 -212.5 -90.5t-78.5 -267.5q0 -183 77 -272t191 -89q115 0 202 98t87 252zM991 -391h-172v559q-39 -79 -125.5 -133.5t-189.5 -54.5q-185 0 -297.5 137t-112.5 377q0 144 48.5 259.5t147.5 186t234 70.5q100 0 175.5 -49.5 t119.5 -118.5l29 147h143v-1380z" />
<glyph unicode="r" horiz-adv-x="761" d="M326 0h-172v989h139l33 -168q101 182 274 189q51 2 100 -15q21 -9 33 -18l-51 -172q-41 41 -113 41q-167 0 -243 -166v-680z" />
<glyph unicode="s" horiz-adv-x="886" d="M94 43l39 129q121 -57 270 -57q115 0 169.5 41t54.5 106q0 30 -12.5 55t-32 42.5t-51 34t-61 27t-71.5 23.5q-151 46 -226 112t-75 189q0 125 95.5 195t265.5 70q181 0 303 -64l-39 -129q-121 57 -250 57q-105 0 -157 -35t-52 -94q0 -61 44.5 -93t146.5 -66 q177 -57 257.5 -129t80.5 -197q0 -132 -94.5 -206t-286.5 -74q-207 0 -318 63z" />
<glyph unicode="t" horiz-adv-x="724" d="M633 156l39 -125q-83 -51 -223 -51q-134 0 -197.5 70.5t-63.5 223.5v576h-151v139h153l41 283h125v-283h303v-139h-303v-574q0 -80 25 -118.5t96 -38.5q90 0 156 37z" />
<glyph unicode="u" horiz-adv-x="1142" d="M989 0h-139l-33 168q-47 -77 -134.5 -132.5t-213.5 -55.5q-149 0 -234 95.5t-85 297.5v616h167v-616q0 -114 50 -178t133 -64q179 0 317 191v667h172v-989z" />
<glyph unicode="v" horiz-adv-x="960" d="M569 0h-178l-358 989h178l172 -483l94 -330h4l94 330l175 483h178z" />
<glyph unicode="w" horiz-adv-x="1400" d="M1112 0h-170l-160 502q-38 113 -80 336h-4q-42 -223 -80 -336l-159 -502h-170l-236 989h170l115 -500q25 -113 43 -329h4q39 200 66 289l167 540h164l168 -540q27 -89 66 -289h4q18 216 43 329l115 500h170z" />
<glyph unicode="x" horiz-adv-x="997" d="M948 0h-180l-268 399h-4l-267 -399h-180l357 514l-328 475h180l238 -360h4l239 360h181l-330 -475z" />
<glyph unicode="y" horiz-adv-x="1136" d="M811 86v102q-47 -77 -133 -132.5t-211 -55.5q-149 0 -233 95.5t-84 297.5v596h167v-596q0 -114 49 -177.5t132 -63.5q184 0 313 190v647h172v-905q0 -247 -120 -371.5t-341 -124.5q-91 0 -184 26t-152 64l43 138q126 -74 281 -74q151 0 226 77.5t75 266.5z" />
<glyph unicode="z" horiz-adv-x="925" d="M836 0h-750v98l522 752h-483v139h692v-98l-522 -752h541v-139z" />
<glyph unicode="{" horiz-adv-x="651" d="M590 -242h-41q-307 0 -307 273q0 50 15 170t15 164q0 81 -37.5 120t-128.5 39v111q91 0 128.5 39.5t37.5 120.5q0 43 -15 163t-15 170q0 273 307 273h41v-105h-37q-85 0 -122.5 -47.5t-37.5 -144.5q0 -45 14.5 -148t14.5 -153q0 -93 -35 -145.5t-113 -75.5v-4 q78 -23 113 -76t35 -146q0 -50 -14.5 -153t-14.5 -148q0 -97 37.5 -144.5t122.5 -47.5h37v-105z" />
<glyph unicode="|" horiz-adv-x="524" d="M340 -410h-156v1995h156v-1995z" />
<glyph unicode="}" horiz-adv-x="651" d="M102 -242h-41v105h37q85 0 122.5 47.5t37.5 144.5q0 45 -14.5 148t-14.5 153q0 93 35 146t113 76v4q-78 23 -113 75.5t-35 145.5q0 50 14.5 153t14.5 148q0 97 -37.5 144.5t-122.5 47.5h-37v105h41q308 0 308 -273q0 -50 -15.5 -170t-15.5 -163q0 -81 37.5 -120.5 t128.5 -39.5v-111q-91 0 -128.5 -39t-37.5 -120q0 -44 15.5 -164t15.5 -170q0 -273 -308 -273z" />
<glyph unicode="~" horiz-adv-x="1130" d="M965 793l84 -88q-44 -91 -117 -148t-162 -57q-56 0 -106 17.5t-86 42t-69.5 49t-69.5 42t-72 17.5q-49 0 -88.5 -22t-61.5 -48.5t-51 -71.5l-84 90q38 81 111.5 142t168.5 61q56 0 105 -17t84.5 -41.5t68.5 -49t70.5 -41.5t75.5 -17q63 0 110 38t89 102z" />
<glyph horiz-adv-x="1024" />
<glyph unicode="&#xa0;" />
<glyph unicode="&#xa1;" horiz-adv-x="520" d="M350 -391h-180v315l23 680h135l22 -680v-315zM385 887q0 -53 -33.5 -88t-91.5 -35t-91.5 35t-33.5 88t33.5 88t91.5 35t91.5 -35t33.5 -88z" />
<glyph unicode="&#xa2;" horiz-adv-x="1171" d="M745 -205h-114v189q-209 17 -320.5 158.5t-111.5 353.5q0 211 111 350.5t321 159.5v188h114v-186q142 -6 248 -62l-39 -129q-84 41 -209 51v-749q123 10 218 55l38 -127q-109 -56 -256 -65v-187zM631 125v739q-127 -20 -194.5 -119t-67.5 -249q0 -149 67 -248t195 -123z " />
<glyph unicode="&#xa3;" horiz-adv-x="1171" d="M1069 0h-934v176h68q91 36 153 112t62 148q0 82 -39 168h-234v129h166q-38 70 -58 128t-20 124q0 164 124 265.5t305 101.5q99 0 168 -18.5t149 -59.5l-45 -148q-66 34 -123.5 50t-130.5 16q-67 0 -117 -20.5t-77 -55t-39.5 -72.5t-12.5 -81q0 -60 18.5 -112.5 t53.5 -117.5h317v-129h-252q31 -81 31 -147q0 -91 -51.5 -163.5t-144.5 -117.5h663v-176z" />
<glyph unicode="&#xa4;" horiz-adv-x="1171" d="M922 250l-115 119q-107 -70 -219 -70q-123 0 -221 70l-115 -119q-9 11 -82 90l113 115q-72 93 -72 217q0 113 72 223l-115 115l82 84l117 -117q95 74 219 74q114 0 221 -74l115 115l79 -84l-110 -113q72 -106 72 -223q0 -120 -72 -217l113 -115zM848 672q0 108 -78.5 184 t-183.5 76q-106 0 -182 -76t-76 -184q0 -104 76 -180t182 -76q105 0 183.5 76t78.5 180z" />
<glyph unicode="&#xa5;" horiz-adv-x="1171" d="M674 0h-176v360h-318v101h318v127l-13 22h-305v101h252l-334 620h187l299 -592h4l299 592h186l-334 -620h252v-101h-305l-12 -22v-127h317v-101h-317v-360z" />
<glyph unicode="&#xa6;" horiz-adv-x="512" d="M328 662h-144v718h144v-718zM328 -358h-144v718h144v-718z" />
<glyph unicode="&#xa7;" horiz-adv-x="1171" d="M776 455q12 7 27 26q26 33 26 84q0 70 -66.5 116.5t-197.5 84.5q-22 7 -56 17t-55 18t-42 20q-18 -15 -29 -28q-27 -35 -27 -84q0 -35 18 -64.5t42 -48.5t65.5 -38t70 -28t73.5 -22q10 -3 34 -9.5t33.5 -9.5t26.5 -8.5t30 -11.5t27 -14zM190 -55l39 129q140 -66 271 -66 q127 0 213 45t86 115q0 41 -18 72t-55.5 53.5t-71 36.5t-89.5 32q-39 11 -65 19t-70.5 25t-74.5 33.5t-66 43t-57.5 55t-36.5 67.5t-15 83q0 146 131 197q-86 75 -86 211q0 137 107.5 221t290.5 84q159 0 303 -72l-39 -129q-122 66 -250 66q-122 0 -183 -47t-61 -123 q0 -66 60.5 -106.5t171.5 -76.5q155 -53 218 -88q165 -91 165 -239q0 -74 -35 -124t-96 -71q90 -90 90 -223q0 -134 -124.5 -214.5t-328.5 -80.5q-86 0 -174 20t-150 52z" />
<glyph unicode="&#xa8;" horiz-adv-x="614" d="M215 1251q0 -43 -27.5 -72.5t-76.5 -29.5t-77 29.5t-28 72.5t28 73t77 30t76.5 -29.5t27.5 -73.5zM608 1251q0 -43 -27.5 -72.5t-76.5 -29.5t-77 29.5t-28 72.5t28 73t77 30t76.5 -29.5t27.5 -73.5z" />
<glyph unicode="&#xa9;" horiz-adv-x="1413" d="M707 49q-125 0 -240 51t-199.5 136.5t-135 204.5t-50.5 249t50.5 249t135 204.5t199.5 136.5t240 51t240 -51t199 -136.5t134.5 -204.5t50.5 -249t-50.5 -249t-134.5 -204.5t-199 -136.5t-240 -51zM707 141q145 0 264.5 73.5t187.5 199.5t68 276t-68 276t-187.5 199.5 t-264.5 73.5q-109 0 -205.5 -43.5t-165.5 -117t-109.5 -175t-40.5 -213.5t40.5 -213.5t109.5 -175t165.5 -117t205.5 -43.5zM918 461l26 -92q-96 -47 -217 -47q-165 0 -251.5 102t-86.5 264q0 163 87.5 265t256.5 102q121 0 207 -45l-29 -92q-77 38 -178 38 q-112 0 -167.5 -72.5t-55.5 -195.5q0 -122 56.5 -195t172.5 -73q92 0 179 41z" />
<glyph unicode="&#xaa;" horiz-adv-x="712" d="M485 915v50h-133q-85 0 -130.5 -38t-45.5 -106q0 -49 29.5 -78.5t77.5 -29.5q88 0 145 61.5t57 140.5zM627 614h-117l-18 93q-37 -50 -89 -78.5t-143 -28.5q-101 0 -166 58t-65 163q0 124 84.5 185t238.5 61h133v16q0 75 -40 113.5t-109 38.5q-114 0 -227 -55l-35 104 q125 68 268 68q142 0 213.5 -72t71.5 -199v-467z" />
<glyph unicode="&#xab;" horiz-adv-x="935" d="M854 127h-137l-264 369l264 368h137l-264 -368zM485 127h-139l-264 369l264 368h139l-264 -368z" />
<glyph unicode="&#xac;" horiz-adv-x="1026" d="M924 246h-154v360h-688v146h842v-506z" />
<glyph unicode="&#xad;" horiz-adv-x="614" d="M594 444h-574v134h574v-134z" />
<glyph unicode="&#xae;" horiz-adv-x="1085" d="M543 479q-201 0 -331 133t-130 328t130 328t331 133t331 -133t130 -328t-130 -328t-331 -133zM543 555q163 0 269 112t106 273t-106 273t-269 112t-269 -112t-106 -273t106 -273t269 -112zM760 676h-92l-119 198h-84v-198h-86v516h194q94 0 138.5 -42t44.5 -112 q0 -54 -32.5 -96t-86.5 -59zM465 952h104q101 0 101 86q0 76 -99 76h-106v-162z" />
<glyph unicode="&#xaf;" horiz-adv-x="614" d="M594 1174h-574v118h574v-118z" />
<glyph unicode="&#xb0;" horiz-adv-x="729" d="M555 1128q0 75 -55.5 128t-134.5 53q-77 0 -131 -53.5t-54 -127.5q0 -76 54 -130t131 -54q79 0 134.5 54.5t55.5 129.5zM647 1128q0 -113 -82 -192.5t-200 -79.5t-200.5 79.5t-82.5 192.5t82.5 193t200.5 80t200 -80t82 -193z" />
<glyph unicode="&#xb1;" horiz-adv-x="1171" d="M1012 532h-357v-344h-155v344h-357v140h357v344h155v-344h357v-140zM1012 0h-869v119h869v-119z" />
<glyph unicode="&#xb2;" horiz-adv-x="634" d="M565 614h-512v91l183 184q90 90 130 146.5t40 113.5q0 42 -30.5 65t-84.5 23q-86 0 -176 -49l-35 108q118 56 213 56q126 0 189 -54t63 -149q0 -22 -7 -46.5t-15.5 -44.5t-27 -46.5t-30 -42t-37.5 -43.5t-36.5 -39t-39.5 -39.5t-35 -34.5l-79 -80h327v-119z" />
<glyph unicode="&#xb3;" horiz-adv-x="624" d="M53 657l37 107q89 -47 186 -47q69 0 104.5 31t35.5 81q0 105 -127 105h-121v110h121q49 0 77.5 26.5t28.5 80.5q0 88 -135 88q-78 0 -170 -45l-37 106q99 52 213 52q134 0 199 -55t65 -146q0 -110 -102 -154q60 -17 91.5 -61.5t31.5 -106.5q0 -106 -70 -165.5t-202 -59.5 q-129 0 -226 53z" />
<glyph unicode="&#xb4;" horiz-adv-x="614" d="M639 1313l-344 -203l-53 76l303 256z" />
<glyph unicode="&#xb5;" horiz-adv-x="1146" d="M993 0h-139l-33 168q-45 -74 -126.5 -131t-178.5 -57q-141 0 -194 71v-461h-168v1399h168v-616q0 -115 51 -178.5t143 -63.5q167 0 305 191v667h172v-989z" />
<glyph unicode="&#xb6;" horiz-adv-x="919" d="M643 -98h-156v762h-51q-67 0 -129 22.5t-113 65.5t-81.5 112t-30.5 154q0 166 105.5 264t258.5 98h412v-104h-80q-78 0 -106.5 -31t-28.5 -102v-1241z" />
<glyph unicode="&#xb7;" horiz-adv-x="495" d="M373 563q0 -53 -33.5 -88t-91.5 -35t-91.5 35t-33.5 88t33.5 88t91.5 35t91.5 -35t33.5 -88z" />
<glyph unicode="&#xb8;" horiz-adv-x="614" d="M289 -342h-187l170 264h113z" />
<glyph unicode="&#xb9;" horiz-adv-x="591" d="M539 614h-469v117h170v483l-148 -47v111l178 63h105v-610h164v-117z" />
<glyph unicode="&#xba;" horiz-adv-x="815" d="M408 715q100 0 150 72.5t50 189.5q0 116 -50 187t-150 71t-149.5 -70.5t-49.5 -187.5t50 -189.5t149 -72.5zM408 600q-171 0 -259 105t-88 272q0 165 88.5 270t258.5 105t258 -105t88 -270q0 -167 -87.5 -272t-258.5 -105z" />
<glyph unicode="&#xbb;" horiz-adv-x="935" d="M590 127h-139l264 369l-264 368h139l264 -368zM219 127h-137l264 369l-264 368h137l264 -368z" />
<glyph unicode="&#xbc;" horiz-adv-x="1589" d="M1198 252v260l-190 -260h190zM1325 0h-129v133h-336v94l357 500h108v-475h82v-119h-82v-133zM492 0h-144l750 1352h143zM580 614h-469v117h170v483l-148 -47v111l178 63h105v-610h164v-117z" />
<glyph unicode="&#xbd;" horiz-adv-x="1589" d="M492 0h-144l750 1352h143zM580 614h-469v117h170v483l-148 -47v111l178 63h105v-610h164v-117zM1479 0h-512v90l182 184q89 89 129.5 146.5t40.5 114.5q0 42 -30.5 65t-84.5 23q-84 0 -176 -50l-35 109q116 55 213 55q126 0 189 -53.5t63 -148.5q0 -22 -7 -46.5t-15 -44 t-27 -47t-30 -42t-37.5 -43.5t-36 -39t-40 -40t-34.5 -34l-80 -80h328v-119z" />
<glyph unicode="&#xbe;" horiz-adv-x="1589" d="M492 0h-144l750 1352h143zM94 657l37 107q89 -47 186 -47q69 0 104.5 31t35.5 81q0 105 -127 105h-121v110h121q49 0 77.5 26.5t28.5 80.5q0 88 -135 88q-78 0 -170 -45l-37 106q99 52 213 52q134 0 199 -55t65 -146q0 -110 -102 -154q60 -17 91.5 -61.5t31.5 -106.5 q0 -106 -70.5 -165.5t-202.5 -59.5q-128 0 -225 53zM1198 252v260l-190 -260h190zM1325 0h-129v133h-336v94l357 500h108v-475h82v-119h-82v-133z" />
<glyph unicode="&#xbf;" horiz-adv-x="1011" d="M868 -178l45 -148q-176 -86 -366 -86q-211 0 -317.5 90.5t-106.5 249.5q0 88 37.5 165t90.5 132t106 104.5t90.5 106t37.5 113.5q0 67 -18 113h141q29 -50 29 -119q0 -73 -35 -137.5t-84.5 -114t-99 -98t-84.5 -112.5t-35 -136q0 -84 63.5 -140.5t186.5 -56.5 q160 0 319 74zM664 887q0 -53 -33.5 -88t-91.5 -35t-91.5 35t-33.5 88t33.5 88t91.5 35t91.5 -35t33.5 -88z" />
<glyph unicode="&#xc0;" horiz-adv-x="1282" d="M1241 0h-182l-135 371h-568l-133 -371h-182l510 1380h180zM866 530l-139 379l-84 271h-4l-84 -271l-139 -379h450zM786 1511l-344 203l95 129l303 -256z" />
<glyph unicode="&#xc1;" horiz-adv-x="1282" d="M1241 0h-182l-135 371h-568l-133 -371h-182l510 1380h180zM866 530l-139 379l-84 271h-4l-84 -271l-139 -379h450zM840 1714l-344 -203l-54 76l303 256z" />
<glyph unicode="&#xc2;" horiz-adv-x="1282" d="M1241 0h-182l-135 371h-568l-133 -371h-182l510 1380h180zM866 530l-139 379l-84 271h-4l-84 -271l-139 -379h450zM938 1517h-170l-127 174l-127 -174h-170l238 289h119z" />
<glyph unicode="&#xc3;" horiz-adv-x="1282" d="M1241 0h-182l-135 371h-568l-133 -371h-182l510 1380h180zM866 530l-139 379l-84 271h-4l-84 -271l-139 -379h450zM827 1757h125q0 -217 -178 -217q-41 0 -79.5 15.5t-63.5 34.5t-54.5 34.5t-54.5 15.5q-69 0 -69 -94h-123q0 217 182 217q49 0 97 -25t86.5 -50t64.5 -25 q38 0 52.5 24t14.5 70z" />
<glyph unicode="&#xc4;" horiz-adv-x="1282" d="M1241 0h-182l-135 371h-568l-133 -371h-182l510 1380h180zM866 530l-139 379l-84 271h-4l-84 -271l-139 -379h450zM549 1652q0 -43 -27.5 -72.5t-76.5 -29.5t-77 29.5t-28 72.5t28 73t77 30t76.5 -29.5t27.5 -73.5zM942 1652q0 -43 -27.5 -72.5t-76.5 -29.5t-77 29.5 t-28 72.5t28 73t77 30t76.5 -29.5t27.5 -73.5z" />
<glyph unicode="&#xc5;" horiz-adv-x="1282" d="M1241 0h-182l-135 371h-568l-133 -371h-182l510 1380h180zM866 530l-139 379l-84 271h-4l-84 -271l-139 -379h450zM641 1599q42 0 70.5 28t28.5 74t-28.5 74.5t-70.5 28.5t-69 -28t-27 -75q0 -46 27 -74t69 -28zM838 1699q0 -81 -57.5 -137.5t-139.5 -56.5t-139 56 t-57 138t57 139.5t139 57.5t139.5 -57.5t57.5 -139.5z" />
<glyph unicode="&#xc6;" horiz-adv-x="1669" d="M1571 0h-514l-109 371h-567l-160 -371h-180l608 1380h910v-161h-682l127 -424h514v-162h-467l139 -471h381v-162zM903 530l-112 379l-64 271h-4l-105 -271l-165 -379h450z" />
<glyph unicode="&#xc7;" horiz-adv-x="1171" d="M1049 203l45 -150q-149 -73 -349 -73q-166 0 -292 50.5t-205 145t-118.5 223.5t-39.5 291q0 210 75 369.5t224 250.5t356 91q189 0 336 -66l-45 -147q-115 53 -288 53q-227 0 -354.5 -144t-127.5 -407q0 -261 126 -406t358 -145q165 0 299 64zM672 -342h-187l170 264h113 z" />
<glyph unicode="&#xc8;" horiz-adv-x="1118" d="M1020 0h-856v1380h844v-161h-668v-424h627v-162h-627v-471h680v-162zM725 1511l-344 203l95 129l303 -256z" />
<glyph unicode="&#xc9;" horiz-adv-x="1118" d="M1020 0h-856v1380h844v-161h-668v-424h627v-162h-627v-471h680v-162zM819 1714l-344 -203l-53 76l303 256z" />
<glyph unicode="&#xca;" horiz-adv-x="1118" d="M1020 0h-856v1380h844v-161h-668v-424h627v-162h-627v-471h680v-162zM885 1518h-170l-127 174l-127 -174h-170l237 288h119z" />
<glyph unicode="&#xcb;" horiz-adv-x="1118" d="M1020 0h-856v1380h844v-161h-668v-424h627v-162h-627v-471h680v-162zM496 1653q0 -43 -28 -73t-77 -30t-76.5 29.5t-27.5 73.5q0 43 27.5 72.5t76.5 29.5t77 -29.5t28 -72.5zM889 1653q0 -43 -28 -73t-77 -30t-76.5 29.5t-27.5 73.5q0 43 27.5 72.5t76.5 29.5t77 -29.5 t28 -72.5z" />
<glyph unicode="&#xcc;" horiz-adv-x="512" d="M344 0h-176v1380h176v-1380zM401 1511l-344 203l95 129l303 -256z" />
<glyph unicode="&#xcd;" horiz-adv-x="512" d="M344 0h-176v1380h176v-1380zM457 1714l-344 -203l-54 76l303 256z" />
<glyph unicode="&#xce;" horiz-adv-x="512" d="M344 0h-176v1380h176v-1380zM555 1518h-170l-127 174l-127 -174h-170l238 288h118z" />
<glyph unicode="&#xcf;" horiz-adv-x="512" d="M344 0h-176v1380h176v-1380zM166 1653q0 -43 -28 -73t-77 -30t-76.5 29.5t-27.5 73.5q0 43 27.5 72.5t76.5 29.5t77 -29.5t28 -72.5zM559 1653q0 -44 -27.5 -73.5t-76.5 -29.5t-77 30t-28 73t28 72.5t77 29.5t76.5 -29.5t27.5 -72.5z" />
<glyph unicode="&#xd0;" horiz-adv-x="1339" d="M565 0h-401v614h-141v140h141v626h401q338 0 509 -174t171 -514q0 -341 -171.5 -516.5t-508.5 -175.5zM340 164h225q251 0 377.5 126t126.5 402t-126 400.5t-378 124.5h-225v-463h367v-140h-367v-450z" />
<glyph unicode="&#xd1;" horiz-adv-x="1363" d="M1200 0h-188l-549 891q-56 90 -135 250h-4q16 -110 16 -303v-838h-176v1380h188l549 -891q59 -94 135 -249h4q-16 110 -16 303v837h176v-1380zM869 1757h124q0 -217 -178 -217q-41 0 -79.5 15.5t-63.5 34.5t-54.5 34.5t-54.5 15.5q-69 0 -69 -94h-123q0 217 182 217 q49 0 97 -25t86.5 -50t64.5 -25q39 0 53.5 24t14.5 70z" />
<glyph unicode="&#xd2;" horiz-adv-x="1417" d="M709 127q220 0 331 145t111 418t-111 418t-331 145t-331.5 -145t-111.5 -418t111.5 -418t331.5 -145zM709 -20q-127 0 -230 35.5t-175 98.5t-120.5 152t-71 195t-22.5 229q0 154 36.5 281.5t110 224.5t194 151t278.5 54t278 -54t193.5 -151t110 -224.5t36.5 -281.5 q0 -123 -22.5 -229t-71 -195t-120 -152t-174.5 -98.5t-230 -35.5zM854 1511l-344 203l95 129l303 -256z" />
<glyph unicode="&#xd3;" horiz-adv-x="1417" d="M709 127q220 0 331 145t111 418t-111 418t-331 145t-331.5 -145t-111.5 -418t111.5 -418t331.5 -145zM709 -20q-127 0 -230 35.5t-175 98.5t-120.5 152t-71 195t-22.5 229q0 154 36.5 281.5t110 224.5t194 151t278.5 54t278 -54t193.5 -151t110 -224.5t36.5 -281.5 q0 -123 -22.5 -229t-71 -195t-120 -152t-174.5 -98.5t-230 -35.5zM907 1714l-344 -203l-53 76l303 256z" />
<glyph unicode="&#xd4;" horiz-adv-x="1417" d="M709 127q220 0 331 145t111 418t-111 418t-331 145t-331.5 -145t-111.5 -418t111.5 -418t331.5 -145zM709 -20q-127 0 -230 35.5t-175 98.5t-120.5 152t-71 195t-22.5 229q0 154 36.5 281.5t110 224.5t194 151t278.5 54t278 -54t193.5 -151t110 -224.5t36.5 -281.5 q0 -123 -22.5 -229t-71 -195t-120 -152t-174.5 -98.5t-230 -35.5zM1006 1518h-170l-127 174l-127 -174h-170l237 288h119z" />
<glyph unicode="&#xd5;" horiz-adv-x="1417" d="M709 127q220 0 331 145t111 418t-111 418t-331 145t-331.5 -145t-111.5 -418t111.5 -418t331.5 -145zM709 -20q-127 0 -230 35.5t-175 98.5t-120.5 152t-71 195t-22.5 229q0 154 36.5 281.5t110 224.5t194 151t278.5 54t278 -54t193.5 -151t110 -224.5t36.5 -281.5 q0 -123 -22.5 -229t-71 -195t-120 -152t-174.5 -98.5t-230 -35.5zM895 1757h125q0 -217 -178 -217q-41 0 -79.5 15.5t-63.5 34.5t-54.5 34.5t-54.5 15.5q-70 0 -70 -94h-123q0 217 183 217q39 0 77.5 -15.5t64.5 -34.5t55 -34.5t50 -15.5q39 0 53.5 24t14.5 70z" />
<glyph unicode="&#xd6;" horiz-adv-x="1417" d="M709 127q220 0 331 145t111 418t-111 418t-331 145t-331.5 -145t-111.5 -418t111.5 -418t331.5 -145zM709 -20q-127 0 -230 35.5t-175 98.5t-120.5 152t-71 195t-22.5 229q0 154 36.5 281.5t110 224.5t194 151t278.5 54t278 -54t193.5 -151t110 -224.5t36.5 -281.5 q0 -123 -22.5 -229t-71 -195t-120 -152t-174.5 -98.5t-230 -35.5zM616 1653q0 -44 -27.5 -73.5t-76.5 -29.5t-76.5 29.5t-27.5 73.5q0 43 27.5 72.5t76.5 29.5t76.5 -29.5t27.5 -72.5zM1010 1653q0 -43 -28 -73t-77 -30t-76.5 29.5t-27.5 73.5q0 43 27.5 72.5t76.5 29.5 t77 -29.5t28 -72.5z" />
<glyph unicode="&#xd7;" horiz-adv-x="1171" d="M993 283l-108 -109l-299 299l-299 -299l-109 109l299 299l-299 299l109 108l299 -299l299 299l108 -108l-299 -299z" />
<glyph unicode="&#xd8;" horiz-adv-x="1417" d="M303 -82h-137l127 205q-203 191 -203 567q0 154 36.5 281.5t110 224.5t194 151t278.5 54q181 0 321 -78l86 139h137l-127 -207q201 -189 201 -565q0 -123 -22.5 -229t-71 -195t-120 -152t-174.5 -98.5t-230 -35.5q-193 0 -322 75zM381 266l567 924q-97 63 -239 63 q-220 0 -331.5 -145t-111.5 -418q0 -286 115 -424zM1036 1110l-567 -922q94 -61 240 -61q220 0 331 145t111 418q0 275 -115 420z" />
<glyph unicode="&#xd9;" horiz-adv-x="1368" d="M1032 551v829h176v-827q0 -286 -138 -429.5t-386 -143.5t-386 143.5t-138 429.5v827h176v-829q0 -202 89.5 -305t258.5 -103t258.5 103t89.5 305zM829 1511l-344 203l95 129l303 -256z" />
<glyph unicode="&#xda;" horiz-adv-x="1368" d="M1032 551v829h176v-827q0 -286 -138 -429.5t-386 -143.5t-386 143.5t-138 429.5v827h176v-829q0 -202 89.5 -305t258.5 -103t258.5 103t89.5 305zM883 1714l-344 -203l-54 76l303 256z" />
<glyph unicode="&#xdb;" horiz-adv-x="1368" d="M1032 551v829h176v-827q0 -286 -138 -429.5t-386 -143.5t-386 143.5t-138 429.5v827h176v-829q0 -202 89.5 -305t258.5 -103t258.5 103t89.5 305zM981 1518h-170l-127 174l-127 -174h-170l238 288h118z" />
<glyph unicode="&#xdc;" horiz-adv-x="1368" d="M1032 551v829h176v-827q0 -286 -138 -429.5t-386 -143.5t-386 143.5t-138 429.5v827h176v-829q0 -202 89.5 -305t258.5 -103t258.5 103t89.5 305zM592 1653q0 -43 -28 -73t-77 -30t-76.5 29.5t-27.5 73.5q0 43 27.5 72.5t76.5 29.5t77 -29.5t28 -72.5zM985 1653 q0 -44 -27.5 -73.5t-76.5 -29.5t-77 30t-28 73t28 72.5t77 29.5t76.5 -29.5t27.5 -72.5z" />
<glyph unicode="&#xdd;" horiz-adv-x="1163" d="M670 0h-176v588l-461 792h186l361 -641h4l360 641h186l-460 -792v-588zM780 1714l-344 -203l-53 76l303 256z" />
<glyph unicode="&#xde;" horiz-adv-x="1167" d="M340 0h-176v1380h176v-260h276q212 0 334.5 -118.5t122.5 -303.5q0 -188 -128 -310t-341 -122h-264v-266zM340 430h264q138 0 215.5 70t77.5 198q0 124 -72.5 191t-208.5 67h-276v-526z" />
<glyph unicode="&#xdf;" horiz-adv-x="1226" d="M426 43l39 129q121 -57 250 -57q115 0 180.5 72t65.5 219q0 145 -97.5 226t-281.5 81h-43v141h141q98 0 158.5 44.5t60.5 129.5q0 58 -21 102.5t-56 69.5t-75.5 37t-84.5 12q-168 0 -253 -99.5t-85 -275.5v-874h-172v874q0 234 132 380.5t373 146.5q176 0 293 -96 t117 -256q0 -105 -71 -175t-162 -90q127 -22 213 -122t86 -271q0 -105 -31.5 -185t-88 -128.5t-129.5 -73t-161 -24.5q-186 0 -297 63z" />
<glyph unicode="&#xe0;" horiz-adv-x="1032" d="M721 408v79h-207q-128 0 -196 -54.5t-68 -153.5q0 -74 47 -119t121 -45q128 0 215.5 91t87.5 202zM883 0h-129l-33 168q-21 -34 -38 -57t-46 -50t-61.5 -43t-81 -27t-107.5 -11q-133 0 -219 79t-86 220q0 167 113.5 251t320.5 84h205v33q0 113 -60 168t-167 55 q-164 0 -308 -67l-39 121q62 36 155 61t198 25q191 0 287 -97t96 -268v-645zM662 1110l-345 203l95 129l303 -256z" />
<glyph unicode="&#xe1;" horiz-adv-x="1032" d="M721 408v79h-207q-128 0 -196 -54.5t-68 -153.5q0 -74 47 -119t121 -45q128 0 215.5 91t87.5 202zM883 0h-129l-33 168q-21 -34 -38 -57t-46 -50t-61.5 -43t-81 -27t-107.5 -11q-133 0 -219 79t-86 220q0 167 113.5 251t320.5 84h205v33q0 113 -60 168t-167 55 q-164 0 -308 -67l-39 121q62 36 155 61t198 25q191 0 287 -97t96 -268v-645zM715 1313l-344 -203l-54 76l304 256z" />
<glyph unicode="&#xe2;" horiz-adv-x="1032" d="M721 408v79h-207q-128 0 -196 -54.5t-68 -153.5q0 -74 47 -119t121 -45q128 0 215.5 91t87.5 202zM883 0h-129l-33 168q-21 -34 -38 -57t-46 -50t-61.5 -43t-81 -27t-107.5 -11q-133 0 -219 79t-86 220q0 167 113.5 251t320.5 84h205v33q0 113 -60 168t-167 55 q-164 0 -308 -67l-39 121q62 36 155 61t198 25q191 0 287 -97t96 -268v-645zM813 1116h-170l-127 174l-127 -174h-170l238 289h118z" />
<glyph unicode="&#xe3;" horiz-adv-x="1032" d="M721 408v79h-207q-128 0 -196 -54.5t-68 -153.5q0 -74 47 -119t121 -45q128 0 215.5 91t87.5 202zM883 0h-129l-33 168q-21 -34 -38 -57t-46 -50t-61.5 -43t-81 -27t-107.5 -11q-133 0 -219 79t-86 220q0 167 113.5 251t320.5 84h205v33q0 113 -60 168t-167 55 q-164 0 -308 -67l-39 121q62 36 155 61t198 25q191 0 287 -97t96 -268v-645zM702 1356h125q0 -217 -178 -217q-41 0 -79.5 15.5t-63.5 34.5t-54.5 34.5t-54.5 15.5q-69 0 -69 -94h-123q0 217 182 217q49 0 97 -25t86.5 -50t64.5 -25q38 0 52.5 24t14.5 70z" />
<glyph unicode="&#xe4;" horiz-adv-x="1032" d="M721 408v79h-207q-128 0 -196 -54.5t-68 -153.5q0 -74 47 -119t121 -45q128 0 215.5 91t87.5 202zM883 0h-129l-33 168q-21 -34 -38 -57t-46 -50t-61.5 -43t-81 -27t-107.5 -11q-133 0 -219 79t-86 220q0 167 113.5 251t320.5 84h205v33q0 113 -60 168t-167 55 q-164 0 -308 -67l-39 121q62 36 155 61t198 25q191 0 287 -97t96 -268v-645zM424 1251q0 -43 -27.5 -72.5t-76.5 -29.5t-77 29.5t-28 72.5t28 73t77 30t76.5 -29.5t27.5 -73.5zM817 1251q0 -43 -27.5 -72.5t-76.5 -29.5t-77 29.5t-28 72.5t28 73t77 30t76.5 -29.5 t27.5 -73.5z" />
<glyph unicode="&#xe5;" horiz-adv-x="1032" d="M721 408v79h-207q-128 0 -196 -54.5t-68 -153.5q0 -74 47 -119t121 -45q128 0 215.5 91t87.5 202zM883 0h-129l-33 168q-21 -34 -38 -57t-46 -50t-61.5 -43t-81 -27t-107.5 -11q-133 0 -219 79t-86 220q0 167 113.5 251t320.5 84h205v33q0 113 -60 168t-167 55 q-164 0 -308 -67l-39 121q62 36 155 61t198 25q191 0 287 -97t96 -268v-645zM516 1198q42 0 70 28t28 74t-28 74.5t-70 28.5t-69 -28t-27 -75q0 -46 27 -74t69 -28zM713 1298q0 -81 -57.5 -137.5t-139.5 -56.5t-139.5 56.5t-57.5 137.5q0 82 57.5 139.5t139.5 57.5 t139.5 -57.5t57.5 -139.5z" />
<glyph unicode="&#xe6;" horiz-adv-x="1626" d="M1442 172l39 -127q-66 -35 -135 -50t-166 -15q-105 0 -179.5 29t-119.5 80.5t-76 131.5q-56 -105 -159.5 -173t-258.5 -68q-133 0 -219 79t-86 220q0 167 113.5 251t320.5 84h205v33q0 113 -60 168t-167 55q-164 0 -308 -67l-39 121q62 36 155 61t198 25q224 0 317 -152 q105 152 334 152q188 0 284.5 -111t96.5 -307q0 -98 -21 -174h-628q18 -150 92.5 -224.5t220.5 -74.5q137 0 246 53zM721 408v79h-207q-128 0 -196 -54.5t-68 -153.5q0 -74 47 -119t121 -45q131 0 217 86.5t86 206.5zM1376 545v47q0 143 -51 215t-174 72q-71 0 -122.5 -25 t-81.5 -71.5t-45 -104.5t-19 -133h493z" />
<glyph unicode="&#xe7;" horiz-adv-x="942" d="M829 174l39 -127q-125 -67 -307 -67q-156 0 -265 69.5t-159.5 184t-50.5 262.5q0 110 29.5 202.5t87.5 162.5t152 109.5t216 39.5q170 0 289 -64l-39 -129q-115 53 -252 53q-155 0 -234 -103t-79 -271q0 -170 81 -273.5t241 -103.5q138 0 251 55zM529 -342h-187l170 264 h113z" />
<glyph unicode="&#xe8;" horiz-adv-x="1028" d="M844 172l39 -127q-130 -65 -318 -65q-236 0 -357.5 136.5t-121.5 379.5q0 112 25 203t77.5 162t141 110t207.5 39q197 0 297 -111t100 -307q0 -98 -21 -174h-657q35 -299 326 -299q153 0 262 53zM774 545v47q0 141 -56 214t-181 73q-138 0 -207.5 -91t-77.5 -243h522z M659 1110l-344 203l95 129l303 -256z" />
<glyph unicode="&#xe9;" horiz-adv-x="1028" d="M844 172l39 -127q-130 -65 -318 -65q-236 0 -357.5 136.5t-121.5 379.5q0 112 25 203t77.5 162t141 110t207.5 39q197 0 297 -111t100 -307q0 -98 -21 -174h-657q35 -299 326 -299q153 0 262 53zM774 545v47q0 141 -56 214t-181 73q-138 0 -207.5 -91t-77.5 -243h522z M713 1313l-344 -203l-54 76l303 256z" />
<glyph unicode="&#xea;" horiz-adv-x="1028" d="M844 172l39 -127q-130 -65 -318 -65q-236 0 -357.5 136.5t-121.5 379.5q0 112 25 203t77.5 162t141 110t207.5 39q197 0 297 -111t100 -307q0 -98 -21 -174h-657q35 -299 326 -299q153 0 262 53zM774 545v47q0 141 -56 214t-181 73q-138 0 -207.5 -91t-77.5 -243h522z M811 1116h-170l-127 174l-127 -174h-170l238 289h118z" />
<glyph unicode="&#xeb;" horiz-adv-x="1028" d="M844 172l39 -127q-130 -65 -318 -65q-236 0 -357.5 136.5t-121.5 379.5q0 112 25 203t77.5 162t141 110t207.5 39q197 0 297 -111t100 -307q0 -98 -21 -174h-657q35 -299 326 -299q153 0 262 53zM774 545v47q0 141 -56 214t-181 73q-138 0 -207.5 -91t-77.5 -243h522z M422 1251q0 -43 -28 -72.5t-77 -29.5t-76.5 29.5t-27.5 72.5q0 44 27.5 73.5t76.5 29.5t77 -30t28 -73zM815 1251q0 -43 -27.5 -72.5t-76.5 -29.5t-77 29.5t-28 72.5t28 73t77 30t76.5 -29.5t27.5 -73.5z" />
<glyph unicode="&#xec;" horiz-adv-x="491" d="M332 0h-172v989h172v-989zM391 1110l-344 203l95 129l303 -256z" />
<glyph unicode="&#xed;" horiz-adv-x="491" d="M332 0h-172v989h172v-989zM446 1313l-344 -203l-53 76l303 256z" />
<glyph unicode="&#xee;" horiz-adv-x="491" d="M332 0h-172v989h172v-989zM545 1116h-170l-127 174l-127 -174h-170l238 289h119z" />
<glyph unicode="&#xef;" horiz-adv-x="491" d="M332 0h-172v989h172v-989zM156 1251q0 -43 -28 -72.5t-77 -29.5t-76.5 29.5t-27.5 72.5q0 44 27.5 73.5t76.5 29.5t77 -30t28 -73zM549 1251q0 -43 -28 -72.5t-77 -29.5t-76.5 29.5t-27.5 72.5q0 44 27.5 73.5t76.5 29.5t77 -30t28 -73z" />
<glyph unicode="&#xf0;" horiz-adv-x="1124" d="M813 905h6q-48 135 -211 264l-250 -116l-39 88l201 94q-94 62 -217 106l59 111q160 -53 291 -154l238 113l45 -88l-201 -94q140 -134 219.5 -315.5t79.5 -397.5q0 -150 -56.5 -270.5t-167.5 -193t-257 -72.5q-140 0 -249 69t-165.5 182.5t-56.5 251.5q0 141 59 261.5 t164.5 193t233.5 72.5q175 0 274 -105zM553 121q73 0 134 35t99 90.5t59 120.5t21 129q0 76 -19 143t-55.5 121t-97 85.5t-137.5 31.5q-145 0 -226 -112.5t-81 -277.5q0 -153 83 -259.5t220 -106.5z" />
<glyph unicode="&#xf1;" horiz-adv-x="1155" d="M1006 0h-168v616q0 111 -53.5 174.5t-149.5 63.5q-187 0 -309 -162v-692h-172v989h143l29 -147q43 64 135.5 116t204.5 52q159 0 249.5 -105t90.5 -289v-616zM764 1356h124q0 -217 -178 -217q-41 0 -79.5 15.5t-63.5 34.5t-54.5 34.5t-54.5 15.5q-69 0 -69 -94h-123 q0 217 182 217q49 0 97 -25t86.5 -50t64.5 -25q39 0 53.5 24t14.5 70z" />
<glyph unicode="&#xf2;" horiz-adv-x="1105" d="M553 119q149 0 223 103.5t74 273.5q0 169 -74 271.5t-223 102.5t-223 -102.5t-74 -271.5q0 -170 74 -273.5t223 -103.5zM553 -20q-118 0 -208.5 39.5t-146.5 110.5t-84 163.5t-28 202.5t28 202.5t84 162.5t146.5 109.5t208.5 39.5t208.5 -39.5t146.5 -109.5t84 -162.5 t28 -202.5t-28 -202.5t-84 -163.5t-146.5 -110.5t-208.5 -39.5zM698 1110l-344 203l95 129l303 -256z" />
<glyph unicode="&#xf3;" horiz-adv-x="1105" d="M553 119q149 0 223 103.5t74 273.5q0 169 -74 271.5t-223 102.5t-223 -102.5t-74 -271.5q0 -170 74 -273.5t223 -103.5zM553 -20q-118 0 -208.5 39.5t-146.5 110.5t-84 163.5t-28 202.5t28 202.5t84 162.5t146.5 109.5t208.5 39.5t208.5 -39.5t146.5 -109.5t84 -162.5 t28 -202.5t-28 -202.5t-84 -163.5t-146.5 -110.5t-208.5 -39.5zM752 1313l-344 -203l-54 76l303 256z" />
<glyph unicode="&#xf4;" horiz-adv-x="1105" d="M553 119q149 0 223 103.5t74 273.5q0 169 -74 271.5t-223 102.5t-223 -102.5t-74 -271.5q0 -170 74 -273.5t223 -103.5zM553 -20q-118 0 -208.5 39.5t-146.5 110.5t-84 163.5t-28 202.5t28 202.5t84 162.5t146.5 109.5t208.5 39.5t208.5 -39.5t146.5 -109.5t84 -162.5 t28 -202.5t-28 -202.5t-84 -163.5t-146.5 -110.5t-208.5 -39.5zM850 1116h-170l-127 174l-127 -174h-170l238 289h118z" />
<glyph unicode="&#xf5;" horiz-adv-x="1105" d="M553 119q149 0 223 103.5t74 273.5q0 169 -74 271.5t-223 102.5t-223 -102.5t-74 -271.5q0 -170 74 -273.5t223 -103.5zM553 -20q-118 0 -208.5 39.5t-146.5 110.5t-84 163.5t-28 202.5t28 202.5t84 162.5t146.5 109.5t208.5 39.5t208.5 -39.5t146.5 -109.5t84 -162.5 t28 -202.5t-28 -202.5t-84 -163.5t-146.5 -110.5t-208.5 -39.5zM739 1356h125q0 -217 -178 -217q-41 0 -79.5 15.5t-63.5 34.5t-54.5 34.5t-54.5 15.5q-69 0 -69 -94h-123q0 217 182 217q49 0 97 -25t86.5 -50t64.5 -25q38 0 52.5 24t14.5 70z" />
<glyph unicode="&#xf6;" horiz-adv-x="1105" d="M553 119q149 0 223 103.5t74 273.5q0 169 -74 271.5t-223 102.5t-223 -102.5t-74 -271.5q0 -170 74 -273.5t223 -103.5zM553 -20q-118 0 -208.5 39.5t-146.5 110.5t-84 163.5t-28 202.5t28 202.5t84 162.5t146.5 109.5t208.5 39.5t208.5 -39.5t146.5 -109.5t84 -162.5 t28 -202.5t-28 -202.5t-84 -163.5t-146.5 -110.5t-208.5 -39.5zM461 1251q0 -43 -28 -72.5t-77 -29.5t-76.5 29.5t-27.5 72.5q0 44 27.5 73.5t76.5 29.5t77 -30t28 -73zM854 1251q0 -43 -27.5 -72.5t-76.5 -29.5t-77 29.5t-28 72.5t28 73t77 30t76.5 -29.5t27.5 -73.5z" />
<glyph unicode="&#xf7;" horiz-adv-x="1171" d="M1010 512h-848v139h848v-139zM702 272q0 -53 -33 -87.5t-91 -34.5t-91.5 34.5t-33.5 87.5t33.5 88t91.5 35t91 -35t33 -88zM702 887q0 -53 -33 -88t-91 -35t-91.5 35t-33.5 88t33.5 88t91.5 35t91 -35t33 -88z" />
<glyph unicode="&#xf8;" horiz-adv-x="1105" d="M285 -82h-117l86 156q-168 140 -168 422q0 110 28 202.5t84 162.5t146.5 109.5t208.5 39.5q105 0 192 -35l76 137h117l-102 -184q92 -67 138 -179.5t46 -252.5q0 -110 -28 -202.5t-84 -163.5t-146.5 -110.5t-208.5 -39.5q-123 0 -213 40zM760 786l-348 -634 q59 -33 141 -33q149 0 223 103.5t74 273.5q0 193 -90 290zM332 219l344 627q-52 24 -123 24q-149 0 -223 -102.5t-74 -271.5q0 -176 76 -277z" />
<glyph unicode="&#xf9;" horiz-adv-x="1142" d="M989 0h-139l-33 168q-47 -77 -134.5 -132.5t-213.5 -55.5q-149 0 -234 95.5t-85 297.5v616h167v-616q0 -114 50 -178t133 -64q179 0 317 191v667h172v-989zM717 1110l-344 203l94 129l303 -256z" />
<glyph unicode="&#xfa;" horiz-adv-x="1142" d="M989 0h-139l-33 168q-47 -77 -134.5 -132.5t-213.5 -55.5q-149 0 -234 95.5t-85 297.5v616h167v-616q0 -114 50 -178t133 -64q179 0 317 191v667h172v-989zM770 1313l-344 -203l-53 76l303 256z" />
<glyph unicode="&#xfb;" horiz-adv-x="1142" d="M989 0h-139l-33 168q-47 -77 -134.5 -132.5t-213.5 -55.5q-149 0 -234 95.5t-85 297.5v616h167v-616q0 -114 50 -178t133 -64q179 0 317 191v667h172v-989zM868 1116h-170l-127 174l-127 -174h-170l238 289h119z" />
<glyph unicode="&#xfc;" horiz-adv-x="1142" d="M989 0h-139l-33 168q-47 -77 -134.5 -132.5t-213.5 -55.5q-149 0 -234 95.5t-85 297.5v616h167v-616q0 -114 50 -178t133 -64q179 0 317 191v667h172v-989zM479 1251q0 -43 -27.5 -72.5t-76.5 -29.5t-77 29.5t-28 72.5t28 73t77 30t76.5 -29.5t27.5 -73.5zM872 1251 q0 -43 -27.5 -72.5t-76.5 -29.5t-76.5 29.5t-27.5 72.5q0 44 27.5 73.5t76.5 29.5t76.5 -29.5t27.5 -73.5z" />
<glyph unicode="&#xfd;" horiz-adv-x="1136" d="M811 86v102q-47 -77 -133 -132.5t-211 -55.5q-149 0 -233 95.5t-84 297.5v596h167v-596q0 -114 49 -177.5t132 -63.5q184 0 313 190v647h172v-905q0 -247 -120 -371.5t-341 -124.5q-91 0 -184 26t-152 64l43 138q126 -74 281 -74q151 0 226 77.5t75 266.5zM766 1313 l-344 -203l-53 76l303 256z" />
<glyph unicode="&#xfe;" horiz-adv-x="1146" d="M328 692v-207q0 -154 86.5 -252t201.5 -98q118 0 193.5 90.5t75.5 286.5q0 167 -67 254.5t-185 87.5q-87 0 -167.5 -45t-137.5 -117zM328 -391h-172v1771h172v-538q43 64 135 116t203 52q78 0 143.5 -28.5t110 -76t75 -112t44.5 -135t14 -146.5q0 -254 -111 -393 t-299 -139q-103 0 -189.5 54.5t-125.5 133.5v-559z" />
<glyph unicode="&#xff;" horiz-adv-x="1136" d="M811 86v102q-47 -77 -133 -132.5t-211 -55.5q-149 0 -233 95.5t-84 297.5v596h167v-596q0 -114 49 -177.5t132 -63.5q184 0 313 190v647h172v-905q0 -247 -120 -371.5t-341 -124.5q-91 0 -184 26t-152 64l43 138q126 -74 281 -74q151 0 226 77.5t75 266.5zM475 1251 q0 -43 -27.5 -72.5t-76.5 -29.5t-77 29.5t-28 72.5t28 73t77 30t76.5 -29.5t27.5 -73.5zM868 1251q0 -43 -27.5 -72.5t-76.5 -29.5t-77 29.5t-28 72.5t28 73t77 30t76.5 -29.5t27.5 -73.5z" />
<glyph unicode="&#x131;" horiz-adv-x="491" d="M332 0h-172v989h172v-989z" />
<glyph unicode="&#x141;" horiz-adv-x="1052" d="M991 0h-827v571l-121 -51v164l121 51v645h176v-567l299 131v-164l-299 -131v-485h651v-164z" />
<glyph unicode="&#x142;" horiz-adv-x="491" d="M332 0h-172v567l-109 -47v164l109 47v649h172v-573l108 47v-164l-108 -47v-643z" />
<glyph unicode="&#x152;" horiz-adv-x="1996" d="M1898 0h-856v139q-122 -159 -346 -159q-153 0 -270.5 54t-190 150.5t-109 224t-36.5 281.5t36.5 281.5t108 224.5t187.5 151t266 54q239 0 354 -160v139h844v-161h-667v-424h626v-162h-626v-471h679v-162zM1042 311v740q-103 202 -333 202q-220 0 -331.5 -145 t-111.5 -418t111.5 -418t331.5 -145q239 0 333 184z" />
<glyph unicode="&#x153;" horiz-adv-x="1724" d="M1540 172l39 -127q-130 -65 -317 -65q-258 0 -383 165q-60 -82 -133.5 -123.5t-192.5 -41.5q-118 0 -208.5 39.5t-146.5 110.5t-84 163.5t-28 202.5t28 202.5t84 162.5t146.5 109.5t208.5 39.5q223 0 324 -162q117 162 356 162q197 0 297 -111t100 -307q0 -101 -20 -174 h-658q35 -299 326 -299q153 0 262 53zM815 274q-33 90 -33 222q0 118 27 213q-77 161 -256 161q-149 0 -223 -102.5t-74 -271.5q0 -170 74 -273.5t223 -103.5q192 0 262 155zM1470 545v47q0 141 -56 214t-181 73q-138 0 -207.5 -91t-77.5 -243h522z" />
<glyph unicode="&#x160;" horiz-adv-x="1085" d="M102 57l45 146q129 -66 330 -66q154 0 245 57t91 175q0 34 -10 63t-23.5 50.5t-41 42t-49 33.5t-62 29t-65.5 24.5t-73 23.5q-46 15 -74.5 25.5t-74 31t-74.5 40t-63 50.5t-54 65t-33.5 81.5t-13.5 101.5q0 169 116 270t353 101q187 0 338 -74l-45 -145q-125 61 -293 61 q-153 0 -226 -56t-73 -153q0 -25 6 -47.5t13 -40t24.5 -35t29 -28.5t39 -25.5t41.5 -21.5t49 -20t49.5 -18t54.5 -18q50 -17 82.5 -30t79 -35t77.5 -43t65 -53.5t54 -67.5t33.5 -83t13.5 -103q0 -192 -136 -288.5t-370 -96.5q-228 0 -375 77zM603 1513h-119l-238 289h170 l127 -174l127 174h170z" />
<glyph unicode="&#x161;" horiz-adv-x="886" d="M94 43l39 129q121 -57 270 -57q115 0 169.5 41t54.5 106q0 30 -12.5 55t-32 42.5t-51 34t-61 27t-71.5 23.5q-151 46 -226 112t-75 189q0 125 95.5 195t265.5 70q181 0 303 -64l-39 -129q-121 57 -250 57q-105 0 -157 -35t-52 -94q0 -61 44.5 -93t146.5 -66 q177 -57 257.5 -129t80.5 -197q0 -132 -94.5 -206t-286.5 -74q-207 0 -318 63zM502 1112h-119l-238 289h170l127 -174l127 174h170z" />
<glyph unicode="&#x178;" horiz-adv-x="1163" d="M670 0h-176v588l-461 792h186l361 -641h4l360 641h186l-460 -792v-588zM489 1653q0 -44 -27.5 -73.5t-76.5 -29.5t-76.5 29.5t-27.5 73.5q0 43 27.5 72.5t76.5 29.5t76.5 -29.5t27.5 -72.5zM883 1653q0 -43 -28 -73t-77 -30t-76.5 29.5t-27.5 73.5q0 43 27.5 72.5 t76.5 29.5t77 -29.5t28 -72.5z" />
<glyph unicode="&#x17d;" horiz-adv-x="1122" d="M1028 0h-946v123l704 1096h-655v161h885v-123l-705 -1095h717v-162zM641 1513h-119l-237 289h170l127 -174l127 174h170z" />
<glyph unicode="&#x17e;" horiz-adv-x="925" d="M836 0h-750v98l522 752h-483v139h692v-98l-522 -752h541v-139zM522 1112h-119l-237 289h170l127 -174l127 174h170z" />
<glyph unicode="&#x192;" horiz-adv-x="1171" d="M102 -123l60 135q44 -20 102 -20q73 0 107 56t53 177l65 488h-188v100h203l20 152q13 91 36 158t62.5 120.5t102 81t147.5 27.5t148 -37l-62 -135q-44 20 -102 20q-73 0 -107 -56t-53 -177l-22 -154h241v-100h-253l-66 -486q-13 -91 -36 -158t-62.5 -120.5t-102 -81 t-147.5 -27.5q-90 0 -146 37z" />
<glyph unicode="&#x2c6;" horiz-adv-x="614" d="M604 1116h-170l-127 174l-127 -174h-170l238 289h119z" />
<glyph unicode="&#x2c7;" horiz-adv-x="614" d="M367 1112h-119l-238 289h170l127 -174l127 174h170z" />
<glyph unicode="&#x2d8;" horiz-adv-x="614" d="M483 1430h121q-13 -122 -88 -198.5t-207 -76.5q-133 0 -209.5 76.5t-89.5 198.5h127q11 -68 56.5 -108t117.5 -40q71 0 116 40.5t56 107.5z" />
<glyph unicode="&#x2d9;" horiz-adv-x="614" d="M422 1257q0 -49 -30.5 -80.5t-84.5 -31.5t-84 31.5t-30 80.5t30 81t84 32t84.5 -32t30.5 -81z" />
<glyph unicode="&#x2da;" horiz-adv-x="614" d="M307 1198q42 0 70.5 28t28.5 74t-28.5 74.5t-70.5 28.5t-69 -28t-27 -75q0 -46 27 -74t69 -28zM504 1298q0 -81 -57.5 -137.5t-139.5 -56.5t-139 56t-57 138t57 139.5t139 57.5t139.5 -57.5t57.5 -139.5z" />
<glyph unicode="&#x2db;" horiz-adv-x="614" d="M528 -260h-186l-96 264h112z" />
<glyph unicode="&#x2dc;" horiz-adv-x="614" d="M494 1356h124q0 -217 -178 -217q-41 0 -79.5 15.5t-63.5 34.5t-54.5 34.5t-54.5 15.5q-69 0 -69 -94h-123q0 217 182 217q49 0 97 -25t86.5 -50t64.5 -25q39 0 53.5 24t14.5 70z" />
<glyph unicode="&#x2dd;" horiz-adv-x="614" d="M532 1128h-133l179 287h190zM201 1128h-131l178 287h190z" />
<glyph unicode="&#x3a9;" horiz-adv-x="1540" d="M1321 0h-449v113q56 43 111 103t111.5 141.5t91.5 185.5t35 209q0 230 -119 357.5t-328 127.5q-215 0 -335 -127t-120 -358q0 -105 35 -209t91.5 -185.5t111.5 -141.5t111 -103v-113h-449v154h246q-54 46 -102 99.5t-102 133.5t-86 182.5t-32 212.5q0 282 169.5 450.5 t457.5 168.5t457.5 -168.5t169.5 -450.5q0 -110 -32 -212.5t-86 -182.5t-102 -133.5t-102 -99.5h246v-154z" />
<glyph unicode="&#x3c0;" horiz-adv-x="1226" d="M1108 135l37 -117q-58 -34 -160 -34q-254 0 -254 286v584h-250v-442q0 -108 -20.5 -237t-50.5 -175h-168q33 56 52 184t19 228v442q-128 -3 -221 -53l-26 133q35 24 107.5 40.5t141.5 16.5h824v-137h-242v-598q0 -63 28 -100t81 -37q59 0 102 16z" />
<glyph unicode="&#xe00;" horiz-adv-x="399" />
<glyph unicode="&#xe01;" horiz-adv-x="1236" d="M1083 0h-176v723q0 146 -75 219.5t-218 73.5q-119 0 -209.5 -51t-123.5 -131l145 -127v-35q-94 -46 -94 -164v-508h-176v487q0 62 28 113.5t82 79.5l-168 143q35 138 181 241t335 103q227 0 348 -121.5t121 -322.5v-723z" />
<glyph unicode="&#xe02;" horiz-adv-x="1138" d="M809 393v754h176v-752q0 -206 -101.5 -310.5t-322.5 -104.5q-215 0 -321.5 107.5t-106.5 283.5v157q0 44 21 89t51.5 81.5t60.5 71t51 67.5t21 60v49q0 25 -11.5 37t-39.5 12h-142v152h162q106 0 152.5 -47.5t46.5 -138.5v-62q0 -50 -31.5 -104.5t-69 -93.5t-69 -86.5 t-31.5 -86.5v-157q0 -242 256 -242q132 0 190 58t58 206z" />
<glyph unicode="&#xe03;" horiz-adv-x="1146" d="M817 393v754h176v-752q0 -206 -101.5 -310.5t-322.5 -104.5q-215 0 -321.5 107.5t-106.5 283.5v157q0 44 22.5 88t54 80.5t63.5 71.5t54.5 74.5t22.5 75.5v38q0 52 -51 52q-55 0 -76 -68l-161 72v155l143 -73q20 30 58.5 47.5t80.5 17.5q88 0 131 -53t43 -148v-40 q0 -50 -22 -97.5t-53 -84t-62.5 -70.5t-53.5 -70t-22 -68v-157q0 -242 256 -242q132 0 190 58t58 206z" />
<glyph unicode="&#xe04;" horiz-adv-x="1269" d="M1116 0h-176v729q0 133 -77.5 210t-227.5 77t-227.5 -77t-77.5 -210v-250q28 64 86.5 103t140.5 39h145v-154h-145q-83 0 -142 -46.5t-85 -137.5v-283h-176v727q0 94 32 174t92 139.5t152 93t205 33.5t205 -33.5t152 -93t92 -139.5t32 -174v-727z" />
<glyph unicode="&#xe05;" horiz-adv-x="1290" d="M1135 0h-177v803q0 149 -116 198l-197 -112l-196 112q-117 -49 -117 -198v-324q28 63 88 102.5t143 39.5h146v-154h-146q-84 0 -144.5 -47t-86.5 -137v-283h-176v791q0 152 73 249.5t209 126.5l207 -137l207 137q137 -29 210 -126.5t73 -249.5v-791z" />
<glyph unicode="&#xe06;" horiz-adv-x="1241" d="M911 430v717h176v-719q0 -212 -100.5 -330t-298.5 -118q-223 0 -354 188l-10 -168h-166v508q0 44 20 89t49 83.5t58 76t49 79.5t20 82v38q0 52 -51 52q-55 0 -76 -68l-161 72v155l143 -73q20 30 58.5 47.5t80.5 17.5q88 0 131 -53t43 -148v-40q0 -53 -19.5 -104t-47 -90 t-55 -74.5t-47 -72t-19.5 -69.5v-143q42 -96 138.5 -165t195.5 -69q126 0 184.5 75t58.5 224z" />
<glyph unicode="&#xe07;" horiz-adv-x="1153" d="M532 0h-157l-346 1147h180l303 -995h25q141 0 239 120t98 328q0 215 -68 315.5t-181 100.5q-75 0 -125 -21l-27 142q56 30 160 30q188 0 303 -151t115 -416q0 -271 -147.5 -435.5t-371.5 -164.5z" />
<glyph unicode="&#xe08;" horiz-adv-x="1110" d="M500 0h-144l-110 461q-6 26 -17.5 35.5t-35.5 9.5h-78v151h92q90 0 135.5 -33.5t67.5 -127.5l79 -344h27q129 0 222 124.5t93 335.5q0 210 -90 307t-262 97q-112 0 -214.5 -40.5t-180.5 -107.5l-55 138q89 74 206 117.5t242 43.5q262 0 396.5 -145.5t134.5 -411.5 q0 -269 -141.5 -439.5t-366.5 -170.5z" />
<glyph unicode="&#xe09;" horiz-adv-x="1208" d="M1055 0h-166l-10 168q-27 -42 -53.5 -71t-67 -58t-97.5 -44t-129 -15q-170 0 -257 88t-87 260v133q0 45 -38 45h-66v151h119q157 0 157 -168v-155q0 -105 49.5 -154t159.5 -49q99 0 180.5 66.5t129.5 167.5v321q0 161 -80 245.5t-234 84.5q-233 0 -432 -146l-63 138 q226 159 493 159q241 0 366.5 -127.5t125.5 -353.5v-686z" />
<glyph unicode="&#xe0a;" horiz-adv-x="1138" d="M809 393v207q0 160 -131 160h-39l-25 74l217 313h193l-231 -301q84 -18 138 -83t54 -161v-207q0 -206 -101.5 -310.5t-322.5 -104.5q-215 0 -321.5 107.5t-106.5 283.5v157q0 44 21 89t51.5 81.5t60.5 71t51 67.5t21 60v49q0 25 -11.5 37t-39.5 12h-142v152h162 q106 0 152.5 -47.5t46.5 -138.5v-62q0 -50 -31.5 -104.5t-69 -93.5t-69 -86.5t-31.5 -86.5v-157q0 -242 256 -242q132 0 190 58t58 206z" />
<glyph unicode="&#xe0b;" horiz-adv-x="1146" d="M817 393v207q0 160 -131 160h-39l-24 74l217 313h192l-231 -301q84 -18 138 -83t54 -161v-207q0 -206 -101.5 -310.5t-322.5 -104.5q-215 0 -321.5 107.5t-106.5 283.5v157q0 44 22.5 88t54 80.5t63.5 71.5t54.5 74.5t22.5 75.5v38q0 52 -51 52q-55 0 -76 -68l-161 72 v155l143 -73q20 30 58.5 47.5t80.5 17.5q88 0 131 -53t43 -148v-40q0 -50 -22 -97.5t-53 -84t-62.5 -70.5t-53.5 -70t-22 -68v-157q0 -242 256 -242q132 0 190 58t58 206z" />
<glyph unicode="&#xe0c;" horiz-adv-x="1888" d="M1559 430v717h176v-719q0 -214 -93 -331t-278 -117q-195 0 -326 188l-10 -168h-166v723q0 146 -69.5 219.5t-200.5 73.5q-108 0 -193 -51t-118 -131l145 -127v-35q-94 -46 -94 -164v-307q0 -27 10 -40.5t37 -13.5h110v-147h-157q-83 0 -129.5 51t-46.5 133v303 q0 62 28 113.5t82 79.5l-168 143q35 139 173.5 241.5t320.5 102.5q219 0 332.5 -121t113.5 -323v-358q42 -95 131.5 -164.5t173.5 -69.5q216 0 216 299z" />
<glyph unicode="&#xe0d;" horiz-adv-x="1888" d="M1559 127v61q-26 -48 -64.5 -87t-110 -70t-159.5 -31q-73 0 -136.5 22.5t-115 68t-81.5 123t-30 179.5v330q0 146 -69.5 219.5t-200.5 73.5q-108 0 -193 -51t-118 -131l145 -127v-35q-94 -46 -94 -164v-307q0 -27 10 -40.5t37 -13.5h110v-147h-157q-83 0 -129.5 51 t-46.5 133v303q0 62 28 113.5t82 79.5l-168 143q35 139 173.5 241.5t320.5 102.5q219 0 332.5 -121t113.5 -323v-330q0 -116 56 -178.5t161 -62.5q102 0 179 53.5t125 136.5v805h176v-1022q0 -232 -123.5 -345.5t-337.5 -113.5q-113 0 -209.5 25.5t-157.5 64.5l43 138 q126 -74 297 -74q78 0 130 11.5t96 43.5t65 94t21 158z" />
<glyph unicode="&#xe0e;" horiz-adv-x="1257" d="M1104 -410h-219q-122 113 -267 113q-97 0 -165.5 -27t-141.5 -86l-47 136q141 127 332 127q93 0 183.5 -41t148.5 -101v1012q0 146 -75 219.5t-218 73.5q-122 0 -214.5 -49.5t-123.5 -128.5l166 -144v-35q-90 -64 -90 -167v-308q0 -82 -47 -133.5t-129 -50.5h-136v147h89 q27 0 37 13.5t10 40.5v272q0 62 29 115t81 78l-188 157q36 139 179.5 241.5t336.5 102.5q227 0 348 -121.5t121 -322.5v-1133z" />
<glyph unicode="&#xe0f;" horiz-adv-x="1257" d="M1104 -410h-168l-244 146q-32 -71 -103.5 -114.5t-152.5 -43.5q-73 0 -142 17.5t-112 46.5l45 149q45 -31 101 -52.5t98 -21.5q85 0 149 57.5t82 145.5l271 -162v965q0 146 -75 219.5t-218 73.5q-122 0 -214.5 -49.5t-123.5 -128.5l166 -144v-35q-90 -64 -90 -167v-308 q0 -82 -47 -133.5t-129 -50.5h-136v147h89q27 0 37 13.5t10 40.5v272q0 62 29 115t81 78l-188 157q36 139 179.5 241.5t336.5 102.5q227 0 348 -121.5t121 -322.5v-1133z" />
<glyph unicode="&#xe10;" horiz-adv-x="1110" d="M500 0h-144l-110 461q-6 26 -17.5 35.5t-35.5 9.5h-78v151h92q90 0 135.5 -33.5t67.5 -127.5l79 -344h27q129 0 222 124.5t93 335.5q0 404 -352 404q-112 0 -214.5 -40.5t-180.5 -107.5l-55 138q89 74 206 117.5t242 43.5q154 0 264 -61l103 121h200l-176 -211 q140 -149 140 -406q0 -269 -141.5 -439.5t-366.5 -170.5zM946 -410h-268q-125 0 -201 99q-27 -43 -85 -71t-128 -28h-135v156h145q110 0 203 100q48 -52 89 -76t104 -24h108v119h168v-275z" />
<glyph unicode="&#xe11;" horiz-adv-x="1247" d="M1092 0h-177v786q0 122 -38 176t-121 54q-95 0 -195.5 -93.5t-163.5 -227.5t-63 -249v-446h-176v446q0 70 17.5 136t50.5 124t60.5 97t67.5 86v67q0 52 -51 52q-55 0 -76 -68l-141 72v155l123 -73q20 30 58.5 47.5t80.5 17.5q67 0 107.5 -42.5t42.5 -104.5 q46 68 119.5 111.5t170.5 43.5q138 0 221 -98.5t83 -282.5v-786z" />
<glyph unicode="&#xe12;" horiz-adv-x="2021" d="M1692 430v717h176v-719q0 -215 -97 -331.5t-294 -116.5q-216 0 -347 188l-10 -168h-166v803q0 149 -116 198l-158 -104l-154 104q-113 -24 -180 -132.5t-67 -288.5q0 -120 26 -209.5t69.5 -138t93 -71t105.5 -22.5q73 0 140 25l32 -139q-76 -37 -180 -37 q-100 0 -182.5 33.5t-146 102.5t-99 185t-35.5 271q0 235 113 392.5t301 194.5l164 -129l168 129q136 -29 209 -126.5t73 -249.5v-426q42 -96 136.5 -165t189.5 -69q122 0 179 75t57 224z" />
<glyph unicode="&#xe13;" horiz-adv-x="1888" d="M1731 0h-166l-11 168q-61 -92 -138.5 -140t-190.5 -48q-170 0 -266.5 104t-96.5 283v356q0 146 -69.5 219.5t-200.5 73.5q-108 0 -193 -51t-118 -131l145 -127v-35q-94 -46 -94 -164v-307q0 -27 10 -40.5t37 -13.5h110v-147h-157q-83 0 -129.5 51t-46.5 133v303 q0 62 28 113.5t82 79.5l-168 143q35 139 173.5 241.5t320.5 102.5q219 0 332.5 -121t113.5 -323v-354q0 -110 52 -174t143 -64q105 0 191 67t130 167v782h177v-1147z" />
<glyph unicode="&#xe14;" horiz-adv-x="1280" d="M1126 0h-176v682q0 150 -75 242t-224 92q-181 0 -276.5 -119t-95.5 -336q0 -92 18.5 -165.5t48 -120.5t70 -78.5t81.5 -44.5t85 -13q72 0 139 25l33 -139q-76 -37 -181 -37q-95 0 -178.5 35.5t-149.5 104t-104.5 180t-38.5 253.5q0 130 34 239.5t100 191.5t171.5 128.5 t239.5 46.5q121 0 214.5 -39t150 -107t85.5 -154t29 -187v-680z" />
<glyph unicode="&#xe15;" horiz-adv-x="1308" d="M1155 0h-176v803q0 149 -117 198l-166 -104l-161 104q-114 -24 -185 -135.5t-71 -294.5q0 -94 18.5 -169.5t48 -123.5t70 -80.5t81.5 -45.5t85 -13q72 0 139 25l33 -139q-76 -37 -181 -37q-100 0 -183.5 33.5t-149 101.5t-102 182.5t-36.5 265.5q0 240 116 399.5 t306 196.5l172 -129l176 129q137 -29 210 -126.5t73 -249.5v-791z" />
<glyph unicode="&#xe16;" horiz-adv-x="1241" d="M1087 0h-176v723q0 146 -75.5 219.5t-219.5 73.5q-119 0 -210.5 -51t-124.5 -131l145 -127v-35q-94 -46 -94 -164v-307q0 -27 10 -40.5t37 -13.5h110v-147h-157q-83 0 -129.5 51t-46.5 133v303q0 62 28 113.5t82 79.5l-168 143q35 139 180.5 241.5t337.5 102.5 q227 0 349 -121.5t122 -322.5v-723z" />
<glyph unicode="&#xe17;" horiz-adv-x="1257" d="M1104 0h-176v735q0 143 -53 212t-148 69q-123 0 -229 -67.5t-164 -166.5v-782h-176v1147h166l10 -168q70 79 175 133.5t226 54.5q177 0 273 -116.5t96 -315.5v-735z" />
<glyph unicode="&#xe18;" horiz-adv-x="1138" d="M1036 418v-86q0 -184 -111 -267t-356 -83q-253 0 -360 79t-107 277v129h170v-129q0 -124 65.5 -167.5t231.5 -43.5q165 0 231 45t66 160v88q0 54 -27 81.5t-83 35.5l-400 55q-262 39 -262 272q0 137 125 220t344 83q242 0 420 -90l-37 -139q-153 84 -379 84 q-148 0 -225.5 -43.5t-77.5 -114.5q0 -98 111 -116l399 -58q262 -39 262 -272z" />
<glyph unicode="&#xe19;" horiz-adv-x="1241" d="M1083 0h-165l-11 168q-65 -94 -147 -141t-209 -47q-196 0 -296.5 109t-100.5 319v739h176v-737q0 -145 59.5 -212t183.5 -67q106 0 199 66.5t135 167.5v782h176v-1147z" />
<glyph unicode="&#xe1a;" horiz-adv-x="1236" d="M907 422v725h176v-725q0 -214 -119 -328t-346 -114t-345.5 114t-118.5 328v725h176v-725q0 -139 72 -215t216 -76t216.5 76.5t72.5 214.5z" />
<glyph unicode="&#xe1b;" horiz-adv-x="1236" d="M907 422v1114h176v-1114q0 -214 -119 -328t-346 -114t-345.5 114t-118.5 328v725h176v-725q0 -139 72 -215t216 -76t216.5 76.5t72.5 214.5z" />
<glyph unicode="&#xe1c;" horiz-adv-x="1351" d="M1194 0h-188l-261 518q-48 92 -63 168h-4q-14 -73 -64 -168l-268 -518h-188v963q0 82 47 133.5t129 50.5h135v-152h-88q-51 0 -51 -53v-407q0 -188 -19 -336h4q47 163 91 245l204 381h140l198 -383q43 -85 88 -243h4q-18 123 -18 336v612h172v-1147z" />
<glyph unicode="&#xe1d;" horiz-adv-x="1351" d="M1194 0h-188l-261 518q-48 92 -63 168h-4q-14 -73 -64 -168l-268 -518h-188v963q0 82 47 133.5t129 50.5h135v-152h-88q-51 0 -51 -53v-407q0 -188 -19 -336h4q47 163 91 245l204 381h140l198 -383q43 -85 88 -243h4q-18 123 -18 336v1001h172v-1536z" />
<glyph unicode="&#xe1e;" horiz-adv-x="1454" d="M1190 0h-195l-196 588q-50 155 -70 325h-4q-20 -170 -70 -325l-196 -588h-195l-190 1147h178l104 -651q26 -190 31 -312h6q36 216 72 336l186 570h152l186 -570q36 -120 72 -336h6q5 122 31 312l104 651h178z" />
<glyph unicode="&#xe1f;" horiz-adv-x="1454" d="M1210 0h-194l-207 588q-2 6 -11.5 35t-12 38t-11 35.5t-11.5 39.5t-9.5 38.5t-10 44.5t-7.5 44t-7 50h-4q-20 -170 -70 -325l-196 -588h-195l-190 1147h178l104 -651q26 -190 31 -312h6q36 216 72 336l186 570h152l192 -570q46 -124 82 -336h6q6 142 21 312l106 1040h162 z" />
<glyph unicode="&#xe20;" horiz-adv-x="1257" d="M1104 0h-176v723q0 146 -75 219.5t-218 73.5q-122 0 -214.5 -49.5t-123.5 -128.5l166 -144v-35q-90 -64 -90 -167v-308q0 -82 -47 -133.5t-129 -50.5h-136v147h89q27 0 37 13.5t10 40.5v272q0 62 29 115t81 78l-188 157q36 139 179.5 241.5t336.5 102.5q227 0 348 -121.5 t121 -322.5v-723z" />
<glyph unicode="&#xe21;" horiz-adv-x="1241" d="M911 430v717h176v-719q0 -212 -100.5 -330t-298.5 -118q-223 0 -354 188l-10 -168h-166v1147h176v-782q42 -96 138.5 -165t195.5 -69q126 0 184.5 75t58.5 224z" />
<glyph unicode="&#xe22;" horiz-adv-x="1187" d="M858 430v717h176v-719q0 -212 -116.5 -330t-366.5 -118q-218 0 -337.5 96t-119.5 274q0 102 51 174.5t140 102.5q-84 22 -137.5 89.5t-53.5 178.5q0 117 79 190.5t214 73.5q96 0 180 -35l-20 -147q-60 31 -131 31q-73 0 -112.5 -37t-39.5 -99q0 -74 58 -118.5t129 -44.5 h174l14 -152h-162q-92 0 -151.5 -54t-59.5 -143q0 -108 83.5 -168.5t205.5 -60.5q303 0 303 299z" />
<glyph unicode="&#xe23;" horiz-adv-x="1009" d="M100 59l43 138q139 -68 318 -68q133 0 207.5 52t74.5 126q0 34 -18 63.5t-43.5 49.5t-68 40t-77 32t-85.5 28q-68 20 -118.5 39.5t-98.5 48.5t-78 63.5t-48 83t-18 107.5q0 145 115 225t315 80q205 0 352 -75l-45 -140q-129 66 -290 66q-126 0 -200.5 -44t-74.5 -112 q0 -29 14 -54t35 -43t57 -35.5t67.5 -29t78.5 -26.5q103 -33 172 -65t123.5 -75.5t80 -100t25.5 -130.5q0 -151 -112.5 -237t-333.5 -86q-233 0 -369 79z" />
<glyph unicode="&#xe24;" horiz-adv-x="1241" d="M1087 -410h-176v1133q0 146 -76 219.5t-219 73.5q-119 0 -210.5 -51t-124.5 -131l145 -127v-35q-94 -46 -94 -164v-307q0 -27 10 -40.5t37 -13.5h110v-147h-157q-83 0 -129.5 51t-46.5 133v303q0 62 28 113.5t82 79.5l-168 143q35 139 180.5 241.5t337.5 102.5 q227 0 349 -121.5t122 -322.5v-1133z" />
<glyph unicode="&#xe25;" horiz-adv-x="1179" d="M1026 0h-176v553h-287q-150 0 -231.5 -57t-81.5 -172q0 -96 57 -146.5t152 -50.5q101 0 176 35l29 -146q-92 -36 -224 -36q-161 0 -263.5 88.5t-102.5 253.5q0 183 129 283t381 100h266v26q0 142 -67 215.5t-222 73.5q-217 0 -391 -121l-57 125q67 59 193.5 101t268.5 42 q218 0 334.5 -116t116.5 -318v-733z" />
<glyph unicode="&#xe26;" horiz-adv-x="1257" d="M1104 -410h-176v1133q0 146 -75 219.5t-218 73.5q-122 0 -214.5 -49.5t-123.5 -128.5l166 -144v-35q-90 -64 -90 -167v-308q0 -82 -47 -133.5t-129 -50.5h-136v147h89q27 0 37 13.5t10 40.5v272q0 62 29 115t81 78l-188 157q36 139 179.5 241.5t336.5 102.5 q227 0 348 -121.5t121 -322.5v-1133z" />
<glyph unicode="&#xe27;" horiz-adv-x="1077" d="M76 90l43 143q169 -102 338 -102q160 0 251 109.5t91 324.5q0 451 -342 451q-103 0 -180.5 -26t-161.5 -81l-41 142q176 116 397 116q245 0 374.5 -153t129.5 -432q0 -293 -135 -447.5t-387 -154.5q-215 0 -377 110z" />
<glyph unicode="&#xe28;" horiz-adv-x="1269" d="M1116 0h-176v717q0 135 -76.5 217t-224.5 82q-150 0 -229.5 -77.5t-79.5 -209.5v-250q28 64 86.5 103t140.5 39h137v-154h-137q-83 0 -142 -46.5t-85 -137.5v-283h-176v727q0 193 129.5 316.5t355.5 123.5q138 0 231 -55l97 115h200l-172 -205q121 -102 121 -307v-715z " />
<glyph unicode="&#xe29;" horiz-adv-x="1265" d="M1217 602h-134v-180q0 -214 -119 -328t-346 -114t-345.5 114t-118.5 328v725h176v-725q0 -139 72 -215t216 -76t216.5 76.5t72.5 214.5v180h-268v152h268v393h176v-393h174z" />
<glyph unicode="&#xe2a;" horiz-adv-x="1179" d="M1026 0h-176v553h-287q-150 0 -231.5 -57t-81.5 -172q0 -96 57 -146.5t152 -50.5q101 0 176 35l29 -146q-92 -36 -224 -36q-161 0 -263.5 88.5t-102.5 253.5q0 183 129 283t381 100h266v26q0 289 -283 289q-223 0 -397 -121l-57 125q70 58 198.5 100.5t255.5 42.5 q128 0 228 -49l92 109h200l-167 -201q106 -109 106 -293v-733z" />
<glyph unicode="&#xe2b;" horiz-adv-x="1200" d="M1139 0h-189l-151 520q-59 190 -209 193l-256 -211v-502h-176v1147h176v-451l545 451h237l-401 -332q104 -16 166 -87t100 -193z" />
<glyph unicode="&#xe2c;" horiz-adv-x="1351" d="M1194 0h-188l-269 518q-48 92 -63 168h-4q-14 -73 -64 -168l-260 -518h-188v1147h172v-612q0 -207 -19 -336h4q45 158 88 243l199 383h139l205 -381q42 -78 90 -245h4q-18 140 -18 336v323q0 118 -35.5 167.5t-134.5 49.5h-25l-24 74l266 387h180l-274 -375 q73 -8 123.5 -53t73 -108.5t22.5 -139.5v-860z" />
<glyph unicode="&#xe2d;" horiz-adv-x="1212" d="M496 506h-164q-24 0 -38.5 -15.5t-14.5 -44.5v-55q0 -134 75.5 -197t231.5 -63q348 0 348 449q0 210 -91.5 323t-258.5 113q-244 0 -420 -135l-58 131q77 64 206.5 109.5t271.5 45.5q255 0 390.5 -157.5t135.5 -438.5q0 -289 -133.5 -440t-386.5 -151q-244 0 -366 105 t-122 306v62q0 103 54.5 153.5t154.5 50.5h185v-151z" />
<glyph unicode="&#xe2e;" horiz-adv-x="1212" d="M496 506h-164q-24 0 -38.5 -15.5t-14.5 -44.5v-55q0 -134 75.5 -197t231.5 -63q348 0 348 449q0 203 -97 319.5t-253 116.5q-244 0 -420 -135l-58 131q77 64 206.5 109.5t271.5 45.5q140 0 247 -55l99 115h200l-176 -207q156 -156 156 -449q0 -289 -133.5 -440 t-386.5 -151q-244 0 -366 105t-122 306v62q0 103 54.5 153.5t154.5 50.5h185v-151z" />
<glyph unicode="&#xe2f;" horiz-adv-x="1124" d="M967 0h-176v856q-41 -87 -143 -139.5t-222 -52.5q-92 0 -159.5 30t-107.5 86t-58.5 128.5t-18.5 164.5v74h172v-76q0 -135 51 -201.5t160 -66.5q77 0 155.5 45.5t128.5 119t50 148.5v31h168v-1147z" />
<glyph unicode="&#xe30;" horiz-adv-x="614" d="M512 741h-238q-89 0 -136.5 39t-47.5 127v101h168v-84q0 -39 39 -39h215v-144zM512 176h-238q-89 0 -136.5 39t-47.5 127v100h168v-84q0 -39 39 -39h215v-143z" />
<glyph unicode="&#xe31;" d="M80 1303h-529q-206 0 -206 184v82h168v-62q0 -61 57 -61h510v-143z" />
<glyph unicode="&#xe32;" horiz-adv-x="970" d="M817 0h-176v739q0 277 -244 277q-93 0 -178.5 -33.5t-150.5 -87.5l-48 133q67 58 176 98.5t218 40.5q199 0 301 -112.5t102 -323.5v-731z" />
<glyph unicode="&#xe33;" horiz-adv-x="970" d="M-246 1274q-86 0 -144.5 58.5t-58.5 146.5q0 85 58.5 144.5t144.5 59.5q85 0 145 -59.5t60 -144.5q0 -87 -60 -146t-145 -59zM-246 1391q38 0 63 26.5t25 63.5q0 38 -25 63t-63 25q-36 0 -61 -25t-25 -63q0 -37 25.5 -63.5t60.5 -26.5zM817 0h-176v739q0 277 -244 277 q-93 0 -178.5 -33.5t-150.5 -87.5l-48 133q67 58 176 98.5t218 40.5q199 0 301 -112.5t102 -323.5v-731z" />
<glyph unicode="&#xe34;" d="M-154 1303h-878v143h878v-143z" />
<glyph unicode="&#xe35;" d="M-154 1303h-878v143h713v188h165v-331z" />
<glyph unicode="&#xe36;" d="M-281 1303h-8h-6h-737v143h567q-4 28 -4 39q0 77 52.5 129.5t127.5 52.5q78 0 130.5 -52t52.5 -130q0 -74 -50.5 -125.5t-124.5 -56.5zM-289 1413q30 0 51 22t21 52q0 31 -20.5 51.5t-51.5 20.5q-29 0 -49 -20.5t-20 -51.5q0 -30 20 -52t49 -22z" />
<glyph unicode="&#xe37;" d="M-154 1303h-878v143h479v188h145v-192h109v192h145v-331z" />
<glyph unicode="&#xe38;" d="M-154 -535h-172v203q0 43 -43 43h-80v148h134q86 0 123.5 -40.5t37.5 -133.5v-220z" />
<glyph unicode="&#xe39;" d="M-322 -342v201h168v-201q0 -105 -68 -160t-198 -55t-196 55t-66 160v57h-113v144h277v-201q0 -45 27 -66.5t71 -21.5t71 21.5t27 66.5z" />
<glyph unicode="&#xe3a;" d="M-119 -256q0 -54 -39 -91.5t-96 -37.5q-54 0 -93.5 37.5t-39.5 91.5t39.5 92.5t93.5 38.5q57 0 96 -38.5t39 -92.5z" />
<glyph unicode="&#xe3f;" horiz-adv-x="1171" d="M651 -205h-114v205h-385v1331h385v205h114v-207q196 -7 297 -103t101 -251q0 -55 -19.5 -103t-52 -81t-66 -55t-69.5 -36q50 -9 94.5 -31.5t84 -59t62.5 -93.5t23 -127q0 -171 -117 -277t-338 -110v-207zM537 154v458h-218v-458h218zM537 764v414h-218v-414h218zM651 610 v-454q135 6 211 67.5t76 165.5q0 211 -287 221zM651 1174v-406q101 5 165.5 62t64.5 153q0 86 -63 138.5t-167 52.5z" />
<glyph unicode="&#xe40;" horiz-adv-x="495" d="M336 0h-176v1147h176v-1147z" />
<glyph unicode="&#xe41;" horiz-adv-x="892" d="M332 0h-172v1147h172v-1147zM733 0h-172v1147h172v-1147z" />
<glyph unicode="&#xe42;" horiz-adv-x="561" d="M389 0h-176v1260q0 155 -74 257.5t-176 129.5l-4 36q39 76 121.5 131t174.5 79t185 24q222 0 359 -76l-31 -147q-124 73 -328 73q-93 0 -171.5 -23t-112.5 -63q233 -141 233 -438v-1243z" />
<glyph unicode="&#xe43;" horiz-adv-x="561" d="M389 0h-176v1104q0 63 25.5 124.5t62 109.5t73 93.5t62 93t25.5 91.5q0 147 -166 147q-79 0 -162.5 -36t-152.5 -105l-56 123q55 74 162 123t221 49q160 0 249 -85t89 -216q0 -56 -26.5 -112t-64 -104.5t-75 -98.5t-64 -112.5t-26.5 -127.5v-1061z" />
<glyph unicode="&#xe44;" horiz-adv-x="561" d="M389 0h-176v1366q0 233 158 375h-506v145h731v-123q-207 -93 -207 -358v-1405z" />
<glyph unicode="&#xe45;" horiz-adv-x="970" d="M817 -410h-176v1149q0 277 -244 277q-93 0 -178.5 -33.5t-150.5 -87.5l-48 133q67 58 176 98.5t218 40.5q199 0 301 -112.5t102 -323.5v-1141z" />
<glyph unicode="&#xe46;" horiz-adv-x="1144" d="M991 -410h-176v1262q0 158 -98 176l-168 -121l-172 121q-127 -27 -127 -133q0 -60 34.5 -92.5t94.5 -32.5q36 0 55 8l21 -133q-43 -14 -97 -14q-108 0 -182 66.5t-74 197.5q0 115 80.5 184.5t202.5 91.5l164 -124l166 124q134 -7 205 -101t71 -230v-1250z" />
<glyph unicode="&#xe47;" d="M-225 1303h-127q-52 0 -92.5 27t-61.5 71q-15 -46 -59.5 -76.5t-114.5 -30.5q-102 0 -163.5 65t-61.5 154q0 97 65.5 164.5t192.5 67.5h420v-139h-414q-52 0 -76 -27t-24 -68q0 -38 23.5 -62t66.5 -24q33 0 59.5 25.5t32.5 56.5h98q16 -61 101 -61h135v-143z" />
<glyph unicode="&#xe48;" d="M-154 1735h-165v274h165v-274z" />
<glyph unicode="&#xe49;" d="M12 1735h-368q-36 0 -61 23t-25 59v53q0 19 -4.5 26t-22.5 7h-104v143h165q115 0 115 -96v-45q0 -29 29 -29h276v-141z" />
<glyph unicode="&#xe4a;" d="M-125 1735h-82l-16 34q18 18 18 50q0 55 -59 59l-90 -72l-90 66q-23 0 -36.5 -14.5t-13.5 -38.5q0 -36 23 -88h-156q-16 45 -16 106q0 67 48.5 119t135.5 59l105 -94l96 96q177 -6 162 -184q40 18 52.5 48.5t12.5 98.5q0 52 -20 91h164q16 -46 16 -80q0 -107 -71 -181.5 t-183 -74.5z" />
<glyph unicode="&#xe4b;" d="M-18 1855l-146 5l4 -125h-153l6 125l-146 -5v123l146 -4l-6 127h153l-4 -127l146 4v-123z" />
<glyph unicode="&#xe4c;" d="M-113 1671h-133q-38 0 -57 -16t-19 -53v-43h-184v65q0 90 53.5 140.5t155.5 50.5h184v-144z" />
<glyph unicode="&#xe4d;" d="M-246 1274q-86 0 -144.5 58.5t-58.5 146.5q0 85 58.5 144.5t144.5 59.5q85 0 145 -59.5t60 -144.5q0 -87 -60 -146t-145 -59zM-246 1391q38 0 63 26.5t25 63.5q0 38 -25 63t-63 25q-36 0 -61 -25t-25 -63q0 -37 25.5 -63.5t60.5 -26.5z" />
<glyph unicode="&#xe4e;" d="M-293 1432v-103q-47 -31 -123 -31q-89 0 -152 45t-63 132q0 81 54 128t161 37q-24 27 -24 70q0 44 36.5 71t108.5 27h123l29 -114h-123q-35 0 -35 -37q0 -35 51 -58l-33 -86q-65 19 -120 19q-80 0 -80 -57q0 -60 88 -60q55 0 102 17z" />
<glyph unicode="&#xe4f;" horiz-adv-x="1118" d="M559 53q-119 0 -219.5 59.5t-158.5 160.5t-58 219q0 182 127.5 309t308.5 127t308.5 -127t127.5 -309q0 -118 -58 -219t-158.5 -160.5t-219.5 -59.5zM559 123q154 0 261.5 107.5t107.5 261.5t-107.5 261t-261.5 107t-261.5 -107t-107.5 -261t107.5 -261.5t261.5 -107.5z M559 240q-106 0 -180 72.5t-74 176.5q0 106 74 180t178 74q106 0 180 -73.5t74 -177.5q0 -105 -74.5 -178.5t-177.5 -73.5zM559 344q60 0 101.5 42.5t41.5 105.5q0 60 -42 101.5t-103 41.5q-60 0 -102.5 -43t-42.5 -103t43 -102.5t104 -42.5z" />
<glyph unicode="&#xe50;" horiz-adv-x="1306" d="M1208 496q0 -156 -76 -274.5t-201.5 -179t-279.5 -60.5q-113 0 -213.5 35.5t-176 100t-119.5 162.5t-44 216q0 156 76 274.5t201.5 179t279.5 60.5q113 0 213.5 -35.5t176 -100t119.5 -162.5t44 -216zM1038 496q0 168 -110.5 267t-274.5 99t-274.5 -99t-110.5 -267 t110.5 -267.5t274.5 -99.5t274.5 99.5t110.5 267.5z" />
<glyph unicode="&#xe51;" horiz-adv-x="1312" d="M606 -231h-71l16 141h67q62 0 122.5 20t115.5 60.5t96.5 98t66.5 138.5t25 174q0 211 -110 336t-299 125q-169 0 -276 -99.5t-107 -252.5q0 -139 74.5 -217t193.5 -78q83 0 174 35q1 -28 5.5 -71t5.5 -68q-82 -43 -185 -43q-88 0 -165.5 28.5t-137 83t-93.5 140 t-34 192.5q0 218 152.5 358t396.5 140q264 0 419.5 -165.5t155.5 -438.5q0 -140 -48 -260t-130.5 -202t-194 -128.5t-235.5 -46.5z" />
<glyph unicode="&#xe52;" horiz-adv-x="1511" d="M979 0h-440q-187 0 -288 108.5t-101 288.5v750h169v-750q0 -125 61.5 -187.5t168.5 -62.5h420q107 0 168 62.5t61 187.5v246q0 101 -31 150.5t-104 56.5l-158 -125l-170 129q-51 -10 -79.5 -57t-28.5 -105q0 -68 45 -115t116 -69l-45 -129q-128 23 -200 104t-72 205 q0 134 72.5 218.5t197.5 103.5l164 -146l150 146q164 -17 238.5 -110t74.5 -263v-240q0 -179 -102 -288t-287 -109z" />
<glyph unicode="&#xe53;" horiz-adv-x="1353" d="M1210 0h-170v680q0 39 -4.5 67.5t-16.5 56.5t-39 43t-67 15q-81 0 -116 -49.5t-35 -146.5v-297h-154v297q0 97 -31.5 146.5t-103.5 49.5q-188 0 -188 -366q0 -177 50.5 -274t139.5 -97q42 0 98 18l33 -116q-56 -39 -137 -39q-164 0 -259 139t-95 367q0 154 36.5 268.5 t114 181t189.5 66.5q96 0 149.5 -38.5t81.5 -107.5q69 146 236 146q143 0 215.5 -90.5t72.5 -241.5v-678z" />
<glyph unicode="&#xe54;" horiz-adv-x="1251" d="M1163 0h-96q-106 0 -166 18.5t-110 71.5q-43 -53 -105.5 -81.5t-169.5 -28.5q-183 0 -300.5 136.5t-117.5 362.5q0 124 42.5 222.5t117.5 160.5t175 94.5t218 32.5h209q105 0 142.5 34t37.5 99v25h170v-25q0 -136 -80.5 -208t-238.5 -72h-238q-180 0 -282.5 -88.5 t-102.5 -270.5q0 -160 82.5 -259t204.5 -99q110 0 176 63q-49 70 -49 166q0 119 73.5 188.5t180.5 69.5h143l-32 -143h-72q-56 0 -92.5 -37.5t-36.5 -101.5q0 -90 61 -138.5t183 -48.5h104z" />
<glyph unicode="&#xe55;" horiz-adv-x="1263" d="M1176 0h-97q-106 0 -166 18.5t-110 71.5q-43 -53 -108 -81.5t-173 -28.5q-185 0 -304.5 137t-119.5 364q0 176 91 300t241 171q-20 39 -20 86q0 82 56 138.5t136 56.5t136.5 -57t56.5 -138q0 -24 -7 -49h84q106 0 143.5 34t37.5 99v25h170v-25q0 -136 -81 -208t-239 -72 h-250q-179 0 -282 -88.5t-103 -268.5q0 -163 85 -261.5t208 -98.5q116 0 182 63q-49 70 -49 166q0 119 73.5 188.5t180.5 69.5h144l-33 -143h-72q-56 0 -92.5 -37.5t-36.5 -101.5q0 -90 61 -138.5t183 -48.5h104zM602 963q32 0 54 23t22 54q0 35 -21.5 56.5t-54.5 21.5 q-32 0 -54 -22t-22 -56q0 -31 22.5 -54t53.5 -23z" />
<glyph unicode="&#xe56;" horiz-adv-x="1263" d="M223 561l127 -92q-22 -22 -34.5 -59t-12.5 -70q0 -85 83.5 -149t223.5 -64q188 0 286.5 102.5t98.5 278.5q0 156 -95.5 257t-248.5 101q-120 0 -197.5 -43t-136.5 -125h-133l-164 469h173l104 -319q55 74 153 118t214 44q217 0 359 -142t142 -366q0 -106 -33 -198 t-98 -165.5t-173.5 -116t-248.5 -42.5q-214 0 -343.5 103.5t-129.5 270.5q0 59 25 115t59 92z" />
<glyph unicode="&#xe57;" horiz-adv-x="1636" d="M1143 0h-213v680q0 41 -3 67.5t-13 56t-33.5 44t-59.5 14.5q-53 0 -81.5 -36.5t-28.5 -98.5v-113h-150v113q0 135 -96 135q-180 0 -180 -366q0 -173 54 -272t136 -99q49 0 98 18l33 -116q-52 -39 -137 -39q-164 0 -259 139t-95 367q0 233 88 374.5t248 141.5 q84 0 125.5 -35.5t60.5 -102.5q67 138 229 138q108 0 169 -92t61 -240v-549h49q79 0 125.5 57t46.5 156v805h170v-778q0 -166 -89 -267.5t-255 -101.5z" />
<glyph unicode="&#xe58;" horiz-adv-x="1304" d="M909 -8l-217 201l-190 -201q-165 5 -264 90t-99 240v251q0 175 124.5 295.5t326.5 120.5h248q105 0 142.5 34t37.5 99v25h170v-25q0 -136 -81 -208t-239 -72h-266q-142 0 -217.5 -77t-75.5 -204v-235q0 -73 44.5 -127t109.5 -54l229 222l244 -220q66 18 100.5 71 t34.5 124q0 79 -49 132.5t-123 64.5l53 127q117 -12 198 -108.5t81 -219.5q0 -138 -99.5 -239.5t-222.5 -106.5z" />
<glyph unicode="&#xe59;" horiz-adv-x="1280" d="M1067 0h-168l-240 682q-32 94 -71.5 136t-114.5 42q-99 0 -158 -101t-59 -263q0 -169 63.5 -273t147.5 -104q69 0 127 37l33 -117q-81 -57 -166 -57q-161 0 -268 136.5t-107 375.5q0 225 108.5 370.5t268.5 145.5q77 0 132.5 -21.5t85 -52.5t58.5 -82q-6 77 38.5 116.5 t111.5 39.5q124 0 174 -109l43 246h154l-78 -410h-121q-23 63 -52.5 99t-78.5 36q-52 0 -82.5 -41t-30.5 -98z" />
<glyph unicode="&#xe5b;" horiz-adv-x="2336" d="M2255 492l41 -107q-97 -31 -180 -31q-181 0 -265 187l-88 -291h-77l-136 368l-125 -405h-79l-127 362q-59 -206 -219 -341.5t-369 -135.5q-220 0 -364 141t-144 353q0 201 120 331t318 130q107 0 194 -56.5t134.5 -145.5t50.5 -189h-139q-8 112 -74.5 185t-169.5 73 q-89 0 -156 -49t-99 -122.5t-32 -156.5q0 -156 103.5 -255t257.5 -99q103 0 189 42.5t142.5 109.5t97.5 156t60.5 176t24.5 175h92l149 -430l113 387h90l129 -367l101 322h77q21 -162 81.5 -250t158.5 -88q60 0 119 21z" />
<glyph unicode="&#x2000;" horiz-adv-x="1050" />
<glyph unicode="&#x2001;" horiz-adv-x="2101" />
<glyph unicode="&#x2002;" horiz-adv-x="1050" />
<glyph unicode="&#x2003;" horiz-adv-x="2101" />
<glyph unicode="&#x2004;" horiz-adv-x="700" />
<glyph unicode="&#x2005;" horiz-adv-x="525" />
<glyph unicode="&#x2006;" horiz-adv-x="350" />
<glyph unicode="&#x2007;" horiz-adv-x="350" />
<glyph unicode="&#x2008;" horiz-adv-x="262" />
<glyph unicode="&#x2009;" horiz-adv-x="420" />
<glyph unicode="&#x200a;" horiz-adv-x="116" />
<glyph unicode="&#x2010;" horiz-adv-x="663" d="M602 481h-541v140h541v-140z" />
<glyph unicode="&#x2011;" horiz-adv-x="663" d="M602 481h-541v140h541v-140z" />
<glyph unicode="&#x2012;" horiz-adv-x="663" d="M602 481h-541v140h541v-140z" />
<glyph unicode="&#x2013;" horiz-adv-x="1052" d="M991 461h-930v119h930v-119z" />
<glyph unicode="&#x2014;" horiz-adv-x="2035" d="M1892 461h-1749v119h1749v-119z" />
<glyph unicode="&#x2018;" horiz-adv-x="442" d="M250 1407l72 -14q-33 -56 -56.5 -130t-23.5 -112q0 -27 20 -27q82 0 82 -98q0 -48 -27.5 -76t-80.5 -28q-113 0 -113 127q0 75 39 181.5t88 176.5z" />
<glyph unicode="&#x2019;" horiz-adv-x="442" d="M193 922l-72 14q33 56 56.5 130t23.5 112q0 26 -21 26q-82 0 -82 99q0 48 28 76t81 28q112 0 112 -127q0 -75 -38.5 -184.5t-87.5 -173.5z" />
<glyph unicode="&#x201a;" horiz-adv-x="442" d="M193 -242l-72 15q33 57 56.5 130t23.5 111q0 27 -21 27q-82 0 -82 98q0 48 28 76.5t81 28.5q112 0 112 -127q0 -75 -38.5 -185t-87.5 -174z" />
<glyph unicode="&#x201c;" horiz-adv-x="770" d="M578 1407l71 -14q-33 -56 -56.5 -130t-23.5 -112q0 -27 21 -27q82 0 82 -98q0 -48 -28 -76t-81 -28q-112 0 -112 127q0 75 39 181.5t88 176.5zM250 1407l72 -14q-33 -56 -56.5 -130t-23.5 -112q0 -27 20 -27q82 0 82 -98q0 -48 -27.5 -76t-80.5 -28q-113 0 -113 127 q0 75 39 181.5t88 176.5z" />
<glyph unicode="&#x201d;" horiz-adv-x="770" d="M193 922l-72 14q33 56 56.5 130t23.5 112q0 26 -21 26q-82 0 -82 99q0 48 28 76t81 28q112 0 112 -127q0 -75 -38.5 -184.5t-87.5 -173.5zM520 922l-71 14q32 56 55.5 129.5t23.5 112.5q0 26 -20 26q-82 0 -82 99q0 48 28 76t81 28q112 0 112 -127q0 -75 -39 -184.5 t-88 -173.5z" />
<glyph unicode="&#x201e;" horiz-adv-x="770" d="M193 -242l-72 15q33 57 56.5 130t23.5 111q0 27 -21 27q-82 0 -82 98q0 48 28 76.5t81 28.5q112 0 112 -127q0 -75 -38.5 -185t-87.5 -174zM520 -242l-71 15q32 56 55.5 129t23.5 112q0 27 -20 27q-82 0 -82 98q0 48 28 76.5t81 28.5q112 0 112 -127q0 -75 -39 -185 t-88 -174z" />
<glyph unicode="&#x2020;" horiz-adv-x="1110" d="M639 0h-168v850h-348v139h348v391h168v-391h348v-139h-348v-850z" />
<glyph unicode="&#x2021;" horiz-adv-x="1110" d="M639 -102h-168v391h-348v139h348v422h-348v139h348v391h168v-391h348v-139h-348v-422h348v-139h-348v-391z" />
<glyph unicode="&#x2022;" horiz-adv-x="634" d="M532 705q0 -92 -56.5 -154t-160.5 -62q-101 0 -157 60t-56 151q0 93 55.5 153t159.5 60q102 0 158.5 -59t56.5 -149z" />
<glyph unicode="&#x2026;" horiz-adv-x="1486" d="M373 102q0 -53 -33.5 -87.5t-91.5 -34.5t-91.5 34.5t-33.5 87.5t33.5 88t91.5 35t91.5 -35t33.5 -88zM868 102q0 -53 -33.5 -87.5t-91.5 -34.5t-91.5 34.5t-33.5 87.5t33.5 88t91.5 35t91.5 -35t33.5 -88zM1364 102q0 -53 -33.5 -87.5t-91.5 -34.5t-91.5 34.5t-33.5 87.5 t33.5 88t91.5 35t91.5 -35t33.5 -88z" />
<glyph unicode="&#x202f;" horiz-adv-x="420" />
<glyph unicode="&#x2030;" horiz-adv-x="2310" d="M492 0h-144l750 1352h143zM377 743q76 0 113.5 71.5t37.5 174.5q0 105 -37.5 177.5t-113.5 72.5t-114 -72.5t-38 -175.5q0 -67 14.5 -121t50 -90.5t87.5 -36.5zM377 631q-137 0 -214 102.5t-77 257.5t77 258t214 103q135 0 213 -103.5t78 -257.5t-78 -257t-213 -103z M1212 92q76 0 114 71.5t38 174.5q0 104 -38 177t-114 73t-113.5 -72.5t-37.5 -175.5q0 -105 37.5 -176.5t113.5 -71.5zM1212 -20q-137 0 -213.5 102.5t-76.5 257.5t76.5 257.5t213.5 102.5q135 0 213 -103t78 -257t-78 -257t-213 -103zM1933 92q76 0 114 71.5t38 174.5 q0 104 -38 177t-114 73t-113.5 -72.5t-37.5 -175.5q0 -105 37.5 -176.5t113.5 -71.5zM1933 -20q-137 0 -214 102.5t-77 257.5t77 257.5t214 102.5q135 0 213 -103t78 -257t-78 -257t-213 -103z" />
<glyph unicode="&#x2039;" horiz-adv-x="567" d="M485 127h-139l-264 369l264 368h139l-264 -368z" />
<glyph unicode="&#x203a;" horiz-adv-x="565" d="M219 127h-137l264 369l-264 368h137l264 -368z" />
<glyph unicode="&#x2044;" horiz-adv-x="892" d="M123 0h-143l749 1352h143z" />
<glyph unicode="&#x205f;" horiz-adv-x="525" />
<glyph unicode="&#x20ac;" horiz-adv-x="1171" d="M1049 233l45 -147q-59 -53 -128.5 -79.5t-168.5 -26.5q-202 0 -344 140t-187 374h-172l31 100h129q-4 21 -4 96q0 49 2 74h-158l31 100h137q37 242 179 389.5t347 147.5q98 0 163 -26.5t126 -80.5l-45 -147q-104 94 -233 94q-143 0 -236.5 -97.5t-124.5 -279.5h457 l-31 -100h-436q-2 -25 -2 -74q0 -75 4 -96h465l-31 -100h-420q35 -171 129 -263t234 -92q138 0 242 94z" />
<glyph unicode="&#x2113;" horiz-adv-x="817" d="M639 154l43 -136q-61 -36 -152 -36q-168 0 -231 82.5t-63 263.5v49l-156 -101l-60 84q134 83 216 154v449q0 237 71.5 350.5t200.5 113.5q114 0 181 -81t67 -240q0 -372 -348 -633v-147q0 -110 27.5 -151.5t99.5 -41.5q55 0 104 21zM408 963v-332q184 165 184 475 q0 201 -82 201q-54 0 -78 -74t-24 -270z" />
<glyph unicode="&#x2122;" horiz-adv-x="1593" d="M389 604h-119v678l-229 -2v100h582v-100l-234 2v-678zM1491 604h-117v469q0 28 4 70.5t4 48.5h-4q-13 -49 -41 -109l-157 -354h-121l-158 354q-28 60 -41 109h-4q0 -6 4 -48.5t4 -70.5v-469h-116v776h137l182 -411q34 -76 51 -135h2q17 59 51 135l183 411h137v-776z" />
<glyph unicode="&#x2126;" horiz-adv-x="1540" d="M1321 0h-449v113q56 43 111 103t111.5 141.5t91.5 185.5t35 209q0 230 -119 357.5t-328 127.5q-215 0 -335 -127t-120 -358q0 -105 35 -209t91.5 -185.5t111.5 -141.5t111 -103v-113h-449v154h246q-54 46 -102 99.5t-102 133.5t-86 182.5t-32 212.5q0 282 169.5 450.5 t457.5 168.5t457.5 -168.5t169.5 -450.5q0 -110 -32 -212.5t-86 -182.5t-102 -133.5t-102 -99.5h246v-154z" />
<glyph unicode="&#x212e;" horiz-adv-x="1675" d="M1323 258h147q-115 -138 -281.5 -211.5t-350.5 -73.5q-209 0 -383 86.5t-277.5 245.5t-103.5 357q0 147 60.5 276t163.5 219t243.5 141.5t296.5 51.5q208 0 383 -86.5t278 -241.5t103 -344v-45h-1250v-375q22 -26 66.5 -61.5t108 -74.5t147 -66t162.5 -27q83 0 166 24 t145 60.5t107 74t69 70.5zM1323 690v373q-25 34 -70.5 71.5t-107.5 74t-144.5 60t-164.5 23.5q-79 0 -162.5 -27t-147 -66t-108 -74.5t-66.5 -61.5v-373h971z" />
<glyph unicode="&#x2202;" horiz-adv-x="1228" d="M905 592q-45 62 -120 101.5t-173 39.5q-105 0 -187 -57.5t-123.5 -146.5t-41.5 -191q0 -100 54.5 -155.5t152.5 -55.5q137 0 260 125t178 340zM440 1139l-20 135q55 35 138 56.5t161 21.5q202 0 311 -116.5t109 -322.5q0 -94 -20.5 -198t-58 -208.5t-96.5 -199t-131 -168 t-166.5 -116.5t-197.5 -43q-195 0 -291 92.5t-96 259.5q0 138 66.5 263.5t190.5 206.5t275 81q124 0 205 -45.5t123 -108.5q25 109 25 186q0 141 -69 215t-198 74q-145 0 -260 -65z" />
<glyph unicode="&#x2206;" horiz-adv-x="1280" d="M997 137l-358 959l-365 -959h723zM1219 0h-1158l545 1380h66z" />
<glyph unicode="&#x220f;" horiz-adv-x="1257" d="M1073 -98h-176v1315h-537v-1315h-176v1478h889v-1478z" />
<glyph unicode="&#x2211;" horiz-adv-x="1118" d="M1036 -98h-954v75l516 668l-477 651v84h876v-127h-667l444 -604l-475 -620h737v-127z" />
<glyph unicode="&#x2212;" horiz-adv-x="1171" d="M1010 512h-848v139h848v-139z" />
<glyph unicode="&#x221a;" horiz-adv-x="1064" d="M598 -25h-164l-225 746h-168v133h272l199 -680l342 1206h150z" />
<glyph unicode="&#x221e;" horiz-adv-x="1568" d="M717 633q-121 178 -281 178q-87 0 -134.5 -50t-47.5 -126q0 -84 51.5 -134t134.5 -50q153 0 277 182zM852 633q114 -182 278 -182q89 0 137 53.5t48 130.5t-47.5 126.5t-139.5 49.5q-82 0 -146.5 -44t-129.5 -134zM786 528h-4q-155 -196 -354 -196q-138 0 -227.5 83 t-89.5 218q0 133 89.5 216t229.5 83q208 0 352 -197h4q36 49 80 89.5t117.5 74t153.5 33.5q139 0 230 -82.5t91 -212.5q0 -132 -87 -218.5t-230 -86.5q-111 0 -203 53.5t-152 142.5z" />
<glyph unicode="&#x222b;" horiz-adv-x="884" d="M82 -74l43 135q47 -20 104 -20q75 0 101 48.5t26 164.5v780q0 184 64.5 275.5t230.5 91.5q89 0 152 -37l-43 -135q-47 20 -105 20q-75 0 -101 -48.5t-26 -164.5v-780q0 -184 -64.5 -275.5t-230.5 -91.5q-88 0 -151 37z" />
<glyph unicode="&#x2248;" horiz-adv-x="1171" d="M985 901l84 -88q-44 -91 -116.5 -148t-161.5 -57q-56 0 -106 17.5t-86.5 42t-70 49t-69.5 42t-72 17.5q-70 0 -113.5 -36t-87.5 -105l-84 90q38 81 112 142t169 61q56 0 105 -17t84 -41.5t68 -49t70.5 -41.5t75.5 -17q63 0 110 37.5t89 101.5zM985 535l84 -89 q-44 -90 -116.5 -147t-161.5 -57q-56 0 -106 17.5t-86.5 42t-70 49t-69.5 42t-72 17.5q-49 0 -88.5 -22t-61.5 -48.5t-51 -71.5l-84 90q38 81 112 142t169 61q56 0 105 -17t84 -41.5t68 -49t70.5 -41.5t75.5 -17q63 0 110 38t89 102z" />
<glyph unicode="&#x2260;" horiz-adv-x="1171" d="M999 328h-446l-129 -328h-137l129 328h-244v139h299l92 229h-391v140h446l140 348h137l-139 -348h243v-140h-299l-92 -229h391v-139z" />
<glyph unicode="&#x2264;" horiz-adv-x="1171" d="M1008 154l-873 473v114l873 473v-163l-699 -367l699 -367v-163zM1008 0h-873v119h873v-119z" />
<glyph unicode="&#x2265;" horiz-adv-x="1171" d="M1036 0h-872v119h872v-119zM1036 627l-872 -473v163l698 367l-698 367v163l872 -473v-114z" />
<glyph unicode="&#x25ca;" horiz-adv-x="1204" d="M602 178l352 522l-352 521l-354 -521zM653 0h-102l-469 698l469 703h102l469 -701z" />
<glyph unicode="&#x25fc;" horiz-adv-x="993" d="M0 993h993v-993h-993v993z" />
<glyph unicode="&#xf700;" horiz-adv-x="1110" d="M500 0h-144l-110 461q-6 26 -17.5 35.5t-35.5 9.5h-78v151h92q90 0 135.5 -33.5t67.5 -127.5l79 -344h27q129 0 222 124.5t93 335.5q0 404 -352 404q-112 0 -214.5 -40.5t-180.5 -107.5l-55 138q89 74 206 117.5t242 43.5q154 0 264 -61l103 121h200l-176 -211 q140 -149 140 -406q0 -269 -141.5 -439.5t-366.5 -170.5z" />
<glyph unicode="&#xf701;" d="M-432 1303h-776v143h776v-143z" />
<glyph unicode="&#xf702;" d="M-432 1303h-776v143h610v188h166v-331z" />
<glyph unicode="&#xf703;" d="M-559 1303h-8h-6h-635v143h465q-5 35 -5 39q0 77 52.5 129.5t128.5 52.5q78 0 130 -52t52 -130q0 -74 -50 -125.5t-124 -56.5zM-567 1413q30 0 50.5 22t20.5 52q0 31 -20 51.5t-51 20.5q-29 0 -49.5 -20.5t-20.5 -51.5q0 -30 20.5 -52t49.5 -22z" />
<glyph unicode="&#xf704;" d="M-432 1303h-776v143h377v188h145v-192h108v192h146v-331z" />
<glyph unicode="&#xf705;" d="M-512 1303h-172v339h172v-339z" />
<glyph unicode="&#xf706;" d="M-297 1303h-414q-36 0 -62 25t-26 65v57q0 25 -6.5 33t-30.5 8h-108v143h168q125 0 125 -102v-51q0 -19 7.5 -27t29.5 -8h317v-143z" />
<glyph unicode="&#xf707;" d="M-539 1303h-102l-16 34q20 20 20 58q0 66 -63 69l-86 -80l-84 74q-28 0 -47 -19t-19 -44q0 -47 21 -97h-158q-19 48 -19 117q0 71 53 127t146 66l105 -107l100 109q192 -9 174 -209q30 16 45 44t17.5 51t2.5 63q0 66 -20 110h170q16 -50 16 -106q0 -105 -69.5 -182.5 t-186.5 -77.5z" />
<glyph unicode="&#xf708;" d="M-416 1452l-170 4l4 -153h-163l6 153l-168 -4v127l168 -4l-6 154h163l-4 -154l170 4v-127z" />
<glyph unicode="&#xf709;" d="M-430 1423h-141q-91 0 -91 -82v-43h-188v68q0 207 221 207h199v-150z" />
<glyph unicode="&#xf70a;" d="M-154 1303h-172v339h172v-339z" />
<glyph unicode="&#xf70b;" d="M-18 1303h-373q-36 0 -62 25t-26 65v57q0 25 -6.5 33t-30.5 8h-109v143h168q125 0 125 -102v-51q0 -19 7.5 -27t29.5 -8h277v-143z" />
<glyph unicode="&#xf70c;" d="M-346 1303h-103l-16 34q21 21 21 58q0 66 -64 69l-96 -80l-94 74q-28 0 -47 -19t-19 -44q0 -47 21 -97h-158q-19 48 -19 117q0 71 53 127t146 66l115 -107l110 109q192 -9 174 -209q86 48 86 158q0 66 -20 110h170q16 -50 16 -106q0 -102 -78.5 -181t-197.5 -79z" />
<glyph unicode="&#xf70d;" d="M-133 1452l-170 4l4 -153h-164l6 153l-168 -4v127l168 -4l-6 154h164l-4 -154l170 4v-127z" />
<glyph unicode="&#xf70e;" d="M-49 1423h-141q-91 0 -91 -82v-43h-188v68q0 207 221 207h199v-150z" />
<glyph unicode="&#xf70f;" horiz-adv-x="1888" d="M1559 393v754h176v-754q0 -210 -116.5 -311.5t-320.5 -101.5t-320 101.5t-116 311.5v330q0 146 -69.5 219.5t-200.5 73.5q-108 0 -193 -51t-118 -131l145 -127v-35q-94 -46 -94 -164v-307q0 -27 10 -40.5t37 -13.5h110v-147h-157q-83 0 -129.5 51t-46.5 133v303 q0 62 28 113.5t82 79.5l-168 143q35 139 173.5 241.5t320.5 102.5q219 0 332.5 -121t113.5 -323v-330q0 -130 62.5 -196t195.5 -66q137 0 200 66t63 196z" />
<glyph unicode="&#xf710;" d="M-186 1303h-502q-207 0 -207 184v82h168v-62q0 -61 57 -61h484v-143z" />
<glyph unicode="&#xf711;" d="M-664 1274q-86 0 -144 58.5t-58 146.5q0 85 58 144.5t144 59.5q85 0 145 -59.5t60 -144.5q0 -87 -60 -146t-145 -59zM-664 1391q38 0 63.5 26.5t25.5 63.5q0 38 -25.5 63t-63.5 25q-36 0 -61 -25t-25 -63q0 -37 25.5 -63.5t60.5 -26.5z" />
<glyph unicode="&#xf712;" d="M-420 1303h-127q-52 0 -92 27t-61 71q-15 -46 -59.5 -76.5t-114.5 -30.5q-102 0 -164 65t-62 154q0 97 65.5 164.5t192.5 67.5h420v-139h-414q-52 0 -76 -27t-24 -68q0 -38 23.5 -62t66.5 -24q33 0 59.5 25.5t32.5 56.5h99q16 -61 100 -61h135v-143z" />
<glyph unicode="&#xf713;" d="M-432 1735h-166v274h166v-274z" />
<glyph unicode="&#xf714;" d="M-233 1735h-369q-36 0 -61 23t-25 59v53q0 19 -4.5 26t-22.5 7h-104v143h166q114 0 114 -96v-45q0 -29 29 -29h277v-141z" />
<glyph unicode="&#xf715;" d="M-340 1735h-82l-16 34q18 18 18 50q0 55 -59 59l-90 -72l-90 66q-23 0 -36.5 -14.5t-13.5 -38.5q0 -36 23 -88h-156q-16 45 -16 106q0 67 48.5 119t135.5 59l105 -94l96 96q177 -6 162 -184q40 18 52.5 48.5t12.5 98.5q0 52 -20 91h164q16 -46 16 -80q0 -107 -71 -181.5 t-183 -74.5z" />
<glyph unicode="&#xf716;" d="M-297 1855l-145 5l4 -125h-154l6 125l-145 -5v123l145 -4l-6 127h154l-4 -127l145 4v-123z" />
<glyph unicode="&#xf717;" d="M-391 1671h-133q-38 0 -57 -16t-19 -53v-43h-184v65q0 90 53.5 140.5t155.5 50.5h184v-144z" />
<glyph unicode="&#xf718;" d="M-154 -852h-172v182q0 43 -43 43h-80v148h134q86 0 123.5 -41t37.5 -133v-199z" />
<glyph unicode="&#xf719;" d="M-322 -659v180h168v-180q0 -105 -68 -160t-198 -55t-196 55t-66 160v36h-113v144h277v-180q0 -45 27 -67t71 -22t71 22t27 67z" />
<glyph unicode="&#xf71a;" d="M-119 -600q0 -54 -39 -91.5t-96 -37.5q-54 0 -93.5 37.5t-39.5 91.5t39.5 92.5t93.5 38.5q57 0 96 -38.5t39 -92.5z" />
<glyph unicode="&#xf71b;" horiz-adv-x="1257" d="M1104 -369h-219q-122 113 -267 113q-97 0 -165.5 -27t-141.5 -86l-47 136q141 127 332 127q93 0 183.5 -41t148.5 -101v971q0 146 -75 219.5t-218 73.5q-122 0 -214.5 -49.5t-123.5 -128.5l166 -144v-35q-90 -64 -90 -167v-308q0 -82 -47 -133.5t-129 -50.5h-136v147h89 q27 0 37 13.5t10 40.5v272q0 62 29 115t81 78l-188 157q36 139 179.5 241.5t336.5 102.5q227 0 348 -121.5t121 -322.5v-1092z" />
<glyph unicode="&#xf71c;" horiz-adv-x="1257" d="M1104 -369h-168l-244 146q-32 -71 -103.5 -114.5t-152.5 -43.5q-73 0 -142 17.5t-112 46.5l45 149q45 -31 101 -52.5t98 -21.5q85 0 149 57.5t82 145.5l271 -162v924q0 146 -75 219.5t-218 73.5q-122 0 -214.5 -49.5t-123.5 -128.5l166 -144v-35q-90 -64 -90 -167v-308 q0 -82 -47 -133.5t-129 -50.5h-136v147h89q27 0 37 13.5t10 40.5v272q0 62 29 115t81 78l-188 157q36 139 179.5 241.5t336.5 102.5q227 0 348 -121.5t121 -322.5v-1092z" />
<glyph unicode="&#xf71d;" horiz-adv-x="1351" d="M1194 0h-188l-269 518q-48 92 -63 168h-4q-14 -73 -64 -168l-260 -518h-188v1147h172v-612q0 -207 -19 -336h4q45 158 88 243l199 383h139l205 -381q42 -78 90 -245h4q-18 140 -18 336v186q0 160 -131 160h-39l-25 73l217 273h193l-231 -260q90 -12 139 -77.5t49 -166.5 v-723z" />
<glyph unicode="&#xf8ff;" horiz-adv-x="1843" d="M922 1436q160 0 266.5 -11t192.5 -43t134 -80t80 -134t43 -192.5t11 -266.5t-11 -266.5t-43 -192.5t-80 -134t-134 -80t-192.5 -43t-266.5 -11t-266.5 11t-192.5 43t-134 80t-80 134t-43 192.5t-11 266.5t11 266.5t43 192.5t80 134t134 80t192.5 43t266.5 11zM1358 293 v457q0 175 -125 288t-311 113t-311.5 -113t-125.5 -288v-457h174l195 209q32 -13 68 -13q78 0 131 52t53 133q0 79 -53.5 131.5t-130.5 52.5q-78 0 -132.5 -52.5t-54.5 -131.5q0 -52 27 -99l-133 -145v320q0 123 84.5 197.5t208.5 74.5t208 -74.5t84 -197.5v-457h144z M922 596q-31 0 -54.5 23t-23.5 55t23.5 54t54.5 22t53 -22t22 -54t-22 -55t-53 -23z" />
<glyph horiz-adv-x="970" d="M-664 1274q-86 0 -144 58.5t-58 146.5q0 85 58 144.5t144 59.5q85 0 145 -59.5t60 -144.5q0 -87 -60 -146t-145 -59zM-664 1391q38 0 63.5 26.5t25.5 63.5q0 38 -25.5 63t-63.5 25q-36 0 -61 -25t-25 -63q0 -37 25.5 -63.5t60.5 -26.5zM817 0h-176v739q0 277 -244 277 q-93 0 -178.5 -33.5t-150.5 -87.5l-48 133q67 58 176 98.5t218 40.5q199 0 301 -112.5t102 -323.5v-731z" />
<glyph d="M-518 1432v-103q-47 -31 -123 -31q-89 0 -152 45t-63 132q0 81 54 128t161 37q-25 28 -25 70q0 44 37 71t109 27h123l28 -114h-123q-34 0 -34 -37q0 -35 51 -58l-33 -86q-65 19 -121 19q-80 0 -80 -57q0 -60 88 -60q56 0 103 17z" />
</font>
</defs>
</svg>
