<svg xmlns="http://www.w3.org/2000/svg" viewBox="0 0 50 50"><defs><style>.a,.b,.g,.h,.k{fill:none;}.b,.e,.f,.g,.h,.k{stroke:#5b6670;stroke-linecap:round;}.b,.e,.k{stroke-linejoin:round;}.b,.e,.f,.g,.h,.i,.k{stroke-miterlimit:10;}.c{opacity:0.31;}.d,.i{fill:#5b6670;}.e,.f{fill:#fff;}.e{stroke-width:2px;}.h,.j{opacity:0.3;}.i{stroke:#fff;}.i,.k{stroke-width:0.5px;}</style></defs><g transform="translate(-80 -3159)"><rect class="a" width="50" height="50" transform="translate(80 3159)"/><g transform="translate(90 3165)"><g transform="translate(0 0)"><path class="b" d="M15.82,38.23c8.8-2.783,15.273-10.6,15.273-17.639,0-2.484.039-12.121.047-14.927A27.292,27.292,0,0,1,19.727,2.905,23.251,23.251,0,0,1,15.82.5a22.1,22.1,0,0,1-3.907,2.405A27.366,27.366,0,0,1,.5,5.672C.508,8.47.547,18.115.547,20.6.547,27.626,7.024,35.447,15.82,38.23Z" transform="translate(-0.5 -0.5)"/><g class="c" transform="translate(15.516 3.404)"><path class="d" d="M20.24,35.753c7.208-2.28,12.522-8.694,12.522-14.455,0-2.036.031-9.936.039-12.231A22.506,22.506,0,0,1,23.439,6.8a18.187,18.187,0,0,1-3.2-1.973Z" transform="translate(-20.24 -4.83)"/></g><path class="e" d="M26.69,31.09" transform="translate(-6.104 -7.045)"/><path class="e" d="M35.63,28.86" transform="translate(-8.016 -6.568)"/><g transform="translate(6.942 6.131)"><g transform="translate(0 5.392)"><path class="f" d="M24.076,15.16H11.838a1.08,1.08,0,0,0-1.069.959L9.338,29.639a1.072,1.072,0,0,0,1.069,1.187H25.02a1.075,1.075,0,0,0,1.069-1.148l-.943-13.52A1.067,1.067,0,0,0,24.076,15.16Z" transform="translate(-9.332 -15.16)"/></g><path class="g" d="M16.28,15.571v-4.2A3.015,3.015,0,0,1,19.212,8.3h0a3.015,3.015,0,0,1,2.932,3.073v4.2" transform="translate(-10.818 -8.3)"/><circle class="h" cx="0.943" cy="0.943" r="0.943" transform="translate(4.519 7.271)"/><circle class="h" cx="0.943" cy="0.943" r="0.943" transform="translate(10.39 7.271)"/></g><path class="i" d="M25.66,29.29l1.155,6.477,1.478-1.737a.23.23,0,0,1,.314.016l1.839,2.036,1.376-1.187-1.839-2.036A.23.23,0,0,1,30,32.544l2.146-1.289Z" transform="translate(-5.883 -6.66)"/><g class="j" transform="translate(17.144 20.131)"><line class="k" y1="1.666" x2="0.597" transform="translate(3.82)"/><line class="k" x1="0.755" y1="1.604" transform="translate(1.776 0.126)"/><line class="k" x1="1.666" y1="0.605" transform="translate(0 2.083)"/><line class="k" x1="1.604" y2="0.762" transform="translate(0.126 3.97)"/></g></g></g></g></svg>