<svg xmlns="http://www.w3.org/2000/svg" viewBox="0 0 50 50"><defs><style>.a,.b{fill:none;}.b,.d,.e{stroke:#5b6670;stroke-miterlimit:10;}.b,.d{stroke-linecap:round;}.c,.e,.f{opacity:0.3;}.d{fill:#fff;}.e,.f{fill:#5b6670;}</style></defs><g transform="translate(-723 -3209)"><g transform="translate(-8237 13250)"><rect class="a" width="50" height="50" transform="translate(8960 -10041)"/><g transform="translate(7896 -14650)"><g transform="translate(1068 4620)"><g transform="translate(30.021 14.211)"><line class="b" x2="11.979" transform="translate(0 5.37)"/><g class="c" transform="translate(1.371)"><line class="b" x1="4.377" transform="translate(0.246 4.64)"/><line class="b" x2="4.772"/><line class="b" y2="2.206" transform="translate(2.434 2.434)"/><line class="b" x2="2.39" y2="2.382" transform="translate(0 0.053)"/><line class="b" x1="2.382" y2="2.382" transform="translate(2.39 0.053)"/></g><line class="b" x2="6.855" transform="translate(2.566 16.144)"/><line class="b" y2="10.775" transform="translate(5.994 5.37)"/></g><g transform="translate(0 0)"><path class="b" d="M4.31,24.624V6.072A5.574,5.574,0,0,1,9.882.5H22.862a5.574,5.574,0,0,1,5.572,5.572V24.624" transform="translate(-0.962 -0.5)"/><path class="d" d="M3.576,15.78a3.076,3.076,0,1,0,0,6.152v7.6a1.3,1.3,0,0,0,1.3,1.3H6.652V18.856A3.079,3.079,0,0,0,3.576,15.78Z" transform="translate(-0.5 -2.351)"/><path class="d" d="M31.336,15.78a3.076,3.076,0,0,1,0,6.152v7.6a1.3,1.3,0,0,1-1.3,1.3H28.26V18.856A3.074,3.074,0,0,1,31.336,15.78Z" transform="translate(-3.863 -2.351)"/><path class="e" d="M25.745,31.49H7.5V25.4a4.21,4.21,0,0,1,4.21-4.21h9.825a4.21,4.21,0,0,1,4.21,4.21v6.09Z" transform="translate(-1.348 -3.007)"/><line class="b" y2="1.397" transform="translate(4.965 28.483)"/><line class="b" y2="1.397" transform="translate(25.513 28.483)"/><circle class="f" cx="0.668" cy="0.668" r="0.668" transform="translate(10.195 5.255)"/><circle class="f" cx="0.668" cy="0.668" r="0.668" transform="translate(19.238 5.255)"/><circle class="f" cx="0.668" cy="0.668" r="0.668" transform="translate(10.195 11.399)"/><circle class="f" cx="0.668" cy="0.668" r="0.668" transform="translate(19.238 11.399)"/></g><g transform="translate(31.032 0)"><path class="b" d="M44.2,9.772H36.689a.881.881,0,0,1-.879-.879V1.379A.881.881,0,0,1,36.689.5H44.2a.881.881,0,0,1,.879.879V8.893A.881.881,0,0,1,44.2,9.772Z" transform="translate(-35.81 -0.5)"/><path class="f" d="M43.5,2.562h0c-.193-.193-.87.158-1.107.387l-.387.325c-.211.185-.352.316-.545.519l-2.672-.466a.244.244,0,0,0-.158.026l-.51.334,2.32,1.16a13.3,13.3,0,0,0-1.362,1.679l-.8-.2a.153.153,0,0,0-.123.026L37.81,6.6l1.028.624.624,1.028.246-.352a.15.15,0,0,0,.018-.123l-.2-.782a14.133,14.133,0,0,0,1.687-1.371l1.16,2.32.334-.51a.194.194,0,0,0,.026-.158L42.266,4.6c.193-.2.334-.343.519-.554l.325-.387C43.347,3.432,43.7,2.756,43.5,2.562Z" transform="translate(-36.052 -0.743)"/></g></g></g></g></g></svg>