<svg xmlns="http://www.w3.org/2000/svg" xmlns:xlink="http://www.w3.org/1999/xlink" width="137.645" height="93.281" viewBox="0 0 137.645 93.281">
  <defs>
    <linearGradient id="linear-gradient" x1="0.5" x2="0.5" y2="1" gradientUnits="objectBoundingBox">
      <stop offset="0" stop-color="#ca8665"/>
      <stop offset="1" stop-color="#ca8665"/>
    </linearGradient>
  </defs>
  <g id="Group_3841" data-name="Group 3841" transform="translate(-764.607 -445.721)">
    <g id="Group_3841-2" data-name="Group 3841" transform="translate(837.171 445.72)">
      <path id="Path_2143" data-name="Path 2143" d="M835.507,528.834,866.74,501.26c14.115-12.546,19.08-19.6,19.08-28.75,0-10.716-8.494-17.512-18.426-17.512-9.671,0-16.205,4.7-22.74,13.33a4.749,4.749,0,0,1-8.494-2.875,4.57,4.57,0,0,1,1.047-2.875c7.579-10.585,15.943-16.857,30.971-16.857,16.466,0,28.359,10.977,28.359,25.875v.262c0,13.33-7.057,21.562-23.131,35.545L848.968,529.1h44.3a4.706,4.706,0,1,1,0,9.409H838.252c-3.006,0-5.228-1.96-5.228-4.835A5.948,5.948,0,0,1,835.507,528.834Z" transform="translate(-833.024 -445.72)" fill="url(#linear-gradient)"/>
    </g>
    <g id="Group_3842" data-name="Group 3842" transform="translate(764.607 468.44)">
      <path id="Path_2144" data-name="Path 2144" d="M765.7,531.244l23.255-29.518L766.893,473.9a4.794,4.794,0,0,1-1.292-2.981,3.861,3.861,0,0,1,3.875-3.777c1.591,0,2.485.794,3.479,1.988l20.97,27.231L814.6,469.428c1.094-1.292,2.087-2.286,3.777-2.286a3.649,3.649,0,0,1,3.577,3.677,4.272,4.272,0,0,1-1.092,2.782L798.7,501.628l22.957,29.318a4.264,4.264,0,0,1,1.292,2.882,3.881,3.881,0,0,1-3.876,3.877c-1.59,0-2.485-.8-3.479-1.989l-21.964-28.523-21.665,28.226c-1.094,1.291-2.087,2.286-3.876,2.286a3.633,3.633,0,0,1-3.479-3.677A4.267,4.267,0,0,1,765.7,531.244Z" transform="translate(-764.607 -467.142)" fill="url(#linear-gradient)"/>
    </g>
  </g>
</svg>
