<svg xmlns="http://www.w3.org/2000/svg" width="100" height="100" viewBox="0 0 100 100">
  <g id="Group_3706" data-name="Group 3706" transform="translate(-173 -1819)">
    <rect id="Rectangle_1958" data-name="Rectangle 1958" width="100" height="100" transform="translate(173 1819)" fill="none"/>
    <g id="Group_3947" data-name="Group 3947" transform="translate(-1588.389 501.485)">
      <path id="Path_2332" data-name="Path 2332" d="M1832.87,1430.533a.728.728,0,0,1-.729-.729v-2.387a.729.729,0,1,1,1.458,0v2.387A.729.729,0,0,1,1832.87,1430.533Z" transform="translate(-15.639 -26.043)" fill="#cf3339"/>
      <path id="Path_2333" data-name="Path 2333" d="M1864.975,1430.533a.729.729,0,0,1-.729-.729v-2.387a.729.729,0,0,1,1.458,0v2.387A.729.729,0,0,1,1864.975,1430.533Z" transform="translate(-24.333 -26.043)" fill="#cf3339"/>
      <path id="Path_2334" data-name="Path 2334" d="M1817.642,1424.156a2.138,2.138,0,0,1-2.129-2.342l1.452-15.182a4.871,4.871,0,0,1,3.6-4.233l2.6-.683a2.14,2.14,0,0,1,2.68,2.07v3.507a2.148,2.148,0,0,1-1.692,2.091l-.261.056a.679.679,0,0,0-.537.6l-.912,9.738A4.8,4.8,0,0,1,1817.642,1424.156Zm5.9-21.028-2.6.682a3.408,3.408,0,0,0-2.52,2.961l-1.452,15.181a.681.681,0,0,0,.678.746,3.352,3.352,0,0,0,3.352-3.053l.913-9.737a2.131,2.131,0,0,1,1.684-1.892l.261-.056a.684.684,0,0,0,.539-.666v-3.507a.681.681,0,0,0-.853-.658Z" transform="translate(-11.133 -19.262)" fill="#cf3339"/>
      <g id="Group_3943" data-name="Group 3943" transform="translate(1832.151 1330.515)">
        <path id="Path_2335" data-name="Path 2335" d="M1867.923,1347.753h-11.4a2.92,2.92,0,0,1-2.917-2.917v-11.4a2.92,2.92,0,0,1,2.917-2.917h11.4a2.92,2.92,0,0,1,2.917,2.917v11.4A2.92,2.92,0,0,1,1867.923,1347.753Zm-11.4-15.779a1.46,1.46,0,0,0-1.458,1.458v11.4a1.46,1.46,0,0,0,1.458,1.458h11.4a1.46,1.46,0,0,0,1.458-1.458v-11.4a1.46,1.46,0,0,0-1.458-1.458Z" transform="translate(-1853.602 -1330.515)" fill="#cf3339"/>
        <path id="Path_2336" data-name="Path 2336" d="M1868.4,1335.73h0c-.33-.33-1.475.275-1.879.661l-.658.556c-.353.319-.6.543-.935.877l-4.544-.794a.373.373,0,0,0-.268.051l-.875.575,3.955,1.977a23.8,23.8,0,0,0-2.323,2.857l-1.364-.348a.26.26,0,0,0-.212.039l-.592.413,1.752,1.06,1.06,1.752.413-.593a.259.259,0,0,0,.039-.211l-.341-1.337a23.574,23.574,0,0,0,2.869-2.331l1.977,3.955.575-.875a.372.372,0,0,0,.051-.268l-.794-4.544c.336-.34.562-.586.883-.941l.551-.653C1868.128,1337.2,1868.733,1336.06,1868.4,1335.73Z" transform="translate(-1854.985 -1331.901)" fill="#cf3339" opacity="0.3"/>
      </g>
      <path id="Path_2337" data-name="Path 2337" d="M1849.273,1392.588h-22.042a1.269,1.269,0,0,1-1.267-1.267v-2.338a3.451,3.451,0,0,1,3.446-3.448h6.038V1383.7a6.463,6.463,0,0,1,6.456-6.456h7.469a2.23,2.23,0,0,1,2.23,2.25l-.1,10.884A2.236,2.236,0,0,1,1849.273,1392.588Zm-21.85-1.458h21.85a.774.774,0,0,0,.771-.765l.1-10.883a.772.772,0,0,0-.771-.779H1841.9a5,5,0,0,0-5,5v3.294h-7.5a1.991,1.991,0,0,0-1.988,1.989Z" transform="translate(-13.967 -12.654)" fill="#cf3339"/>
      <path id="Path_2338" data-name="Path 2338" d="M1851.672,1371.159a5.585,5.585,0,1,1,5.585-5.586A5.591,5.591,0,0,1,1851.672,1371.159Zm0-9.712a4.127,4.127,0,1,0,4.127,4.127A4.131,4.131,0,0,0,1851.672,1361.446Z" transform="translate(-19.416 -7.981)" fill="#cf3339"/>
      <g id="Group_3944" data-name="Group 3944" transform="translate(1808.743 1364.022)">
        <path id="Path_2339" data-name="Path 2339" d="M1853.8,1377.465c-3.47,0-3.831,2.813-3.831,6.283V1392h-19.209a4.392,4.392,0,1,0-3.866,6.474c.026,0,.05,0,.075,0v13.261a1.622,1.622,0,0,0,1.622,1.622h25.222a3.7,3.7,0,0,0,3.7-3.7v-30.573a1.617,1.617,0,0,0-1.617-1.617Z" transform="translate(-1821.771 -1376.736)" fill="#fff"/>
        <path id="Path_2340" data-name="Path 2340" d="M1853.54,1413.816h-25.222a2.354,2.354,0,0,1-2.352-2.351v-12.571A5.122,5.122,0,1,1,1830.9,1391h18.066v-7.527c0-2.623,0-7.011,4.561-7.011h2.1a2.349,2.349,0,0,1,2.347,2.347v30.573A4.436,4.436,0,0,1,1853.54,1413.816Zm-26.844-16.342a.729.729,0,0,1,.729.729v13.262a.894.894,0,0,0,.893.893h25.222a2.976,2.976,0,0,0,2.971-2.973v-30.573a.889.889,0,0,0-.888-.888h-2.1c-2.638,0-3.1,1.791-3.1,5.553v8.256a.729.729,0,0,1-.729.729h-19.209a.73.73,0,0,1-.642-.382,3.662,3.662,0,1,0-3.225,5.4Z" transform="translate(-1821.501 -1376.465)" fill="#cf3339"/>
      </g>
      <g id="Group_3946" data-name="Group 3946" transform="translate(1774.389 1330.515)">
        <g id="Group_3945" data-name="Group 3945" transform="translate(8.358 55.431)">
          <path id="Path_2341" data-name="Path 2341" d="M1789.2,1425.3h-.151a3.2,3.2,0,0,1-3.2-3.2v-15.57h6.543v15.57A3.2,3.2,0,0,1,1789.2,1425.3Zm-1.889-17.308V1422.1a1.74,1.74,0,0,0,1.738,1.738h.151a1.74,1.74,0,0,0,1.738-1.738V1407.99Z" transform="translate(-1785.851 -1406.531)" fill="#cf3339"/>
          <path id="Path_2342" data-name="Path 2342" d="M1796.25,1425.3h-.152a3.2,3.2,0,0,1-3.2-3.2v-15.57h6.544v15.57A3.2,3.2,0,0,1,1796.25,1425.3Zm-1.89-17.308V1422.1a1.741,1.741,0,0,0,1.738,1.738h.152a1.74,1.74,0,0,0,1.738-1.738V1407.99Z" transform="translate(-1787.76 -1406.531)" fill="#cf3339"/>
        </g>
        <path id="Path_2343" data-name="Path 2343" d="M1798.316,1399.953h-15.963a.729.729,0,0,1-.729-.694l-.687-14.455v-.02c0-.011,0-.023,0-.033a8.785,8.785,0,0,1,2.848-6.674v-.494a.729.729,0,0,1,.729-.729h12.2a.73.73,0,0,1,.59.3l.493.677a12.172,12.172,0,0,1,1.938,6.9c0,.012,0,.022,0,.032l-.688,14.49A.729.729,0,0,1,1798.316,1399.953Zm-15.268-1.458h14.572l.653-13.747v-.017a10.8,10.8,0,0,0-1.654-6.032l-.28-.386h-11.1v.112a.727.727,0,0,1-.308.594,7.164,7.164,0,0,0-2.539,5.736v.022Zm16.684-13.735h0Z" transform="translate(-1776.162 -1343.063)" fill="#cf3339"/>
        <path id="Path_2344" data-name="Path 2344" d="M1802.3,1373.353h-.054a.729.729,0,0,1-.674-.781l.979-13.355a.721.721,0,0,1,.78-.674.729.729,0,0,1,.674.78l-.979,13.355A.728.728,0,0,1,1802.3,1373.353Z" transform="translate(-1781.75 -1338.104)" fill="#cf3339"/>
        <path id="Path_2345" data-name="Path 2345" d="M1785.294,1373.353a.728.728,0,0,1-.726-.675l-.98-13.355a.728.728,0,0,1,.674-.78.714.714,0,0,1,.78.674l.98,13.354a.729.729,0,0,1-.674.781Z" transform="translate(-1776.879 -1338.104)" fill="#cf3339"/>
        <ellipse id="Ellipse_211" data-name="Ellipse 211" cx="2.978" cy="3.105" rx="2.978" ry="3.105" transform="translate(5.476 29.856)" fill="#fff"/>
        <path id="Path_2346" data-name="Path 2346" d="M1782.607,1368.433l4-5.753,8.391,6.338-8.955,12.885-8.391-6.338,1.217-1.75" transform="translate(-1775.272 -1339.225)" fill="#fff"/>
        <path id="Path_2347" data-name="Path 2347" d="M1785.772,1381.341a.729.729,0,0,1-.44-.148l-7.83-5.92a.73.73,0,0,1-.158-1l1.159-1.668a.73.73,0,0,1,1.2.833l-.76,1.093,6.666,5.039,7.71-11.085-6.665-5.04-3.381,4.862a.73.73,0,1,1-1.2-.833l3.814-5.484a.735.735,0,0,1,.484-.3.722.722,0,0,1,.555.139l7.829,5.92a.73.73,0,0,1,.158,1l-8.544,12.283a.73.73,0,0,1-.484.3A.666.666,0,0,1,1785.772,1381.341Z" transform="translate(-1775.154 -1338.954)" fill="#cf3339" opacity="0.3"/>
        <path id="Path_2348" data-name="Path 2348" d="M1803.146,1377.034a.73.73,0,0,1-.725-.653c-.851-8.214-2.584-20.337-3.769-21.573a5.979,5.979,0,0,0-3.836-1.771h-12.552a.556.556,0,0,0-.292.083,14.129,14.129,0,0,0-2.742,2.311c-1.737,1.812-3.382,9.467-3.382,11.691,0,1.039,4.213,3.055,8,4.214a.729.729,0,1,1-.427,1.394c-2.117-.648-9.026-2.969-9.026-5.608,0-2.466,1.679-10.5,3.788-12.7a15.6,15.6,0,0,1,3.037-2.549,2.026,2.026,0,0,1,1.049-.294h12.562a7.364,7.364,0,0,1,4.878,2.219c1.967,2.051,3.817,19.046,4.168,22.432a.729.729,0,0,1-.65.8C1803.2,1377.032,1803.171,1377.034,1803.146,1377.034Z" transform="translate(-1774.389 -1336.219)" fill="#cf3339"/>
        <path id="Path_2349" data-name="Path 2349" d="M1806.1,1379.5a.729.729,0,0,1-.72-.621l-2.6-17.348a.73.73,0,0,1,1.443-.217l2.6,17.348a.73.73,0,0,1-.613.83A.9.9,0,0,1,1806.1,1379.5Z" transform="translate(-1782.073 -1338.689)" fill="#cf3339"/>
        <path id="Path_2350" data-name="Path 2350" d="M1786.182,1377.659a3.245,3.245,0,0,1-1.4-.323.729.729,0,1,1,.628-1.316,1.732,1.732,0,0,0,1.367.073,1.609,1.609,0,0,0,.924-.873,1.861,1.861,0,0,0-.938-2.392l-3.764-1.913a.729.729,0,1,1,.661-1.3l3.747,1.9a3.326,3.326,0,0,1,1.63,4.288,3.065,3.065,0,0,1-1.751,1.653A3.147,3.147,0,0,1,1786.182,1377.659Z" transform="translate(-1776.611 -1341.082)" fill="#cf3339"/>
        <rect id="Rectangle_3206" data-name="Rectangle 3206" width="5.821" height="1.459" transform="translate(6.086 34.625) rotate(-66.287)" fill="#cf3338" opacity="0.5"/>
        <rect id="Rectangle_3207" data-name="Rectangle 3207" width="4.587" height="1.458" transform="translate(23.859 36.918) rotate(-9.444)" fill="#cf3338" opacity="0.5"/>
        <path id="Path_2351" data-name="Path 2351" d="M1791.431,1343.888a6.691,6.691,0,1,1,6.443-6.686A6.576,6.576,0,0,1,1791.431,1343.888Zm0-11.915a5.234,5.234,0,1,0,4.985,5.229A5.117,5.117,0,0,0,1791.431,1331.973Z" transform="translate(-1777.259 -1330.515)" fill="#cf3339"/>
        <path id="Path_2352" data-name="Path 2352" d="M1809.432,1388.071a3.15,3.15,0,0,1-3.095-3.2.729.729,0,0,1,1.458,0,1.64,1.64,0,1,0,3.273,0,.729.729,0,0,1,1.458,0A3.15,3.15,0,0,1,1809.432,1388.071Z" transform="translate(-1783.04 -1345.038)" fill="#cf3339"/>
      </g>
      <path id="Path_2353" data-name="Path 2353" d="M1838.87,1416.881a.728.728,0,0,1-.729-.729v-12.4a.729.729,0,1,1,1.458,0v12.4A.729.729,0,0,1,1838.87,1416.881Z" transform="translate(-17.264 -19.634)" fill="#cf3339" opacity="0.3"/>
      <path id="Path_2354" data-name="Path 2354" d="M1849.817,1416.881a.728.728,0,0,1-.729-.729v-12.4a.729.729,0,1,1,1.458,0v12.4A.728.728,0,0,1,1849.817,1416.881Z" transform="translate(-20.228 -19.634)" fill="#cf3339" opacity="0.3"/>
      <path id="Path_2355" data-name="Path 2355" d="M1860.764,1416.881a.728.728,0,0,1-.729-.729v-12.4a.729.729,0,1,1,1.458,0v12.4A.728.728,0,0,1,1860.764,1416.881Z" transform="translate(-23.193 -19.634)" fill="#cf3339" opacity="0.3"/>
    </g>
  </g>
</svg>
