<svg xmlns="http://www.w3.org/2000/svg" width="150" height="150" viewBox="0 0 150 150">
  <g id="Group_3711" data-name="Group 3711" transform="translate(-1063 -1805)">
    <rect id="Rectangle_1961" data-name="Rectangle 1961" width="150" height="150" transform="translate(1063 1805)" fill="none"/>
    <g id="Group_3538" data-name="Group 3538" transform="translate(1077.822 1837.072)">
      <g id="Group_3535" data-name="Group 3535" transform="translate(87.285 40.741)">
        <line id="Line_1325" data-name="Line 1325" x2="33.489" transform="translate(0 15.02)" fill="none" stroke="#cf3339" stroke-linecap="round" stroke-miterlimit="10" stroke-width="2"/>
        <g id="Group_3534" data-name="Group 3534" transform="translate(3.821)" opacity="0.3">
          <line id="Line_1326" data-name="Line 1326" x1="12.217" transform="translate(0.707 12.983)" fill="none" stroke="#cf3339" stroke-linecap="round" stroke-miterlimit="10" stroke-width="2"/>
          <line id="Line_1327" data-name="Line 1327" x2="13.355" fill="none" stroke="#cf3339" stroke-linecap="round" stroke-miterlimit="10" stroke-width="2"/>
          <line id="Line_1328" data-name="Line 1328" y2="6.168" transform="translate(6.815 6.815)" fill="none" stroke="#cf3339" stroke-linecap="round" stroke-miterlimit="10" stroke-width="2"/>
          <line id="Line_1329" data-name="Line 1329" x2="6.683" y2="6.671" transform="translate(0 0.144)" fill="none" stroke="#cf3339" stroke-linecap="round" stroke-miterlimit="10" stroke-width="2"/>
          <line id="Line_1330" data-name="Line 1330" x1="6.671" y2="6.671" transform="translate(6.683 0.144)" fill="none" stroke="#cf3339" stroke-linecap="round" stroke-miterlimit="10" stroke-width="2"/>
        </g>
        <line id="Line_1331" data-name="Line 1331" x2="19.164" transform="translate(7.162 45.155)" fill="none" stroke="#cf3339" stroke-linecap="round" stroke-miterlimit="10" stroke-width="2"/>
        <line id="Line_1332" data-name="Line 1332" y2="30.135" transform="translate(16.744 15.02)" fill="none" stroke="#cf3339" stroke-linecap="round" stroke-miterlimit="10" stroke-width="2"/>
      </g>
      <g id="Group_3536" data-name="Group 3536" transform="translate(1 1)">
        <path id="Path_1676" data-name="Path 1676" stroke="#cf3339" d="M60.646,43.44H21.1a5.738,5.738,0,0,0-5.737,5.737v23.08H66.383V49.177A5.746,5.746,0,0,0,60.646,43.44Z" fill="none" transform="translate(1.839 7.392)" stroke-linecap="round" stroke-linejoin="round" stroke-miterlimit="10" stroke-width="2" opacity="0.3"/>
        <path id="Path_1677" data-name="Path 1677" d="M8.81,68.468V16.583A15.583,15.583,0,0,1,24.393,1H60.7A15.583,15.583,0,0,1,76.278,16.583V68.468" transform="translate(0.544 -1)" fill="none" stroke="#cf3339" stroke-linecap="round" stroke-miterlimit="10" stroke-width="2"/>
        <path id="Path_1678" data-name="Path 1678" d="M9.6,32.36a8.6,8.6,0,0,0,0,17.2V70.807a3.639,3.639,0,0,0,3.641,3.641H18.2V40.96A8.6,8.6,0,0,0,9.6,32.36Z" transform="translate(-1 5.201)" fill="#fff" stroke="#cf3339" stroke-linecap="round" stroke-miterlimit="10" stroke-width="2"/>
        <path id="Path_1679" data-name="Path 1679" d="M66.56,32.36a8.6,8.6,0,0,1,0,17.2V70.807a3.639,3.639,0,0,1-3.641,3.641H57.96V40.96A8.593,8.593,0,0,1,66.56,32.36Z" transform="translate(10.263 5.201)" fill="#fff" stroke="#cf3339" stroke-linecap="round" stroke-miterlimit="10" stroke-width="2"/>
        <line id="Line_1333" data-name="Line 1333" y2="3.917" transform="translate(13.882 79.649)" fill="none" stroke="#cf3339" stroke-linecap="round" stroke-miterlimit="10" stroke-width="2"/>
        <line id="Line_1334" data-name="Line 1334" y2="3.917" transform="translate(71.349 79.649)" fill="none" stroke="#cf3339" stroke-linecap="round" stroke-miterlimit="10" stroke-width="2"/>
        <circle id="Ellipse_169" data-name="Ellipse 169" cx="1.868" cy="1.868" r="1.868" transform="translate(28.506 14.708)" fill="#cf3339" opacity="0.3"/>
        <circle id="Ellipse_170" data-name="Ellipse 170" cx="1.868" cy="1.868" r="1.868" transform="translate(53.79 14.708)" fill="#cf3339" opacity="0.3"/>
        <circle id="Ellipse_171" data-name="Ellipse 171" cx="1.868" cy="1.868" r="1.868" transform="translate(28.506 31.86)" fill="#cf3339" opacity="0.3"/>
        <circle id="Ellipse_172" data-name="Ellipse 172" cx="1.868" cy="1.868" r="1.868" transform="translate(53.79 31.86)" fill="#cf3339" opacity="0.3"/>
        <line id="Line_1335" data-name="Line 1335" y2="18.733" transform="translate(29.596 55.874)" opacity="0.3" stroke="#cf3339" stroke-linecap="round" stroke-linejoin="round" stroke-miterlimit="10" stroke-width="2" fill="none"/>
        <line id="Line_1336" data-name="Line 1336" y2="18.733" transform="translate(42.711 55.874)" opacity="0.3" stroke="#cf3339" stroke-linecap="round" stroke-linejoin="round" stroke-miterlimit="10" stroke-width="2" fill="none"/>
        <line id="Line_1337" data-name="Line 1337" y2="18.733" transform="translate(55.814 55.874)" opacity="0.3" stroke="#cf3339" stroke-linecap="round" stroke-linejoin="round" stroke-miterlimit="10" stroke-width="2" fill="none"/>
      </g>
      <g id="Group_3537" data-name="Group 3537" transform="translate(90.099 1)">
        <path id="Path_1680" data-name="Path 1680" d="M97.716,26.919H78.983a3.588,3.588,0,0,1-3.593-3.593V4.593A3.588,3.588,0,0,1,78.983,1H97.716a3.588,3.588,0,0,1,3.593,3.593V23.326A3.588,3.588,0,0,1,97.716,26.919Z" transform="translate(-75.39 -1)" fill="none" stroke="#cf3339" stroke-linecap="round" stroke-miterlimit="10" stroke-width="2"/>
        <path id="Path_1681" data-name="Path 1681" d="M95.432,5.276h0c-.539-.539-2.419.455-3.09,1.09l-1.078.91c-.575.527-.982.9-1.533,1.437L82.257,7.407a.635.635,0,0,0-.443.084l-1.437.946,6.492,3.246a40.485,40.485,0,0,0-3.821,4.7l-2.24-.575a.4.4,0,0,0-.347.06l-.97.683,2.875,1.737L84.1,21.157l.683-.97a.4.4,0,0,0,.06-.347l-.563-2.192a38.361,38.361,0,0,0,4.707-3.833l3.246,6.492.946-1.437a.611.611,0,0,0,.084-.443l-1.306-7.462c.551-.563.922-.958,1.449-1.545l.9-1.078C94.977,7.695,95.971,5.814,95.432,5.276Z" transform="translate(-74.579 -0.185)" fill="#cf3339" opacity="0.3"/>
      </g>
    </g>
  </g>
</svg>
