<svg id="Layer_1" data-name="Layer 1" xmlns="http://www.w3.org/2000/svg" viewBox="0 0 99.84 67.66"><defs><style>.cls-1{fill:#ed1c24;}</style></defs><title>dubble</title><path class="cls-1" d="M65.57,66.3l22.66-20c10.23-9.1,13.83-14.22,13.83-20.85,0-7.77-6.16-12.7-13.36-12.7-7,0-11.75,3.41-16.49,9.66a3.42,3.42,0,1,1-5.41-4.17C72.3,10.57,78.37,6,89.27,6c11.94,0,20.57,8,20.57,18.76V25c0,9.67-5.12,15.64-16.78,25.79L75.33,66.49h32.14a3.42,3.42,0,1,1,0,6.83H67.56a3.52,3.52,0,0,1-3.79-3.51A4.32,4.32,0,0,1,65.57,66.3Z" transform="translate(-11.14 -6.02)"/><path class="cls-1" d="M11.93,69,28.8,47.58l-16-20.19a3.5,3.5,0,0,1-.93-2.16,2.79,2.79,0,0,1,2.81-2.74,3.08,3.08,0,0,1,2.52,1.44L32.4,43.68l15-19.54a3.52,3.52,0,0,1,2.74-1.65,2.65,2.65,0,0,1,2.6,2.66,3.05,3.05,0,0,1-.8,2L35.87,47.5,52.52,68.77a3.09,3.09,0,0,1,.94,2.09,2.82,2.82,0,0,1-2.81,2.82,3.09,3.09,0,0,1-2.53-1.45L32.19,51.54,16.47,72a3.52,3.52,0,0,1-2.81,1.66A2.64,2.64,0,0,1,11.14,71,3.08,3.08,0,0,1,11.93,69Z" transform="translate(-11.14 -6.02)"/></svg>