<?xml version="1.0" encoding="utf-8"?>
<!-- Generator: Adobe Illustrator 22.0.1, SVG Export Plug-In . SVG Version: 6.00 Build 0)  -->
<svg version="1.1" xmlns="http://www.w3.org/2000/svg" xmlns:xlink="http://www.w3.org/1999/xlink" x="0px" y="0px"
	 viewBox="0 0 60 60" style="enable-background:new 0 0 60 60;" xml:space="preserve">
<style type="text/css">
	.st0{fill:none;stroke:#CF3339;stroke-width:2;stroke-linecap:round;stroke-linejoin:round;stroke-miterlimit:10;}
	.st1{fill:#F08B8F;stroke:#CF3339;stroke-width:2;stroke-linecap:round;stroke-linejoin:round;stroke-miterlimit:10;}
	.st2{fill:#FFFFFF;stroke:#F08B8F;stroke-width:2;stroke-linecap:round;stroke-linejoin:round;stroke-miterlimit:10;}
	.st3{fill:#F4F4F4;stroke:#F08B8F;stroke-width:2;stroke-linecap:round;stroke-linejoin:round;stroke-miterlimit:10;}
</style>
<g id="Layer_1">
	<g>
		<polygon class="st0" points="21.9,12.3 38.4,12.3 38.4,47.7 12.8,47.7 12.8,21.7 		"/>
		<polygon class="st1" points="21.9,12.3 21.9,21.7 12.8,21.7 		"/>
		<line class="st2" x1="17.3" y1="30" x2="29.5" y2="30"/>
		<line class="st2" x1="17.3" y1="36" x2="29.5" y2="36"/>
		<line class="st2" x1="17.3" y1="41.5" x2="29.5" y2="41.5"/>
		<g>
			
				<rect x="37.4" y="24.5" transform="matrix(0.8785 0.4777 -0.4777 0.8785 20.0953 -15.1989)" class="st3" width="5.1" height="14.9"/>
			<path class="st3" d="M45.7,26.6l-4.4-2.4l1.2-2.2c0.7-1.2,2.2-1.7,3.4-1l0,0c1.2,0.7,1.7,2.2,1,3.4L45.7,26.6z"/>
			<polygon class="st3" points="38.6,39.7 34.2,37.2 34,42.9 			"/>
		</g>
	</g>
</g>
<g id="Layer_2">
</g>
<g id="Layer_3">
</g>
</svg>
