<svg xmlns="http://www.w3.org/2000/svg" xmlns:xlink="http://www.w3.org/1999/xlink" viewBox="0 0 70 70">
  <defs>
    <style>
      .cls-1, .cls-3, .cls-6 {
        fill: none;
      }

      .cls-2, .cls-5, .cls-7 {
        fill: #cf3339;
      }

      .cls-2, .cls-3 {
        opacity: 0.3;
      }

      .cls-3 {
        stroke: #cf3339;
        stroke-width: 2px;
      }

      .cls-3, .cls-6 {
        stroke-miterlimit: 10;
      }

      .cls-4 {
        fill: #dc7d84;
      }

      .cls-6 {
        stroke: #f08b8f;
      }

      .cls-7 {
        opacity: 0.2;
      }

      .cls-8 {
        filter: url(#Path_1813);
      }
    </style>
    <filter id="Path_1813" x="3.851" y="17.469" width="56.298" height="51.695" filterUnits="userSpaceOnUse">
      <feOffset dy="3" input="SourceAlpha"/>
      <feGaussianBlur stdDeviation="3" result="blur"/>
      <feFlood flood-opacity="0.251"/>
      <feComposite operator="in" in2="blur"/>
      <feComposite in="SourceGraphic"/>
    </filter>
  </defs>
  <g id="ico-business-store" transform="translate(-2325 -922)">
    <g id="Symbol_263_5" data-name="Symbol 263 – 5" transform="translate(-23 394)">
      <rect id="Rectangle_2470" data-name="Rectangle 2470" class="cls-1" width="70" height="70" transform="translate(2348 528)"/>
    </g>
    <g id="Group_2935" data-name="Group 2935" transform="translate(2327.15 938.336)">
      <g id="Group_2932" data-name="Group 2932" transform="translate(36.792 3.567)">
        <path id="Path_1807" data-name="Path 1807" class="cls-2" d="M65.292,12.7H42.016A2.765,2.765,0,0,0,39.2,15.516V38.792a2.765,2.765,0,0,0,2.816,2.816H65.292a2.765,2.765,0,0,0,2.816-2.816V15.516A2.765,2.765,0,0,0,65.292,12.7Z" transform="translate(-39.2 -4.347)"/>
        <path id="Path_1808" data-name="Path 1808" class="cls-2" d="M56.477,28.7h5.162a1.883,1.883,0,0,1,1.877,1.877V42.591H54.6V30.577A1.883,1.883,0,0,1,56.477,28.7Z" transform="translate(-40.146 -5.329)"/>
        <path id="Path_1809" data-name="Path 1809" class="cls-2" d="M65.292,3.8H42.016A2.765,2.765,0,0,0,39.2,6.616v1.22a2.765,2.765,0,0,0,2.816,2.816H65.292a2.765,2.765,0,0,0,2.816-2.816V6.616A2.824,2.824,0,0,0,65.292,3.8Z" transform="translate(-39.2 -3.8)"/>
      </g>
      <g id="Group_2933" data-name="Group 2933" transform="translate(0 3.567)">
        <path id="Path_1810" data-name="Path 1810" class="cls-2" d="M18.115,21.2H2.816A2.765,2.765,0,0,0,0,24.016v15.3A2.765,2.765,0,0,0,2.816,42.13h15.3a2.765,2.765,0,0,0,2.816-2.816v-15.3A2.824,2.824,0,0,0,18.115,21.2Z" transform="translate(0 -4.869)"/>
        <path id="Path_1811" data-name="Path 1811" class="cls-2" d="M7.777,28.7h5.162a1.883,1.883,0,0,1,1.877,1.877V42.591H5.9V30.577A1.883,1.883,0,0,1,7.777,28.7Z" transform="translate(-0.362 -5.329)"/>
        <path id="Path_1812" data-name="Path 1812" class="cls-2" d="M18.244,3.8H4.916A2.765,2.765,0,0,0,2.1,6.616v9.01a2.765,2.765,0,0,0,2.816,2.816H18.15a2.765,2.765,0,0,0,2.816-2.816V6.616A2.744,2.744,0,0,0,18.244,3.8Z" transform="translate(-0.129 -3.8)"/>
        <line id="Line_1477" data-name="Line 1477" class="cls-3" y2="1.689" transform="translate(8.353 14.642)"/>
      </g>
      <g id="Group_2934" data-name="Group 2934" transform="translate(6.57)">
        <g class="cls-8" transform="matrix(1, 0, 0, 1, -8.72, -16.34)">
          <path id="Path_1813-2" data-name="Path 1813" class="cls-4" d="M46.972,7.6H14.216A2.765,2.765,0,0,0,11.4,10.416V38.479a2.765,2.765,0,0,0,2.816,2.816H46.878a2.765,2.765,0,0,0,2.816-2.816V10.416A2.689,2.689,0,0,0,46.972,7.6Z" transform="translate(1.45 15.87)"/>
        </g>
        <path id="Path_1814" data-name="Path 1814" class="cls-5" d="M12.538,17.082H9.253A2.284,2.284,0,0,1,7,14.83V0h7.79V14.83A2.284,2.284,0,0,1,12.538,17.082Z" transform="translate(-7)"/>
        <path id="Path_1815" data-name="Path 1815" class="cls-5" d="M20.838,17.082H17.553A2.284,2.284,0,0,1,15.3,14.83V0h7.79V14.83A2.284,2.284,0,0,1,20.838,17.082Z" transform="translate(-7.51)"/>
        <path id="Path_1816" data-name="Path 1816" class="cls-5" d="M29.138,17.082H25.853A2.284,2.284,0,0,1,23.6,14.83V0h7.79V14.83A2.284,2.284,0,0,1,29.138,17.082Z" transform="translate(-8.02)"/>
        <path id="Path_1817" data-name="Path 1817" class="cls-5" d="M37.438,17.082H34.153A2.284,2.284,0,0,1,31.9,14.83V0h7.79V14.83A2.35,2.35,0,0,1,37.438,17.082Z" transform="translate(-8.529)"/>
        <path id="Path_1818" data-name="Path 1818" class="cls-5" d="M45.638,17.082H42.353A2.284,2.284,0,0,1,40.1,14.83V0h7.79V14.83A2.223,2.223,0,0,1,45.638,17.082Z" transform="translate(-9.033)"/>
        <path id="Path_1819" data-name="Path 1819" class="cls-5" d="M53.938,17.082H50.653A2.284,2.284,0,0,1,48.4,14.83V0h7.79V14.83A2.284,2.284,0,0,1,53.938,17.082Z" transform="translate(-9.543)"/>
        <line id="Line_1478" data-name="Line 1478" class="cls-6" y2="15.58" transform="translate(7.79)"/>
        <line id="Line_1479" data-name="Line 1479" class="cls-6" y2="15.58" transform="translate(15.58)"/>
        <line id="Line_1480" data-name="Line 1480" class="cls-6" y2="15.58" transform="translate(23.371)"/>
        <line id="Line_1481" data-name="Line 1481" class="cls-6" y2="15.58" transform="translate(31.067)"/>
        <line id="Line_1482" data-name="Line 1482" class="cls-6" y2="15.58" transform="translate(38.857)"/>
        <path id="Path_1820" data-name="Path 1820" class="cls-7" d="M43.084,30.8H38.016A2.765,2.765,0,0,1,35.2,27.982V24.416A2.765,2.765,0,0,1,38.016,21.6h5.068A2.765,2.765,0,0,1,45.9,24.416v3.567A2.765,2.765,0,0,1,43.084,30.8Z" transform="translate(-8.732 -1.327)"/>
        <path id="Path_1821" data-name="Path 1821" class="cls-7" d="M21.677,28.7h5.162a1.883,1.883,0,0,1,1.877,1.877V42.591H19.8V30.577A1.883,1.883,0,0,1,21.677,28.7Z" transform="translate(-7.786 -1.763)"/>
      </g>
      <line id="Line_1483" data-name="Line 1483" class="cls-3" y2="1.408" transform="translate(57.159 10.512)"/>
    </g>
  </g>
</svg>
