<svg xmlns="http://www.w3.org/2000/svg" width="70" height="70" viewBox="0 0 70 70">
  <g id="Symbol_332_1" data-name="Symbol 332 – 1" transform="translate(-2743 -922)">
    <g id="Symbol_263_7" data-name="Symbol 263 – 7" transform="translate(395 394)">
      <rect id="Rectangle_2470" data-name="Rectangle 2470" width="70" height="70" transform="translate(2348 528)" fill="none"/>
    </g>
    <g id="Group_3583" data-name="Group 3583" transform="translate(2743 939.542)">
      <g id="Group_3604" data-name="Group 3604" transform="translate(4.785)" opacity="0.3">
        <rect id="Rectangle_2760" data-name="Rectangle 2760" width="48.066" height="33.366" transform="translate(8.569 1.639)" fill="#e5e6e8"/>
        <g id="Group_3599" data-name="Group 3599" transform="translate(7.203)">
          <g id="Group_3598" data-name="Group 3598">
            <path id="Path_2271" data-name="Path 2271" d="M13.287,0A1.442,1.442,0,0,0,11.85,1.437V34.408a1.442,1.442,0,0,0,1.437,1.437H61.231a1.442,1.442,0,0,0,1.437-1.437V1.437A1.442,1.442,0,0,0,61.231,0Zm47.53,32.193a1.442,1.442,0,0,1-1.437,1.437H15.128a1.442,1.442,0,0,1-1.437-1.437V3.764a1.442,1.442,0,0,1,1.437-1.437H59.38a1.442,1.442,0,0,1,1.437,1.437Z" transform="translate(-11.85)" fill="#f08b8f"/>
          </g>
        </g>
        <g id="Group_3600" data-name="Group 3600" transform="translate(0 35.744)">
          <path id="Path_2272" data-name="Path 2272" d="M69.945,35.33v2.357a1.442,1.442,0,0,1-1.437,1.437H6.167A1.442,1.442,0,0,1,4.73,37.687V35.431" transform="translate(-4.73 -35.33)" fill="#f08b8f"/>
        </g>
        <g id="Group_3601" data-name="Group 3601" transform="translate(26.315 35.784)">
          <path id="Path_2273" data-name="Path 2273" d="M43.316,35.37v.668c0,.364-.647.668-1.437.668h-9.7c-.789,0-1.437-.293-1.437-.647V35.41" transform="translate(-30.74 -35.37)" fill="#f4f3f3"/>
        </g>
        <g id="Group_3603" data-name="Group 3603" transform="translate(20.649 7.618)">
          <path id="Path_2274" data-name="Path 2274" d="M31.99,20.54l1.123,3.875h9.692" transform="translate(-25.06 -7.378)" fill="none" stroke="#f08b8f" stroke-linecap="round" stroke-linejoin="round" stroke-miterlimit="10" stroke-width="1"/>
          <path id="Path_2275" data-name="Path 2275" d="M35.915,26.734a1.07,1.07,0,1,1-1.062-1.194A1.135,1.135,0,0,1,35.915,26.734Z" transform="translate(-25.039 -7.319)" fill="#f08b8f"/>
          <path id="Path_2276" data-name="Path 2276" d="M41.275,26.734a1.07,1.07,0,1,1-1.062-1.194A1.135,1.135,0,0,1,41.275,26.734Z" transform="translate(-24.976 -7.319)" fill="#f08b8f"/>
          <g id="Group_3602" data-name="Group 3602" transform="translate(0)">
            <path id="Path_2277" data-name="Path 2277" d="M25.14,7.53h3.227l3.7,13.162H43.047l2.985-9.975H29.693" transform="translate(-25.14 -7.53)" fill="none" stroke="#f08b8f" stroke-linecap="round" stroke-linejoin="round" stroke-miterlimit="10" stroke-width="1"/>
            <line id="Line_1665" data-name="Line 1665" x2="1.76" y2="9.267" transform="translate(8.053 3.521)" fill="none" stroke="#f08b8f" stroke-linecap="round" stroke-linejoin="round" stroke-miterlimit="10" stroke-width="1"/>
            <line id="Line_1666" data-name="Line 1666" x1="1.76" y2="9.267" transform="translate(14.832 3.693)" fill="none" stroke="#f08b8f" stroke-linecap="round" stroke-linejoin="round" stroke-miterlimit="10" stroke-width="1"/>
            <line id="Line_1667" data-name="Line 1667" y2="8.923" transform="translate(12.393 3.693)" fill="none" stroke="#f08b8f" stroke-linecap="round" stroke-linejoin="round" stroke-miterlimit="10" stroke-width="1"/>
            <line id="Line_1668" data-name="Line 1668" x2="13.628" transform="translate(5.595 8.326)" fill="none" stroke="#f08b8f" stroke-linecap="round" stroke-linejoin="round" stroke-miterlimit="10" stroke-width="1"/>
          </g>
        </g>
      </g>
      <g id="Group_3611" data-name="Group 3611" transform="translate(0 6.758)">
        <rect id="Rectangle_2761" data-name="Rectangle 2761" width="44.788" height="27.66" transform="translate(7.992 1.366)" fill="#e5e6e8"/>
        <g id="Group_3606" data-name="Group 3606" transform="translate(6.708)">
          <g id="Group_3605" data-name="Group 3605">
            <path id="Path_2278" data-name="Path 2278" d="M8.067,6.69A1.442,1.442,0,0,0,6.63,8.127V34.967A1.442,1.442,0,0,0,8.067,36.4H52.541a1.442,1.442,0,0,0,1.437-1.437V8.117A1.442,1.442,0,0,0,52.541,6.68H8.067ZM52.258,33.126a1.442,1.442,0,0,1-1.437,1.437H9.787A1.442,1.442,0,0,1,8.35,33.126V10.049A1.442,1.442,0,0,1,9.787,8.612H50.821a1.442,1.442,0,0,1,1.437,1.437Z" transform="translate(-6.63 -6.68)" fill="#bf413f"/>
          </g>
        </g>
        <g id="Group_3607" data-name="Group 3607" transform="translate(0 29.633)">
          <path id="Path_2279" data-name="Path 2279" d="M60.763,35.97v1.71a1.442,1.442,0,0,1-1.437,1.437H1.437A1.442,1.442,0,0,1,0,37.68V36.051" transform="translate(0 -35.97)" fill="#bf413f"/>
        </g>
        <g id="Group_3608" data-name="Group 3608" transform="translate(24.524 29.673)">
          <path id="Path_2280" data-name="Path 2280" d="M35.956,36.01v.556c0,.3-.647.556-1.437.556H25.677c-.789,0-1.437-.243-1.437-.536V36.05" transform="translate(-24.24 -36.01)" fill="#f4f3f3"/>
        </g>
        <g id="Group_3610" data-name="Group 3610" transform="translate(19.243 6.313)">
          <path id="Path_2281" data-name="Path 2281" d="M25.4,23.71l1.052,3.217h9.024" transform="translate(-18.945 -12.794)" fill="none" stroke="#f08b8f" stroke-linecap="round" stroke-linejoin="round" stroke-miterlimit="10" stroke-width="1.5"/>
          <path id="Path_2282" data-name="Path 2282" d="M29.053,28.851a.976.976,0,0,1-.981.981.986.986,0,1,1,.981-.981Z" transform="translate(-18.926 -12.745)" fill="#f08b8f"/>
          <path id="Path_2283" data-name="Path 2283" d="M34.053,28.851a.991.991,0,1,1-.991-.991A.984.984,0,0,1,34.053,28.851Z" transform="translate(-18.867 -12.745)" fill="#f08b8f"/>
          <g id="Group_3609" data-name="Group 3609">
            <path id="Path_2284" data-name="Path 2284" d="M19.02,12.92h3l3.45,10.916H35.7l2.782-8.266H23.259" transform="translate(-19.02 -12.92)" fill="none" stroke="#f08b8f" stroke-linecap="round" stroke-linejoin="round" stroke-miterlimit="10" stroke-width="1.5"/>
            <line id="Line_1669" data-name="Line 1669" x2="1.639" y2="7.669" transform="translate(7.507 2.934)" fill="none" stroke="#f08b8f" stroke-linecap="round" stroke-linejoin="round" stroke-miterlimit="10" stroke-width="1.5"/>
            <line id="Line_1670" data-name="Line 1670" x1="1.639" y2="7.679" transform="translate(13.82 3.065)" fill="none" stroke="#f08b8f" stroke-linecap="round" stroke-linejoin="round" stroke-miterlimit="10" stroke-width="1.5"/>
            <line id="Line_1671" data-name="Line 1671" y2="7.406" transform="translate(11.544 3.065)" fill="none" stroke="#f08b8f" stroke-linecap="round" stroke-linejoin="round" stroke-miterlimit="10" stroke-width="1.5"/>
            <line id="Line_1672" data-name="Line 1672" x2="12.697" transform="translate(5.21 6.91)" fill="none" stroke="#f08b8f" stroke-linecap="round" stroke-linejoin="round" stroke-miterlimit="10" stroke-width="1.5"/>
          </g>
        </g>
      </g>
    </g>
  </g>
</svg>
