<svg xmlns="http://www.w3.org/2000/svg" viewBox="0 0 40 40">
  <defs>
    <style>
      .cls-1 {
        fill: none;
      }

      .cls-2 {
        fill: #757575;
      }
    </style>
  </defs>
  <g id="ico-social-twitter" transform="translate(-150 -284)">
    <rect id="Rectangle_2" data-name="Rectangle 2" class="cls-1" width="40" height="40" transform="translate(150 284)"/>
    <path id="Path_301" data-name="Path 301" class="cls-2" d="M30.491-11.392a12.884,12.884,0,0,1-3.084,3.179q.019.267.019.8a17.466,17.466,0,0,1-.723,4.94,17.852,17.852,0,0,1-2.2,4.73,18.6,18.6,0,0,1-3.512,4.007,15.637,15.637,0,0,1-4.911,2.779A17.974,17.974,0,0,1,9.933,10.08,17.074,17.074,0,0,1,.491,7.32,13.159,13.159,0,0,0,1.976,7.4,12.038,12.038,0,0,0,9.609,4.769,6,6,0,0,1,6.03,3.541,6.014,6.014,0,0,1,3.86.5,7.789,7.789,0,0,0,5.022.6,6.361,6.361,0,0,0,6.64.391,6.049,6.049,0,0,1,3.108-1.732a5.94,5.94,0,0,1-1.4-3.912V-5.72a6.1,6.1,0,0,0,2.779.78,6.141,6.141,0,0,1-2-2.189,5.991,5.991,0,0,1-.742-2.931,6.024,6.024,0,0,1,.838-3.1,17.429,17.429,0,0,0,5.606,4.54,17.132,17.132,0,0,0,7.072,1.894,6.83,6.83,0,0,1-.152-1.409,5.925,5.925,0,0,1,1.8-4.35,5.925,5.925,0,0,1,4.35-1.8,5.928,5.928,0,0,1,4.492,1.942,12.056,12.056,0,0,0,3.9-1.485,5.969,5.969,0,0,1-2.7,3.388A12.251,12.251,0,0,0,30.491-11.392Z" transform="translate(154.509 306.619)"/>
  </g>
</svg>
