<svg xmlns="http://www.w3.org/2000/svg" width="70" height="70" viewBox="0 0 70 70">
  <g id="Symbol_330_1" data-name="Symbol 330 – 1" transform="translate(-2530 -738)">
    <g id="Symbol_263_1" data-name="Symbol 263 – 1" transform="translate(182 210)">
      <rect id="Rectangle_2470" data-name="Rectangle 2470" width="70" height="70" transform="translate(2348 528)" fill="none"/>
    </g>
    <g id="Group_3649" data-name="Group 3649" transform="translate(2536 751.006)">
      <g id="Group_3649-2" data-name="Group 3649" opacity="0.3">
        <path id="Path_2299" data-name="Path 2299" d="M58.86,9.55A133.455,133.455,0,0,0,46.66,38.6a1.013,1.013,0,0,1-1.18.77q-6.855-1.935-13.99-4.54a1.242,1.242,0,0,1-.66-1.46A161.178,161.178,0,0,1,42.2.88.985.985,0,0,1,43.62.51q7.485,4.275,14.77,7.78A.89.89,0,0,1,58.86,9.55Z" fill="#f08b8f"/>
      </g>
      <path id="Path_2300" data-name="Path 2300" d="M34.85,30.61l.3,7.88a18.565,18.565,0,0,1-.2,2.39c-.28.89-1.06.78-1.67.08a8.014,8.014,0,0,1-1.56-3.66l-.64-5.44" fill="#cf3339"/>
      <path id="Path_2301" data-name="Path 2301" d="M32.52,30.14,30.7,41.72s-.18,3.61-.9,3.46c-1.98-.42-2.18-2.75-2.32-3.92a24.647,24.647,0,0,1-.23-3.29l.49-4.43" fill="#cf3339"/>
      <g id="Group_3650" data-name="Group 3650" opacity="0.3">
        <path id="Path_2302" data-name="Path 2302" d="M47.33,5.75a186.424,186.424,0,0,0-5.14,29.89,1.122,1.122,0,0,1-1.01,1.03q-6.345.285-12.79.31a1.026,1.026,0,0,1-.91-1.14A238.907,238.907,0,0,1,30.97.76.909.909,0,0,1,32.2.05q7.2,2.4,14.32,4.51A1.052,1.052,0,0,1,47.33,5.75Z" fill="#cf3339"/>
      </g>
      <path id="Path_2303" data-name="Path 2303" d="M31.3,30.47a3.433,3.433,0,0,1,2,4.42l-3.21-1.21Z" fill="#cf3339"/>
      <path id="Path_2304" data-name="Path 2304" d="M26.02,35.06a37.6,37.6,0,0,0,4.9-4.19c2.59-1.09,3.77-2.04,4.99-2.48" fill="#f08b8f"/>
      <g id="Group_3651" data-name="Group 3651">
        <path id="Path_2305" data-name="Path 2305" d="M55.86,9.53A142.509,142.509,0,0,0,45.25,38.97a1.031,1.031,0,0,1-1.13.83q-6.96-1.425-14.2-3.44a1.188,1.188,0,0,1-.72-1.38A175.979,175.979,0,0,1,38.73,1.62a.957.957,0,0,1,1.37-.45Q47.81,5.085,55.32,8.3A.912.912,0,0,1,55.86,9.53Z" fill="#cf3339"/>
      </g>
      <path id="Path_2306" data-name="Path 2306" d="M44.42,15.59a5.346,5.346,0,1,1-7.32,1.89A5.349,5.349,0,0,1,44.42,15.59Z" fill="#f08b8f"/>
      <g id="Group_3652" data-name="Group 3652">
        <line id="Line_1680" data-name="Line 1680" y2="1.27" transform="translate(41.55 22.36)" fill="none" stroke="#fff" stroke-linecap="round" stroke-linejoin="round" stroke-miterlimit="10" stroke-width="0.75"/>
        <line id="Line_1681" data-name="Line 1681" y2="1.27" transform="translate(41.55 16.72)" fill="none" stroke="#fff" stroke-linecap="round" stroke-linejoin="round" stroke-miterlimit="10" stroke-width="0.75"/>
        <text id="B" transform="translate(38.955 22.734)" fill="#fff" font-size="7.318" font-family="GothamRounded-Medium, Gotham Rounded" font-weight="500"><tspan x="0" y="0">B</tspan></text>
      </g>
      <path id="Path_2307" data-name="Path 2307" d="M21.45,45.58H7.72L7.63,32.69h2.54a2.96,2.96,0,0,0,2.11-.89l8.97-9.2,7.24-3.33-.58,7.1-.64.36-.51,2.85-.59,4.43a.385.385,0,0,0,.64.34c.98-.87,2.7-2.38,4.12-3.49,2.59-1.09,3.77-2.04,4.99-2.48,0,0,2.27-.53,2.31,1.04.04,1.9-1.76,4.21-2.82,4.98-2.86,2.74-2.49,2.18-8.4,8.23C24.84,44.85,23.23,45.58,21.45,45.58Z" fill="#f08b8f"/>
      <g id="Group_3653" data-name="Group 3653">
        <path id="Path_2308" data-name="Path 2308" d="M5.74,48.54H1.99A1.989,1.989,0,0,1,0,46.55V31.49A1.989,1.989,0,0,1,1.99,29.5H5.74a1.989,1.989,0,0,1,1.99,1.99V46.55A1.989,1.989,0,0,1,5.74,48.54Z" fill="#cf3339"/>
      </g>
    </g>
  </g>
</svg>
