<svg xmlns="http://www.w3.org/2000/svg" viewBox="0 0 60 60">
  <defs>
    <style>
      .cls-1, .cls-2, .cls-3, .cls-4 {
        fill: none;
      }

      .cls-2, .cls-5 {
        stroke: #cf3339;
      }

      .cls-2, .cls-4 {
        stroke-linecap: round;
        stroke-linejoin: round;
      }

      .cls-2, .cls-3, .cls-4, .cls-5 {
        stroke-miterlimit: 10;
        stroke-width: 2px;
      }

      .cls-3, .cls-4 {
        stroke: #f08b8f;
      }

      .cls-5 {
        fill: #f08b8f;
      }
    </style>
  </defs>
  <g id="Group_3455" data-name="Group 3455" transform="translate(-1803 -1152)">
    <g id="Symbol_274_19" data-name="Symbol 274 – 19" transform="translate(1119 -203)">
      <rect id="Rectangle_2508" data-name="Rectangle 2508" class="cls-1" width="60" height="60" transform="translate(684 1355)"/>
    </g>
    <g id="Group_3067" data-name="Group 3067" transform="translate(1113.022 -254)">
      <g id="Group_3066" data-name="Group 3066" transform="translate(702.013 1417)">
        <path id="Path_1894" data-name="Path 1894" class="cls-2" d="M28.284,29.566V34.7A3.149,3.149,0,0,1,25.078,37.9H3.706A3.149,3.149,0,0,1,.5,34.7V8.381C.518,8.4,8.638.491,8.605.5H25.078a3.149,3.149,0,0,1,3.206,3.206V17.384" transform="translate(-0.5 -0.5)"/>
        <g id="Group_3065" data-name="Group 3065" transform="translate(21.906 9.395)">
          <path id="Path_1896" data-name="Path 1896" class="cls-3" d="M26.343,29.925,21,32.917V26.933L30.3,10.8a2.989,2.989,0,0,1,4.168-1.069h0A2.989,2.989,0,0,1,35.533,13.9Z" transform="translate(-21 -9.292)"/>
          <line id="Line_1505" data-name="Line 1505" class="cls-3" x2="5.236" y2="3.099" transform="translate(0.107 17.533)"/>
          <line id="Line_1506" data-name="Line 1506" class="cls-3" x2="5.343" y2="2.992" transform="translate(8.228 3.428)"/>
        </g>
        <g id="Group_3095" data-name="Group 3095" transform="translate(5.419 14.181)">
          <g id="Group_2692" data-name="Group 2692">
            <line id="Line_1406" data-name="Line 1406" class="cls-4" x2="15.584"/>
          </g>
          <g id="Group_2693" data-name="Group 2693" transform="translate(0 5.922)">
            <line id="Line_1407" data-name="Line 1407" class="cls-4" x2="13.246"/>
          </g>
          <g id="Group_2694" data-name="Group 2694" transform="translate(0 11.844)">
            <line id="Line_1408" data-name="Line 1408" class="cls-4" x2="12"/>
          </g>
          <g id="Group_3096" data-name="Group 3096" transform="translate(0 18.077)">
            <line id="Line_1408-2" data-name="Line 1408" class="cls-4" x2="12"/>
          </g>
        </g>
      </g>
      <path id="Path_1913" data-name="Path 1913" class="cls-5" d="M13.482,1.518V9a1.562,1.562,0,0,1-1.558,1.558L4.4,10.373" transform="translate(697.577 1415.51)"/>
    </g>
  </g>
</svg>
