<svg xmlns="http://www.w3.org/2000/svg" viewBox="0 0 71.724 58.725">
  <defs>
    <style>
      .cls-1 {
        opacity: 0.3;
      }

      .cls-2 {
        fill: #fff;
        stroke: #000;
        stroke-linejoin: round;
        stroke-miterlimit: 10;
        stroke-width: 2px;
      }
    </style>
  </defs>
  <g id="ico-prod-cash" transform="translate(-469.139 -469.139)">
    <g id="Group_953" data-name="Group 953" class="cls-1" transform="translate(469.138 469.138)">
      <circle id="Ellipse_28" data-name="Ellipse 28" class="cls-2" cx="18.862" cy="18.862" r="18.862" transform="translate(1 1)"/>
      <path id="Path_901" data-name="Path 901" d="M13.536,25.567h.881a1.321,1.321,0,0,0,.881-.176c.176-.176.176-.353.176-.705V23.452h.881a4.8,4.8,0,0,0,3.526-1.234,4.248,4.248,0,0,0,1.234-3.173,3.451,3.451,0,0,0-2.468-3.526,3.266,3.266,0,0,0,1.41-1.234,3.554,3.554,0,0,0,.529-1.939,3.631,3.631,0,0,0-1.234-3A5.083,5.083,0,0,0,16,8.292h-.881V6.881c0-.353,0-.529-.176-.705S14.593,6,14.241,6H13.183c-.353,0-.529,0-.705.176s-.176.353-.176.705V8.115H9.481c-.353,0-.529,0-.705.176,0,.353-.176.529-.176.705V22.57c0,.353,0,.529.176.705s.353.176.705.176h3.173v1.234c0,.353,0,.529.176.529A.916.916,0,0,0,13.536,25.567ZM11.6,14.638V10.407h4.054a2.34,2.34,0,0,1,1.763.529,2.155,2.155,0,0,1,.529,1.587,2.155,2.155,0,0,1-.529,1.587,2.34,2.34,0,0,1-1.763.529Zm0,6.7v-4.76h4.054a3.167,3.167,0,0,1,1.939.529,2.044,2.044,0,0,1,.705,1.763,2.155,2.155,0,0,1-.529,1.587A2.693,2.693,0,0,1,16,21.16H11.6Z" transform="translate(5.797 3.814)"/>
    </g>
    <g id="Group_954" data-name="Group 954" class="cls-1" transform="translate(501.138 488.138)">
      <circle id="Ellipse_28-2" data-name="Ellipse 28" class="cls-2" cx="18.862" cy="18.862" r="18.862" transform="translate(1 1)"/>
      <path id="Path_901-2" data-name="Path 901" d="M13.536,25.567h.881a1.321,1.321,0,0,0,.881-.176c.176-.176.176-.353.176-.705V23.452h.881a4.8,4.8,0,0,0,3.526-1.234,4.248,4.248,0,0,0,1.234-3.173,3.451,3.451,0,0,0-2.468-3.526,3.266,3.266,0,0,0,1.41-1.234,3.554,3.554,0,0,0,.529-1.939,3.631,3.631,0,0,0-1.234-3A5.083,5.083,0,0,0,16,8.292h-.881V6.881c0-.353,0-.529-.176-.705S14.593,6,14.241,6H13.183c-.353,0-.529,0-.705.176s-.176.353-.176.705V8.115H9.481c-.353,0-.529,0-.705.176,0,.353-.176.529-.176.705V22.57c0,.353,0,.529.176.705s.353.176.705.176h3.173v1.234c0,.353,0,.529.176.529A.916.916,0,0,0,13.536,25.567ZM11.6,14.638V10.407h4.054a2.34,2.34,0,0,1,1.763.529,2.155,2.155,0,0,1,.529,1.587,2.155,2.155,0,0,1-.529,1.587,2.34,2.34,0,0,1-1.763.529Zm0,6.7v-4.76h4.054a3.167,3.167,0,0,1,1.939.529,2.044,2.044,0,0,1,.705,1.763,2.155,2.155,0,0,1-.529,1.587A2.693,2.693,0,0,1,16,21.16H11.6Z" transform="translate(5.797 3.814)"/>
    </g>
    <g id="Group_946" data-name="Group 946" transform="translate(485.138 477.138)">
      <circle id="Ellipse_28-3" data-name="Ellipse 28" class="cls-2" cx="18.862" cy="18.862" r="18.862" transform="translate(1 1)"/>
      <path id="Path_901-3" data-name="Path 901" d="M13.536,25.567h.881a1.321,1.321,0,0,0,.881-.176c.176-.176.176-.353.176-.705V23.452h.881a4.8,4.8,0,0,0,3.526-1.234,4.248,4.248,0,0,0,1.234-3.173,3.451,3.451,0,0,0-2.468-3.526,3.266,3.266,0,0,0,1.41-1.234,3.554,3.554,0,0,0,.529-1.939,3.631,3.631,0,0,0-1.234-3A5.083,5.083,0,0,0,16,8.292h-.881V6.881c0-.353,0-.529-.176-.705S14.593,6,14.241,6H13.183c-.353,0-.529,0-.705.176s-.176.353-.176.705V8.115H9.481c-.353,0-.529,0-.705.176,0,.353-.176.529-.176.705V22.57c0,.353,0,.529.176.705s.353.176.705.176h3.173v1.234c0,.353,0,.529.176.529A.916.916,0,0,0,13.536,25.567ZM11.6,14.638V10.407h4.054a2.34,2.34,0,0,1,1.763.529,2.155,2.155,0,0,1,.529,1.587,2.155,2.155,0,0,1-.529,1.587,2.34,2.34,0,0,1-1.763.529Zm0,6.7v-4.76h4.054a3.167,3.167,0,0,1,1.939.529,2.044,2.044,0,0,1,.705,1.763,2.155,2.155,0,0,1-.529,1.587A2.693,2.693,0,0,1,16,21.16H11.6Z" transform="translate(5.797 3.814)"/>
    </g>
  </g>
</svg>
