<svg xmlns="http://www.w3.org/2000/svg" width="200" height="143" viewBox="0 0 200 143">
  <g id="MasterCard-logo" transform="translate(-9 -38)">
    <rect id="Rectangle_3074" data-name="Rectangle 3074" width="200" height="143" transform="translate(9 38)" fill="none"/>
    <path id="Path_2313" data-name="Path 2313" d="M122.241,364.456v-7.469a4.43,4.43,0,0,0-4.679-4.731,4.614,4.614,0,0,0-4.184,2.118,4.365,4.365,0,0,0-3.934-2.118,3.938,3.938,0,0,0-3.485,1.767v-1.469h-2.59v11.9h2.616v-6.6c0-2.069,1.145-3.164,2.912-3.164,1.718,0,2.59,1.122,2.59,3.138v6.623H114.1v-6.6c0-2.069,1.2-3.164,2.915-3.164,1.767,0,2.613,1.122,2.613,3.138v6.623h2.614Zm38.693-11.9H156.7v-3.61h-2.613v3.61h-2.417v2.367h2.417v5.426c0,2.764,1.069,4.407,4.131,4.407a6.06,6.06,0,0,0,3.236-.921l-.745-2.217a4.769,4.769,0,0,1-2.292.672c-1.3,0-1.718-.8-1.718-1.99v-5.377h4.233v-2.367Zm22.086-.3A3.51,3.51,0,0,0,179.883,354v-1.446h-2.564v11.9h2.587v-6.672c0-1.967.849-3.062,2.541-3.062a4.248,4.248,0,0,1,1.62.3l.8-2.44a5.575,5.575,0,0,0-1.842-.324M149.629,353.5a8.877,8.877,0,0,0-4.853-1.246c-3.013,0-4.954,1.446-4.954,3.81,0,1.941,1.443,3.138,4.106,3.511l1.222.174c1.417.2,2.089.571,2.089,1.243,0,.921-.944,1.446-2.712,1.446a6.349,6.349,0,0,1-3.96-1.246l-1.219,2.016a8.588,8.588,0,0,0,5.154,1.544c3.437,0,5.43-1.617,5.43-3.882,0-2.091-1.57-3.186-4.161-3.56l-1.22-.176c-1.119-.148-2.016-.371-2.016-1.168,0-.872.846-1.4,2.266-1.4a7.666,7.666,0,0,1,3.711,1.023ZM219,352.256A3.509,3.509,0,0,0,215.862,354v-1.446H213.3v11.9h2.587v-6.672c0-1.967.849-3.062,2.541-3.062a4.258,4.258,0,0,1,1.62.3l.794-2.44a5.553,5.553,0,0,0-1.842-.324m-33.362,6.249a6.013,6.013,0,0,0,6.348,6.249,6.22,6.22,0,0,0,4.282-1.42l-1.243-2.092a5.227,5.227,0,0,1-3.112,1.073,3.817,3.817,0,0,1,0-7.62,5.228,5.228,0,0,1,3.112,1.073l1.243-2.092a6.231,6.231,0,0,0-4.282-1.42,6.011,6.011,0,0,0-6.348,6.249m24.25,0v-5.951h-2.59V354a4.507,4.507,0,0,0-3.757-1.744,6.257,6.257,0,0,0,0,12.5,4.513,4.513,0,0,0,3.757-1.741v1.443h2.59Zm-9.636,0a3.6,3.6,0,1,1,3.612,3.81,3.572,3.572,0,0,1-3.612-3.81M169,352.256c-3.486,0-5.925,2.541-5.925,6.249a5.871,5.871,0,0,0,6.1,6.249,7.236,7.236,0,0,0,4.878-1.669l-1.269-1.915a5.671,5.671,0,0,1-3.462,1.243,3.3,3.3,0,0,1-3.561-2.912H174.6c.026-.325.049-.649.049-1-.023-3.709-2.314-6.249-5.652-6.249m-.049,2.315c1.669,0,2.738,1.046,3.013,2.888H165.79a3.062,3.062,0,0,1,3.161-2.888m64.96,3.935V347.774h-2.59V354a4.507,4.507,0,0,0-3.758-1.744,6.257,6.257,0,0,0,0,12.5,4.513,4.513,0,0,0,3.758-1.741v1.443h2.59Zm-9.637,0a3.6,3.6,0,1,1,3.611,3.81,3.571,3.571,0,0,1-3.611-3.81m-87.443,0v-5.951h-2.588V354a4.517,4.517,0,0,0-3.761-1.744,6.257,6.257,0,0,0,0,12.5,4.523,4.523,0,0,0,3.761-1.741v1.443h2.588Zm-9.634,0a3.6,3.6,0,1,1,3.61,3.81,3.57,3.57,0,0,1-3.61-3.81m111.03,4.227a1.17,1.17,0,0,1,.47.093,1.224,1.224,0,0,1,.382.253,1.267,1.267,0,0,1,.258.377,1.178,1.178,0,0,1,.093.46,1.153,1.153,0,0,1-.093.458,1.23,1.23,0,0,1-.258.377,1.289,1.289,0,0,1-.382.255,1.169,1.169,0,0,1-.47.093,1.185,1.185,0,0,1-.478-.093,1.2,1.2,0,0,1-.382-.255,1.175,1.175,0,0,1-.258-.377,1.153,1.153,0,0,1-.092-.458,1.177,1.177,0,0,1,.092-.46,1.215,1.215,0,0,1,.258-.377,1.168,1.168,0,0,1,.382-.253,1.193,1.193,0,0,1,.478-.093m0,2.1a.868.868,0,0,0,.357-.072.914.914,0,0,0,.29-.2.924.924,0,0,0,0-1.3.954.954,0,0,0-.29-.2.91.91,0,0,0-.357-.069.947.947,0,0,0-.365.069.921.921,0,0,0-.49.49.923.923,0,0,0,.2,1.012.89.89,0,0,0,.293.2.906.906,0,0,0,.365.072m.069-1.475a.518.518,0,0,1,.328.093.32.32,0,0,1,.113.257.305.305,0,0,1-.09.226.45.45,0,0,1-.261.107l.359.415h-.281l-.333-.412h-.107v.412h-.235v-1.1Zm-.272.206v.293h.269a.28.28,0,0,0,.148-.034.127.127,0,0,0,.055-.114.122.122,0,0,0-.055-.11.276.276,0,0,0-.148-.035Z" transform="translate(-59.339 -199.642)" fill="#010101"/>
    <rect id="Rectangle_3070" data-name="Rectangle 3070" width="39.221" height="70.479" transform="translate(89.43 62.212)" fill="#f26522"/>
    <path id="Path_2314" data-name="Path 2314" d="M141.139,168.381a44.749,44.749,0,0,1,17.12-35.24,44.824,44.824,0,1,0,0,70.48,44.748,44.748,0,0,1-17.12-35.24" transform="translate(-49.217 -70.929)" fill="#e51b24"/>
    <path id="Path_2315" data-name="Path 2315" d="M328.526,168.378a44.82,44.82,0,0,1-72.519,35.239,44.832,44.832,0,0,0,0-70.479,44.822,44.822,0,0,1,72.519,35.24m-4.276,27.776v-1.443h.582v-.293h-1.483v.293h.582v1.443Zm2.877,0v-1.738h-.454l-.522,1.2-.521-1.2h-.455v1.738h.319v-1.312l.49,1.133h.333l.489-1.136v1.315Z" transform="translate(-146.963 -70.928)" fill="#f99f1c"/>
  </g>
</svg>
