<?xml version="1.0" encoding="utf-8"?>
<!-- Generator: Adobe Illustrator 22.0.1, SVG Export Plug-In . SVG Version: 6.00 Build 0)  -->
<svg version="1.1" xmlns="http://www.w3.org/2000/svg" xmlns:xlink="http://www.w3.org/1999/xlink" x="0px" y="0px"
	 viewBox="0 0 60 60" style="enable-background:new 0 0 60 60;" xml:space="preserve">
<style type="text/css">
	.st0{fill:none;stroke:#F08B8F;stroke-width:2;stroke-linecap:round;stroke-linejoin:round;stroke-miterlimit:10;}
	.st1{fill:none;stroke:#CF3339;stroke-width:2;stroke-linecap:round;stroke-linejoin:round;stroke-miterlimit:10;}
	.st2{fill:none;stroke:#F08B8F;stroke-width:2;stroke-miterlimit:10;}
</style>
<g id="Layer_3">
	<path class="st0" d="M28.5,19.5c0,0-1.4-7.2-5.4-7.3c-1.6,0-3.1,1.3-3.2,3C19.7,17.1,20.9,19.8,28.5,19.5z"/>
</g>
<g id="Layer_4">
	<path class="st0" d="M30.6,19.5c0,0,1.4-7.2,5.4-7.3c1.6,0,3.1,1.3,3.2,3C39.4,17.1,38.3,19.8,30.6,19.5z"/>
</g>
<g id="Layer_1">
	<g>
		<path class="st1" d="M40.2,48.1H18.9c-1.7,0-3-1.3-3-3V27.4h27.3v17.8C43.2,46.8,41.9,48.1,40.2,48.1z"/>
		<path class="st1" d="M45.3,27.4H13.9c-1.3,0-2.3-1-2.3-2.3v-2c0-1.3,1-2.3,2.3-2.3h31.4c1.3,0,2.3,1,2.3,2.3v2
			C47.6,26.3,46.5,27.4,45.3,27.4z"/>
	</g>
</g>
<g id="Layer_2">
	<line class="st2" x1="29.6" y1="21.8" x2="29.6" y2="47.1"/>
</g>
</svg>
