<svg xmlns="http://www.w3.org/2000/svg" viewBox="0 0 60 60">
  <defs>
    <style>
      .cls-1, .cls-3 {
        fill: none;
      }

      .cls-2, .cls-4, .cls-5 {
        fill: #f08b8f;
      }

      .cls-3 {
        stroke: #cf3339;
        stroke-linecap: round;
        stroke-linejoin: round;
        stroke-miterlimit: 10;
        stroke-width: 2px;
      }

      .cls-4 {
        font-size: 22.956px;
        font-family: GothamRounded-Book, Gotham Rounded;
      }

      .cls-5 {
        font-size: 6.9px;
        font-family: GothamRounded-Bold, Gotham Rounded;
        font-weight: 700;
      }
    </style>
  </defs>
  <g id="ico-dining" transform="translate(-2058 -1148)">
    <g id="Symbol_347_2" data-name="Symbol 347 – 2" transform="translate(320)">
      <rect id="Rectangle_2471" data-name="Rectangle 2471" class="cls-1" width="60" height="60" transform="translate(1738 1148)"/>
    </g>
    <g id="Group_3347" data-name="Group 3347" transform="translate(2071 1159)">
      <path id="Path_1953" data-name="Path 1953" class="cls-2" d="M33.3,10.5H1V7.2a2.946,2.946,0,0,1,3-3H30.3a2.946,2.946,0,0,1,3,3Z"/>
      <path id="Path_1954" data-name="Path 1954" class="cls-3" d="M30.3,36.4H4a2.946,2.946,0,0,1-3-3V7.2a2.946,2.946,0,0,1,3-3H30.3a2.946,2.946,0,0,1,3,3V33.5A2.989,2.989,0,0,1,30.3,36.4Z"/>
      <line id="Line_1546" data-name="Line 1546" class="cls-3" y2="4.9" transform="translate(9.9 1)"/>
      <line id="Line_1547" data-name="Line 1547" class="cls-3" y2="4.9" transform="translate(24.4 1)"/>
      <text id="_0" data-name="0" class="cls-4" transform="translate(8.726 31.137)"><tspan x="0" y="0">0</tspan></text>
      <text id="_" data-name="%" class="cls-5" transform="translate(24.413 31.137)"><tspan x="0" y="0">%</tspan></text>
    </g>
  </g>
</svg>
