<?xml version="1.0" encoding="utf-8"?>
<!-- Generator: Adobe Illustrator 22.0.1, SVG Export Plug-In . SVG Version: 6.00 Build 0)  -->
<svg version="1.1" xmlns="http://www.w3.org/2000/svg" xmlns:xlink="http://www.w3.org/1999/xlink" x="0px" y="0px"
	 viewBox="0 0 60 60" style="enable-background:new 0 0 60 60;" xml:space="preserve">
<style type="text/css">
	.st0{fill:none;stroke:#F08B8F;stroke-width:2;stroke-linecap:round;stroke-linejoin:round;stroke-miterlimit:10;}
	.st1{fill:none;stroke:#CF3339;stroke-width:2;stroke-miterlimit:10;}
	.st2{fill:#F08B8F;}
</style>
<g id="Layer_1">
	<path class="st0" d="M20.2,21.5l-11,0.1c-1.8,0-3.2,1.5-3.2,3.2l0.1,11.3c0,1.8,1.5,3.2,3.2,3.2l1.7,0c0.2,0,0.3,0.1,0.3,0.3l0,2.7
		c0,0.5,0.6,0.8,1,0.5l4-3.5c0.1,0,0.1-0.1,0.2-0.1l7.4,0"/>
</g>
<g id="Layer_2">
	<path class="st1" d="M48.3,16.5l-24.4,0.2c-2.1,0-3.7,1.7-3.7,3.7l0.1,15c0,2.1,1.7,3.7,3.7,3.7l2.4,0c0.2,0,0.4,0.2,0.4,0.4l0,3.5
		c0,0.7,0.8,1.1,1.3,0.6l5.1-4.4c0.1-0.1,0.2-0.1,0.3-0.1L48.5,39c2.1,0,3.7-1.7,3.7-3.7l-0.1-15C52,18.1,50.3,16.5,48.3,16.5z"/>
</g>
<g id="Layer_3">
	<g>
		<circle class="st2" cx="29.2" cy="27.9" r="2.2"/>
		<circle class="st2" cx="36.5" cy="27.8" r="2.2"/>
		<circle class="st2" cx="43.8" cy="27.7" r="2.2"/>
	</g>
</g>
</svg>
