<svg xmlns="http://www.w3.org/2000/svg" viewBox="0 0 40 40">
  <defs>
    <style>
      .cls-1, .cls-2 {
        fill: none;
      }

      .cls-2 {
        stroke: #fff;
        stroke-linejoin: round;
        stroke-miterlimit: 10;
      }
    </style>
  </defs>
  <g id="ico-my-promotion" transform="translate(-37 -131)">
    <rect id="Rectangle_667" data-name="Rectangle 667" class="cls-1" width="40" height="40" transform="translate(37 131)"/>
    <g id="Group_925" data-name="Group 925" transform="translate(45.535 141.919)">
      <path id="Path_893" data-name="Path 893" class="cls-2" d="M10.6,19.3v5.006a1.686,1.686,0,0,0,1.689,1.689h0a1.686,1.686,0,0,0,1.689-1.689V19.481" transform="translate(-4.81 -8.244)"/>
      <path id="Path_894" data-name="Path 894" class="cls-2" d="M26.367,14.859,13.4,11.663v-7.3L26.307.988a1.106,1.106,0,0,1,1.327,1.025V13.895A.988.988,0,0,1,26.367,14.859Z" transform="translate(-5.921 -0.969)"/>
      <path id="Path_895" data-name="Path 895" class="cls-2" d="M4.739,13.979H8.479V6.5H4.739A3.758,3.758,0,0,0,1,10.239H1A3.758,3.758,0,0,0,4.739,13.979Z" transform="translate(-1 -3.164)"/>
    </g>
  </g>
</svg>
