<svg xmlns="http://www.w3.org/2000/svg" width="80" height="60" viewBox="0 0 80 60">
  <g id="Group_4018" data-name="Group 4018" transform="translate(-1168.632 -1445.197)">
    <g id="Layer_2" data-name="Layer 2">
      <rect id="Rectangle_3050" data-name="Rectangle 3050" width="80" height="60" transform="translate(1168.632 1445.197)" fill="none"/>
    </g>
    <g id="Layer_1" data-name="Layer 1">
      <line id="Line_1310" data-name="Line 1310" x2="40.834" transform="translate(1189.068 1475.994)" fill="none" stroke="#f08b8f" stroke-linecap="round" stroke-miterlimit="10" stroke-width="2"/>
      <path id="Path_2164" data-name="Path 2164" d="M1189.068,1491.725v5.334a2.071,2.071,0,0,0,2.072,2.072h6.662a2.071,2.071,0,0,0,2.072-2.072v-3.177" fill="none" stroke="#cf3339" stroke-linecap="round" stroke-linejoin="round" stroke-width="2"/>
      <path id="Path_2165" data-name="Path 2165" d="M1229.911,1491.725v5.334a2.072,2.072,0,0,1-2.072,2.072h-6.663a2.072,2.072,0,0,1-2.072-2.072v-3.177" fill="none" stroke="#cf3339" stroke-linecap="round" stroke-linejoin="round" stroke-width="2"/>
      <path id="Path_2166" data-name="Path 2166" d="M1207.192,1463.031h-9.7a5.2,5.2,0,0,0-4.938,3.567l-5.134,15.518a4.3,4.3,0,0,0-.216,1.344v3.575a6.847,6.847,0,0,0,6.846,6.847h30.868a6.848,6.848,0,0,0,6.847-6.847v-3.575a4.3,4.3,0,0,0-.217-1.344l-5.134-15.518a5.2,5.2,0,0,0-4.938-3.567h-14.285" fill="none" stroke="#cf3339" stroke-linecap="round" stroke-linejoin="round" stroke-width="2"/>
      <line id="Line_1311" data-name="Line 1311" x2="13.529" transform="translate(1202.72 1484.747)" fill="none" stroke="#f08b8f" stroke-linecap="round" stroke-miterlimit="10" stroke-width="2"/>
      <line id="Line_1312" data-name="Line 1312" y1="1.385" x2="4.196" transform="translate(1229.902 1474.609)" fill="none" stroke="#cf3339" stroke-linecap="round" stroke-linejoin="round" stroke-width="2"/>
      <line id="Line_1313" data-name="Line 1313" x1="4.196" y1="1.385" transform="translate(1184.888 1474.609)" fill="none" stroke="#cf3339" stroke-linecap="round" stroke-linejoin="round" stroke-width="2"/>
      <circle id="Ellipse_209" data-name="Ellipse 209" cx="2.875" cy="2.875" r="2.875" transform="translate(1192.053 1481.872)" fill="#f08b8f"/>
      <circle id="Ellipse_210" data-name="Ellipse 210" cx="2.875" cy="2.875" r="2.875" transform="translate(1221.553 1481.872)" fill="#f08b8f"/>
      <circle id="Ellipse_28-3" data-name="Ellipse 28-3" cx="13.368" cy="13.368" r="13.368" transform="translate(1211.059 1447.137)" fill="#fff"/>
      <g id="Group_946" data-name="Group 946">
        <circle id="Ellipse_28-3-2" data-name="Ellipse 28-3" cx="10.502" cy="10.502" r="10.502" transform="translate(1213.925 1450.003)" fill="#fff" stroke="#cf3339" stroke-linejoin="round" stroke-width="2"/>
        <path id="Path_901-3" data-name="Path 901-3" d="M1224.132,1465.806h.49a.732.732,0,0,0,.49-.1c.1-.1.1-.2.1-.392v-.687h.491a2.669,2.669,0,0,0,1.963-.687,2.36,2.36,0,0,0,.686-1.766,1.922,1.922,0,0,0-1.373-1.964,1.819,1.819,0,0,0,.785-.686,1.977,1.977,0,0,0,.294-1.08,2.019,2.019,0,0,0-.686-1.668,2.833,2.833,0,0,0-1.865-.591h-.485v-.785c0-.2,0-.294-.1-.393s-.2-.1-.4-.1h-.589c-.2,0-.294,0-.393.1s-.1.2-.1.393v.686h-1.572c-.2,0-.294,0-.392.1,0,.2-.1.294-.1.393v7.557c0,.2,0,.294.1.393s.2.1.392.1h1.767v.686c0,.2,0,.294.1.294A.509.509,0,0,0,1224.132,1465.806Zm-1.08-6.086v-2.355h2.259a1.3,1.3,0,0,1,.982.294,1.473,1.473,0,0,1,0,1.766,1.3,1.3,0,0,1-.982.294Zm0,3.73V1460.8h2.259a1.757,1.757,0,0,1,1.079.294,1.135,1.135,0,0,1,.393.981,1.2,1.2,0,0,1-.294.883,1.5,1.5,0,0,1-.982.393h-2.454Z" fill="#f08b8f"/>
      </g>
    </g>
  </g>
</svg>
