<svg xmlns="http://www.w3.org/2000/svg" viewBox="0 0 40 40">
  <defs>
    <style>
      .cls-1 {
        fill: none;
      }

      .cls-2 {
        fill: #757575;
      }
    </style>
  </defs>
  <g id="ico-social-instagram" transform="translate(-179 -284)">
    <rect id="Rectangle_3" data-name="Rectangle 3" class="cls-1" width="40" height="40" transform="translate(179 284)"/>
    <path id="Subtraction_3" data-name="Subtraction 3" class="cls-2" d="M82.833,297.333H71.5a8.509,8.509,0,0,1-8.5-8.5V277.5a8.509,8.509,0,0,1,8.5-8.5H82.833a8.509,8.509,0,0,1,8.5,8.5v11.334A8.509,8.509,0,0,1,82.833,297.333Zm-5.667-21.25a7.083,7.083,0,1,0,7.083,7.083A7.091,7.091,0,0,0,77.166,276.083Zm7.5-2.083a1.667,1.667,0,1,0,1.667,1.667A1.669,1.669,0,0,0,84.667,274Zm-7.5,13.75a4.583,4.583,0,1,1,4.585-4.584A4.588,4.588,0,0,1,77.166,287.75Z" transform="translate(121.833 20.833)"/>
  </g>
</svg>
