<svg xmlns="http://www.w3.org/2000/svg" xmlns:xlink="http://www.w3.org/1999/xlink" viewBox="0 0 60 43">
  <defs>
    <style>
      .cls-1 {
        fill: rgba(255,96,96,0.1);
        stroke: #707070;
      }

      .cls-2 {
        clip-path: url(#clip-path);
      }

      .cls-3 {
        fill: #fff;
      }

      .cls-4 {
        fill: url(#linear-gradient);
      }

      .cls-5 {
        fill: url(#linear-gradient-2);
      }

      .cls-6 {
        fill: url(#linear-gradient-3);
      }

      .cls-7 {
        fill: url(#linear-gradient-4);
      }

      .cls-8 {
        fill: url(#linear-gradient-5);
      }
    </style>
    <clipPath id="clip-path">
      <rect id="Rectangle_1911" data-name="Rectangle 1911" class="cls-1" width="60" height="43" transform="translate(1052 2912)"/>
    </clipPath>
    <linearGradient id="linear-gradient" x1="-0.749" y1="0.885" x2="1.828" y2="0.885" gradientUnits="objectBoundingBox">
      <stop offset="0" stop-color="#007940"/>
      <stop offset="0.228" stop-color="#00873f"/>
      <stop offset="0.743" stop-color="#40a737"/>
      <stop offset="1" stop-color="#5cb531"/>
    </linearGradient>
    <linearGradient id="linear-gradient-2" x1="-0.058" y1="0.541" x2="0.831" y2="0.541" xlink:href="#linear-gradient"/>
    <linearGradient id="linear-gradient-3" x1="-0.818" y1="1.102" x2="1.995" y2="1.102" xlink:href="#linear-gradient"/>
    <linearGradient id="linear-gradient-4" x1="0.191" y1="0.541" x2="1.094" y2="0.541" gradientUnits="objectBoundingBox">
      <stop offset="0" stop-color="#1f286f"/>
      <stop offset="0.475" stop-color="#004e94"/>
      <stop offset="0.826" stop-color="#0066b1"/>
      <stop offset="1" stop-color="#006fbc"/>
    </linearGradient>
    <linearGradient id="linear-gradient-5" x1="0.059" y1="0.54" x2="0.937" y2="0.54" gradientUnits="objectBoundingBox">
      <stop offset="0" stop-color="#6c2c2f"/>
      <stop offset="0.174" stop-color="#882730"/>
      <stop offset="0.573" stop-color="#be1833"/>
      <stop offset="0.859" stop-color="#dc0436"/>
      <stop offset="1" stop-color="#e60039"/>
    </linearGradient>
  </defs>
  <g id="ico-jcb" class="cls-2" transform="translate(-1052 -2912)">
    <g id="JCB" transform="translate(1052.513 2931.011)">
      <g id="g6323" transform="translate(6.987 -15.011)">
        <path id="path6325" class="cls-3" d="M48.636,30.352a7.01,7.01,0,0,1-7,7H3.549V9.628a7.01,7.01,0,0,1,7-7H48.636V30.352Z" transform="translate(-3.549 -2.628)"/>
        <g id="g6327" transform="translate(30.205 2.343)">
          <path id="path6338" class="cls-4" d="M44.024,27.524h2.894c.083,0,.276-.028.358-.028a1.291,1.291,0,0,0,1.02-1.3,1.338,1.338,0,0,0-1.02-1.3,1.456,1.456,0,0,0-.358-.028H44.024v2.646Z" transform="translate(-41.543 -9.253)"/>
          <path id="path6349" class="cls-5" d="M46,5.529a5.016,5.016,0,0,0-5.016,5.016v5.209h7.083a2.834,2.834,0,0,1,.5.028c1.6.083,2.783.909,2.783,2.343a2.344,2.344,0,0,1-2.287,2.287v.055c1.626.11,2.866,1.02,2.866,2.425,0,1.516-1.378,2.508-3.2,2.508H40.952V35.6h7.358a5.016,5.016,0,0,0,5.016-5.016V5.529H46Z" transform="translate(-40.952 -5.529)"/>
          <path id="path6360" class="cls-6" d="M47.937,21.245a1.172,1.172,0,0,0-1.02-1.185c-.055,0-.193-.028-.276-.028H44.024v2.425h2.618a.768.768,0,0,0,.276-.028A1.172,1.172,0,0,0,47.937,21.245Z" transform="translate(-41.543 -8.32)"/>
        </g>
        <path id="path6371" class="cls-7" d="M11.664,5.529a5.016,5.016,0,0,0-5.016,5.016V22.918a9.919,9.919,0,0,0,4.327,1.13,2.4,2.4,0,0,0,2.673-2.48V15.725h4.3V21.54c0,2.26-1.406,4.106-6.173,4.106a21.156,21.156,0,0,1-5.154-.634V35.568h7.358a5.016,5.016,0,0,0,5.016-5.016V5.529H11.664Z" transform="translate(-4.14 -3.186)"/>
        <path id="path6384" class="cls-8" d="M28.836,5.529a5.016,5.016,0,0,0-5.016,5.016V17.1c1.268-1.075,3.472-1.764,7.028-1.6a22.363,22.363,0,0,1,3.941.606v2.122a9.54,9.54,0,0,0-3.8-1.1c-2.7-.193-4.327,1.13-4.327,3.445,0,2.343,1.626,3.665,4.327,3.445a10.009,10.009,0,0,0,3.8-1.1V25.04a21.83,21.83,0,0,1-3.941.606c-3.555.165-5.76-.524-7.028-1.6V35.623h7.358a5.016,5.016,0,0,0,5.016-5.016V5.529H28.836Z" transform="translate(-7.45 -3.186)"/>
      </g>
    </g>
  </g>
</svg>
