<svg xmlns="http://www.w3.org/2000/svg" xmlns:xlink="http://www.w3.org/1999/xlink" viewBox="0 0 73.976 71.621">
  <defs>
    <style>
      .cls-1 {
        fill: none;
      }

      .cls-2 {
        opacity: 0.3;
      }

      .cls-3 {
        fill: #f08b8f;
      }

      .cls-4 {
        fill: #fff;
      }

      .cls-5 {
        opacity: 0.5;
      }

      .cls-6 {
        fill: #cf3339;
      }

      .cls-7 {
        filter: url(#Path_1799);
      }
    </style>
    <filter id="Path_1799" x="1.094" y="31.917" width="72.882" height="39.704" filterUnits="userSpaceOnUse">
      <feOffset dy="3" input="SourceAlpha"/>
      <feGaussianBlur stdDeviation="3" result="blur"/>
      <feFlood flood-opacity="0.251"/>
      <feComposite operator="in" in2="blur"/>
      <feComposite in="SourceGraphic"/>
    </filter>
  </defs>
  <g id="ico-personal-loans" transform="translate(-2530 -738)">
    <g id="Symbol_263_1" data-name="Symbol 263 – 1" transform="translate(182 210)">
      <rect id="Rectangle_2470" data-name="Rectangle 2470" class="cls-1" width="70" height="70" transform="translate(2348 528)"/>
    </g>
    <g id="Group_2925" data-name="Group 2925" transform="translate(2534.855 747.844)">
      <g id="Group_2921" data-name="Group 2921" class="cls-2" transform="translate(15.801 1.202)">
        <ellipse id="Ellipse_221" data-name="Ellipse 221" class="cls-3" cx="11.595" cy="11.595" rx="11.595" ry="11.595"/>
        <g id="Group_2920" data-name="Group 2920" transform="translate(7.902 4.037)">
          <path id="Path_1796" data-name="Path 1796" class="cls-4" d="M31.035,19.412H27.6V7.818h3.435V6.1h.859V7.818h.945a3.15,3.15,0,0,1,2.319.773,3.149,3.149,0,0,1,.773,2.319,2.966,2.966,0,0,1-.429,1.546,2.031,2.031,0,0,1-1.117.945,2.5,2.5,0,0,1,1.889,2.748,3.631,3.631,0,0,1-.429,1.718,2.533,2.533,0,0,1-1.2,1.117,3.552,3.552,0,0,1-1.632.429h-1.2V21.13H30.95V19.412Zm.945-6.527h.687a2.02,2.02,0,0,0,1.46-.515,2.02,2.02,0,0,0,.515-1.46,1.852,1.852,0,0,0-.515-1.546,2.1,2.1,0,0,0-1.546-.515H28.974v4.037H31.98Zm0,5.411h.773a2.187,2.187,0,0,0,1.632-.515,2.28,2.28,0,0,0,.515-1.718,1.912,1.912,0,0,0-.6-1.632,2.818,2.818,0,0,0-1.8-.515H28.8V18.21H31.98Z" transform="translate(-27.6 -6.1)"/>
        </g>
      </g>
      <g id="Group_2922" data-name="Group 2922" class="cls-5" transform="translate(23.015 5.325)">
        <path id="Path_1797" data-name="Path 1797" class="cls-4" d="M35.56,15.905a2.866,2.866,0,0,1-.859,2.319,3.7,3.7,0,0,1-2.233,1.117H31.61v1.546h-.945V19.341H26.8V17.795H28V9.206H26.8V7.574h3.865V6.2h.945V7.66a4.574,4.574,0,0,1,2.577.773,2.5,2.5,0,0,1,.859,2.147,2.167,2.167,0,0,1-.515,1.46,3.587,3.587,0,0,1-1.288.945A3.026,3.026,0,0,1,34.787,14.1,1.993,1.993,0,0,1,35.56,15.905Zm-2.577-5.239a2.541,2.541,0,0,0-.172-.859c-.172-.172-.258-.344-.515-.429a1.241,1.241,0,0,0-.6-.172H30.15V12.3h.859a1.891,1.891,0,0,0,.687-.086c.258-.086.429-.086.6-.258a.88.88,0,0,0,.429-.515A1.385,1.385,0,0,0,32.984,10.666Zm.429,5.153a1.832,1.832,0,0,0-.258-1.031,2.007,2.007,0,0,0-.6-.6,1.142,1.142,0,0,0-.687-.258c-.258,0-.344-.086-.515-.086h-1.2v4.037h.859a3.383,3.383,0,0,0,1.718-.429A1.948,1.948,0,0,0,33.413,15.819Z" transform="translate(-26.8 -6.2)"/>
      </g>
      <path id="Path_1798" data-name="Path 1798" class="cls-6" d="M49.3,46.489S50.76,37.9,54.367,37.9,57.2,46.489,57.2,46.489Z" transform="translate(-6.962 -5.413)"/>
      <g class="cls-7" transform="matrix(1, 0, 0, 1, -4.86, -9.84)">
        <path id="Path_1799-2" data-name="Path 1799" class="cls-3" d="M6.1,40.27V54.441h9.533s24.39.687,33.579-3.092,9.275-3.779,9.275-3.779,3.865-3.779,1.975-5.668-4.723-.687-4.723-.687a19.779,19.779,0,0,1-12.452,3.607A25.385,25.385,0,0,1,32.551,41.73s9.275-3.521,6.183-7.644S21.988,36.663,17.264,40.1H6.1Z" transform="translate(3.99 5.13)"/>
      </g>
      <path id="Path_1800" data-name="Path 1800" class="cls-6" d="M7.9,57.924H2.577A2.531,2.531,0,0,1,0,55.348V41.177A2.531,2.531,0,0,1,2.577,38.6H7.9a2.531,2.531,0,0,1,2.577,2.577V55.348A2.584,2.584,0,0,1,7.9,57.924Z" transform="translate(0 -5.534)"/>
      <g id="Group_2924" data-name="Group 2924" transform="translate(23.1)">
        <ellipse id="Ellipse_222" data-name="Ellipse 222" class="cls-6" cx="11.595" cy="11.595" rx="11.595" ry="11.595"/>
        <g id="Group_2923" data-name="Group 2923" transform="translate(7.902 4.037)">
          <path id="Path_1801" data-name="Path 1801" class="cls-4" d="M39.535,18.1H36.1V6.418h3.435V4.7h.859V6.418h.945a3.15,3.15,0,0,1,2.319.773,3.15,3.15,0,0,1,.773,2.319A2.966,2.966,0,0,1,44,11.056,2.031,2.031,0,0,1,42.885,12a2.5,2.5,0,0,1,1.89,2.748,3.631,3.631,0,0,1-.429,1.718,2.533,2.533,0,0,1-1.2,1.117,3.552,3.552,0,0,1-1.632.429h-1.2V19.73H39.45V18.1Zm.945-6.527h.687a2.02,2.02,0,0,0,1.46-.515,2.02,2.02,0,0,0,.515-1.46,1.852,1.852,0,0,0-.515-1.546,2.1,2.1,0,0,0-1.546-.515H37.474v4.037H40.48Zm0,5.411h.773a2.187,2.187,0,0,0,1.632-.515,2.28,2.28,0,0,0,.515-1.718,1.912,1.912,0,0,0-.6-1.632A2.818,2.818,0,0,0,41,12.6H37.3V16.9H40.48Z" transform="translate(-36.1 -4.7)"/>
        </g>
      </g>
    </g>
  </g>
</svg>
