<svg xmlns="http://www.w3.org/2000/svg" width="70" height="70" viewBox="0 0 70 70">
  <g id="Symbol_331_1" data-name="Symbol 331 – 1" transform="translate(-2743 -738)">
    <g id="Symbol_263_3" data-name="Symbol 263 – 3" transform="translate(395 210)">
      <rect id="Rectangle_2470" data-name="Rectangle 2470" width="70" height="70" transform="translate(2348 528)" fill="none"/>
    </g>
    <g id="Group_3654" data-name="Group 3654" transform="translate(2754.998 745.998)">
      <g id="Group_3655" data-name="Group 3655" opacity="0.3">
        <g id="Group_3654-2" data-name="Group 3654">
          <path id="Path_2309" data-name="Path 2309" d="M44.99,13.62a2.535,2.535,0,0,0-1.96-2.55L28.66,8.12a5.251,5.251,0,0,0-3.77.87L.83,27.45a2.13,2.13,0,0,0-.39,2.98L15.26,49.75a2.13,2.13,0,0,0,2.98.39L42.3,31.69a5.3,5.3,0,0,0,1.81-3.42Zm-12.7,7.72a4.279,4.279,0,1,1,6,.79A4.283,4.283,0,0,1,32.29,21.34Z" fill="#f08b8f"/>
        </g>
      </g>
      <g id="Group_3657" data-name="Group 3657">
        <g id="Group_3656" data-name="Group 3656">
          <path id="Path_2310" data-name="Path 2310" d="M44.97,13.79a2.527,2.527,0,0,0-2.27-2.27L28.07,10.47a5.286,5.286,0,0,0-3.62,1.35L2.99,33.26a2.131,2.131,0,0,0,0,3.01L20.21,53.49a2.131,2.131,0,0,0,3.01,0L44.66,32.05a5.274,5.274,0,0,0,1.35-3.62Zm-11.58,9.3a4.278,4.278,0,1,1,6.05,0A4.279,4.279,0,0,1,33.39,23.09Z" fill="#f08b8f"/>
        </g>
      </g>
      <path id="Path_2311" data-name="Path 2311" d="M36.41,3.21a5.28,5.28,0,0,1,7.36-1.22h0a5.261,5.261,0,0,1,1.1,7.37l-6.82,9.37" fill="none" stroke="#cf3339" stroke-linecap="round" stroke-linejoin="round" stroke-miterlimit="10" stroke-width="2"/>
      <g id="Group_3659" data-name="Group 3659">
        <g id="Group_3658" data-name="Group 3658">
          <path id="Path_2312" data-name="Path 2312" d="M16.62,29.61v-.04a3.324,3.324,0,0,1,3.26-3.52,3.275,3.275,0,0,1,3.22,3.48v.04a3.25,3.25,0,1,1-6.48.04Zm4.73,0v-.04c0-1.1-.63-2-1.51-2-.92,0-1.47.9-1.47,1.96v.04c0,1.12.63,2,1.51,2C20.8,31.57,21.35,30.67,21.35,29.61Zm-2.47,9.17,9.01-12.31a.738.738,0,0,1,.67-.35.775.775,0,0,1,.79.77.874.874,0,0,1-.18.51L20.16,39.7a.794.794,0,0,1-.69.35.758.758,0,0,1-.77-.77A.868.868,0,0,1,18.88,38.78Zm6.05-2.14V36.6a3.25,3.25,0,1,1,6.48-.04v.04a3.335,3.335,0,0,1-3.26,3.52A3.293,3.293,0,0,1,24.93,36.64Zm4.73,0V36.6c0-1.1-.63-2-1.51-2-.92,0-1.47.9-1.47,1.96v.04c0,1.12.63,2,1.51,2C29.11,38.6,29.66,37.7,29.66,36.64Z" fill="#fff"/>
        </g>
      </g>
    </g>
  </g>
</svg>
