<svg id="ico-social-copylink" xmlns="http://www.w3.org/2000/svg" width="24" height="24" viewBox="0 0 24 24">
  <g id="Component_136_9" data-name="Component 136 – 9">
    <rect id="Rectangle_3301" data-name="Rectangle 3301" width="24" height="24" fill="#fff" opacity="0"/>
  </g>
  <g id="chain" transform="translate(4 4.001)">
    <path id="Path_2754" data-name="Path 2754" d="M10.274,184.813a3.411,3.411,0,0,0-.01-.733,3.3,3.3,0,0,0-.219-.844q-.02-.05-.042-.1a3.323,3.323,0,0,0-.687-1l-.013-.013a3.353,3.353,0,0,0-.632-.491l-1.044,1.033a.666.666,0,0,0-.186.338,1.566,1.566,0,0,1,.62.375l.006.006a1.567,1.567,0,0,1-.006,2.219L4.5,189.129a1.64,1.64,0,0,1-2.271,0l-.006-.006a1.567,1.567,0,0,1,.006-2.219l2.036-2.014a4.2,4.2,0,0,1-.372-1.736q0-.2.019-.4L.987,185.65a3.332,3.332,0,0,0-.013,4.722l.013.013a3.391,3.391,0,0,0,4.754,0l3.56-3.522a3.3,3.3,0,0,0,.97-2.028Z" transform="translate(0 -176.292)" fill="#757575"/>
    <path id="Path_2755" data-name="Path 2755" d="M163.308,9.229a3.353,3.353,0,0,0,.632.491l1.044-1.033a.666.666,0,0,0,.186-.338,1.566,1.566,0,0,1-.62-.375l-.006-.006a1.567,1.567,0,0,1,.006-2.219l3.56-3.522a1.64,1.64,0,0,1,2.271,0l0,0a1.567,1.567,0,0,1,0,2.22l-2.036,2.014a4.2,4.2,0,0,1,.372,1.736q0,.2-.019.4l2.925-2.894a3.332,3.332,0,0,0,.013-4.722l-.013-.013a3.391,3.391,0,0,0-4.754,0l-3.56,3.522a3.332,3.332,0,0,0-.013,4.722l.013.013Z" transform="translate(-157.545 0)" fill="#757575"/>
  </g>
</svg>
