<svg xmlns="http://www.w3.org/2000/svg" viewBox="0 0 17.027 16.895">
  <defs>
    <style>
      .cls-1 {
        fill: #757575;
      }

      .cls-2 {
        fill: #fff;
      }
    </style>
  </defs>
  <g id="ico-social-instagram" transform="translate(-1.951 -1.991)">
    <path id="Path_1712" data-name="Path 1712" class="cls-1" d="M13.449,18.788a10.737,10.737,0,0,0,1.754-.195,5.22,5.22,0,0,0,3.7-4.482c.1-2.436.1-4.872,0-7.211a5.144,5.144,0,0,0-5.165-4.872H7.213a3.514,3.514,0,0,0-2.046.292A5.08,5.08,0,0,0,1.951,7.192v6.236a10.737,10.737,0,0,0,.195,1.754,5.22,5.22,0,0,0,4.482,3.7C7.895,18.886,12.475,18.788,13.449,18.788Z" transform="translate(0 0)"/>
    <path id="Path_1714" data-name="Path 1714" class="cls-1" d="M4.5,11.516V8.3A3.87,3.87,0,0,1,8.3,4.5h6.431a3.8,3.8,0,0,1,3.8,3.8v6.431a3.67,3.67,0,0,1-3.021,3.7,1.9,1.9,0,0,1-.78.1H8.3a3.744,3.744,0,0,1-3.7-3.021,2.146,2.146,0,0,1-.1-.78Q4.5,13.124,4.5,11.516Zm2.728,0a4.372,4.372,0,0,0,4.19,4.288,4.306,4.306,0,0,0,4.288-4.19,4.372,4.372,0,0,0-4.19-4.288A4.3,4.3,0,0,0,7.228,11.516Zm7.8-4.58A1.072,1.072,0,1,0,16.1,5.864,1.081,1.081,0,0,0,15.024,6.936Z" transform="translate(-1.088 -1.108)"/>
    <path id="Path_1715" data-name="Path 1715" class="cls-2" d="M7.3,11.59a4.239,4.239,0,1,1,4.19,4.288A4.444,4.444,0,0,1,7.3,11.59Zm4.288-2.728A2.788,2.788,0,0,0,8.859,11.59a2.788,2.788,0,0,0,2.728,2.728,2.788,2.788,0,0,0,2.728-2.728A2.788,2.788,0,0,0,11.588,8.862Z" transform="translate(-1.159 -1.182)"/>
    <path id="Path_1716" data-name="Path 1716" class="cls-2" d="M15.3,6.972a1.072,1.072,0,1,1,2.144,0,1.077,1.077,0,0,1-2.144,0Z" transform="translate(-1.364 -1.144)"/>
    <path id="Path_1717" data-name="Path 1717" class="cls-1" d="M11.628,8.9a2.788,2.788,0,0,1,2.728,2.728,2.788,2.788,0,0,1-2.728,2.728A2.788,2.788,0,0,1,8.9,11.628,2.724,2.724,0,0,1,11.628,8.9Z" transform="translate(-1.2 -1.22)"/>
  </g>
</svg>
