<?xml version="1.0" encoding="utf-8"?>
<!-- Generator: Adobe Illustrator 22.0.1, SVG Export Plug-In . SVG Version: 6.00 Build 0)  -->
<svg version="1.1" xmlns="http://www.w3.org/2000/svg" xmlns:xlink="http://www.w3.org/1999/xlink" x="0px" y="0px"
	 viewBox="0 0 60 60" style="enable-background:new 0 0 60 60;" xml:space="preserve">
<style type="text/css">
	.st0{fill:none;stroke:#F08B8F;stroke-width:2;stroke-linecap:round;stroke-linejoin:round;stroke-miterlimit:10;}
	.st1{fill:none;stroke:#CF3339;stroke-width:2;stroke-linecap:round;stroke-linejoin:round;stroke-miterlimit:10;}
	.st2{fill:none;stroke:#F08B8F;stroke-width:2;stroke-linejoin:round;stroke-miterlimit:10;}
</style>
<g id="Layer_1">
	<g>
		<g>
			<path class="st0" d="M44.1,40.9l0.5-2.6c0.3-1.4-0.8-2.8-2.2-2.8h0c-0.9,0-1.8,0.6-2.1,1.4l-1.6,3.9"/>
			<path class="st0" d="M9.7,50.8h2.9c1.3,0,2.4-1.1,2.4-2.4v-9.8c0-1.3-1.1-2.4-2.4-2.4H9.7c-1.3,0-2.4,1.1-2.4,2.4v9.8
				C7.4,49.8,8.4,50.8,9.7,50.8z"/>
		</g>
		<g>
			<path class="st1" d="M52.4,40.2c-0.6-1.3-2.1-1.8-3.4-1.2l-3,1.4c-1.2,0.5-2.4,0.8-3.7,0.8H35c-1.8,0-3.6-0.6-5.1-1.6l3.8-1.8
				c1.4-0.7,2.1-2.3,1.6-3.7c-0.5-1.6-2.2-2.4-3.8-2L25.2,34c-2.8,0.9-5.5,2.3-7.7,4.3H15c-0.2-1.1-1.1-1.9-2.2-1.9H9.6
				c-1.2,0-2.2,1-2.2,2.2v10c0,1.2,1,2.2,2.2,2.2h3.1c0.9,0,1.7-0.6,2.1-1.4c0.6,0,1.3,0,1.9,0h9.7c3,0,6-0.3,8.9-0.8l3.7-0.7
				c4.4-0.8,8.6-2.3,12.4-4.6C52.5,42.8,52.9,41.4,52.4,40.2z"/>
		</g>
	</g>
</g>
<g id="Layer_2">
	<path class="st2" d="M31,26.4c-1.6-1.1-4-2.7-5.9-4.8c-2.3-2.4-3.4-4.7-3.4-6.9c0-3.1,2.5-5.5,5.5-5.5c0.9,0,1.7,0.2,2.5,0.6
		c0.5,0.3,1,0.6,1.4,1.1l0.1,0.1l0.1-0.1c0.4-0.4,0.9-0.8,1.4-1.1c0.8-0.4,1.6-0.6,2.5-0.6c3.1,0,5.5,2.5,5.5,5.5
		c0,2.2-1.2,4.5-3.4,6.9c-1.9,2-4.3,3.7-5.9,4.8l-0.3,0.2L31,26.4z"/>
</g>
<g id="Layer_3">
	<path class="st0" d="M36.5,14.2c0.6,1.8-1.3,4.3-3.1,4.8"/>
</g>
</svg>
