<svg xmlns="http://www.w3.org/2000/svg" viewBox="0 0 40 40">
  <defs>
    <style>
      .cls-1 {
        fill: none;
      }

      .cls-2 {
        fill: #00b902;
      }
    </style>
  </defs>
  <g id="ico-social-line-color" transform="translate(-208 -284)">
    <rect id="Rectangle_4" data-name="Rectangle 4" class="cls-1" width="40" height="40" transform="translate(208 284)"/>
    <path id="Path_64" data-name="Path 64" class="cls-2" d="M32.333,13.5a2.114,2.114,0,0,1-.167,1A12.365,12.365,0,0,1,31,18a33.8,33.8,0,0,1-2.167,3C26.5,23.833,22.5,27.167,15.667,30.5a.911.911,0,0,1-1.333-.833l.5-3a.933.933,0,0,0-.833-1C6.167,24.833,0,19.5,0,12.833,0,5.833,7.333,0,16.167,0,24.833,0,32,5.5,32.333,12.333A2.723,2.723,0,0,1,32.333,13.5Zm-20-4.333H12a.717.717,0,0,0-.667.667V16.5a.717.717,0,0,0,.667.667h.333A.717.717,0,0,0,13,16.5V9.833A.61.61,0,0,0,12.333,9.167Zm7.667,0c-.167,0-.5.167-.667.167-.167.167-.167.333-.167.667v3.833L15.833,9.5a1.264,1.264,0,0,0-.667-.333.787.787,0,0,0-.833.833v6.167a.787.787,0,0,0,.833.833c.167,0,.5-.167.667-.167C16,16.667,16,16.5,16,16.167V12.5l3.333,4.333a.612.612,0,0,0,.5.167.787.787,0,0,0,.833-.833V10C20.833,9.667,20.333,9.167,20,9.167ZM9.833,15.5h-2.5V10A.787.787,0,0,0,6.5,9.167c-.167,0-.5.167-.667.167A1.26,1.26,0,0,0,5.667,10v6.333a.787.787,0,0,0,.833.833H9.833a.787.787,0,0,0,.833-.833c0-.167-.167-.5-.167-.667C10.167,15.667,10,15.5,9.833,15.5Zm16.333-4.667a.833.833,0,0,0,0-1.667H22.833A.787.787,0,0,0,22,10v6.333a.787.787,0,0,0,.833.833h3.333A.787.787,0,0,0,27,16.333c0-.167-.167-.5-.167-.667-.167-.167-.333-.167-.667-.167h-2.5V14h2.5A.787.787,0,0,0,27,13.167c0-.167-.167-.5-.167-.667-.167-.167-.333-.167-.667-.167h-2.5v-1.5Z" transform="translate(211.333 289)"/>
  </g>
</svg>
