<svg xmlns="http://www.w3.org/2000/svg" viewBox="0 0 60 60">
  <defs>
    <style>
      .cls-1, .cls-2, .cls-3, .cls-4 {
        fill: none;
      }

      .cls-2, .cls-4 {
        stroke: #f08b8f;
      }

      .cls-2, .cls-3 {
        stroke-linecap: round;
      }

      .cls-2, .cls-3, .cls-4 {
        stroke-linejoin: round;
        stroke-miterlimit: 10;
        stroke-width: 2px;
      }

      .cls-3 {
        stroke: #cf3339;
      }
    </style>
  </defs>
  <g id="ico-shoponline" transform="translate(-2058 -1148)">
    <g id="Symbol_347_3" data-name="Symbol 347 – 3" transform="translate(320)">
      <rect id="Rectangle_2471" data-name="Rectangle 2471" class="cls-1" width="60" height="60" transform="translate(1738 1148)"/>
    </g>
    <g id="Group_3357" data-name="Group 3357" transform="translate(2064 1156)">
      <g id="Group_3356" data-name="Group 3356">
        <g id="Group_3354" data-name="Group 3354">
          <path id="Path_1965" data-name="Path 1965" class="cls-2" d="M8.6,30.1h2.5a23.423,23.423,0,0,1,7.7-4.3L25,23.9a3.037,3.037,0,0,1,3.8,2h0a2.972,2.972,0,0,1-1.6,3.7l-3.8,1.8h0A8.572,8.572,0,0,0,28.5,33h7.3a9.465,9.465,0,0,0,3.7-.8l3-1.4A2.52,2.52,0,0,1,45.9,32h0a2.569,2.569,0,0,1-1,3.3h0a38.612,38.612,0,0,1-12.4,4.6l-3.7.7a50.6,50.6,0,0,1-8.8.7H10.3c-2.3,0,.4.3-1.9,0Z"/>
          <path id="Path_1966" data-name="Path 1966" class="cls-2" d="M37.7,32.8l.5-2.6A2.332,2.332,0,0,0,36,27.4h0a2.313,2.313,0,0,0-2.1,1.4l-1.6,3.9"/>
          <path id="Path_1967" data-name="Path 1967" class="cls-2" d="M3.4,42.6H6.3a2.433,2.433,0,0,0,2.4-2.4V30.4A2.433,2.433,0,0,0,6.3,28H3.4A2.433,2.433,0,0,0,1,30.4v9.8A2.369,2.369,0,0,0,3.4,42.6Z"/>
        </g>
        <g id="Group_3355" data-name="Group 3355">
          <path id="Path_1968" data-name="Path 1968" class="cls-3" d="M46,32a2.52,2.52,0,0,0-3.4-1.2l-3,1.4a9.465,9.465,0,0,1-3.7.8H28.6a9.318,9.318,0,0,1-5.1-1.6l3.8-1.8a3.057,3.057,0,0,0,1.6-3.7,3.121,3.121,0,0,0-3.8-2l-6.2,1.9a20.928,20.928,0,0,0-7.7,4.3H8.6a2.249,2.249,0,0,0-2.2-1.9H3.2A2.22,2.22,0,0,0,1,30.4v10a2.22,2.22,0,0,0,2.2,2.2H6.3a2.428,2.428,0,0,0,2.1-1.4H20a52.6,52.6,0,0,0,8.9-.8l3.7-.7A36.405,36.405,0,0,0,45,35.1,2.326,2.326,0,0,0,46,32Z"/>
        </g>
      </g>
      <path id="Path_1969" data-name="Path 1969" class="cls-4" d="M24.6,18.2a32.758,32.758,0,0,1-5.9-4.8c-2.3-2.4-3.4-4.7-3.4-6.9A5.484,5.484,0,0,1,20.8,1a5.421,5.421,0,0,1,2.5.6,4.863,4.863,0,0,1,1.4,1.1l.1.1.1-.1a7.551,7.551,0,0,1,1.4-1.1A5.834,5.834,0,0,1,28.9,1a5.484,5.484,0,0,1,5.5,5.5c0,2.2-1.2,4.5-3.4,6.9a37.759,37.759,0,0,1-5.9,4.8l-.3.2Z"/>
      <path id="Path_1970" data-name="Path 1970" class="cls-2" d="M30.1,6c.6,1.8-1.3,4.3-3.1,4.8"/>
    </g>
  </g>
</svg>
