<?xml version="1.0" encoding="utf-8"?>
<!-- Generator: Adobe Illustrator 23.0.1, SVG Export Plug-In . SVG Version: 6.00 Build 0)  -->
<svg version="1.1" xmlns="http://www.w3.org/2000/svg" xmlns:xlink="http://www.w3.org/1999/xlink" x="0px" y="0px"
	 viewBox="0 0 60 60" style="enable-background:new 0 0 60 60;" xml:space="preserve">
<style type="text/css">
	.st0{fill:none;stroke:#F08B8F;stroke-width:2;stroke-linecap:round;stroke-linejoin:round;stroke-miterlimit:10;}
	.st1{fill:none;stroke:#CF3339;stroke-width:2;stroke-linecap:round;stroke-linejoin:round;stroke-miterlimit:10;}
	.st2{fill:#F08B8F;}
</style>
<g id="Layer_1">
	<g>
		<path class="st0" d="M8.87,49.43h3.54c0.78,0,1.42-0.63,1.42-1.42V34.06c0-0.78-0.63-1.42-1.42-1.42H8.87
			c-0.78,0-1.42,0.63-1.42,1.42v13.95C7.46,48.8,8.09,49.43,8.87,49.43z"/>
		<path class="st1" d="M13.84,35.04v-0.97c0-0.79-0.64-1.42-1.42-1.42H8.88c-0.79,0-1.42,0.64-1.42,1.42v13.94
			c0,0.79,0.64,1.42,1.42,1.42h3.54c0.79,0,1.42-0.64,1.42-1.42v-0.88"/>
		<path class="st2" d="M11.96,46.12c0,0.73-0.59,1.31-1.31,1.31c-0.73,0-1.31-0.58-1.31-1.31c0-0.72,0.58-1.31,1.31-1.31
			C11.37,44.81,11.96,45.4,11.96,46.12z"/>
		<g>
			<path class="st1" d="M29.62,37.94c0,0,0.95-0.07,2.12-0.16c1.16-0.09,3.03-0.1,4.16-0.02c1.12,0.08,2.41,0.4,2.85,0.72
				c0.45,0.32,0.69,1.02,0.54,1.55c-0.15,0.53-0.58,1.24-0.95,1.56c-0.37,0.32-1.07,0.59-1.54,0.59s-1.33,0-1.9,0
				c-0.57,0-1.69,0-2.49,0s-1.86,0-2.36,0s-0.91,0-0.91,0"/>
		</g>
		<line class="st1" x1="36.57" y1="42.18" x2="46.72" y2="40.21"/>
		<g>
			<path class="st1" d="M46.47,40.25l3.56-1.11c0.46-0.14,0.96-0.06,1.36,0.21l0,0c0.64,0.45,0.72,1.37,0.17,1.93l0,0
				c-1.08,1.1-2.41,2.17-2.94,2.37c-0.53,0.2-0.96,0.37-0.96,0.37"/>
		</g>
		<g>
			<path class="st1" d="M48.28,43.82l-13.46,5.87c-1.43,0.62-3.85,0.88-5.38,0.58l-15.61-3.13"/>
		</g>
		<g>
			<path class="st1" d="M13.84,35.04c0,0,2.09-0.42,4.65-0.94c2.56-0.51,6.11,0.14,7.89,1.45s3.24,2.39,3.24,2.39"/>
		</g>
	</g>
</g>
<g id="Layer_2">
	<g>
		<path class="st0" d="M36.43,31.53c-2.07-1.34-5.04-3.46-7.47-6.01c-2.89-3.04-4.35-5.98-4.35-8.73c0-3.86,3.14-7.01,7.01-7.01
			c1.12,0,2.19,0.26,3.18,0.76c0.68,0.35,1.29,0.8,1.83,1.35l0.12,0.12l0.12-0.12c0.54-0.55,1.15-1,1.83-1.35
			c0.99-0.51,2.06-0.76,3.18-0.76c3.86,0,7.01,3.14,7.01,7.01c0,2.76-1.47,5.7-4.35,8.73c-2.43,2.55-5.4,4.68-7.47,6.01l-0.32,0.21
			L36.43,31.53z"/>
		<path class="st0" d="M43.41,16.15c0.73,2.26-1.62,5.46-3.86,6.12"/>
	</g>
</g>
</svg>
