<svg xmlns="http://www.w3.org/2000/svg" viewBox="0 0 18 18">
  <g id="ico-phone" transform="translate(-2625 -2764)">
    <path id="Path_2090" data-name="Path 2090" d="M1.617,7.88a22.13,22.13,0,0,0,3.67,4.858,22.13,22.13,0,0,0,4.858,3.67,17.584,17.584,0,0,0,3.67,1.511,2.37,2.37,0,0,0,2.375-.648l.432-.432L17.7,15.76a1.174,1.174,0,0,0,0-1.619l-2.267-2.267a1.174,1.174,0,0,0-1.619,0l-1.079,1.079a.847.847,0,0,1-1.187,0c-1.187-.972-2.159-1.943-3.454-3.13C6.907,8.636,6.043,7.664,5.071,6.585a.847.847,0,0,1,0-1.187L6.151,4.318a1.174,1.174,0,0,0,0-1.619L3.884.324a1.174,1.174,0,0,0-1.619,0L1.185,1.4l-.432.432A2.436,2.436,0,0,0,.106,4.21,12.006,12.006,0,0,0,1.617,7.88Z" transform="translate(2624.975 2764)"/>
  </g>
</svg>
