<?xml version="1.0" encoding="utf-8"?>
<!-- Generator: Adobe Illustrator 22.0.1, SVG Export Plug-In . SVG Version: 6.00 Build 0)  -->
<svg version="1.1" xmlns="http://www.w3.org/2000/svg" xmlns:xlink="http://www.w3.org/1999/xlink" x="0px" y="0px"
	 viewBox="0 0 60 60" style="enable-background:new 0 0 60 60;" xml:space="preserve">
<style type="text/css">
	.st0{fill:#F08B8F;}
	.st1{fill:none;stroke:#CF3339;stroke-width:2;stroke-linecap:round;stroke-linejoin:round;stroke-miterlimit:10;}
	.st2{fill:none;stroke:#F08B8F;stroke-width:2;stroke-miterlimit:10;}
	.st3{fill:none;stroke:#F08B8F;stroke-width:0.75;stroke-linecap:round;stroke-linejoin:round;stroke-miterlimit:10;}
	.st4{fill:none;stroke:#F08B8F;stroke-width:0.75;stroke-miterlimit:10;}
</style>
<g id="Layer_1">
	<path class="st0" d="M46.1,21.8H13.9v-3.4c0-1.7,1.3-3,3-3h26.3c1.7,0,3,1.3,3,3V21.8z"/>
</g>
<g id="Layer_2">
	<path class="st1" d="M43.1,47.7H16.9c-1.7,0-3-1.3-3-3V18.4c0-1.7,1.3-3,3-3h26.3c1.7,0,3,1.3,3,3v26.3
		C46.1,46.4,44.8,47.7,43.1,47.7z"/>
	<line class="st1" x1="22.7" y1="12.3" x2="22.7" y2="17.2"/>
	<line class="st1" x1="37.3" y1="12.3" x2="37.3" y2="17.2"/>
</g>
<g id="Layer_3">
	<ellipse class="st2" cx="29.8" cy="34.4" rx="5.8" ry="7.6"/>
</g>
<g id="Layer_4">
	<line class="st3" x1="38.7" y1="42.2" x2="41.8" y2="37.8"/>
</g>
<g id="Layer_5">
	<circle class="st4" cx="38.8" cy="38.8" r="0.9"/>
</g>
<g id="Layer_6">
	<circle class="st4" cx="41.7" cy="41.2" r="0.9"/>
</g>
</svg>
