<svg xmlns="http://www.w3.org/2000/svg" xmlns:xlink="http://www.w3.org/1999/xlink" width="73.804" height="70" viewBox="0 0 73.804 70">
  <defs>
    <filter id="Path_1827" x="20.591" y="7.629" width="53.213" height="53.212" filterUnits="userSpaceOnUse">
      <feOffset dy="3" input="SourceAlpha"/>
      <feGaussianBlur stdDeviation="3" result="blur"/>
      <feFlood flood-opacity="0.255"/>
      <feComposite operator="in" in2="blur"/>
      <feComposite in="SourceGraphic"/>
    </filter>
  </defs>
  <g id="Symbol_333_1" data-name="Symbol 333 – 1" transform="translate(-2530 -922)">
    <g id="Group_2945" data-name="Group 2945">
      <g id="Symbol_263_6" data-name="Symbol 263 – 6" transform="translate(182 394)">
        <rect id="Rectangle_2470" data-name="Rectangle 2470" width="70" height="70" transform="translate(2348 528)" fill="none"/>
      </g>
    </g>
    <g id="Group_2944" data-name="Group 2944" transform="translate(2534.832 935.605)">
      <g id="Group_2943" data-name="Group 2943" transform="translate(2.577 10.073)" opacity="0.3">
        <circle id="Ellipse_223" data-name="Ellipse 223" cx="16.661" cy="16.661" r="16.661" transform="translate(0 0.012)" fill="none" stroke="#f08b8f" stroke-miterlimit="10" stroke-width="2"/>
        <g id="Group_2939" data-name="Group 2939" transform="translate(1.965 20.688)">
          <path id="Path_1828" data-name="Path 1828" d="M5.3,39.247c1.282-.256,2.649-.6,3.93-.854.427-.085,1.025-.256,1.2-.684.171-.256.171-.6.342-.854a1.193,1.193,0,0,1,.769-.256c1.452-.171,2.99-.427,4.443-.6a.514.514,0,0,1,.342.085.64.64,0,0,1,.085.427,6.045,6.045,0,0,0,.854,2.649,13.511,13.511,0,0,1,.6,6.408,2.226,2.226,0,0,1-1.111,2.051c-1.025.769-2.478.256-3.588-.342-3.418-2.051-6.237-4.357-7.86-8.031" transform="translate(-5.3 -36)" fill="#f08b8f"/>
        </g>
        <g id="Group_2940" data-name="Group 2940" transform="translate(1.88)">
          <path id="Path_1829" data-name="Path 1829" d="M8.788,22.99c.171.171.427.256.513.513.342.684-.342,1.538-.085,2.221a1.162,1.162,0,0,0,1.367.6,3.139,3.139,0,0,0,1.367-.769c1.025-.769,1.965-1.538,2.99-2.307.171-.171.342-.256.427-.513.256-.427,0-.94-.085-1.452A2.758,2.758,0,0,1,17.5,18.206a9.243,9.243,0,0,1,1.538,0A3.937,3.937,0,0,0,21.69,16.5c.769-.854,1.452-2.051,1.025-3.161C22.2,12.054,20.664,11.712,19.3,11.8c-5.981.171-12.474,4.1-14.1,9.74" transform="translate(-5.2 -11.786)" fill="#f08b8f"/>
        </g>
        <g id="Group_2941" data-name="Group 2941" transform="translate(17.498 17.653)">
          <path id="Path_1830" data-name="Path 1830" d="M23.839,36c-.085.94,1.452,1.111,1.623,2.051a.314.314,0,0,0,.085.256c.171.256.6.085.769-.085a3.736,3.736,0,0,0,.6-4.528c-.513-.854-1.538-1.538-2.392-1.111A1.794,1.794,0,0,0,23.5,34.286a4.431,4.431,0,0,0,.427,2.051" transform="translate(-23.48 -32.447)" fill="#f08b8f"/>
        </g>
        <g id="Group_2942" data-name="Group 2942" transform="translate(24.281 6.732)">
          <path id="Path_1831" data-name="Path 1831" d="M36.871,40.2a2.174,2.174,0,0,1-1.88-1.709,13.909,13.909,0,0,1-.256-2.649c-.256-2.9-2.051-5.468-2.99-8.288a4.308,4.308,0,0,1-.256-2.307,2.2,2.2,0,0,1,1.367-1.709,6.193,6.193,0,0,1,2.136.171c.769.085,1.623-.171,1.709-.94a2.32,2.32,0,0,0-.513-1.452c-.256-.427-.427-1.111-.085-1.452.085-.085.171-.171.256-.171.513-.171,1.025.427,1.282.854A17.854,17.854,0,0,1,36.871,40.2" transform="translate(-31.419 -19.665)" fill="#f08b8f"/>
        </g>
      </g>
      <g id="Group_2937" data-name="Group 2937" transform="translate(0.098 35.756)">
        <path id="Path_1822" data-name="Path 1822" d="M3.517,41.892a17.223,17.223,0,0,0-2.392,4.016,7.364,7.364,0,0,0-.6,4.443,4.842,4.842,0,0,0,1.025,1.965,2.661,2.661,0,0,0,1.794.94A11.212,11.212,0,0,0,7.7,52.23a50.083,50.083,0,0,0,8.031-4.614c2.563-1.709,5.041-3.588,7.433-5.554h0a.826.826,0,0,1,1.2.085.908.908,0,0,1-.085,1.2h0c-2.563,1.88-5.126,3.674-7.775,5.3A55.429,55.429,0,0,1,8.131,53a10.947,10.947,0,0,1-4.7.854,4.9,4.9,0,0,1-1.2-.342,2.273,2.273,0,0,1-.94-.854A4.852,4.852,0,0,1,.271,50.436a7.4,7.4,0,0,1,.6-4.7A19.272,19.272,0,0,1,3.517,41.892Z" transform="translate(-0.098 -41.845)" fill="#cf3339"/>
      </g>
      <g id="Group_2938" data-name="Group 2938" transform="translate(17.729 0.024)">
        <path id="Path_1823" data-name="Path 1823" d="M23.456,7.4l29.049.94L44.047,18.507l-9.484-5.468-11.534-2.9A1.337,1.337,0,0,1,22.6,7.742h0A1.1,1.1,0,0,1,23.456,7.4Z" transform="translate(-20.922 -1.098)" fill="#cf3339"/>
        <path id="Path_1824" data-name="Path 1824" d="M60.907,41.549,59.967,12.5,49.8,20.958l5.468,9.484,2.99,11.534a1.337,1.337,0,0,0,2.392.427h0A1.443,1.443,0,0,0,60.907,41.549Z" transform="translate(-24.966 -1.84)" fill="#cf3339"/>
        <path id="Path_1825" data-name="Path 1825" d="M22.5,30.5,33.35,31.607l-3.588,6.066-8.2-4.186a1.56,1.56,0,0,1-.171-2.649h0A1.434,1.434,0,0,1,22.5,30.5Z" transform="translate(-20.734 -4.458)" fill="#cf3339"/>
        <path id="Path_1826" data-name="Path 1826" d="M38.477,45.551,37.366,34.7,31.3,38.288l4.186,8.2a1.56,1.56,0,0,0,2.649.171h0A1.173,1.173,0,0,0,38.477,45.551Z" transform="translate(-22.272 -5.073)" fill="#cf3339"/>
        <g transform="matrix(1, 0, 0, 1, -22.56, -13.63)" filter="url(#Path_1827)">
          <path id="Path_1827-2" data-name="Path 1827" d="M53,16.664l.256-.256q2.051-2.051,3.845-4.1l6.152-6.579a3.352,3.352,0,0,0-.085-4.7h0a3.354,3.354,0,0,0-4.7-.085L51.892,7.18q-2.051,1.794-4.1,3.845l-.256.256h0c-7.6,7.6-19.907,22.385-18.455,23.837C30.618,36.571,45.313,24.183,53,16.664Z" transform="translate(0.63 13.61)" fill="#f08b8f"/>
        </g>
      </g>
    </g>
  </g>
</svg>
