<svg xmlns="http://www.w3.org/2000/svg" width="50" height="50" viewBox="0 0 50 50">
  <g id="Symbol_501_3" data-name="Symbol 501 – 3" transform="translate(-80 -8053)">
    <path id="Path_1509" data-name="Path 1509" d="M0,0H50V50H0Z" transform="translate(80 8053)" fill="none"/>
    <g id="Group_3773" data-name="Group 3773" transform="translate(-1515.585 7752.05)">
      <path id="Rectangle_3106" data-name="Rectangle 3106" d="M2,0H14.315a2,2,0,0,1,2,2V7.682a0,0,0,0,1,0,0H0a0,0,0,0,1,0,0V2A2,2,0,0,1,2,0Z" transform="translate(1612.427 306.95)" fill="none" stroke="#5b6670" stroke-linecap="round" stroke-miterlimit="10" stroke-width="1"/>
      <line id="Line_1396" data-name="Line 1396" y2="30.125" transform="translate(1608.792 314.632)" fill="none" stroke="#cf3339" stroke-linecap="round" stroke-miterlimit="10" stroke-width="1" opacity="0.3"/>
      <line id="Line_1397" data-name="Line 1397" y2="30.125" transform="translate(1632.789 314.632)" fill="none" stroke="#cf3339" stroke-linecap="round" stroke-miterlimit="10" stroke-width="1" opacity="0.3"/>
      <path id="Path_2103" data-name="Path 2103" d="M1626.214,321.724h0c-.532-.411-2.056.663-2.562,1.289l-.839.916c-.445.521-.752.886-1.174,1.425l-6.636-.3a.528.528,0,0,0-.373.122l-1.144.982,6.013,2.1a34.174,34.174,0,0,0-2.793,4.508l-2.013-.246a.376.376,0,0,0-.3.093l-.77.7,2.7,1.191,1.836,2.307.481-.922a.37.37,0,0,0,.015-.309l-.732-1.848a33.951,33.951,0,0,0,3.671-3.856l3.55,5.286.66-1.355a.53.53,0,0,0,.024-.392l-1.969-6.345c.418-.548.7-.94,1.089-1.506l.667-1.034C1626.092,323.881,1626.745,322.135,1626.214,321.724Z" transform="translate(0.327 0.372)" fill="#cf3339" opacity="0.3"/>
      <rect id="Rectangle_3107" data-name="Rectangle 3107" width="40" height="30.125" rx="2" transform="translate(1600.585 314.632)" fill="none" stroke="#5b6670" stroke-linecap="round" stroke-miterlimit="10" stroke-width="1"/>
    </g>
  </g>
</svg>
