<svg xmlns="http://www.w3.org/2000/svg" width="50" height="50" viewBox="0 0 50 50">
  <g id="Symbol_508_1" data-name="Symbol 508 – 1" transform="translate(-723 -4321)">
    <g id="Group_3457" data-name="Group 3457" transform="translate(-4 -3534)">
      <path id="Path_1589" data-name="Path 1589" d="M0,0H50V50H0Z" transform="translate(727 7855)" fill="none"/>
      <g id="Group_3445" data-name="Group 3445" transform="translate(730 7871)">
        <g id="Group_3442" data-name="Group 3442" transform="translate(10 9.755)">
          <g id="Group_3441" data-name="Group 3441" transform="translate(0 0)">
            <g id="Group_3440" data-name="Group 3440">
              <g id="Group_3439" data-name="Group 3439">
                <path id="Path_1579" data-name="Path 1579" d="M10.98,21.066V10.874h1.639v.747a1.943,1.943,0,0,1,1.011-.738,3.32,3.32,0,0,1,1.075-.173,3.635,3.635,0,0,1,2.669,1.129,3.851,3.851,0,0,1,1.111,2.769,3.9,3.9,0,0,1-.291,1.466A3.735,3.735,0,0,1,16.2,18.16a3.373,3.373,0,0,1-1.412.291,3.449,3.449,0,0,1-1.148-.191,2.069,2.069,0,0,1-1.038-.72v3.534H10.98Zm3.68-8.907a2.068,2.068,0,0,0-1.548.628,2.515,2.515,0,0,0-.61,1.758,2.633,2.633,0,0,0,.592,1.822,2.027,2.027,0,0,0,1.576.619,2.093,2.093,0,0,0,1.521-.647,2.392,2.392,0,0,0,.656-1.721,2.592,2.592,0,0,0-.638-1.812A2.076,2.076,0,0,0,14.66,12.158Z" transform="translate(-10.98 -10.71)" fill="#0033a1"/>
                <path id="Path_1580" data-name="Path 1580" d="M31.4,21.082l1.384-3.215L29.61,10.89h1.73L33.6,16.127l2.086-5.237h1.74L33.107,21.082Z" transform="translate(-12.642 -10.726)" fill="#0033a1"/>
              </g>
            </g>
          </g>
          <path id="Path_1581" data-name="Path 1581" d="M26.174,18.306v-.765a2.127,2.127,0,0,1-1.038.72,3.449,3.449,0,0,1-1.148.191,3.373,3.373,0,0,1-1.412-.291,3.735,3.735,0,0,1-1.995-2.086,3.949,3.949,0,0,1,.82-4.235A3.621,3.621,0,0,1,24.07,10.71a3.32,3.32,0,0,1,1.075.173,1.957,1.957,0,0,1,1.011.738v-.747h1.639v7.432ZM22.567,12.8a2.592,2.592,0,0,0-.638,1.812,2.392,2.392,0,0,0,.656,1.721,2.078,2.078,0,0,0,1.521.647,2.027,2.027,0,0,0,1.576-.619,2.633,2.633,0,0,0,.592-1.822,2.515,2.515,0,0,0-.61-1.758,2.068,2.068,0,0,0-1.548-.628A2.13,2.13,0,0,0,22.567,12.8Z" transform="translate(-11.811 -10.71)" fill="#0033a1"/>
        </g>
        <g id="Group_3444" data-name="Group 3444">
          <path id="Path_1582" data-name="Path 1582" d="M39.626,5.156,39.535.22h1.557V6.45H38.852L37.3,1.34h-.036l.091,5.11H35.81V.22h2.332L39.59,5.156Z" transform="translate(-3.195 -0.02)" fill="#0033a1"/>
          <path id="Path_1583" data-name="Path 1583" d="M8.669.8,7.813,6.5H6.11L7.276.22h2.805L11.238,6.5H9.544L8.706.8Z" transform="translate(-0.545 -0.02)" fill="#0033a1"/>
          <path id="Path_1584" data-name="Path 1584" d="M16.627,5.029,17.41.22h2.559L20.115,6.5H18.539L18.494.858h-.027L17.41,6.5H15.816L14.769.858h-.036L14.687,6.5H13.12L13.257.22h2.568L16.6,5.029Z" transform="translate(-1.171 -0.02)" fill="#0033a1"/>
          <path id="Path_1585" data-name="Path 1585" d="M31.243,5.566a.56.56,0,0,0,.6-.455,1.791,1.791,0,0,0,.018-.237V.22h1.594V4.728c0,.118-.009.355-.018.419C33.329,6.322,32.4,6.7,31.243,6.7s-2.086-.373-2.195-1.548c-.009-.064-.018-.3-.018-.419V.22h1.594V4.874a.991.991,0,0,0,.009.237.579.579,0,0,0,.61.455" transform="translate(-2.59 -0.02)" fill="#0033a1"/>
          <g id="Group_3443" data-name="Group 3443">
            <path id="Path_1586" data-name="Path 1586" d="M2.924,4.709a.818.818,0,0,1,.018.464.556.556,0,0,1-.619.428.561.561,0,0,1-.628-.574l-.009-.6H0v.483c0,1.4,1.1,1.822,2.286,1.822,1.138,0,2.077-.383,2.222-1.43a3.218,3.218,0,0,0,0-1.029c-.273-1.33-2.659-1.712-2.833-2.45a.674.674,0,0,1-.009-.328.518.518,0,0,1,.574-.428.531.531,0,0,1,.583.565v.392H4.39V1.585C4.39.219,3.16,0,2.268,0,1.157,0,.246.373.073,1.4a2.179,2.179,0,0,0,.018.838C.355,3.534,2.6,3.9,2.924,4.709" fill="#0033a1"/>
            <path id="Path_1587" data-name="Path 1587" d="M25.376,4.712a.872.872,0,0,1,.018.455c-.046.209-.191.419-.61.419a.555.555,0,0,1-.628-.565v-.61H22.48v.483c0,1.393,1.093,1.8,2.268,1.8,1.12,0,2.049-.383,2.2-1.421a3.138,3.138,0,0,0-.009-1.029c-.264-1.3-2.623-1.685-2.8-2.423a.81.81,0,0,1-.009-.328.515.515,0,0,1,.565-.419.529.529,0,0,1,.583.556v.392h1.548V1.607C26.834.249,25.613.04,24.739.04c-1.111,0-2.013.364-2.177,1.384a2.013,2.013,0,0,0,.018.838c.264,1.275,2.477,1.639,2.8,2.45" transform="translate(-2.006 -0.004)" fill="#0033a1"/>
            <path id="Path_1588" data-name="Path 1588" d="M45.641,5.486a.576.576,0,0,0,.638-.455,1.924,1.924,0,0,0,.018-.237V3.884h-.647V2.955h2.222V4.649a3.855,3.855,0,0,1-.018.41c-.109,1.138-1.1,1.548-2.213,1.548s-2.1-.41-2.2-1.548c-.018-.209-.027-.3-.027-.41V2.007a3,3,0,0,1,.027-.41C43.574.413,44.521.04,45.641.04S47.736.4,47.855,1.6a3.523,3.523,0,0,1,.009.41v.209H46.279V1.852a1.542,1.542,0,0,0-.018-.237.571.571,0,0,0-.628-.455A.587.587,0,0,0,45,1.616a1.471,1.471,0,0,0-.027.3V4.794a1.906,1.906,0,0,0,.009.237.606.606,0,0,0,.656.455" transform="translate(-3.873 -0.004)" fill="#0033a1"/>
          </g>
        </g>
      </g>
    </g>
  </g>
</svg>
