<svg xmlns="http://www.w3.org/2000/svg" viewBox="0 0 50 50"><defs><style>.a,.b,.d,.g{fill:none;}.b,.d,.f,.g{stroke:#5b6670;stroke-miterlimit:10;}.b,.c,.e,.g{opacity:0.3;}.d,.f,.g{stroke-linecap:round;}.e{fill:#5b6670;}.f{fill:#fff;}</style></defs><g transform="translate(-80 -8270)"><rect class="a" width="50" height="50" transform="translate(80 8270)"/><g transform="translate(84.5 8278.501)"><g transform="translate(11.061 0.499)"><line class="b" y2="19.213" transform="translate(13.302 5.863)"/><g class="c" transform="translate(6.913)"><path class="d" d="M24.741,5.913S23.7.559,20.738.5A2.4,2.4,0,0,0,18.37,2.683C18.213,4.2,19.065,6.2,24.741,5.913Z" transform="translate(-18.353 -0.499)"/><path class="d" d="M24.88,5.913S25.917.559,28.883.5a2.4,2.4,0,0,1,2.369,2.183C31.4,4.2,30.547,6.2,24.88,5.913Z" transform="translate(-18.491 -0.499)"/></g><path class="d" d="M31.787,26.338H17.526A2.932,2.932,0,0,1,14.59,23.4V11.01H34.733v12.4A2.945,2.945,0,0,1,31.787,26.338Z" transform="translate(-11.36 -0.722)"/><path class="e" d="M36.9,10.9H12.269a.982.982,0,0,1-.979-.979V7.039a.982.982,0,0,1,.979-.979H36.895a.982.982,0,0,1,.979.979V9.926A.967.967,0,0,1,36.9,10.9Z" transform="translate(-11.29 -0.617)"/><path class="d" d="M36.9,10.9H12.269a.982.982,0,0,1-.979-.979V7.039a.982.982,0,0,1,.979-.979H36.895a.982.982,0,0,1,.979.979V9.926A.967.967,0,0,1,36.9,10.9Z" transform="translate(-11.29 -0.617)"/></g><g transform="translate(0.5 17.787)"><path class="f" d="M40.277,25.432a2.257,2.257,0,0,0-3-1.067l-2.623,1.223a7.728,7.728,0,0,1-3.269.724H24.911a7.8,7.8,0,0,1-4.5-1.439L23.736,23.3A2.7,2.7,0,0,0,21.8,18.277l-5.5,1.674A19.018,19.018,0,0,0,9.446,23.71H7.214a1.974,1.974,0,0,0-1.958-1.693H2.487A1.988,1.988,0,0,0,.5,24v8.848a1.988,1.988,0,0,0,1.987,1.987h2.77a1.982,1.982,0,0,0,1.821-1.194c.548.02,1.106.029,1.664.029H17.3a45.369,45.369,0,0,0,7.889-.695l3.24-.577a33.239,33.239,0,0,0,10.962-4.023A2.286,2.286,0,0,0,40.277,25.432Z" transform="translate(-0.5 -18.162)"/><line class="g" y2="9.944" transform="translate(6.881 5.548)"/></g></g></g></svg>