<svg xmlns="http://www.w3.org/2000/svg" viewBox="0 0 50 50"><defs><style>.a,.b,.c,.d{fill:none;}.b,.c,.d{stroke:#5b6670;stroke-miterlimit:10;}.b{stroke-linecap:round;stroke-linejoin:round;}.d{stroke-width:3.5px;opacity:0.3;}.e{fill:#ced2d5;}</style></defs><g transform="translate(-723 -8270)"><path class="a" d="M0,0H50V50H0Z" transform="translate(723 8270)"/><g transform="translate(-6.333 -4.901)"><g transform="translate(732 8287)"><g transform="translate(0 12.565)"><path class="b" d="M4.947,13.31s-.4-2.094-1.577-2.13a.934.934,0,0,0-.929.859C2.394,12.639,2.723,13.415,4.947,13.31Z" transform="translate(-0.158 -11.18)"/><path class="b" d="M4.64,13.31s.4-2.094,1.577-2.13a.934.934,0,0,1,.929.859C7.193,12.639,6.864,13.415,4.64,13.31Z" transform="translate(0.231 -11.18)"/><path class="b" d="M8.266,21.272H2.1A.869.869,0,0,1,1.23,20.4V15.26H9.125V20.4A.851.851,0,0,1,8.266,21.272Z" transform="translate(-0.371 -10.459)"/><path class="b" d="M9.854,15.546H.782A.286.286,0,0,1,.5,15.264V13.922a.286.286,0,0,1,.282-.282H9.854a.286.286,0,0,1,.282.282v1.341A.286.286,0,0,1,9.854,15.546Z" transform="translate(-0.5 -10.745)"/><line class="c" y2="7.4" transform="translate(4.812 3.153)"/></g><line class="d" x2="37.05" transform="translate(5.153 7.753)"/><path class="b" d="M5.261,25.8a2.345,2.345,0,0,0,1.682.706H39.628a2.36,2.36,0,0,0,2.353-2.353V2.853A2.36,2.36,0,0,0,39.628.5H6.943A2.36,2.36,0,0,0,4.59,2.853v8.495" transform="translate(0.222 -0.5)"/><path class="e" d="M32.962,20.2H27.785A2.036,2.036,0,0,1,25.75,18.16V16.2a2.036,2.036,0,0,1,2.035-2.035h5.177A2.036,2.036,0,0,1,35,16.2V18.16A2.051,2.051,0,0,1,32.962,20.2Z" transform="translate(3.958 1.911)"/></g></g></g></svg>