<svg xmlns="http://www.w3.org/2000/svg" viewBox="0 0 50 50"><defs><style>.a,.b{fill:none;}.b,.e,.f{stroke:#5b6670;stroke-miterlimit:10;}.b,.e{stroke-linecap:round;stroke-linejoin:round;}.c{opacity:0.3;}.d{fill:#5b6670;}.e,.f{fill:#fff;}.e{stroke-width:2px;}</style></defs><g transform="translate(-80 -7811)"><rect class="a" width="50" height="50" transform="translate(80 7811)"/><g transform="translate(4 6)"><g transform="translate(86 7811)"><g transform="translate(0 0)"><path class="b" d="M15.82,38.23c8.8-2.783,15.273-10.6,15.273-17.639,0-2.484.039-12.121.047-14.927A27.292,27.292,0,0,1,19.727,2.905,23.251,23.251,0,0,1,15.82.5a22.1,22.1,0,0,1-3.907,2.405A27.366,27.366,0,0,1,.5,5.672C.508,8.47.547,18.115.547,20.6.547,27.626,7.024,35.447,15.82,38.23Z" transform="translate(-0.5 -0.5)"/><g class="c" transform="translate(15.516 3.404)"><path class="d" d="M20.24,35.753c7.208-2.28,12.522-8.694,12.522-14.455,0-2.036.031-9.936.039-12.231A22.506,22.506,0,0,1,23.439,6.8a18.187,18.187,0,0,1-3.2-1.973V35.753Z" transform="translate(-20.24 -4.83)"/></g><path class="e" d="M26.69,31.09" transform="translate(-6.104 -7.045)"/><path class="e" d="M35.63,28.86" transform="translate(-8.016 -6.568)"/></g><path class="f" d="M24.559,26.093l-4.032-1.116a1.174,1.174,0,0,1-.645-1.737,11.5,11.5,0,0,0,1.431-5.5c0-3.49-1.871-4.528-4.174-4.528s-4.174,1.045-4.174,4.528a11.593,11.593,0,0,0,1.431,5.5,1.169,1.169,0,0,1-.645,1.737L9.719,26.093A3.507,3.507,0,0,0,7.07,29.434v.519a1.286,1.286,0,0,0,1.116,1.289h0a79.165,79.165,0,0,0,17.89,0h0a1.28,1.28,0,0,0,1.116-1.289v-.519A3.475,3.475,0,0,0,24.559,26.093Z" transform="translate(-1.906 -3.219)"/></g></g></g></svg>