<svg xmlns="http://www.w3.org/2000/svg" viewBox="0 0 50 50"><defs><style>.a,.e{fill:none;}.b,.d{fill:#5b6670;}.b{opacity:0.3;}.c{fill:#fff;stroke-linecap:round;stroke-linejoin:round;}.c,.e{stroke:#5b6670;stroke-miterlimit:10;}</style></defs><g transform="translate(-80 -7468)"><g transform="translate(0 -15)"><rect class="a" width="50" height="50" transform="translate(80 7483)"/></g><g transform="translate(84.51 7474.5)"><path class="b" d="M20.449,16.5h7.96l2.059,3.188.085-3.188h1.214a2.2,2.2,0,0,0,2.249-2.144V5.474A2.2,2.2,0,0,0,31.767,3.33H20.449A2.2,2.2,0,0,0,18.2,5.474v8.88A2.2,2.2,0,0,0,20.449,16.5Z" transform="translate(-0.907 -0.145)"/><path class="c" d="M23.728,16.344H14.146l-2.59,3.2.009-3.2H10.1a2.642,2.642,0,0,1-2.7-2.581V3.081A2.648,2.648,0,0,1,10.1.5H23.728a2.642,2.642,0,0,1,2.7,2.581V13.773A2.641,2.641,0,0,1,23.728,16.344Z" transform="translate(-0.354 0)"/><g transform="translate(14.959 3.479)"><path class="d" d="M18.748,11.923a.966.966,0,0,1-1.224.93l-1.784-.5.683-.493a.975.975,0,0,0,.4-.778V7.758A.956.956,0,0,1,17.78,6.8h0a.956.956,0,0,1,.958.958v4.165Z" transform="translate(-15.74 -3.802)"/><ellipse class="d" cx="1.167" cy="1.167" rx="1.167" ry="1.167" transform="translate(0.873)"/></g><path class="e" d="M16.05,31.831l-3.586-1a1.041,1.041,0,0,1-.569-1.546,10.319,10.319,0,0,0,1.271-4.9c0-3.1-1.66-4.032-3.719-4.032s-3.719.93-3.719,4.032A10.319,10.319,0,0,0,7,29.288a1.041,1.041,0,0,1-.569,1.546l-3.586,1A3.124,3.124,0,0,0,.49,34.8v.465a1.142,1.142,0,0,0,1,1.148h0a70.9,70.9,0,0,0,15.92,0h0a1.142,1.142,0,0,0,1-1.148V34.8A3.133,3.133,0,0,0,16.05,31.831Z" transform="translate(0 -1.017)"/><path class="e" d="M39.33,31.831l-3.586-1a1.041,1.041,0,0,1-.569-1.546,10.319,10.319,0,0,0,1.271-4.9c0-3.1-1.66-4.032-3.719-4.032s-3.719.93-3.719,4.032a10.319,10.319,0,0,0,1.271,4.9,1.041,1.041,0,0,1-.569,1.546l-3.586,1A3.124,3.124,0,0,0,23.77,34.8v.465a1.142,1.142,0,0,0,1,1.148h0a70.9,70.9,0,0,0,15.92,0h0a1.142,1.142,0,0,0,1-1.148V34.8A3.133,3.133,0,0,0,39.33,31.831Z" transform="translate(-1.193 -1.017)"/></g></g></svg>