<svg xmlns="http://www.w3.org/2000/svg" viewBox="0 0 50 50"><defs><style>.a,.b{fill:none;}.b,.e,.f{stroke:#5b6670;stroke-linecap:round;stroke-linejoin:round;stroke-miterlimit:10;}.c{opacity:0.3;}.d{fill:#5b6670;}.e,.f{fill:#fff;}.e{stroke-width:2px;}</style></defs><g transform="translate(-723 -7811)"><path class="a" d="M0,0H50V50H0Z" transform="translate(723 7811)"/><g transform="translate(726.887 7816.5)"><g transform="translate(4.571 0.5)"><path class="b" d="M19.545,38.23c8.8-2.788,15.271-10.6,15.271-17.638,0-2.486.043-12.126.043-14.926A27.507,27.507,0,0,1,23.435,2.91,22.174,22.174,0,0,1,19.534.5a23.321,23.321,0,0,1-3.9,2.41A27.3,27.3,0,0,1,4.23,5.666c.011,2.8.043,12.44.043,14.926C4.273,27.628,10.747,35.442,19.545,38.23Z" transform="translate(-4.23 -0.5)"/></g><g class="c" transform="translate(20.08 3.894)"><g transform="translate(0 0)"><path class="d" d="M18.58,34.572c7.209-2.28,12.526-8.689,12.526-14.461,0-2.032.032-9.943.043-12.234a22.632,22.632,0,0,1-9.36-2.259,18.629,18.629,0,0,1-3.2-1.978V34.572Z" transform="translate(-18.58 -3.64)"/></g></g><path class="e" d="M23.28,22.75" transform="translate(1.879 1.797)"/><g transform="translate(0.013 21.91)"><path class="d" d="M3.025,20.31a3.859,3.859,0,0,0-2.745,3.4A2.454,2.454,0,0,0,1.2,25.66a4.109,4.109,0,0,0,2.064.832,12.207,12.207,0,0,0,4.582-.378,32.4,32.4,0,0,0,4.431-1.5.542.542,0,0,1,.432.994c-.011,0-.022.011-.032.011A31.132,31.132,0,0,1,8.029,26.9a12.847,12.847,0,0,1-4.853.108A4.589,4.589,0,0,1,.95,25.952a2.818,2.818,0,0,1-.929-2.259A3.978,3.978,0,0,1,3.025,20.31Z" transform="translate(-0.013 -20.31)"/></g><path class="f" d="M27.328,24.042l1.74-2.172,10.7-3.188a2.153,2.153,0,0,0,1.2-3.513c-1.048-1.535-3.534-2.345-7.166-1.308l-3.642,1.178L22.95,12.488a5.755,5.755,0,0,0-3.837-.476l-1.794.508c-.389.108-.411.821-.022,1.135l4.42,3.642-7.2,2.053L12.845,17.2c-.778-1.081-1.5-.778-2.443-.508l-.54.151c-.141.043-.205.259-.13.454l.908,3.156-.032.011a1.094,1.094,0,0,0-.032,2.151c4.809,1.059,7.328,1.794,11.456,1.005l-1.048,3.091c-.13.378.184.843.5.757l2.216-.5a5.545,5.545,0,0,0,2.832-1.945l.8-.984" transform="translate(0.782 0.916)"/><g class="c" transform="translate(35.362 15.552)"><path class="d" d="M38.686,14.484a8.351,8.351,0,0,1-2.842,1.308,8.11,8.11,0,0,1-3.123.259,8.151,8.151,0,0,1,2.842-1.308A8.345,8.345,0,0,1,38.686,14.484Z" transform="translate(-32.72 -14.427)"/></g><line class="f" y1="3.177" x2="1.2" transform="translate(22.814 21.37)"/><path class="e" d="M29.78,21.13" transform="translate(2.405 1.666)"/><line class="b" y1="2.259" x2="8.43" transform="translate(22.501 15.966)"/></g></g></svg>