<svg xmlns="http://www.w3.org/2000/svg" viewBox="0 0 50 50"><defs><style>.a,.c{fill:none;}.b,.d{fill:#5b6670;}.b{opacity:0.3;}.c{stroke:#5b6670;stroke-linecap:round;stroke-linejoin:round;stroke-miterlimit:10;}</style></defs><g transform="translate(-723 -7468)"><rect class="a" width="50" height="50" transform="translate(723 7468)"/><g transform="translate(-2 -2)"><g transform="translate(731.5 7474.5)"><path class="b" d="M36.949,12.239H.5V7.04A3.335,3.335,0,0,1,3.84,3.7H33.609a3.335,3.335,0,0,1,3.34,3.34v5.2Z" transform="translate(0 0.362)"/><path class="c" d="M33.609,40.138H3.84A3.335,3.335,0,0,1,.5,36.8V7.04A3.335,3.335,0,0,1,3.84,3.7H33.609a3.335,3.335,0,0,1,3.34,3.34V36.809A3.34,3.34,0,0,1,33.609,40.138Z" transform="translate(0 0.362)"/><line class="c" y2="5.5" transform="translate(10.497 0.5)"/><line class="c" y2="5.5" transform="translate(26.951 0.5)"/><g transform="translate(7.091 16.42)"><path class="d" d="M13.478,17.027c2.661,0,4.832,2.661,4.832,5.945s-2.171,5.945-4.832,5.945-4.832-2.661-4.832-5.945,2.16-5.945,4.832-5.945m0-2.227c-3.9,0-7.058,3.652-7.058,8.171s3.162,8.171,7.058,8.171,7.058-3.652,7.058-8.171S17.375,14.8,13.478,14.8Z" transform="translate(-6.42 -14.8)"/></g><g transform="translate(22.676 23.044)"><circle class="d" cx="1.481" cy="1.481" r="1.481"/><circle class="d" cx="1.481" cy="1.481" r="1.481" transform="translate(4.72 4.843)"/><line class="c" y1="8.16" x2="4.72" transform="translate(1.481)"/></g></g></g></g></svg>