<svg xmlns="http://www.w3.org/2000/svg" viewBox="0 0 50 50"><defs><style>.a{fill:none;}.b{fill:#0023a0;}.c{fill:#ffa000;}</style></defs><g transform="translate(-80 -8640)"><rect class="a" width="50" height="50" transform="translate(80 8640)"/><g transform="translate(83 8659)"><path class="b" d="M3.59,6.432H2.4L0,.07H1.363l1.673,4.8L4.7.079H5.968Z" transform="translate(0 -0.004)"/><path class="b" d="M8.136.639a.6.6,0,0,1-.188.451.689.689,0,0,1-.46.179.653.653,0,0,1-.47-.179.564.564,0,0,1-.2-.451.584.584,0,0,1,.2-.46A.653.653,0,0,1,7.487,0a.646.646,0,0,1,.46.179A.623.623,0,0,1,8.136.639ZM6.923,6.409V1.974h1.1V6.409h-1.1Z" transform="translate(-0.411)"/><path class="b" d="M12.615,5.224a1.242,1.242,0,0,1-.451,1.024,2.091,2.091,0,0,1-1.334.367,3.56,3.56,0,0,1-.949-.132,3.868,3.868,0,0,1-.78-.3l.15-.921a3.548,3.548,0,0,0,.78.385,2.648,2.648,0,0,0,.836.141.976.976,0,0,0,.545-.122.4.4,0,0,0,.188-.338.478.478,0,0,0-.038-.207.445.445,0,0,0-.141-.16,1.482,1.482,0,0,0-.273-.132,3.952,3.952,0,0,0-.442-.122,4.326,4.326,0,0,1-.7-.226,1.419,1.419,0,0,1-.47-.282.824.824,0,0,1-.282-.367,1.418,1.418,0,0,1-.085-.517,1.183,1.183,0,0,1,.423-.94,1.787,1.787,0,0,1,1.2-.367,3.684,3.684,0,0,1,1.551.31l-.15.921a3.365,3.365,0,0,0-.7-.291,2.394,2.394,0,0,0-.7-.113.754.754,0,0,0-.46.113.337.337,0,0,0-.15.291.346.346,0,0,0,.169.291,2.364,2.364,0,0,0,.658.244A7.045,7.045,0,0,1,11.741,4a1.922,1.922,0,0,1,.5.282,1,1,0,0,1,.282.385A1.493,1.493,0,0,1,12.615,5.224Z" transform="translate(-0.548 -0.121)"/><path class="b" d="M16.339,6.53l-.094-.583a2.6,2.6,0,0,1-.62.479,1.743,1.743,0,0,1-.855.2,1.275,1.275,0,0,1-.912-.329,1.2,1.2,0,0,1-.348-.9,1.306,1.306,0,0,1,.658-1.2,4.949,4.949,0,0,1,2.011-.517V3.541a.607.607,0,0,0-.2-.507.9.9,0,0,0-.564-.15,2.9,2.9,0,0,0-.752.1,5.087,5.087,0,0,0-.724.254L13.8,2.357A5.406,5.406,0,0,1,14.61,2.1a4.2,4.2,0,0,1,.949-.1,1.987,1.987,0,0,1,1.287.348,1.391,1.391,0,0,1,.423,1.147V6.53h-.93Zm-.16-2.218a3.629,3.629,0,0,0-.789.16,1.758,1.758,0,0,0-.479.226.735.735,0,0,0-.244.273.668.668,0,0,0-.066.3.5.5,0,0,0,.141.376.534.534,0,0,0,.395.141,1.217,1.217,0,0,0,.545-.122,1.592,1.592,0,0,0,.489-.357v-1Z" transform="translate(-0.814 -0.12)"/><path class="c" d="M10.281,10.063a2.794,2.794,0,0,1-.132.893,1.8,1.8,0,0,1-.357.62,1.384,1.384,0,0,1-.517.357,1.563,1.563,0,0,1-.62.132,2.436,2.436,0,0,1-.479-.047,3.8,3.8,0,0,1-.385-.1v1.4l-.921.141V8.305h.78l.094.507a2.47,2.47,0,0,1,.47-.4,1.26,1.26,0,0,1,.667-.179,1.316,1.316,0,0,1,.545.113,1.186,1.186,0,0,1,.442.338,1.577,1.577,0,0,1,.3.573A2.581,2.581,0,0,1,10.281,10.063Zm-.93.056a1.315,1.315,0,0,0-.2-.8.614.614,0,0,0-.517-.273.8.8,0,0,0-.451.141,2.063,2.063,0,0,0-.385.376v1.588a1.7,1.7,0,0,0,.32.122,1.559,1.559,0,0,0,.395.038.761.761,0,0,0,.6-.291A1.46,1.46,0,0,0,9.351,10.119Z" transform="translate(-0.414 -0.496)"/><path class="c" d="M13.448,12.027l-.075-.489a2.062,2.062,0,0,1-.526.4,1.54,1.54,0,0,1-.714.16,1.062,1.062,0,0,1-.761-.273,1,1,0,0,1-.291-.761,1.093,1.093,0,0,1,.554-1.006,4.123,4.123,0,0,1,1.682-.432v-.1a.5.5,0,0,0-.169-.423.756.756,0,0,0-.47-.132,2.365,2.365,0,0,0-.63.085,5.27,5.27,0,0,0-.611.216l-.113-.742A5.168,5.168,0,0,1,12,8.315a3.415,3.415,0,0,1,.8-.085,1.667,1.667,0,0,1,1.081.291,1.162,1.162,0,0,1,.357.959v2.547h-.789Zm-.132-1.861a3.234,3.234,0,0,0-.658.132,1.634,1.634,0,0,0-.4.188.583.583,0,0,0-.207.226.62.62,0,0,0-.056.254.425.425,0,0,0,.122.32.459.459,0,0,0,.338.113,1.133,1.133,0,0,0,.46-.1A1.508,1.508,0,0,0,13.326,11v-.836Z" transform="translate(-0.667 -0.496)"/><path class="c" d="M17.141,12.226a2.722,2.722,0,0,1-.273.573,1.545,1.545,0,0,1-.32.367,1.041,1.041,0,0,1-.395.2,1.888,1.888,0,0,1-.489.056,1.143,1.143,0,0,1-.2-.009l-.141-.028-.122-.761a1.459,1.459,0,0,0,.2.038,1.7,1.7,0,0,0,.235.019.655.655,0,0,0,.357-.094.629.629,0,0,0,.244-.291l.085-.244L14.98,8.392l.959-.132L16.8,10.9l.827-2.594h.912Z" transform="translate(-0.902 -0.498)"/><path class="c" d="M24.561,11.927h-.968L22.418,8.064l-1.175,3.862h-.959L18.8,6.758l1.062-.188,1,3.8,1.109-3.74h1.024l1.109,3.74.968-3.74h1.024Z" transform="translate(-1.132 -0.396)"/><path class="c" d="M28.968,12.027l-.075-.489a2.062,2.062,0,0,1-.526.4,1.54,1.54,0,0,1-.714.16,1.062,1.062,0,0,1-.761-.273,1,1,0,0,1-.291-.761,1.093,1.093,0,0,1,.554-1.006,4.123,4.123,0,0,1,1.682-.432v-.1a.5.5,0,0,0-.169-.423.775.775,0,0,0-.47-.132,2.365,2.365,0,0,0-.63.085,5.27,5.27,0,0,0-.611.216l-.113-.742a5.168,5.168,0,0,1,.677-.216,3.415,3.415,0,0,1,.8-.085,1.667,1.667,0,0,1,1.081.291,1.162,1.162,0,0,1,.357.959v2.547h-.789Zm-.132-1.861a3.234,3.234,0,0,0-.658.132,1.634,1.634,0,0,0-.4.188.583.583,0,0,0-.207.226.62.62,0,0,0-.056.254.425.425,0,0,0,.122.32.451.451,0,0,0,.329.113,1.133,1.133,0,0,0,.46-.1A1.508,1.508,0,0,0,28.837,11Z" transform="translate(-1.602 -0.496)"/><path class="c" d="M32.689,12.038h-.9l-1.3-3.656.968-.122.827,2.641.8-2.584H34Z" transform="translate(-1.836 -0.498)"/><path class="c" d="M37.827,10.129v.226H35.44a1.135,1.135,0,0,0,.3.789,1,1,0,0,0,.7.244,1.721,1.721,0,0,0,.667-.122,3.3,3.3,0,0,0,.611-.338l.1.724a2.327,2.327,0,0,1-.667.329,2.49,2.49,0,0,1-.818.122,2.206,2.206,0,0,1-.724-.113,1.62,1.62,0,0,1-.573-.348,1.7,1.7,0,0,1-.385-.6,2.417,2.417,0,0,1-.141-.865,2.655,2.655,0,0,1,.122-.808,1.87,1.87,0,0,1,.357-.611,1.562,1.562,0,0,1,.536-.385,1.811,1.811,0,0,1,1.4.019,1.445,1.445,0,0,1,.507.4,1.791,1.791,0,0,1,.291.6A2.306,2.306,0,0,1,37.827,10.129ZM36.709,9.1a.663.663,0,0,0-1-.019,1.117,1.117,0,0,0-.254.677h1.475A1.422,1.422,0,0,0,36.709,9.1Z" transform="translate(-2.079 -0.496)"/><g transform="translate(39.082 6.589)"><path class="b" d="M41.656,9.466a1.432,1.432,0,0,1,.188.357,1.176,1.176,0,0,1,.066.4,1.4,1.4,0,0,1-.066.4,1.3,1.3,0,0,1-.188.357.329.329,0,0,0,.526.395,1.824,1.824,0,0,0,.282-.536,1.912,1.912,0,0,0,0-1.24,1.824,1.824,0,0,0-.282-.536.329.329,0,0,0-.526.395" transform="translate(-41.587 -7.127)"/><path class="b" d="M42.847,8.818a2.636,2.636,0,0,1,0,2.744.327.327,0,1,0,.554.348,3.27,3.27,0,0,0,0-3.44.327.327,0,1,0-.554.348" transform="translate(-41.66 -7.09)"/><path class="b" d="M44.117,8.158a3.973,3.973,0,0,1,0,3.985.327.327,0,0,0,.122.451.332.332,0,0,0,.451-.113,4.648,4.648,0,0,0,.63-2.331,4.579,4.579,0,0,0-.63-2.331.335.335,0,0,0-.451-.122.34.34,0,0,0-.122.46" transform="translate(-41.736 -7.05)"/><path class="b" d="M45.377,7.489a5.29,5.29,0,0,1,0,5.244.33.33,0,0,0,.573.329,5.936,5.936,0,0,0,0-5.883.327.327,0,0,0-.451-.122.309.309,0,0,0-.122.432" transform="translate(-41.812 -7.011)"/></g></g></g></svg>