<svg xmlns="http://www.w3.org/2000/svg" viewBox="0 0 50 50"><defs><style>.a,.d{fill:none;}.b,.e,.f{fill:#5b6670;}.b,.c,.d,.f{stroke:#5b6670;stroke-linecap:round;stroke-miterlimit:10;}.b{stroke-linejoin:round;}.b,.d{opacity:0.3;}.c{fill:#fff;}.f{stroke-width:1.25px;}</style></defs><g transform="translate(-723 -8053)"><path class="a" d="M0,0H50V50H0Z" transform="translate(723 8053)"/><g transform="translate(728.202 8058.238)"><path class="b" d="M38.475,9.949H1.632A1.135,1.135,0,0,1,.5,8.817V1.632A1.135,1.135,0,0,1,1.632.5H38.475a1.135,1.135,0,0,1,1.132,1.132V8.817A1.135,1.135,0,0,1,38.475,9.949Z"/><path class="c" d="M30.9,22.776H7.632A1.135,1.135,0,0,1,6.5,21.645V4.762A1.135,1.135,0,0,1,7.632,3.63H30.9a1.135,1.135,0,0,1,1.132,1.132V21.645A1.128,1.128,0,0,1,30.9,22.776Z" transform="translate(0.789 0.412)"/><g transform="translate(27.442 9.271)"><path class="c" d="M29.8,8.42a1.7,1.7,0,0,0-.8,2.252l.917,1.98a5.77,5.77,0,0,1,.543,2.467v4.888A5.883,5.883,0,0,1,29.368,23.4L28.18,20.9a2.031,2.031,0,0,0-3.779,1.46L25.668,26.5a14.165,14.165,0,0,0,2.84,5.16v1.675a1.488,1.488,0,0,0-1.279,1.471V36.9a1.492,1.492,0,0,0,1.494,1.494H35.4A1.492,1.492,0,0,0,36.893,36.9V34.808a1.492,1.492,0,0,0-.905-1.369c.011-.419.023-.837.023-1.256v-6.45a35.046,35.046,0,0,0-.521-5.952l-.441-2.422A25.4,25.4,0,0,0,32.016,9.1,1.713,1.713,0,0,0,29.8,8.42Z" transform="translate(-24.31 -8.251)"/><line class="d" x2="6.722" transform="translate(4.187 24.961)"/></g><g transform="translate(16.138 7.357)"><g transform="translate(0 1.075)"><path class="e" d="M14.32,8.1a.587.587,0,0,1,.566-.588h3.768a3.778,3.778,0,0,1,2.671.905,2.282,2.282,0,0,1,.656,1.629v.034a2.469,2.469,0,0,1-1.618,2.365,2.566,2.566,0,0,1,2.184,2.467v.034c0,1.743-1.471,2.784-3.7,2.784h-3.96a.577.577,0,0,1-.566-.577Zm4.153,3.96c1.381,0,2.342-.622,2.342-1.822V10.2c0-1.007-.8-1.663-2.263-1.663h-3.1v3.508h3.021Zm.407,4.617c1.539,0,2.5-.679,2.5-1.822V14.82c0-1.109-.928-1.743-2.7-1.743H15.452v3.6H18.88Z" transform="translate(-14.32 -7.51)"/></g><line class="f" y1="1.313" transform="translate(3.463)"/><line class="f" y1="1.46" transform="translate(3.463 10.976)"/></g></g></g></svg>