<svg xmlns="http://www.w3.org/2000/svg" viewBox="0 0 50 50"><defs><style>.a{fill:none;}.b{fill:#ff5f00;}.c{fill:#eb001b;}.d{fill:#f79e1b;}.e{fill:#231f20;}</style></defs><g transform="translate(-80 -4514)"><g transform="translate(0 66)"><rect class="a" width="50" height="50" transform="translate(80 4448)"/><g transform="translate(0 -4191)"><g transform="translate(83 8655)"><g transform="translate(1.436 18.262)"><path d="M5.148,22.787V21.361a.844.844,0,0,0-.895-.9.881.881,0,0,0-.8.4.833.833,0,0,0-.755-.4.772.772,0,0,0-.671.336v-.28H1.54v2.275h.5V21.529a.533.533,0,0,1,.559-.606c.326,0,.494.214.494.6v1.268h.5V21.529a.542.542,0,0,1,.559-.606c.336,0,.5.214.5.6v1.268h.485Zm7.4-2.284h-.811v-.69h-.5v.69h-.466v.457h.466V22c0,.531.205.839.792.839a1.11,1.11,0,0,0,.615-.177l-.14-.419a.938.938,0,0,1-.438.131c-.252,0-.326-.149-.326-.382V20.96h.811Zm4.223-.056a.646.646,0,0,0-.6.336V20.5h-.494v2.275h.494V21.5c0-.373.158-.587.485-.587a.9.9,0,0,1,.308.056l.149-.466a1.112,1.112,0,0,0-.345-.056Zm-6.386.242a1.711,1.711,0,0,0-.932-.242c-.578,0-.951.28-.951.727,0,.373.28.6.783.671l.233.037c.27.037.4.112.4.242,0,.177-.177.28-.522.28a1.192,1.192,0,0,1-.755-.242l-.233.382a1.676,1.676,0,0,0,.988.3c.653,0,1.035-.308,1.035-.746,0-.4-.3-.606-.792-.681l-.233-.037c-.214-.028-.382-.075-.382-.224,0-.168.158-.27.429-.27a1.494,1.494,0,0,1,.708.2Zm13.265-.242a.646.646,0,0,0-.6.336V20.5h-.494v2.275h.494V21.5c0-.373.158-.587.485-.587a.9.9,0,0,1,.308.056L24,20.5a1.112,1.112,0,0,0-.345-.056Zm-6.376,1.193a1.15,1.15,0,0,0,1.212,1.193,1.2,1.2,0,0,0,.82-.27l-.242-.4a1.026,1.026,0,0,1-.6.205.686.686,0,0,1-.69-.727.676.676,0,0,1,.69-.727,1.026,1.026,0,0,1,.6.205l.242-.4a1.2,1.2,0,0,0-.82-.27,1.145,1.145,0,0,0-1.212,1.193Zm4.633,0V20.5h-.494v.28a.86.86,0,0,0-.718-.336,1.195,1.195,0,0,0,0,2.386.86.86,0,0,0,.718-.336v.28h.494Zm-1.836,0a.691.691,0,1,1,.69.727.681.681,0,0,1-.69-.727ZM14.1,20.448a1.194,1.194,0,0,0,.028,2.386,1.382,1.382,0,0,0,.932-.317l-.242-.364a1.09,1.09,0,0,1-.662.242.636.636,0,0,1-.681-.559h1.687a1.249,1.249,0,0,0,.009-.186,1.086,1.086,0,0,0-1.072-1.2Zm-.019.447a.567.567,0,0,1,.578.55H13.472a.594.594,0,0,1,.606-.55Zm12.426.746V19.59H26.01v1.193a.86.86,0,0,0-.718-.336,1.195,1.195,0,0,0,0,2.386.86.86,0,0,0,.718-.336v.28H26.5Zm-1.846,0a.691.691,0,1,1,.69.727.681.681,0,0,1-.69-.727Zm-16.714,0V20.5h-.5v.28a.86.86,0,0,0-.718-.336,1.195,1.195,0,0,0,0,2.386.86.86,0,0,0,.718-.336v.28h.494V21.641Zm-1.846,0a.691.691,0,1,1,.69.727A.681.681,0,0,1,6.1,21.641Zm21.236.811a.331.331,0,0,1,.093.019.2.2,0,0,1,.121.121.2.2,0,0,1,0,.168.327.327,0,0,1-.047.075.2.2,0,0,1-.075.047.276.276,0,0,1-.093.019.331.331,0,0,1-.093-.019.2.2,0,0,1-.121-.121.2.2,0,0,1,0-.168.2.2,0,0,1,.121-.121A.276.276,0,0,1,27.334,22.452Zm0,.4a.138.138,0,0,0,.065-.009.171.171,0,0,0,.093-.093.159.159,0,0,0,.009-.065.138.138,0,0,0-.009-.065.171.171,0,0,0-.093-.093.159.159,0,0,0-.065-.009.138.138,0,0,0-.065.009.171.171,0,0,0-.093.093.159.159,0,0,0-.009.065.138.138,0,0,0,.009.065.171.171,0,0,0,.093.093A.138.138,0,0,0,27.334,22.853Zm.009-.28a.135.135,0,0,1,.065.019c.019.009.019.028.019.047s-.009.028-.019.047a.071.071,0,0,1-.047.019l.065.084h-.056l-.065-.075h-.019v.075h-.047v-.214Zm-.047.037v.056h.056a.034.034,0,0,0,.028-.009c.009,0,.009-.009.009-.019s0-.019-.009-.019-.019-.009-.028-.009H27.3Z" transform="translate(-1.54 -19.59)"/></g><rect class="b" width="7.504" height="13.48" transform="translate(10.114 1.836)"/><path class="c" d="M10.6,8.576a8.552,8.552,0,0,1,3.272-6.74,8.574,8.574,0,1,0-5.3,15.316,8.464,8.464,0,0,0,5.295-1.836A8.586,8.586,0,0,1,10.6,8.576Z"/><path class="d" d="M28.752,8.576a8.576,8.576,0,0,1-8.567,8.576,8.464,8.464,0,0,1-5.295-1.836,8.577,8.577,0,0,0,0-13.48A8.438,8.438,0,0,1,20.176,0,8.577,8.577,0,0,1,28.752,8.576Zm-.82,5.3V13.6h.112v-.056h-.28V13.6h.112v.28Zm.55,0v-.336H28.4l-.1.233-.1-.233h-.084v.336h.065v-.252l.093.214h.065l.093-.214v.252Z" transform="translate(-1.009)"/><g transform="translate(32.485 2.55)"><path class="e" d="M35,8.562a3.076,3.076,0,0,1,.438.83,2.963,2.963,0,0,1,.158.96,3.005,3.005,0,0,1-.158.96,3.333,3.333,0,0,1-.429.83.766.766,0,1,0,1.231.914,4.436,4.436,0,0,0,.653-1.249,4.6,4.6,0,0,0,0-2.89,4.488,4.488,0,0,0-.653-1.258A.763.763,0,0,0,35.167,7.5.744.744,0,0,0,35,8.562" transform="translate(-34.847 -3.048)"/><path class="e" d="M37.822,7.034a6.171,6.171,0,0,1,0,6.432.766.766,0,1,0,1.305.8,7.7,7.7,0,0,0,0-8.054.763.763,0,0,0-1.053-.252.785.785,0,0,0-.252,1.072" transform="translate(-35.041 -2.947)"/><path class="e" d="M40.812,5.466a9.3,9.3,0,0,1-.009,9.359.771.771,0,1,0,1.333.774,10.832,10.832,0,0,0,0-10.907.773.773,0,0,0-1.053-.28.781.781,0,0,0-.27,1.053" transform="translate(-35.244 -2.842)"/><path class="e" d="M43.8,3.9a12.444,12.444,0,0,1,0,12.286.766.766,0,0,0,1.333.755,14,14,0,0,0,.009-13.815A.775.775,0,0,0,43.8,3.9" transform="translate(-35.447 -2.736)"/></g></g></g></g></g></svg>