<svg xmlns="http://www.w3.org/2000/svg" viewBox="0 0 50 50"><defs><style>.a{fill:none;}.b{fill:#00b3bd;}.c{fill:#002b3d;}</style></defs><g transform="translate(-80 -8447)"><rect class="a" width="50" height="50" transform="translate(80 8447)"/><g transform="translate(83 8459)"><path class="b" d="M4.046.55a.546.546,0,0,1-.55.55A.55.55,0,0,1,3.5,0,.546.546,0,0,1,4.046.55Zm-.55.973a.568.568,0,1,0,.568.568A.571.571,0,0,0,3.5,1.523Zm0,1.532a.594.594,0,0,0-.595.595A.59.59,0,1,0,3.5,3.055Zm0,1.568a.568.568,0,1,0,.568.568A.565.565,0,0,0,3.5,4.623Zm0,1.568a.55.55,0,1,0,.55.55A.552.552,0,0,0,3.5,6.19ZM5,1.451a.64.64,0,1,0,.64.64A.642.642,0,0,0,5,1.451ZM5,2.983a.667.667,0,1,0,.667.667A.665.665,0,0,0,5,2.983ZM5,4.55a.64.64,0,1,0,.64.64A.642.642,0,0,0,5,4.55ZM6.551,2.9a.739.739,0,1,0,.739.739A.742.742,0,0,0,6.551,2.9ZM1.973,1.595a.5.5,0,1,0,.5.5A.5.5,0,0,0,1.973,1.595Zm0,1.532a.514.514,0,0,0,0,1.027.519.519,0,0,0,.514-.514A.513.513,0,0,0,1.973,3.127Zm0,1.568a.5.5,0,1,0,.5.5A.494.494,0,0,0,1.973,4.695ZM.442,3.2a.442.442,0,1,0,.442.442A.437.437,0,0,0,.442,3.2Z"/><g transform="translate(9.362 0.541)"><path class="c" d="M14.279,2.979a.1.1,0,0,0-.1.1V6.944a.1.1,0,0,0,.1.1h.469a.1.1,0,0,0,.1-.1V3.069a.1.1,0,0,0-.1-.1h-.469Z" transform="translate(-10.765 -0.834)"/><g transform="translate(3.307 0.523)"><path class="c" d="M14.5,1.18a.442.442,0,1,0,.442.442A.442.442,0,0,0,14.5,1.18Z" transform="translate(-14.06 -1.18)"/></g><path class="c" d="M25.279,2.979a.1.1,0,0,0-.1.1V6.944a.1.1,0,0,0,.1.1h.469a.1.1,0,0,0,.1-.1V3.069a.1.1,0,0,0-.1-.1h-.469Z" transform="translate(-11.853 -0.834)"/><g transform="translate(13.21 0.523)"><path class="c" d="M25.5,1.18a.45.45,0,0,0-.451.442.45.45,0,0,0,.451.442.442.442,0,1,0,0-.883Z" transform="translate(-25.05 -1.18)"/></g><path class="c" d="M18.293,3.464a.1.1,0,0,0,.1-.1V2.9a.1.1,0,0,0-.1-.1H17.3V1.319a.1.1,0,0,0-.1-.1h-.469a.1.1,0,0,0-.1.1V2.806h-.5a.1.1,0,0,0-.1.1v.46a.1.1,0,0,0,.1.1h.5V5.716a1.083,1.083,0,0,0,1.144,1.144h.5a.1.1,0,0,0,.1-.1V6.293a.1.1,0,0,0-.1-.1h-.442a.532.532,0,0,1-.55-.559V3.464Z" transform="translate(-10.949 -0.661)"/><path class="c" d="M29.193,3.464a.1.1,0,0,0,.1-.1V2.9a.1.1,0,0,0-.1-.1H28.2V1.319a.1.1,0,0,0-.1-.1h-.469a.1.1,0,0,0-.1.1V2.806h-.5a.1.1,0,0,0-.1.1v.46a.1.1,0,0,0,.1.1h.5V5.716a1.083,1.083,0,0,0,1.144,1.144h.5a.1.1,0,0,0,.1-.1V6.293a.1.1,0,0,0-.1-.1h-.442a.532.532,0,0,1-.55-.559V3.464Z" transform="translate(-12.027 -0.661)"/><path class="c" d="M10.967,3.4V6.7a.1.1,0,0,0,.1.1h.469a.1.1,0,0,0,.1-.1V3.4h1.09a.1.1,0,0,0,.1-.1V2.835a.1.1,0,0,0-.1-.1h-1.09V1.853a.555.555,0,0,1,.55-.586h.55a.1.1,0,0,0,.1-.1V.7a.1.1,0,0,0-.1-.1h-.5a1.246,1.246,0,0,0-1.243,1.243v.892h-.5a.1.1,0,0,0-.1.1V3.3a.1.1,0,0,0,.1.1h.478Z" transform="translate(-10.39 -0.6)"/><path class="c" d="M23.171,3.213A1.917,1.917,0,0,0,21.729,2.6a1.938,1.938,0,0,0-1.343.55V.7a.1.1,0,0,0-.1-.1h-.469a.1.1,0,0,0-.1.1V4.763a2.008,2.008,0,1,0,4,0A2.14,2.14,0,0,0,23.171,3.213ZM21.738,6.295A1.345,1.345,0,0,1,20.4,4.772a1.352,1.352,0,1,1,2.685,0A1.349,1.349,0,0,1,21.738,6.295Z" transform="translate(-11.313 -0.6)"/></g><g transform="translate(29.078 2.55)"><path class="b" d="M35.838,3.461a2.049,2.049,0,0,1,.433.694A2.39,2.39,0,0,1,36.415,5a2.39,2.39,0,0,1-.144.847,2.049,2.049,0,0,1-.433.694,2.029,2.029,0,0,1-.676.469,2.081,2.081,0,0,1-.82.162,1.742,1.742,0,0,1-.793-.189,1.678,1.678,0,0,1-.595-.478h-.027V9.165H32.27V2.974h.658V3.5h.027a1.878,1.878,0,0,1,1.388-.667,2.113,2.113,0,0,1,.82.162A2.029,2.029,0,0,1,35.838,3.461Zm-1.5,3.064a1.4,1.4,0,0,0,1.018-.433,1.357,1.357,0,0,0,.288-.478,1.765,1.765,0,0,0,0-1.216,1.453,1.453,0,0,0-.288-.487A1.235,1.235,0,0,0,34.91,3.6a1.452,1.452,0,0,0-.568-.117,1.348,1.348,0,0,0-.577.117,1.315,1.315,0,0,0-.451.315,1.472,1.472,0,0,0-.3.487,1.79,1.79,0,0,0,0,1.225,1.43,1.43,0,0,0,.3.478,1.451,1.451,0,0,0,.451.315A1.494,1.494,0,0,0,34.342,6.524Z" transform="translate(-32.27 -2.83)"/><path class="b" d="M37.46,5.012a2.4,2.4,0,0,1,.153-.847,2.049,2.049,0,0,1,.433-.694A1.994,1.994,0,0,1,38.713,3a2.049,2.049,0,0,1,.82-.162,1.518,1.518,0,0,1,.405.054,1.731,1.731,0,0,1,.378.144,1.626,1.626,0,0,1,.333.216,1.79,1.79,0,0,1,.261.261h.036V2.975H41.6V7.039h-.649V6.525H40.92a1.659,1.659,0,0,1-.595.469,1.732,1.732,0,0,1-.784.189,2.049,2.049,0,0,1-.82-.162,1.908,1.908,0,0,1-.667-.469,2.049,2.049,0,0,1-.433-.694A2.086,2.086,0,0,1,37.46,5.012Zm.658,0a1.65,1.65,0,0,0,.108.613,1.469,1.469,0,0,0,.288.478,1.451,1.451,0,0,0,.451.315,1.481,1.481,0,0,0,.568.108,1.449,1.449,0,0,0,.568-.108,1.315,1.315,0,0,0,.451-.315,1.526,1.526,0,0,0,.3-.478,1.684,1.684,0,0,0,.108-.613,1.635,1.635,0,0,0-.108-.6,1.472,1.472,0,0,0-.3-.487,1.315,1.315,0,0,0-.451-.315,1.486,1.486,0,0,0-.568-.117,1.348,1.348,0,0,0-1.307.919A1.635,1.635,0,0,0,38.118,5.012Z" transform="translate(-32.783 -2.831)"/><path class="b" d="M44.414,6.982,42.72,2.99h.721l1.334,3.154L46.108,2.99h.721L44.3,8.964h-.721Z" transform="translate(-33.304 -2.846)"/></g><g transform="translate(43.054 2.694)"><path class="b" d="M48.735,2.99l-.18.315-.009-.018-.171-.3H48.33v.5h.045V3.1l.18.306.18-.306v.387h.045v-.5Z" transform="translate(-47.834 -2.99)"/><path class="b" d="M47.78,3.035h.171v.451H48V3.035h.171V2.99H47.78Z" transform="translate(-47.78 -2.99)"/></g></g><g transform="translate(81.008 8474.988)"><path d="M10.9,9.92H3.485a.834.834,0,0,1-.833-.833V3.866a.832.832,0,0,1,.188-.528l-.865.231a.474.474,0,0,0-.336.58l.065.24.28-.051a.179.179,0,1,1,.063.352L1.8,4.736l.567,2.108a.18.18,0,0,1-.347.094l-.723-2.7a.823.823,0,0,1,.034-.531l-.739.426a.477.477,0,0,0-.173.649L.54,5,.81,4.859a.177.177,0,0,1,.24.074.18.18,0,0,1-.076.242l-.257.136L2.188,7.857a.18.18,0,1,1-.311.181L.1,4.966A.833.833,0,0,1,.409,3.828L6.828.124a.834.834,0,0,1,1.138.3L8.185.8A.184.184,0,0,1,8.208.9a.179.179,0,0,1-.094.161l-.575.311a.179.179,0,0,1-.17-.314L7.786.83,7.657.606A.477.477,0,0,0,7.009.433L2.42,3.08,9.049,1.311a.834.834,0,0,1,1.021.587l.114.421a.121.121,0,0,1,.005.051.18.18,0,0,1-.139.179l-1.015.235a.179.179,0,1,1-.081-.349l.835-.193-.067-.248a.476.476,0,0,0-.582-.334L3.982,3.036H10.9a.835.835,0,0,1,.835.831V9.091A.834.834,0,0,1,10.9,9.92Zm-7.892-4.9V9.087a.474.474,0,0,0,.475.473h7.419a.475.475,0,0,0,.475-.473V5.017Zm0-.358h8.367V3.866a.475.475,0,0,0-.475-.473H3.485a.475.475,0,0,0-.475.473v.793Z" transform="translate(0 0)"/><g transform="translate(14.818 3.949)"><path d="M84.491,26.971l-.137-.388a1.054,1.054,0,0,1-.988.5,1.261,1.261,0,0,1-1.315-1.391v-2.51A1.313,1.313,0,0,1,83.465,21.8a1.231,1.231,0,0,1,1.353,1.384v.3h-.685V23.1a.619.619,0,0,0-.668-.661.649.649,0,0,0-.692.678v2.647a.7.7,0,0,0,1.391,0v-.782h-.678v-.609h1.36v2.6h-.356Z" transform="translate(-82.05 -21.8)"/><path d="M101.845,27.454l-.266-1.239h-1.095l-.266,1.239h-.7l1.147-5.064h.761l1.149,5.064Zm-.813-3.932-.419,2.076h.837Z" transform="translate(-96.364 -22.283)"/><path d="M121.77,27.507c-.571,0-.768-.159-.768-.685v-.988c0-.351-.159-.585-.524-.585h-.715v2.2h-.723V22.39h1.467c.822,0,1.187.41,1.187,1.133v.555c0,.5-.168.791-.654.889a.82.82,0,0,1,.678.882v.92c0,.137.061.2.213.2v.54h-.161Zm-.8-4c0-.289-.121-.5-.464-.5h-.744V24.7h.668c.351,0,.54-.2.54-.578Z" transform="translate(-112.357 -22.283)"/><path d="M141.145,27.454V23.508l-.206.965-.692,2.981h-.706l-.678-2.981-.213-.965v3.946h-.64V22.39h1l.692,3.164.206.965.206-.974.678-3.155h1v5.064h-.654Z" transform="translate(-127.899 -22.283)"/><path d="M163.53,27.454V22.39h.723v5.064Z" transform="translate(-148.808 -22.283)"/><path d="M174.345,27.454l-1.254-2.464-.426-.889v3.353h-.685V22.39h.585l1.2,2.51.4.889v-3.4h.685v5.064Z" transform="translate(-155.732 -22.283)"/><path d="M200.759,25.424h-.753v2.031h-.715V22.39h1.467a1.049,1.049,0,0,1,1.185,1.171v.7A1.046,1.046,0,0,1,200.759,25.424Zm.464-1.886c0-.334-.121-.524-.455-.524h-.761v1.794h.761c.334,0,.455-.2.455-.524Z" transform="translate(-178.107 -22.283)"/><path d="M215.815,27.454l-.266-1.239h-1.095l-.266,1.239h-.7l1.147-5.064h.761l1.147,5.064ZM215,23.523l-.417,2.076h.837Z" transform="translate(-189.742 -22.283)"/><path d="M230.69,25.416v2.038h-.715V25.416L228.75,22.39h.775l.829,2.334.829-2.334h.723Z" transform="translate(-202.245 -22.283)"/><path d="M247.511,22.354v.567h-.134v-.567h-.2V22.24h.526v.114Zm.885.569V22.37l-.049.192-.114.361h-.121l-.11-.361-.049-.192v.553h-.121v-.681h.183l.116.379.043.179.049-.179.108-.379h.188v.681Z" transform="translate(-217.345 -22.161)"/></g></g></g></svg>