<svg xmlns="http://www.w3.org/2000/svg" viewBox="0 0 50 50"><defs><style>.a,.c{fill:none;}.b{fill:#fff;}.b,.c{stroke:#5b6670;stroke-linecap:round;stroke-miterlimit:10;}.c{opacity:0.3;}.d{fill:#5b6670;opacity:0.31;}</style></defs><g transform="translate(-80 -8053)"><path class="a" d="M0,0H50V50H0Z" transform="translate(80 8053)"/><g transform="translate(84.5 8059.5)"><path class="b" d="M38.449,38.306H2.551A2.063,2.063,0,0,1,.5,36.242V10.054A2.063,2.063,0,0,1,2.551,7.99h35.9A2.063,2.063,0,0,1,40.5,10.054V36.242A2.05,2.05,0,0,1,38.449,38.306Z" transform="translate(0 0)"/><path class="b" d="M25.96.5H14.05a2.006,2.006,0,0,0-2,2V7.99H27.96V2.5A2,2,0,0,0,25.96.5Z" transform="translate(0.495)"/><line class="c" y2="29.38" transform="translate(8.703 8.926)"/><line class="c" y2="29.38" transform="translate(32.9 8.926)"/><path class="d" d="M25.82,15.27h0c-.52-.4-2.01.65-2.5,1.26l-.82.89c-.43.51-.73.86-1.14,1.39l-6.47-.29a.493.493,0,0,0-.36.12l-1.13.96,5.86,2.04a32.457,32.457,0,0,0-2.72,4.4l-1.96-.24a.389.389,0,0,0-.29.09l-.75.68,2.63,1.16,1.79,2.25.47-.9a.389.389,0,0,0,.02-.3l-.71-1.8a33.7,33.7,0,0,0,3.58-3.76l3.46,5.16.64-1.32a.5.5,0,0,0,.02-.38l-1.92-6.19c.41-.53.68-.92,1.06-1.47l.65-1.01C25.7,17.38,26.33,15.67,25.82,15.27Z" transform="translate(0.484 0.622)"/></g></g></svg>