<svg xmlns="http://www.w3.org/2000/svg" xmlns:xlink="http://www.w3.org/1999/xlink" width="250" height="195.367" viewBox="0 0 250 195.367">
  <defs>
    <linearGradient id="linear-gradient" x1="0.5" x2="0.5" y2="1" gradientUnits="objectBoundingBox">
      <stop offset="0" stop-color="#d9a286"/>
      <stop offset="0.611" stop-color="#ce8e6e"/>
      <stop offset="1" stop-color="#ba6942"/>
    </linearGradient>
    <linearGradient id="linear-gradient-4" x1="0.5" x2="0.5" y2="1" gradientUnits="objectBoundingBox">
      <stop offset="0" stop-color="#ca8665"/>
      <stop offset="1" stop-color="#ca8665"/>
    </linearGradient>
  </defs>
  <g id="Group_3840" data-name="Group 3840" transform="translate(-558 -1209.633)">
    <rect id="Rectangle_3039" data-name="Rectangle 3039" width="70" height="70" transform="translate(558 1335)" fill="rgba(27,13,12,0)"/>
    <g id="Group_3561" data-name="Group 3561" transform="translate(27.297 63.205)">
      <g id="Group_3560" data-name="Group 3560" transform="translate(535.703 1276.795)">
        <g id="Group_3559" data-name="Group 3559" transform="translate(0)">
          <path id="Path_1688" data-name="Path 1688" d="M59.052,62H4.948A2.948,2.948,0,0,1,2,59.055V4.948A2.951,2.951,0,0,1,4.948,2h54.1A2.948,2.948,0,0,1,62,4.948v54.1A2.947,2.947,0,0,1,59.052,62Z" transform="translate(-2 -2)" fill="url(#linear-gradient)"/>
          <g id="Group_3569" data-name="Group 3569" transform="translate(2.492 1.556)">
            <g id="Group_3568" data-name="Group 3568" transform="translate(11.2 7.7)">
              <path id="Path_2068" data-name="Path 2068" d="M20.764,48.759a1.583,1.583,0,0,1-.53,1.256,2.547,2.547,0,0,1-3.443,0,1.583,1.583,0,0,1-.53-1.256l.754-22a1.524,1.524,0,0,1,1.5-1.508h0a1.53,1.53,0,0,1,1.5,1.508Z" transform="translate(-11.551 -8.917)" fill="#fff" stroke="#fff" stroke-linecap="round" stroke-linejoin="round" stroke-miterlimit="10" stroke-width="1"/>
              <g id="Group_3566" data-name="Group 3566" transform="translate(0 0.335)">
                <path id="Path_2069" data-name="Path 2069" d="M18.161,8.06c-3.844,0-6.961,3.816-6.961,8.534s3.118,8.534,6.961,8.534,6.961-3.816,6.961-8.534S22.005,8.06,18.161,8.06Zm-.233,14.909c-2.708,0-4.914-2.615-4.914-5.826a.856.856,0,0,1,1.712,0c0,2.271,1.433,4.114,3.2,4.114a.856.856,0,1,1,0,1.712Z" transform="translate(-11.2 -8.06)" fill="#fff" stroke="#fff" stroke-linecap="round" stroke-linejoin="round" stroke-miterlimit="10" stroke-width="0.75"/>
              </g>
              <path id="Path_2070" data-name="Path 2070" d="M41.484,48.759a1.583,1.583,0,0,1-.53,1.256,2.547,2.547,0,0,1-3.443,0,1.583,1.583,0,0,1-.53-1.256l.754-22a1.524,1.524,0,0,1,1.5-1.508h0a1.53,1.53,0,0,1,1.5,1.508Z" transform="translate(-12.987 -8.917)" fill="#fff" stroke="#fff" stroke-linecap="round" stroke-linejoin="round" stroke-miterlimit="10" stroke-width="1"/>
              <g id="Group_3567" data-name="Group 3567" transform="translate(20.473)">
                <path id="Path_2071" data-name="Path 2071" d="M44.507,12.2c-.037-1.48-.149-2.783-1.107-3.6-.289-.251-.447,0-.447.419v9.66a.482.482,0,0,1-.447.512H41.371a.482.482,0,0,1-.447-.512V8.212a.481.481,0,0,0-.437-.512h.065a.482.482,0,0,0-.447.512v10.47a.482.482,0,0,1-.447.512h-1.4a.482.482,0,0,1-.447-.512V8.212a.482.482,0,0,0-.447-.512H37.36a.475.475,0,0,0-.437.512v10.47a.482.482,0,0,1-.447.512H35.34a.482.482,0,0,1-.447-.512v-9.6c0-.428-.168-.67-.465-.409-.912.828-.977,2.094-1.014,3.527L33.2,21.018a2.95,2.95,0,0,0,.093.856,4.284,4.284,0,0,0,.465,1.154c1.2,2.038,3.76,2.057,5.147,2.066,1.368.009,4.039.028,5.277-2.066a4.138,4.138,0,0,0,.456-1.135,3.077,3.077,0,0,0,.093-.875Z" transform="translate(-33.198 -7.7)" fill="#fff" stroke="#fff" stroke-linecap="round" stroke-linejoin="round" stroke-miterlimit="10" stroke-width="0.75"/>
              </g>
            </g>
          </g>
        </g>
      </g>
    </g>
    <rect id="Rectangle_3039-2" data-name="Rectangle 3039" width="70" height="70" transform="translate(648 1335)" fill="rgba(27,13,12,0)"/>
    <g id="Group_3561-2" data-name="Group 3561" transform="translate(117.297 63.205)">
      <g id="Group_3560-2" data-name="Group 3560" transform="translate(535.703 1276.795)">
        <g id="Group_3559-2" data-name="Group 3559" transform="translate(0)">
          <path id="Path_1688-2" data-name="Path 1688" d="M59.052,62H4.948A2.948,2.948,0,0,1,2,59.055V4.948A2.951,2.951,0,0,1,4.948,2h54.1A2.948,2.948,0,0,1,62,4.948v54.1A2.947,2.947,0,0,1,59.052,62Z" transform="translate(-2 -2)" fill="url(#linear-gradient)"/>
          <g id="Group_3573" data-name="Group 3573" transform="translate(11.893 7.941)">
            <path id="Path_2072" data-name="Path 2072" d="M8.52,12.1C8.52,5.969,12.138,1,16.6,1s8.07,4.969,8.07,11.1" transform="translate(1.401)" fill="none" stroke="#fff" stroke-miterlimit="10" stroke-width="2"/>
            <g id="Group_3572" data-name="Group 3572" transform="translate(0.5 11.818)">
              <path id="Path_2073" data-name="Path 2073" d="M33.39,10.21H2.7L.5,40.539H35.574ZM9.921,16.13a1.656,1.656,0,1,1,1.656-1.656A1.654,1.654,0,0,1,9.921,16.13Zm16.151,0a1.656,1.656,0,1,1,1.656-1.656A1.654,1.654,0,0,1,26.072,16.13Z" transform="translate(-0.5 -10.21)" fill="#fff" stroke="#fff" stroke-linecap="round" stroke-linejoin="round" stroke-miterlimit="10" stroke-width="1"/>
            </g>
          </g>
        </g>
      </g>
    </g>
    <rect id="Rectangle_3039-3" data-name="Rectangle 3039" width="70" height="70" transform="translate(738 1335)" fill="rgba(27,13,12,0)"/>
    <g id="Group_3561-3" data-name="Group 3561" transform="translate(207.297 63.205)">
      <g id="Group_3560-3" data-name="Group 3560" transform="translate(535.703 1276.795)">
        <g id="Group_3559-3" data-name="Group 3559" transform="translate(0)">
          <path id="Path_1688-3" data-name="Path 1688" d="M59.052,62H4.948A2.948,2.948,0,0,1,2,59.055V4.948A2.951,2.951,0,0,1,4.948,2h54.1A2.948,2.948,0,0,1,62,4.948v54.1A2.947,2.947,0,0,1,59.052,62Z" transform="translate(-2 -2)" fill="url(#linear-gradient)"/>
          <path id="Path_2074" data-name="Path 2074" d="M35.57.882h0C34.34-.348,30.238,1.908,28.8,3.138L26.341,5.189C25.111,6.42,24.085,7.24,23.06,8.266L6.653,5.6A.9.9,0,0,0,5.627,5.8L2.551,7.855l14.356,7.178A84.582,84.582,0,0,0,8.5,25.288L3.371,24.057a1.233,1.233,0,0,0-.82.205L.5,25.7l6.358,3.9,3.9,6.358L12.19,33.9c.205-.205.205-.41.205-.82l-1.231-4.922c3.076-1.846,6.973-5.332,10.459-8.409L28.8,34.107l2.051-3.076A1.537,1.537,0,0,0,31.058,30L28.187,13.6c1.231-1.231,2.051-2.051,3.281-3.486L33.519,7.65C34.545,6.215,36.8,1.908,35.57.882Z" transform="translate(12.233 11.887)" fill="#fff" stroke="#fff" stroke-linejoin="round" stroke-miterlimit="10" stroke-width="1"/>
        </g>
      </g>
    </g>
    <g id="Group_3838" data-name="Group 3838" transform="translate(687.982 1209.634)">
      <path id="Path_2141" data-name="Path 2141" d="M835.9,523.635a5.494,5.494,0,0,1-1.644-3.543,5.025,5.025,0,0,1,4.935-4.935,5.2,5.2,0,0,1,3.669,1.518c6.453,7.34,14.046,11.262,24.043,11.262,10.757,0,19.36-6.833,19.36-17.209v-.253c0-11.009-10.248-17.083-24.8-17.083H858.3a4.377,4.377,0,0,1-4.429-4.3,5.649,5.649,0,0,1,2.025-3.922l25.814-29.231H842.482a4.54,4.54,0,0,1-4.682-4.428,4.646,4.646,0,0,1,4.682-4.556H890.82c2.783,0,4.808,1.772,4.808,4.3,0,2.025-1.013,3.417-2.4,4.935l-26.068,28.978c15.438,1.265,29.231,8.731,29.231,24.928v.254c0,15.816-13.161,26.7-29.61,26.7C853.238,537.048,842.988,531.606,835.9,523.635Z" transform="translate(-834.257 -446.952)" fill="url(#linear-gradient-4)"/>
    </g>
    <g id="Group_3839" data-name="Group 3839" transform="translate(616.453 1230.368)">
      <path id="Path_2142" data-name="Path 2142" d="M765.666,529.212l22.518-28.582L766.82,473.686a4.642,4.642,0,0,1-1.251-2.887,3.738,3.738,0,0,1,3.753-3.657c1.54,0,2.406.769,3.369,1.925L793,495.434l20.016-26.079c1.059-1.251,2.021-2.213,3.657-2.213a3.533,3.533,0,0,1,3.464,3.561,4.136,4.136,0,0,1-1.058,2.694l-21.46,27.138,22.229,28.389a4.129,4.129,0,0,1,1.251,2.79,3.758,3.758,0,0,1-3.753,3.754c-1.539,0-2.406-.77-3.368-1.926l-21.268-27.619-20.978,27.331c-1.059,1.25-2.021,2.213-3.753,2.213a3.518,3.518,0,0,1-3.369-3.56A4.132,4.132,0,0,1,765.666,529.212Z" transform="translate(-764.607 -467.142)" fill="url(#linear-gradient-4)"/>
    </g>
  </g>
</svg>
