<svg xmlns="http://www.w3.org/2000/svg" width="110" height="42" viewBox="0 0 110 42">
  <g id="ico-gateway-mastercard" transform="translate(-949 -916)">
    <rect id="Rectangle_3269" data-name="Rectangle 3269" width="110" height="42" transform="translate(949 916)" fill="rgba(255,255,255,0)"/>
    <g id="Group_4022" data-name="Group 4022" transform="translate(947.875 913.652)">
      <g id="Group_4019" data-name="Group 4019" transform="translate(7.622 5.756)">
        <g id="Group_4018" data-name="Group 4018" transform="translate(92.453 11.794)">
          <path id="Path_2431" data-name="Path 2431" d="M338.787,49.754A1.854,1.854,0,1,1,340.64,51.7a1.9,1.9,0,0,1-1.853-1.949Zm1.853,1.487a1.484,1.484,0,1,0-1.414-1.487,1.455,1.455,0,0,0,1.414,1.487Zm-.252-.634h-.379V48.892h.688a.708.708,0,0,1,.417.095.533.533,0,0,1,.207.431.456.456,0,0,1-.28.432l.3.757h-.422l-.251-.672h-.278v.672Zm0-.964h.211a.474.474,0,0,0,.233-.036.237.237,0,0,0,.093-.2.209.209,0,0,0-.093-.172.492.492,0,0,0-.237-.03h-.207v.436Z" transform="translate(-338.787 -47.807)" fill="#ec2127" fill-rule="evenodd"/>
        </g>
        <path id="Path_2432" data-name="Path 2432" d="M217.651,6.549l-.508,3.3a5.665,5.665,0,0,0-2.776-.816c-2.308,0-3.94,2.346-3.94,5.7,0,2.314,1.1,3.708,2.9,3.708a5.722,5.722,0,0,0,2.634-.784l-.542,3.475a9.194,9.194,0,0,1-2.74.444c-3.343,0-5.423-2.522-5.423-6.57,0-5.445,2.873-9.247,6.983-9.247a5.11,5.11,0,0,1,1.391.164l1.278.335c.38.151.466.174.745.294Z" transform="translate(-151.693 -5.756)" fill="#ec2127" fill-rule="evenodd"/>
        <path id="Path_2433" data-name="Path 2433" d="M188.9,16.57a1.7,1.7,0,0,0-.317-.032c-1.021,0-1.6.54-2.548,2.015l.275-1.881H183.5L181.6,29.05h3.115c1.114-7.565,1.4-8.872,2.893-8.872a1.6,1.6,0,0,1,.227.013,12.326,12.326,0,0,1,1.173-3.588l-.106-.033Z" transform="translate(-133.233 -13.514)" fill="#ec2127" fill-rule="evenodd"/>
        <path id="Path_2434" data-name="Path 2434" d="M129.47,24.531a6.766,6.766,0,0,1-2.224.408c-1.582,0-2.447-.964-2.447-2.723a7.058,7.058,0,0,1,.088-1.11l.192-1.207.142-.986,1.345-8.446h3.082L129.3,12.3h1.586l-.436,3.009h-1.582l-.819,5.166c-.028.228-.052.4-.052.513,0,.634.323.917,1.056.917a2.393,2.393,0,0,0,.834-.116l-.413,2.738Z" transform="translate(-92.364 -9.146)" fill="#ec2127" fill-rule="evenodd"/>
        <path id="Path_2435" data-name="Path 2435" d="M94.854,20.237a3.6,3.6,0,0,0,2.35,3.45c1.248.621,1.446.8,1.446,1.365,0,.769-.554,1.125-1.774,1.125a8.208,8.208,0,0,1-2.772-.5l-.429,2.855.14.03.569.121c.183.039.453.074.808.112.739.069,1.306.1,1.707.1,3.252,0,4.757-1.313,4.757-4.132a3.392,3.392,0,0,0-2.177-3.446c-1.293-.616-1.44-.761-1.44-1.336,0-.671.513-1.016,1.509-1.016a16.971,16.971,0,0,1,2.218.184l.442-2.858a19.355,19.355,0,0,0-2.72-.244c-3.451,0-4.647,1.9-4.635,4.184Z" transform="translate(-69.969 -13.165)" fill="#ec2127" fill-rule="evenodd"/>
        <path id="Path_2436" data-name="Path 2436" d="M308.259,22.1h-2.934l.154-1.213a3.6,3.6,0,0,1-2.865,1.376c-2.268,0-3.754-2.043-3.754-5.138,0-4.117,2.309-7.593,5.051-7.593a3.492,3.492,0,0,1,2.974,1.695l.675-4.348h3.056L308.259,22.1Zm-4.576-2.914c1.449,0,2.461-1.72,2.461-4.17,0-1.573-.578-2.43-1.649-2.43-1.4,0-2.4,1.727-2.4,4.163,0,1.621.537,2.437,1.591,2.437Z" transform="translate(-217.605 -6.563)" fill="#ec2127" fill-rule="evenodd"/>
        <path id="Path_2437" data-name="Path 2437" d="M154.791,28.337a10.266,10.266,0,0,1-3.186.5c-3.457,0-5.264-1.9-5.264-5.541,0-4.254,2.3-7.385,5.421-7.385,2.548,0,4.184,1.755,4.184,4.505a13.617,13.617,0,0,1-.386,3.053H149.4a2.463,2.463,0,0,0-.03.384c0,1.447.922,2.175,2.726,2.175a6.992,6.992,0,0,0,3.216-.787l-.517,3.1Zm-1.74-7.371c.018-.259.022-.47.022-.626a1.409,1.409,0,0,0-1.468-1.6c-.983,0-1.688.789-1.977,2.22l3.423.008Z" transform="translate(-107.864 -13.061)" fill="#ec2127" fill-rule="evenodd"/>
        <path id="Path_2438" data-name="Path 2438" d="M21.591,22.1h-3.1l1.774-11.7L16.3,22.1H14.181L13.924,10.47,12.055,22.1h-2.9l2.42-15.222h4.464l.123,9.419,3.013-9.419h4.818Z" transform="translate(-9.154 -6.562)" fill="#ec2127" fill-rule="evenodd"/>
        <path id="Path_2439" data-name="Path 2439" d="M65.687,23.166a5.184,5.184,0,0,0-.694-.053c-1.757,0-2.647.639-2.647,1.89a1.117,1.117,0,0,0,1.114,1.262c1.261,0,2.175-1.262,2.227-3.1Zm2.255,5.514H65.374l.056-1.285a3.784,3.784,0,0,1-3.248,1.5c-1.686,0-2.836-1.379-2.836-3.372,0-3.022,2.011-4.776,5.449-4.776a9.424,9.424,0,0,1,1.261.092,3.2,3.2,0,0,0,.123-.8c0-.818-.539-1.128-1.992-1.128a9.314,9.314,0,0,0-2.578.354l-.431.125-.271.08.427-2.776a11.759,11.759,0,0,1,3.716-.666c2.664,0,4.076,1.257,4.076,3.629a14.713,14.713,0,0,1-.256,2.456l-.649,4.386-.106.792-.08.631-.054.431-.039.332Z" transform="translate(-45.268 -13.143)" fill="#ec2127" fill-rule="evenodd"/>
        <path id="Path_2440" data-name="Path 2440" d="M247.089,23.166a5.118,5.118,0,0,0-.689-.053c-1.764,0-2.657.639-2.657,1.89a1.121,1.121,0,0,0,1.119,1.262c1.267,0,2.171-1.262,2.226-3.1Zm2.257,5.514h-2.571l.06-1.285a3.785,3.785,0,0,1-3.248,1.5c-1.686,0-2.841-1.379-2.841-3.372,0-3.022,2.009-4.776,5.454-4.776a9.4,9.4,0,0,1,1.26.092,3.284,3.284,0,0,0,.123-.8c0-.818-.538-1.128-1.991-1.128a9.229,9.229,0,0,0-2.574.354l-.441.125-.268.08.431-2.776a11.76,11.76,0,0,1,3.708-.666c2.668,0,4.08,1.257,4.08,3.629a15.877,15.877,0,0,1-.254,2.456l-.654,4.386-.1.792-.087.631-.057.431-.034.332Z" transform="translate(-175.791 -13.143)" fill="#ec2127" fill-rule="evenodd"/>
        <path id="Path_2441" data-name="Path 2441" d="M283.589,16.57a1.547,1.547,0,0,0-.312-.032c-1.018,0-1.6.54-2.553,2.015L281,16.672h-2.8L276.3,29.05h3.1c1.115-7.565,1.408-8.872,2.891-8.872a.8.8,0,0,1,.217.013,12.461,12.461,0,0,1,1.181-3.588l-.105-.033Z" transform="translate(-201.373 -13.514)" fill="#ec2127" fill-rule="evenodd"/>
      </g>
      <g id="Group_4021" data-name="Group 4021" transform="translate(7.025 24.659)">
        <path id="Path_2442" data-name="Path 2442" d="M238.245,89.853c0,2.806-.869,4.458-2.238,4.458-1,.031-1.606-1.083-1.606-2.749,0-1.971.885-4.2,2.306-4.2,1.142,0,1.537,1.211,1.537,2.5Zm3.049.052c0-3.119-1.541-5.547-4.438-5.547-3.335,0-5.494,2.952-5.494,7.3,0,3.112,1.276,5.656,4.434,5.656,3.186,0,5.5-2.256,5.5-7.407Z" transform="translate(-168.441 -81.215)" fill="#f89620" fill-rule="evenodd"/>
        <path id="Path_2443" data-name="Path 2443" d="M209.993,74.506l-.474,3.3a5.086,5.086,0,0,0-2.591-.823c-2.166,0-3.68,2.356-3.68,5.706,0,2.313,1.013,3.712,2.7,3.712a5.059,5.059,0,0,0,2.463-.785l-.5,3.473a8.1,8.1,0,0,1-2.567.443c-3.121,0-5.065-2.523-5.065-6.571,0-5.447,2.683-9.249,6.527-9.249a4.935,4.935,0,0,1,1.3.164l1.186.337c.366.145.442.171.7.3Z" transform="translate(-146.076 -73.553)" fill="#f89620" fill-rule="evenodd"/>
        <path id="Path_2444" data-name="Path 2444" d="M149.1,84.544a1.135,1.135,0,0,0-.3-.034c-.94,0-1.492.543-2.373,2.012l.256-1.878h-2.622l-1.77,12.38h2.895c1.041-7.573,1.317-8.876,2.705-8.876a1.285,1.285,0,0,1,.211.014,13.052,13.052,0,0,1,1.1-3.6l-.105-.021Z" transform="translate(-104.357 -81.325)" fill="#f89620" fill-rule="evenodd"/>
        <path id="Path_2445" data-name="Path 2445" d="M278.868,89.616h-2.735l.141-1.208a3.3,3.3,0,0,1-2.682,1.375c-2.109,0-3.5-2.047-3.5-5.141,0-4.11,2.162-7.6,4.718-7.6a3.212,3.212,0,0,1,2.774,1.706l.639-4.353h2.85l-2.2,15.218Zm-4.28-2.912c1.364,0,2.3-1.719,2.3-4.171,0-1.578-.537-2.425-1.533-2.425-1.317,0-2.252,1.721-2.252,4.164,0,1.613.5,2.431,1.481,2.431Z" transform="translate(-196.307 -74.049)" fill="#f89620" fill-rule="evenodd"/>
        <path id="Path_2446" data-name="Path 2446" d="M49.534,96.608a8.91,8.91,0,0,1-2.966.5c-3.233,0-4.921-1.907-4.921-5.544,0-4.248,2.147-7.382,5.061-7.382,2.386,0,3.908,1.752,3.908,4.5a15.176,15.176,0,0,1-.351,3.055h-5.77a3.839,3.839,0,0,0-.024.385c0,1.443.864,2.171,2.544,2.171a6.227,6.227,0,0,0,3.007-.784l-.487,3.092Zm-1.619-7.365c.013-.262.022-.47.022-.629,0-1.009-.508-1.6-1.369-1.6-.925,0-1.582.795-1.847,2.216l3.194.013Z" transform="translate(-31.936 -81.092)" fill="#f89620" fill-rule="evenodd"/>
        <path id="Path_2447" data-name="Path 2447" d="M172.309,96.608a8.947,8.947,0,0,1-2.967.5c-3.24,0-4.925-1.907-4.925-5.544,0-4.248,2.149-7.382,5.061-7.382,2.387,0,3.913,1.752,3.913,4.5a14.691,14.691,0,0,1-.364,3.055h-5.758c-.018.185-.028.277-.028.385,0,1.443.862,2.171,2.541,2.171a6.239,6.239,0,0,0,3.01-.784l-.483,3.092Zm-1.628-7.365c.019-.262.03-.47.03-.629,0-1.009-.513-1.6-1.369-1.6-.925,0-1.582.795-1.849,2.216l3.189.013Z" transform="translate(-120.273 -81.092)" fill="#f89620" fill-rule="evenodd"/>
        <path id="Path_2448" data-name="Path 2448" d="M316.346,96.608a9.014,9.014,0,0,1-2.975.5c-3.233,0-4.925-1.907-4.925-5.544,0-4.248,2.153-7.382,5.065-7.382,2.386,0,3.906,1.752,3.906,4.5a14.593,14.593,0,0,1-.356,3.055H311.3a3.163,3.163,0,0,0-.024.385c0,1.443.865,2.171,2.544,2.171a6.238,6.238,0,0,0,3.009-.784l-.481,3.092Zm-1.628-7.365c.013-.262.021-.47.021-.629,0-1.009-.506-1.6-1.368-1.6-.925,0-1.58.795-1.848,2.216l3.195.013Z" transform="translate(-223.905 -81.092)" fill="#f89620" fill-rule="evenodd"/>
        <path id="Path_2449" data-name="Path 2449" d="M16.052,76.932a4.2,4.2,0,0,0-2.419-.71c-1.17,0-2.112.243-2.112,1.488,0,2.2,4.268,1.378,4.268,6.087,0,4.29-2.817,5.4-5.365,5.4a9.012,9.012,0,0,1-3.4-.8l.692-3.152a4.483,4.483,0,0,0,2.707.888c.912,0,2.341-.249,2.341-1.84,0-2.492-4.265-1.565-4.265-5.939,0-4,2.492-5.2,4.9-5.2a6.535,6.535,0,0,1,3.371.694l-.714,3.085Z" transform="translate(-7.025 -73.153)" fill="#f89620" fill-rule="evenodd"/>
        <path id="Path_2450" data-name="Path 2450" d="M82.877,96.7a5.822,5.822,0,0,1-2.571.476c-2.53,0-4.1-2.529-4.1-5.609,0-4.03,2.27-7.245,5.611-7.245a6.111,6.111,0,0,1,2.718.824l-.64,2.956a3.554,3.554,0,0,0-1.933-.668c-1.548,0-2.654,1.419-2.654,3.961,0,1.464.8,2.664,2.069,2.664a3.485,3.485,0,0,0,1.934-.539L82.877,96.7Z" transform="translate(-56.803 -81.193)" fill="#f89620" fill-rule="evenodd"/>
        <path id="Path_2451" data-name="Path 2451" d="M115.511,94.132c-.149,1.065-.287,2.1-.369,3.21h-2.787l.235-2h-.028c-.873,1.36-1.776,2.286-3.354,2.286-1.75,0-2.7-1.841-2.7-4.246a15.615,15.615,0,0,1,.237-2.591l.789-5.73h3.1l-.832,5.746a13.709,13.709,0,0,0-.2,1.868c0,.724.33,1.457,1.166,1.412,1.271,0,2.022-1.555,2.235-3.37l.856-5.657h3l-1.351,9.072Z" transform="translate(-78.607 -81.72)" fill="#f89620" fill-rule="evenodd"/>
        <g id="Group_4020" data-name="Group 4020" transform="translate(94.183 12.979)">
          <path id="Path_2452" data-name="Path 2452" d="M343.971,121.922H343.5v-2.053h-.678v-.44h1.825v.44h-.678Z" transform="translate(-342.824 -119.429)" fill="#f89620" fill-rule="evenodd"/>
          <path id="Path_2453" data-name="Path 2453" d="M352.421,121.922h-.438v-2.084h-.006l-.419,2.084H351.1l-.409-2.084h-.006v2.084h-.437v-2.493h.684l.407,1.965h.006l.4-1.965h.678Z" transform="translate(-348.164 -119.429)" fill="#f89620" fill-rule="evenodd"/>
        </g>
      </g>
    </g>
  </g>
</svg>
