<svg xmlns="http://www.w3.org/2000/svg" width="72" height="42" viewBox="0 0 72 42">
  <g id="ico-gateway-jcb" transform="translate(-1101 -916)">
    <rect id="Rectangle_3271" data-name="Rectangle 3271" width="72" height="42" transform="translate(1101 916)" fill="rgba(255,255,255,0)"/>
    <g id="Group_4024" data-name="Group 4024" transform="translate(1092.655 803.617)">
      <g id="Group_4023" data-name="Group 4023" transform="translate(12.13 133.834)">
        <path id="Path_2455" data-name="Path 2455" d="M75.37,255.45v13.93a1.267,1.267,0,0,1-1.265,1.265H14.886a1.267,1.267,0,0,1-1.265-1.265V255.45H75.37m1.49-1.49H12.13v15.42a2.756,2.756,0,0,0,2.756,2.756h59.22a2.756,2.756,0,0,0,2.756-2.756V253.96Z" transform="translate(-12.13 -253.96)" fill="#429dd5"/>
      </g>
      <path id="Path_2456" data-name="Path 2456" d="M322.98,155.88v3.307h2.663a1.72,1.72,0,0,0,1.721-1.721h0a1.585,1.585,0,0,0-1.585-1.585h-2.8Z" transform="translate(-268.737 -35.333)" fill="#103b8a" opacity="0.34"/>
      <path id="Path_2457" data-name="Path 2457" d="M76.861,135.559H12.13V117.766a2.756,2.756,0,0,1,2.756-2.756h59.22a2.756,2.756,0,0,1,2.756,2.756Z" fill="#103b8a"/>
      <path id="Path_2458" data-name="Path 2458" d="M139.309,142.372c-.037.089-.034.065-.023.06.15-.075.3-.141.451-.219a3.2,3.2,0,0,0,1.918-2.827,3.251,3.251,0,0,0-1.838-3.189,4.271,4.271,0,0,0-1.716-.551c-2.332-.083-4.666-.07-7-.092-.027,0-.056.033-.084.051V150.01c.117.009.2.022.28.022,1.912.007,3.824.042,5.736.008a7.063,7.063,0,0,0,3.743-1.081,3.43,3.43,0,0,0,.5-5.315A14.185,14.185,0,0,0,139.309,142.372Zm-10.172,2.947c-.97,0-1.914,0-2.859,0-.115,0-.229.022-.352.034-.015.085-.028.15-.037.215a2.5,2.5,0,0,1-2.256,2.46c-1.324.156-2.147-.4-2.7-1.851a9.154,9.154,0,0,1-.55-3.326,8.357,8.357,0,0,1,.832-4.072,2.172,2.172,0,0,1,2.271-1.282,2.481,2.481,0,0,1,2.327,1.989c.049.228.077.459.115.69h3.265a4.566,4.566,0,0,0-2.306-4.113,7.018,7.018,0,0,0-2.753-.786c-2.71-.313-5.262.645-6.37,3.528a10.814,10.814,0,0,0,.041,8.057,5.1,5.1,0,0,0,3.684,3.264,7.88,7.88,0,0,0,4.921-.4A4.409,4.409,0,0,0,129.137,145.319Zm-21.7.088h-2.9a4.624,4.624,0,0,0,3.032,4.5,7.287,7.287,0,0,0,3.8.313,4.593,4.593,0,0,0,2.345-1.122,4.882,4.882,0,0,0,1.517-3.736c.03-3.13.009-6.26.008-9.39,0-.13-.015-.26-.023-.4h-3.1v.627c0,2.842.012,5.685-.009,8.527a9.335,9.335,0,0,1-.211,1.806,1.743,1.743,0,0,1-1.406,1.486,1.939,1.939,0,0,1-2.077-.745A14.785,14.785,0,0,1,107.438,145.407Z" transform="translate(-79.891 -17.474)"/>
      <path id="Path_2459" data-name="Path 2459" d="M80.192,288.4v.585q0,2.03,0,4.062a1.141,1.141,0,1,1-2.267,0c0-1.371,0-2.742,0-4.112,0-.178-.023-.354-.034-.523H75.651c0,1.618.007,3.19,0,4.763a1.752,1.752,0,0,0,1,1.745,6.11,6.11,0,0,0,1.851.382,1.475,1.475,0,0,0,1.679-.671c.019.28.031.462.043.65h2.2V288.4Zm-12.61,3.944c0-.669.009-1.26,0-1.851a2,2,0,0,0-1.794-2.05,18.579,18.579,0,0,0-3.237,0,1.963,1.963,0,0,0-1.754,2.07q0,1.345,0,2.689a1.946,1.946,0,0,0,1.745,2.021,21.428,21.428,0,0,0,3.388,0,1.769,1.769,0,0,0,1.58-1.875,2.889,2.889,0,0,0-.289-.033c-.251,0-.5,0-.74,0-.221.769-.469.979-1.157,1-.237.008-.474-.013-.71,0-1.2.089-1.824-.532-1.489-1.978Zm29.707.007c0-.667,0-1.257,0-1.848a1.968,1.968,0,0,0-1.769-2.058,19.124,19.124,0,0,0-3.188-.005,1.969,1.969,0,0,0-1.8,2.076q-.008,1.345,0,2.689a1.935,1.935,0,0,0,1.784,2.035,21.963,21.963,0,0,0,3.338-.011,1.755,1.755,0,0,0,1.563-1.9H96.188c-.06.511-.3.891-.83.938a8.442,8.442,0,0,1-1.665.008.918.918,0,0,1-.874-.788,8.8,8.8,0,0,1-.009-1.139Zm-57-1c0,.728-.009,1.4,0,2.073a1.685,1.685,0,0,0,1.661,1.814,26.186,26.186,0,0,0,3.293.019,1.75,1.75,0,0,0,1.838-2.012q0-3.148,0-6.3v-.516h-2.26c0,2.238,0,4.438,0,6.637a1.14,1.14,0,1,1-2.271,0c-.005-.554,0-1.108,0-1.692-.218-.011-.383-.026-.547-.027C41.449,291.349,40.895,291.351,40.288,291.351Zm13.657,1.992a1.677,1.677,0,0,0,1.572,1.9,12.772,12.772,0,0,0,1.822.062,2.1,2.1,0,0,0,2.113-1.372,2.274,2.274,0,0,0-.625-2.588c-.753-.7-1.483-1.435-2.2-2.174a1.5,1.5,0,0,1-.4-.676.834.834,0,0,1,.657-1.036,1.153,1.153,0,0,1,1.466.564c.068.142.2.331.322.355a4.967,4.967,0,0,0,.889.016c-.115-1.007-.436-1.563-1.127-1.783a4.957,4.957,0,0,0-3.139-.023,2.2,2.2,0,0,0-.686,3.73c.794.786,1.614,1.544,2.387,2.348a.928.928,0,0,1-.534,1.637,1.211,1.211,0,0,1-1.474-.954Zm20.518-.028a5.583,5.583,0,0,0-.83.012.52.52,0,0,0-.331.266,1.127,1.127,0,0,1-1.2.718,1.058,1.058,0,0,1-.978-1.095q-.016-1.37,0-2.741a.986.986,0,0,1,.928-1.066,1.04,1.04,0,0,1,1.25.68c.049.112.173.253.278.267a7.23,7.23,0,0,0,.891.012c-.084-1.138-.578-1.8-1.539-1.913a10.092,10.092,0,0,0-2.323-.012,2,2,0,0,0-1.768,2.071q-.006,1.319,0,2.639a1.991,1.991,0,0,0,1.8,2.089,10.081,10.081,0,0,0,2.071.011C73.819,295.154,74.369,294.534,74.463,293.314Zm11.654,1.973v-3.529c0-1.042.35-1.387,1.4-1.389h1.944v-1.943c-2.023-.191-2.649.076-3.348,1.474v-1.5H83.9v6.888Zm-32.945-8.863c-1.093-.106-1.092-.106-1.521.821q-1.748,3.768-3.494,7.537c-.073.157-.13.322-.215.534a2.786,2.786,0,0,1,.436,0c.52.1.778-.134.973-.612.351-.859.775-1.688,1.165-2.532C51.394,290.276,52.269,288.377,53.171,286.423Z" transform="translate(-24.34 -148.117)" fill="#fff"/>
      <path id="Path_2460" data-name="Path 2460" d="M308.271,144.48a14.179,14.179,0,0,1,1.97,1.272,3.43,3.43,0,0,1-.5,5.315A7.063,7.063,0,0,1,306,152.148c-1.912.034-3.824,0-5.736-.008-.083,0-.164-.012-.28-.022V137.711c.028-.019.057-.051.084-.051,2.333.02,4.667.008,7,.092a4.271,4.271,0,0,1,1.717.551,3.254,3.254,0,0,1,1.838,3.189,3.2,3.2,0,0,1-1.918,2.827c-.148.079-.3.145-.451.219C308.237,144.544,308.235,144.568,308.271,144.48Z" transform="translate(-248.853 -19.581)" fill="#fff"/>
      <path id="Path_2461" data-name="Path 2461" d="M208.68,145.319a4.409,4.409,0,0,1-2.73,4.41,7.871,7.871,0,0,1-4.921.4,5.092,5.092,0,0,1-3.684-3.264,10.821,10.821,0,0,1-.041-8.057c1.108-2.883,3.661-3.841,6.37-3.528a7.018,7.018,0,0,1,2.753.786,4.563,4.563,0,0,1,2.306,4.113h-3.265c-.038-.229-.066-.462-.115-.69a2.483,2.483,0,0,0-2.327-1.989,2.172,2.172,0,0,0-2.271,1.282,8.357,8.357,0,0,0-.832,4.072,9.155,9.155,0,0,0,.55,3.326c.557,1.447,1.381,2.008,2.7,1.851a2.5,2.5,0,0,0,2.256-2.46c.008-.065.022-.13.037-.215.123-.012.237-.034.352-.034C206.764,145.317,207.71,145.319,208.68,145.319Z" transform="translate(-159.433 -17.474)" fill="#fff"/>
      <path id="Path_2462" data-name="Path 2462" d="M107.438,147.6a14.652,14.652,0,0,0,.971,1.86,1.935,1.935,0,0,0,2.077.745,1.742,1.742,0,0,0,1.406-1.486,9.442,9.442,0,0,0,.211-1.806c.022-2.842.009-5.685.009-8.527v-.627h3.1c.008.142.023.272.023.4,0,3.13.022,6.26-.008,9.39a4.883,4.883,0,0,1-1.517,3.736,4.577,4.577,0,0,1-2.345,1.122,7.289,7.289,0,0,1-3.8-.313,4.626,4.626,0,0,1-3.032-4.5C105.549,147.6,106.557,147.6,107.438,147.6Z" transform="translate(-79.891 -19.668)" fill="#fff"/>
      <path id="Path_2463" data-name="Path 2463" d="M305.855,301.54h2.227v6.882h-2.2c-.012-.188-.024-.37-.043-.65a1.475,1.475,0,0,1-1.679.671,6.124,6.124,0,0,1-1.851-.382,1.752,1.752,0,0,1-1-1.745c.009-1.573,0-3.146,0-4.763h2.237c.012.169.034.347.034.523,0,1.371,0,2.742,0,4.112a1.141,1.141,0,1,0,2.267,0q0-2.03,0-4.062C305.855,301.942,305.855,301.758,305.855,301.54Z" transform="translate(-250.002 -161.26)" fill="#429dd6"/>
      <path id="Path_2464" data-name="Path 2464" d="M198.449,305.323h-4.46c-.335,1.446.287,2.067,1.489,1.978.236-.018.474,0,.71,0,.688-.022.936-.233,1.157-1,.238,0,.489,0,.74,0a2.862,2.862,0,0,1,.289.033,1.766,1.766,0,0,1-1.58,1.875,21.429,21.429,0,0,1-3.388,0,1.948,1.948,0,0,1-1.745-2.021q0-1.345,0-2.689a1.963,1.963,0,0,1,1.754-2.07,18.585,18.585,0,0,1,3.237,0,2,2,0,0,1,1.794,2.05C198.458,304.063,198.449,304.653,198.449,305.323Zm-4.528-1.027h2.23c-.045-.649.236-1.343-.485-1.761a1.158,1.158,0,0,0-1.241,0C193.729,302.956,193.925,303.635,193.921,304.3Z" transform="translate(-155.207 -161.099)" fill="#429dd6"/>
      <path id="Path_2465" data-name="Path 2465" d="M417.908,305.334h-4.479a8.8,8.8,0,0,0,.01,1.139.918.918,0,0,0,.874.788,8.659,8.659,0,0,0,1.665-.008c.528-.046.77-.428.83-.938h1.028a1.754,1.754,0,0,1-1.563,1.9,21.971,21.971,0,0,1-3.338.011,1.936,1.936,0,0,1-1.784-2.035q-.01-1.345,0-2.689a1.969,1.969,0,0,1,1.8-2.076,19.117,19.117,0,0,1,3.188.005,1.97,1.97,0,0,1,1.769,2.058C417.91,304.075,417.908,304.666,417.908,305.334Zm-4.45-1.039h2.177c.108-1.34-.274-2.017-1.135-1.922S413.279,302.749,413.458,304.295Z" transform="translate(-344.959 -161.103)" fill="#429dd6"/>
      <path id="Path_2466" data-name="Path 2466" d="M40.288,291.966c.607,0,1.161,0,1.715,0,.164,0,.329.015.547.027,0,.584,0,1.138,0,1.692a1.14,1.14,0,1,0,2.271,0c0-2.2,0-4.4,0-6.637h2.26v.516q0,3.148,0,6.3a1.75,1.75,0,0,1-1.838,2.012,26.449,26.449,0,0,1-3.293-.019,1.685,1.685,0,0,1-1.661-1.814C40.278,293.367,40.288,292.7,40.288,291.966Z" transform="translate(-24.34 -148.733)" fill="#429dd6"/>
      <path id="Path_2467" data-name="Path 2467" d="M140.619,293.346h1.043a1.211,1.211,0,0,0,1.474.954.929.929,0,0,0,.534-1.637c-.774-.8-1.593-1.562-2.387-2.348a2.2,2.2,0,0,1,.686-3.73,4.967,4.967,0,0,1,3.139.023c.691.219,1.012.776,1.127,1.783a4.967,4.967,0,0,1-.889-.016c-.127-.024-.255-.213-.322-.355a1.153,1.153,0,0,0-1.466-.564.834.834,0,0,0-.657,1.036,1.5,1.5,0,0,0,.4.676c.719.74,1.45,1.47,2.2,2.174a2.273,2.273,0,0,1,.625,2.588,2.1,2.1,0,0,1-2.113,1.372,12.781,12.781,0,0,1-1.822-.062A1.678,1.678,0,0,1,140.619,293.346Z" transform="translate(-111.014 -148.12)" fill="#429dd6"/>
      <path id="Path_2468" data-name="Path 2468" d="M256.656,306.358c-.094,1.222-.643,1.841-1.754,1.939a10.279,10.279,0,0,1-2.071-.011,1.993,1.993,0,0,1-1.8-2.089q-.006-1.319,0-2.639a2,2,0,0,1,1.768-2.071,10.253,10.253,0,0,1,2.323.012c.96.114,1.455.775,1.539,1.913a7.216,7.216,0,0,1-.891-.012c-.1-.014-.229-.154-.278-.267a1.04,1.04,0,0,0-1.25-.68.987.987,0,0,0-.928,1.066q-.016,1.37,0,2.741a1.057,1.057,0,0,0,.978,1.095,1.126,1.126,0,0,0,1.2-.718.52.52,0,0,1,.331-.266A5.569,5.569,0,0,1,256.656,306.358Z" transform="translate(-206.532 -161.161)" fill="#429dd6"/>
      <path id="Path_2469" data-name="Path 2469" d="M364.429,308.266H362.21v-6.888h2.216v1.5c.7-1.4,1.326-1.666,3.348-1.474v1.943H365.83c-1.053,0-1.4.347-1.4,1.389C364.429,305.9,364.429,307.064,364.429,308.266Z" transform="translate(-302.652 -161.097)" fill="#429dd6"/>
      <path id="Path_2470" data-name="Path 2470" d="M102.031,286.672c-.9,1.954-1.779,3.852-2.657,5.75-.39.843-.814,1.672-1.165,2.532-.2.477-.452.711-.973.612a2.8,2.8,0,0,0-.436,0c.084-.21.142-.375.215-.534q1.746-3.77,3.494-7.537C100.939,286.567,100.939,286.567,102.031,286.672Z" transform="translate(-73.199 -148.366)" fill="#429dd6"/>
      <path id="Path_2471" data-name="Path 2471" d="M322.98,159.172v-3.255a26.36,26.36,0,0,1,3.176.028c.951.117,1.284.765,1.2,1.842a1.428,1.428,0,0,1-1.435,1.372C324.962,159.211,324,159.172,322.98,159.172Z" transform="translate(-268.737 -35.333)" fill="#103b8a"/>
      <path id="Path_2472" data-name="Path 2472" d="M208.216,310.7c0-.661-.192-1.34.5-1.757a1.16,1.16,0,0,1,1.241,0c.721.419.44,1.114.485,1.761Z" transform="translate(-169.501 -167.499)" fill="#fff"/>
      <path id="Path_2473" data-name="Path 2473" d="M427.922,310.705c-.18-1.547.182-1.826,1.042-1.922s1.244.583,1.135,1.922Z" transform="translate(-359.423 -167.513)" fill="#fff"/>
      <path id="Path_2474" data-name="Path 2474" d="M322.98,201.756v-3.841a26.922,26.922,0,0,1,3.487.034c1.045.137,1.41.9,1.318,2.174a1.626,1.626,0,0,1-1.576,1.619C325.156,201.8,324.1,201.756,322.98,201.756Z" transform="translate(-268.737 -71.636)" fill="#103b8a"/>
    </g>
  </g>
</svg>
