<svg xmlns="http://www.w3.org/2000/svg" width="150" height="150" viewBox="0 0 150 150">
  <g id="Group_3996" data-name="Group 3996" transform="translate(-1651.846 -604.503)">
    <g id="Layer_2" data-name="Layer 2">
      <rect id="Rectangle_3242" data-name="Rectangle 3242" width="150" height="150" transform="translate(1651.846 604.503)" fill="none"/>
    </g>
    <g id="Layer_1" data-name="Layer 1" transform="translate(-1 1.188)">
      <g id="Group_3995" data-name="Group 3995" transform="translate(1684.173 641.315)">
        <path id="Path_2380" data-name="Path 2380" d="M1756.728,712.013h-36.712a.5.5,0,0,1,0-1h36.712a7.8,7.8,0,0,0,7.792-7.792V655.473a.5.5,0,0,1,1,0v47.748A8.8,8.8,0,0,1,1756.728,712.013Z" transform="translate(-1684.964 -642.077)" fill="#0076c0" opacity="0.3"/>
        <path id="Path_2381" data-name="Path 2381" d="M1759.183,714.339h-36.712a.5.5,0,0,1,0-1h36.712a7.8,7.8,0,0,0,7.792-7.791V657.8a.5.5,0,0,1,1,0v47.748A8.8,8.8,0,0,1,1759.183,714.339Z" transform="translate(-1684.964 -642.077)" fill="#0076c0" opacity="0.3"/>
        <g id="Group_3992" data-name="Group 3992" transform="translate(13.924 4.32)">
          <rect id="Rectangle_3243" data-name="Rectangle 3243" width="62.106" height="62.106" rx="7.348" transform="translate(1 1)" fill="#fff"/>
          <path id="Path_2382" data-name="Path 2382" d="M1754.645,709.74h-47.41a8.357,8.357,0,0,1-8.347-8.347V653.982a8.357,8.357,0,0,1,8.347-8.347h47.41a8.357,8.357,0,0,1,8.348,8.347v47.411A8.357,8.357,0,0,1,1754.645,709.74Zm-47.41-62.1a6.354,6.354,0,0,0-6.347,6.347v47.411a6.354,6.354,0,0,0,6.347,6.347h47.41a6.354,6.354,0,0,0,6.348-6.347V653.982a6.354,6.354,0,0,0-6.348-6.347Z" transform="translate(-1698.888 -645.635)" fill="#0076c0"/>
        </g>
        <path id="Path_2383" data-name="Path 2383" d="M1745.3,709.622a.987.987,0,0,1-.383-.076,1,1,0,0,1-.617-.924v-8.9a8.357,8.357,0,0,1,8.347-8.348h8.9a1,1,0,0,1,.707,1.707l-16.245,16.244A1,1,0,0,1,1745.3,709.622Zm7.347-16.244a6.355,6.355,0,0,0-6.347,6.348v6.482l12.831-12.83Z" transform="translate(-1684.964 -641.925)" fill="#0076c0" opacity="0.3"/>
        <path id="Rectangle_3244" data-name="Rectangle 3244" d="M7.211,0H54.894a7.211,7.211,0,0,1,7.211,7.211v6.154a0,0,0,0,1,0,0H0a0,0,0,0,1,0,0V7.211A7.211,7.211,0,0,1,7.211,0Z" transform="translate(14.924 5.32)" fill="#0076c0" opacity="0.3"/>
        <rect id="Rectangle_3245" data-name="Rectangle 3245" width="8.904" height="8.258" rx="1.113" transform="translate(48.562 24.839)" fill="#0076c0" opacity="0.3"/>
        <rect id="Rectangle_3246" data-name="Rectangle 3246" width="8.904" height="8.258" rx="1.113" transform="translate(61.03 24.839)" fill="#0076c0" opacity="0.3"/>
        <rect id="Rectangle_3247" data-name="Rectangle 3247" width="8.904" height="8.258" rx="1.113" transform="translate(23.625 38.322)" fill="#0076c0" opacity="0.3"/>
        <rect id="Rectangle_3248" data-name="Rectangle 3248" width="8.904" height="8.258" rx="1.113" transform="translate(36.093 38.322)" fill="#0076c0" opacity="0.3"/>
        <rect id="Rectangle_3249" data-name="Rectangle 3249" width="8.904" height="8.258" rx="1.113" transform="translate(48.562 38.322)" fill="#0076c0" opacity="0.3"/>
        <rect id="Rectangle_3250" data-name="Rectangle 3250" width="8.904" height="8.258" rx="1.113" transform="translate(61.03 38.322)" fill="#0076c0" opacity="0.3"/>
        <rect id="Rectangle_3251" data-name="Rectangle 3251" width="8.904" height="8.258" rx="1.113" transform="translate(23.625 51.804)" fill="#0076c0" opacity="0.3"/>
        <rect id="Rectangle_3252" data-name="Rectangle 3252" width="8.904" height="8.258" rx="1.113" transform="translate(36.093 51.804)" fill="#0076c0" opacity="0.3"/>
        <rect id="Rectangle_3253" data-name="Rectangle 3253" width="8.904" height="8.258" rx="1.113" transform="translate(48.562 51.804)" fill="#0076c0" opacity="0.3"/>
        <path id="Path_2384" data-name="Path 2384" d="M1712.5,652.163a1,1,0,0,1-1-1v-8.848a1,1,0,0,1,2,0v8.848A1,1,0,0,1,1712.5,652.163Z" transform="translate(-1684.437 -641.315)" fill="#0076c0"/>
        <path id="Path_2385" data-name="Path 2385" d="M1724.739,652.163a1,1,0,0,1-1-1v-8.848a1,1,0,0,1,2,0v8.848A1,1,0,0,1,1724.739,652.163Z" transform="translate(-1684.555 -641.315)" fill="#0076c0"/>
        <path id="Path_2386" data-name="Path 2386" d="M1736.976,652.163a1,1,0,0,1-1-1v-8.848a1,1,0,0,1,2,0v8.848A1,1,0,0,1,1736.976,652.163Z" transform="translate(-1684.674 -641.315)" fill="#0076c0"/>
        <path id="Path_2387" data-name="Path 2387" d="M1749.212,652.163a1,1,0,0,1-1-1v-8.848a1,1,0,0,1,2,0v8.848A1,1,0,0,1,1749.212,652.163Z" transform="translate(-1684.792 -641.315)" fill="#0076c0"/>
        <g id="Ellipse_170" data-name="Ellipse 170" transform="translate(0 45.428)" fill="#fff" stroke="rgba(0,118,192,0.3)" stroke-miterlimit="10" stroke-width="2">
          <circle cx="17.286" cy="17.286" r="17.286" stroke="none"/>
          <circle cx="17.286" cy="17.286" r="16.286" fill="none"/>
        </g>
        <g id="Group_3993" data-name="Group 3993" transform="translate(9.294 54.128)">
          <path id="Path_2388" data-name="Path 2388" d="M1693.467,704.559v-.046c0-4.5,2.685-8.308,6.816-8.308s6.747,3.764,6.747,8.262v.046c0,4.5-2.662,8.307-6.793,8.307C1696.083,712.82,1693.467,709.057,1693.467,704.559Zm11.681,0v-.046c0-3.512-1.927-6.656-4.911-6.656-3.007,0-4.888,3.076-4.888,6.61v.046c0,3.51,1.927,6.655,4.934,6.655S1705.148,708.069,1705.148,704.559Z" transform="translate(-1693.467 -696.205)" fill="#0076c0"/>
        </g>
        <g id="Group_3994" data-name="Group 3994" transform="translate(23.013 64.949)">
          <path id="Path_2389" data-name="Path 2389" d="M1707.42,708.294v-.014a1.193,1.193,0,0,1,1.2-1.254,1.18,1.18,0,0,1,1.184,1.241v.013a1.2,1.2,0,0,1-1.2,1.254A1.179,1.179,0,0,1,1707.42,708.294Zm1.645,0v-.014c0-.329-.181-.616-.461-.616s-.449.28-.449.6v.013c0,.329.182.616.462.616S1709.065,708.609,1709.065,708.294Zm-.784,3.18,3.131-4.286a.355.355,0,0,1,.287-.147.329.329,0,0,1,.329.329.348.348,0,0,1-.077.224l-3.131,4.286a.349.349,0,0,1-.287.147.329.329,0,0,1-.329-.329A.392.392,0,0,1,1708.281,711.474Zm2.151-.672v-.014a1.193,1.193,0,0,1,1.2-1.254,1.178,1.178,0,0,1,1.184,1.239v.015a1.2,1.2,0,0,1-1.2,1.253A1.177,1.177,0,0,1,1710.432,710.8Zm1.645,0v-.014c0-.329-.181-.617-.462-.617s-.448.28-.448.6v.015c0,.329.182.616.462.616S1712.077,711.117,1712.077,710.8Z" transform="translate(-1707.42 -707.026)" fill="#0076c0" stroke="#0076c0" stroke-miterlimit="10" stroke-width="0.1"/>
        </g>
      </g>
    </g>
  </g>
</svg>
