<svg xmlns="http://www.w3.org/2000/svg" xmlns:xlink="http://www.w3.org/1999/xlink" width="150" height="150" viewBox="0 0 150 150">
  <defs>
    <clipPath id="clip-path">
      <rect id="Rectangle_3255" data-name="Rectangle 3255" width="22.417" height="41.959" transform="translate(1771.099 842.968)" fill="none"/>
    </clipPath>
  </defs>
  <g id="Group_4013" data-name="Group 4013" transform="translate(-1651.846 -775.227)">
    <g id="Layer_2" data-name="Layer 2">
      <rect id="Rectangle_3254" data-name="Rectangle 3254" width="150" height="150" transform="translate(1651.846 775.227)" fill="none"/>
    </g>
    <g id="Layer_1" data-name="Layer 1" transform="translate(-2 2.425)">
      <g id="Group_4012" data-name="Group 4012">
        <g id="Group_4000" data-name="Group 4000">
          <g id="Group_3999" data-name="Group 3999" clip-path="url(#clip-path)">
            <g id="Group_3998" data-name="Group 3998" opacity="0.3">
              <path id="Path_2390" data-name="Path 2390" d="M1777.083,857.2a1.8,1.8,0,0,1-1.15-1.875,1.819,1.819,0,0,1,.2-.613l.25-.458c.169-.295.347-.578.5-.866a5.7,5.7,0,0,0,.419-.827,2.614,2.614,0,0,0,.157-.837,2.672,2.672,0,0,0-.627-1.738,2.362,2.362,0,0,1,.907.611,2.12,2.12,0,0,1,.5,1.065,2.879,2.879,0,0,1,.047.573,2.237,2.237,0,0,1-.082.619,5.348,5.348,0,0,1-.45,1.027c-.185.307-.374.6-.573.883l-.3.407a1.844,1.844,0,0,0-.19.329A1.919,1.919,0,0,0,1777.083,857.2Z" fill="#0076c0"/>
              <path id="Path_2391" data-name="Path 2391" d="M1780.831,857.2a1.375,1.375,0,0,1-.972-1.463,1.448,1.448,0,0,1,.158-.505l.187-.358.375-.664a4.463,4.463,0,0,0,.319-.614,1.925,1.925,0,0,0,.135-.6,2.106,2.106,0,0,0-.393-1.345,1.626,1.626,0,0,1,1.171,1.283,2.123,2.123,0,0,1,.047.455,1.78,1.78,0,0,1-.06.5,4.13,4.13,0,0,1-.35.814c-.146.238-.293.466-.45.681l-.237.307a1.909,1.909,0,0,0-.145.221A1.459,1.459,0,0,0,1780.831,857.2Z" fill="#0076c0"/>
              <path id="Path_2392" data-name="Path 2392" d="M1773.326,857.2a1.14,1.14,0,0,1-.871-1.23,1.211,1.211,0,0,1,.132-.443l.151-.3.3-.55a3.956,3.956,0,0,0,.262-.492,1.565,1.565,0,0,0,.123-.471,1.78,1.78,0,0,0-.26-1.122,1.335,1.335,0,0,1,1.038,1.061,1.76,1.76,0,0,1,.047.387,1.565,1.565,0,0,1-.048.438,3.442,3.442,0,0,1-.293.692c-.124.2-.247.39-.38.567l-.2.251c-.042.055-.084.1-.119.159A1.181,1.181,0,0,0,1773.326,857.2Z" fill="#0076c0"/>
              <path id="Path_2393" data-name="Path 2393" d="M1787.952,874.511h-.649a3.267,3.267,0,0,1-3.264-3.264v-3.57a3.267,3.267,0,0,1,3.264-3.264h.649a3.267,3.267,0,0,1,3.264,3.264v3.57A3.267,3.267,0,0,1,1787.952,874.511Zm-.649-8.1a1.264,1.264,0,0,0-1.264,1.264v3.57a1.265,1.265,0,0,0,1.264,1.264h.649a1.265,1.265,0,0,0,1.264-1.264v-3.57a1.265,1.265,0,0,0-1.264-1.264Z" fill="#0076c0"/>
              <g id="Group_3997" data-name="Group 3997">
                <path id="Path_2394" data-name="Path 2394" d="M1783.906,884.31h-13.573a1.559,1.559,0,0,1-1.555-1.439l-1.706-21.916a1.56,1.56,0,0,1,1.555-1.681h16.985a1.56,1.56,0,0,1,1.555,1.681l-1.706,21.916A1.56,1.56,0,0,1,1783.906,884.31Z" fill="#fff"/>
                <path id="Path_2395" data-name="Path 2395" d="M1783.906,885.31h-13.573a2.574,2.574,0,0,1-2.553-2.361l-1.705-21.917a2.562,2.562,0,0,1,2.552-2.758h16.984a2.562,2.562,0,0,1,2.553,2.758l-1.706,21.916A2.574,2.574,0,0,1,1783.906,885.31Zm-15.279-25.036a.562.562,0,0,0-.558.6l1.705,21.916a.563.563,0,0,0,.559.516h13.573a.563.563,0,0,0,.558-.517l1.706-21.915a.562.562,0,0,0-.559-.6Z" fill="#0076c0"/>
              </g>
            </g>
          </g>
        </g>
        <g id="Group_4001" data-name="Group 4001">
          <path id="Rectangle_3256" data-name="Rectangle 3256" d="M2.955,0h82.6a2.955,2.955,0,0,1,2.955,2.955V51.088a0,0,0,0,1,0,0H0a0,0,0,0,1,0,0V2.955A2.955,2.955,0,0,1,2.955,0Z" transform="translate(1682.593 829.365)" fill="rgba(0,118,192,0.3)"/>
          <path id="Path_2396" data-name="Path 2396" d="M1772.1,881.452h-90.506V832.32a3.96,3.96,0,0,1,3.955-3.956h82.6a3.961,3.961,0,0,1,3.955,3.956Zm-88.506-2H1770.1V832.32a1.958,1.958,0,0,0-1.955-1.956h-82.6a1.958,1.958,0,0,0-1.955,1.956Z" fill="#0076c0"/>
        </g>
        <rect id="Rectangle_3257" data-name="Rectangle 3257" width="80.92" height="44.156" rx="1.5" transform="translate(1686.385 832.925)" fill="#fff"/>
        <g id="Group_4007" data-name="Group 4007">
          <path id="Path_2397" data-name="Path 2397" d="M1734.993,868.351h-14.105a2.89,2.89,0,0,1-2.887-2.887V856.23h1v9.234a1.89,1.89,0,0,0,1.887,1.887h14.105a1.89,1.89,0,0,0,1.887-1.887V856.23h1v9.234A2.89,2.89,0,0,1,1734.993,868.351Z" fill="#0076c0"/>
          <g id="Group_4002" data-name="Group 4002">
            <path id="Rectangle_3258" data-name="Rectangle 3258" d="M0,0H4.72a0,0,0,0,1,0,0V8A1.873,1.873,0,0,1,2.846,9.872H1.873A1.873,1.873,0,0,1,0,8V0A0,0,0,0,1,0,0Z" transform="translate(1716.141 846.359)" fill="rgba(0,118,192,0.3)"/>
            <path id="Path_2398" data-name="Path 2398" d="M1718.987,856.73h-.972a2.375,2.375,0,0,1-2.373-2.373v-8a.5.5,0,0,1,.5-.5h4.718a.5.5,0,0,1,.5.5v8A2.375,2.375,0,0,1,1718.987,856.73Zm-2.345-9.872v7.5a1.375,1.375,0,0,0,1.373,1.373h.972a1.375,1.375,0,0,0,1.373-1.373v-7.5Z" fill="#0076c0"/>
          </g>
          <g id="Group_4003" data-name="Group 4003">
            <path id="Rectangle_3259" data-name="Rectangle 3259" d="M0,0H4.72a0,0,0,0,1,0,0V8A1.873,1.873,0,0,1,2.846,9.872H1.873A1.873,1.873,0,0,1,0,8V0A0,0,0,0,1,0,0Z" transform="translate(1720.861 846.359)" fill="rgba(0,118,192,0.3)"/>
            <path id="Path_2399" data-name="Path 2399" d="M1723.707,856.73h-.973a2.377,2.377,0,0,1-2.374-2.373v-8a.5.5,0,0,1,.5-.5h4.72a.5.5,0,0,1,.5.5v8A2.375,2.375,0,0,1,1723.707,856.73Zm-2.347-9.872v7.5a1.376,1.376,0,0,0,1.374,1.373h.973a1.375,1.375,0,0,0,1.373-1.373v-7.5Z" fill="#0076c0"/>
          </g>
          <g id="Group_4004" data-name="Group 4004">
            <path id="Rectangle_3260" data-name="Rectangle 3260" d="M0,0H4.72a0,0,0,0,1,0,0V8A1.873,1.873,0,0,1,2.846,9.872H1.873A1.873,1.873,0,0,1,0,8V0A0,0,0,0,1,0,0Z" transform="translate(1725.58 846.359)" fill="rgba(0,118,192,0.3)"/>
            <path id="Path_2400" data-name="Path 2400" d="M1728.427,856.73h-.973a2.377,2.377,0,0,1-2.374-2.373v-8a.5.5,0,0,1,.5-.5h4.72a.5.5,0,0,1,.5.5v8A2.376,2.376,0,0,1,1728.427,856.73Zm-2.347-9.872v7.5a1.375,1.375,0,0,0,1.374,1.373h.973a1.375,1.375,0,0,0,1.373-1.373v-7.5Z" fill="#0076c0"/>
          </g>
          <g id="Group_4005" data-name="Group 4005">
            <path id="Rectangle_3261" data-name="Rectangle 3261" d="M0,0H4.72a0,0,0,0,1,0,0V8A1.873,1.873,0,0,1,2.846,9.872H1.873A1.873,1.873,0,0,1,0,8V0A0,0,0,0,1,0,0Z" transform="translate(1730.3 846.359)" fill="rgba(0,118,192,0.3)"/>
            <path id="Path_2401" data-name="Path 2401" d="M1733.146,856.73h-.972a2.376,2.376,0,0,1-2.374-2.373v-8a.5.5,0,0,1,.5-.5h4.72a.5.5,0,0,1,.5.5v8A2.376,2.376,0,0,1,1733.146,856.73Zm-2.346-9.872v7.5a1.375,1.375,0,0,0,1.374,1.373h.972a1.376,1.376,0,0,0,1.374-1.373v-7.5Z" fill="#0076c0"/>
          </g>
          <g id="Group_4006" data-name="Group 4006">
            <path id="Rectangle_3262" data-name="Rectangle 3262" d="M0,0H4.72a0,0,0,0,1,0,0V8A1.873,1.873,0,0,1,2.846,9.872H1.873A1.873,1.873,0,0,1,0,8V0A0,0,0,0,1,0,0Z" transform="translate(1735.02 846.359)" fill="rgba(0,118,192,0.3)"/>
            <path id="Path_2402" data-name="Path 2402" d="M1737.866,856.73h-.972a2.376,2.376,0,0,1-2.374-2.373v-8a.5.5,0,0,1,.5-.5h4.719a.5.5,0,0,1,.5.5v8A2.375,2.375,0,0,1,1737.866,856.73Zm-2.346-9.872v7.5a1.375,1.375,0,0,0,1.374,1.373h.972a1.375,1.375,0,0,0,1.373-1.373v-7.5Z" fill="#0076c0"/>
          </g>
          <path id="Path_2403" data-name="Path 2403" d="M1730.8,867.435h-1V862.82a1.86,1.86,0,0,0-3.72,0v4.615h-1V862.82a2.86,2.86,0,0,1,5.72,0Z" fill="#0076c0"/>
        </g>
        <path id="Path_2404" data-name="Path 2404" d="M1744.9,823.86H1716.26a8.948,8.948,0,0,1-2.633-17.5,10.158,10.158,0,0,1,19.3-3.8,9.167,9.167,0,0,1,12.4,7.579,6.867,6.867,0,0,1-.427,13.721ZM1723.772,798.8a8.172,8.172,0,0,0-8.163,8.163l.008.155a1,1,0,0,1-.794.995,6.948,6.948,0,0,0,1.437,13.745H1744.9a4.867,4.867,0,1,0,0-9.734h-.52a1,1,0,0,1-1-1,7.184,7.184,0,0,0-7.176-7.176,7.09,7.09,0,0,0-3.339.828,1,1,0,0,1-1.409-.549A8.177,8.177,0,0,0,1723.772,798.8Z" fill="#0076c0" opacity="0.3"/>
        <g id="Group_4008" data-name="Group 4008">
          <path id="Path_2405" data-name="Path 2405" d="M1718.344,816.235l2.916-6.583a1.136,1.136,0,0,1,1.075-.729h.107a1.122,1.122,0,0,1,1.064.729l2.915,6.583a.909.909,0,0,1,.1.37.871.871,0,0,1-.872.884.939.939,0,0,1-.885-.633l-.561-1.314h-3.68l-.585,1.374a.907.907,0,0,1-.849.573.847.847,0,0,1-.849-.859A.989.989,0,0,1,1718.344,816.235Zm5.174-2.318-1.159-2.76-1.16,2.76Z" fill="#0076c0"/>
          <path id="Path_2406" data-name="Path 2406" d="M1727.957,809.975a.913.913,0,0,1,.92-.92h2.5c2,0,3.2,1.182,3.2,2.891v.024c0,1.935-1.506,2.939-3.382,2.939h-1.4v1.66a.92.92,0,1,1-1.84,0Zm3.3,3.3a1.3,1.3,0,0,0,1.458-1.266v-.025c0-.824-.573-1.265-1.493-1.265H1729.8v2.556Z" fill="#0076c0"/>
          <path id="Path_2407" data-name="Path 2407" d="M1736.018,809.9a.92.92,0,1,1,1.839,0v6.666a.92.92,0,1,1-1.839,0Z" fill="#0076c0"/>
        </g>
        <g id="Group_4009" data-name="Group 4009">
          <rect id="Rectangle_3263" data-name="Rectangle 3263" width="108.376" height="4.286" rx="1.075" transform="translate(1672.658 880.452)" fill="#fff"/>
          <path id="Path_2408" data-name="Path 2408" d="M1779.959,885.738H1673.732a2.077,2.077,0,0,1-2.075-2.074v-2.137a2.078,2.078,0,0,1,2.075-2.075h106.227a2.077,2.077,0,0,1,2.074,2.075v2.137A2.076,2.076,0,0,1,1779.959,885.738Zm-106.227-4.286a.076.076,0,0,0-.075.075v2.137a.075.075,0,0,0,.075.074h106.227a.074.074,0,0,0,.074-.074v-2.137a.075.075,0,0,0-.074-.075Z" fill="#0076c0"/>
        </g>
        <path id="Rectangle_3264" data-name="Rectangle 3264" d="M1.5,0H79.42a1.5,1.5,0,0,1,1.5,1.5V6.439a0,0,0,0,1,0,0H0a0,0,0,0,1,0,0V1.5A1.5,1.5,0,0,1,1.5,0Z" transform="translate(1686.385 832.925)" fill="#0076c0" opacity="0.1"/>
        <circle id="Ellipse_171" data-name="Ellipse 171" cx="1.084" cy="1.084" r="1.084" transform="translate(1689.19 835.249)" fill="#0076c0"/>
        <circle id="Ellipse_172" data-name="Ellipse 172" cx="1.084" cy="1.084" r="1.084" transform="translate(1692.45 835.249)" fill="#0076c0"/>
        <circle id="Ellipse_173" data-name="Ellipse 173" cx="1.084" cy="1.084" r="1.084" transform="translate(1695.732 835.249)" fill="#0076c0"/>
        <g id="Group_4010" data-name="Group 4010" opacity="0.3">
          <path id="Path_2409" data-name="Path 2409" d="M1700.671,820.505a1,1,0,0,1-.6-1.8l2.4-1.815-2.4-1.816a1,1,0,0,1,1.207-1.6l3.455,2.614a1,1,0,0,1,0,1.6l-3.455,2.614A1,1,0,0,1,1700.671,820.505Z" fill="#0076c0"/>
          <path id="Path_2410" data-name="Path 2410" d="M1707.8,859.521h-11.011a4.246,4.246,0,0,1-4.24-4.242V820.132a4.245,4.245,0,0,1,4.24-4.24h6.385a1,1,0,0,1,0,2h-6.385a2.242,2.242,0,0,0-2.24,2.24v35.147a2.244,2.244,0,0,0,2.24,2.242H1707.8a1,1,0,0,1,0,2Z" fill="#0076c0"/>
        </g>
        <g id="Group_4011" data-name="Group 4011" opacity="0.3">
          <path id="Path_2411" data-name="Path 2411" d="M1748.531,862.134a1,1,0,0,1-.6-.2l-3.454-2.614a1,1,0,0,1,0-1.595l3.454-2.614a1,1,0,0,1,1.207,1.6l-2.4,1.816,2.4,1.815a1,1,0,0,1-.6,1.8Z" fill="#0076c0"/>
          <path id="Path_2412" data-name="Path 2412" d="M1757.814,859.521h-11.009a1,1,0,0,1,0-2h11.009a2.245,2.245,0,0,0,2.242-2.242V820.132a2.243,2.243,0,0,0-2.242-2.24h-3.383a1,1,0,0,1,0-2h3.383a4.246,4.246,0,0,1,4.242,4.24v35.147A4.247,4.247,0,0,1,1757.814,859.521Z" fill="#0076c0"/>
        </g>
      </g>
    </g>
  </g>
</svg>
