<svg xmlns="http://www.w3.org/2000/svg" width="150" height="150" viewBox="0 0 150 150">
  <g id="Group_4017" data-name="Group 4017" transform="translate(-1651.846 -945.951)">
    <g id="Layer_2" data-name="Layer 2">
      <rect id="Rectangle_3265" data-name="Rectangle 3265" width="150" height="150" transform="translate(1651.846 945.951)" fill="none"/>
    </g>
    <g id="Layer_1" data-name="Layer 1">
      <g id="Group_4015" data-name="Group 4015" opacity="0.3">
        <g id="Group_4014" data-name="Group 4014">
          <path id="Path_2413" data-name="Path 2413" d="M1697.247,1009.645c-.783-1.451.715-1.827.686-3.035s-2.388-1.375-4.657-2.152-4.231-1.89-3.992-4.178-.906-4.962-2.322-5.045a37.952,37.952,0,0,1-4.153-.259,16.57,16.57,0,0,0,13.7,24.267,1.59,1.59,0,0,0,.451-.333C1700.045,1015.5,1698.029,1011.1,1697.247,1009.645Z" fill="#0076c0"/>
          <path id="Path_2414" data-name="Path 2414" d="M1690.126,990.321a11.969,11.969,0,0,0,5.721-.932c1.818-.665,3.5-2.073,7.222-1.738a2.787,2.787,0,0,0,1.207-.091,16.523,16.523,0,0,0-19,3.932C1687.236,990.72,1688.945,990.1,1690.126,990.321Z" fill="#0076c0"/>
          <path id="Path_2415" data-name="Path 2415" d="M1703.575,997.7c-1.054-.12-3.708,1.321-4.793,2.286s-.9,1.833-2.643,1.845-.771,1.132.129,2.307,3.36,1.431,5.694,1.181,4.166,2.584,5.25,4-2.417,3.167-3.052,4,.052,2.082-1.3,2.314c-1.26.216-2.473,1.8-3.131,3.491a16.564,16.564,0,0,0,10.829-26.641,8.025,8.025,0,0,0-5.925.849C1702.776,994.674,1703.575,997.7,1703.575,997.7Z" fill="#0076c0"/>
        </g>
        <path id="Path_2416" data-name="Path 2416" d="M1697.493,1020.281a17.6,17.6,0,1,1,17.6-17.6A17.616,17.616,0,0,1,1697.493,1020.281Zm0-33.191a15.6,15.6,0,1,0,15.6,15.6A15.614,15.614,0,0,0,1697.493,987.09Z" fill="#0076c0"/>
      </g>
      <g id="Group_4016" data-name="Group 4016">
        <rect id="Rectangle_3266" data-name="Rectangle 3266" width="43.102" height="86.512" rx="4.086" transform="translate(1706.742 976.258)" fill="#fff"/>
        <path id="Path_2417" data-name="Path 2417" d="M1745.758,976.258a4.085,4.085,0,0,1,4.086,4.085v78.341a4.086,4.086,0,0,1-4.086,4.086h-34.931a4.086,4.086,0,0,1-4.085-4.086V980.343a4.085,4.085,0,0,1,4.085-4.085h34.931m0-2h-34.931a6.092,6.092,0,0,0-6.085,6.085v78.341a6.093,6.093,0,0,0,6.085,6.086h34.931a6.093,6.093,0,0,0,6.086-6.086V980.343a6.092,6.092,0,0,0-6.086-6.085Z" fill="#0076c0"/>
      </g>
      <rect id="Rectangle_3267" data-name="Rectangle 3267" width="35.543" height="14.329" rx="2.129" transform="translate(1710.268 986.622)" fill="#0076c0" opacity="0.1"/>
      <path id="Rectangle_3268" data-name="Rectangle 3268" d="M0,0H24.148a0,0,0,0,1,0,0V1.222a2.48,2.48,0,0,1-2.48,2.48H2.48A2.48,2.48,0,0,1,0,1.222V0A0,0,0,0,1,0,0Z" transform="translate(1716.146 975.746)" fill="#0076c0"/>
      <path id="Path_2418" data-name="Path 2418" d="M1735.967,1059.755H1719.5a.5.5,0,0,1,0-1h16.467a.5.5,0,0,1,0,1Z" fill="#0076c0" opacity="0.3"/>
      <path id="Path_2419" data-name="Path 2419" d="M1740.808,992.317h-15.473a1,1,0,0,1,0-2h15.473a1,1,0,0,1,0,2Z" fill="#0076c0" opacity="0.3"/>
      <path id="Path_2420" data-name="Path 2420" d="M1733.071,997.272h-7.736a1,1,0,0,1,0-2h7.736a1,1,0,0,1,0,2Z" fill="#0076c0" opacity="0.3"/>
      <path id="Path_2421" data-name="Path 2421" d="M1744.5,1009.361h-19.166a1,1,0,0,1,0-2H1744.5a1,1,0,0,1,0,2Z" fill="#0076c0" opacity="0.3"/>
      <path id="Path_2422" data-name="Path 2422" d="M1733.071,1015.322h-7.736a1,1,0,0,1,0-2h7.736a1,1,0,0,1,0,2Z" fill="#0076c0" opacity="0.3"/>
      <path id="Path_2423" data-name="Path 2423" d="M1737.551,1021.283h-12.216a1,1,0,0,1,0-2h12.216a1,1,0,0,1,0,2Z" fill="#0076c0" opacity="0.3"/>
      <circle id="Ellipse_174" data-name="Ellipse 174" cx="4.657" cy="4.657" r="4.657" transform="translate(1711.905 1006.285)" fill="#0076c0" opacity="0.3"/>
      <circle id="Ellipse_175" data-name="Ellipse 175" cx="4.657" cy="4.657" r="4.657" transform="translate(1711.905 988.947)" fill="#0076c0" opacity="0.3"/>
      <path id="Path_2424" data-name="Path 2424" d="M1715.417,1012.942l-.043,0a.5.5,0,0,1-.344-.181l-1.3-1.591a.5.5,0,0,1,.774-.633l.975,1.193,3.075-2.665a.5.5,0,1,1,.654.755l-3.464,3A.5.5,0,0,1,1715.417,1012.942Z" fill="#0076c0"/>
      <path id="Path_2425" data-name="Path 2425" d="M1744.5,1030.188h-19.166a1,1,0,0,1,0-2H1744.5a1,1,0,0,1,0,2Z" fill="#0076c0" opacity="0.3"/>
      <path id="Path_2426" data-name="Path 2426" d="M1733.071,1036.148h-7.736a1,1,0,0,1,0-2h7.736a1,1,0,0,1,0,2Z" fill="#0076c0" opacity="0.3"/>
      <circle id="Ellipse_176" data-name="Ellipse 176" cx="4.657" cy="4.657" r="4.657" transform="translate(1711.905 1027.11)" fill="#0076c0" opacity="0.3"/>
      <path id="Path_2427" data-name="Path 2427" d="M1715.417,1033.769l-.043,0a.5.5,0,0,1-.344-.182l-1.3-1.591a.5.5,0,0,1,.774-.633l.975,1.193,3.075-2.665a.5.5,0,1,1,.654.756l-3.464,3A.5.5,0,0,1,1715.417,1033.769Z" fill="#0076c0"/>
      <g id="Path_2428" data-name="Path 2428" fill="#fff" stroke-miterlimit="10">
        <path d="M1749.844,1003a24.056,24.056,0,0,1,9.369,11.653c2.978,7.56,9.545,24.408,17.172,34.009a3.458,3.458,0,0,1-.216,4.548c-4.4,4.587-8.049,8.541-10.184,10.883a3.46,3.46,0,0,1-4.487.535,24.184,24.184,0,0,0-4.522-2.5c-2.734-1-9.829-4.226-12.314-6.463s-6.712-11.932-9.446-13.424-5.718-4.847-6.215-6.463c-.468-1.521,1.74-4.971,5.22-3.977s9.775,4.752,12.678,8.949c1.153,1.667,2.945.453,2.945-1.181Z" stroke="none"/>
        <path d="M 1751.843994140625 1007.109008789062 L 1751.843994140625 1039.573974609375 C 1751.843994140625 1040.564819335938 1751.498046875 1041.519165039062 1750.869873046875 1042.26123046875 C 1750.174926757812 1043.082153320312 1749.199584960938 1043.552978515625 1748.19384765625 1043.552978515625 C 1747.038696289062 1043.552978515625 1745.99462890625 1042.96337890625 1745.254150390625 1041.892700195312 C 1742.6611328125 1038.143920898438 1736.760498046875 1034.611450195312 1733.671630859375 1033.729125976562 C 1733.439208984375 1033.662719726562 1733.213500976562 1033.629028320312 1733.000732421875 1033.629028320312 C 1731.763427734375 1033.629028320312 1731.008422851562 1034.820068359375 1730.943115234375 1035.279174804688 C 1731.10302734375 1035.671142578125 1731.669189453125 1036.562866210938 1732.728881835938 1037.694091796875 C 1733.845947265625 1038.886596679688 1735.101318359375 1039.905639648438 1736.174072265625 1040.490356445312 C 1738.048461914062 1041.513305664062 1739.755249023438 1044.259887695312 1742.343505859375 1048.66162109375 C 1743.649291992188 1050.882568359375 1745.12939453125 1053.399780273438 1746 1054.18359375 C 1748.11279296875 1056.08544921875 1754.75 1059.194580078125 1757.658935546875 1060.253295898438 C 1758.948852539062 1060.721923828125 1760.614135742188 1061.634521484375 1762.608276367188 1062.965454101562 C 1762.8564453125 1063.131103515625 1763.142822265625 1063.21875 1763.436401367188 1063.21875 C 1763.849243164062 1063.21875 1764.2294921875 1063.051025390625 1764.506958007812 1062.74658203125 C 1766.755249023438 1060.2802734375 1770.353149414062 1056.3837890625 1774.7255859375 1051.82666015625 C 1775.230224609375 1051.300537109375 1775.270385742188 1050.475219726562 1774.818969726562 1049.906982421875 C 1767.137329101562 1040.237182617188 1760.633911132812 1023.721313476562 1757.508544921875 1015.7841796875 L 1757.352172851562 1015.386962890625 C 1755.837158203125 1011.54052734375 1753.618896484375 1008.858276367188 1752.024780273438 1007.285400390625 C 1751.964111328125 1007.2255859375 1751.90380859375 1007.166748046875 1751.843994140625 1007.109008789062 M 1749.843994140625 1003.0009765625 C 1749.843994140625 1003.0009765625 1755.982055664062 1006.450927734375 1759.213012695312 1014.654052734375 C 1762.191040039062 1022.213989257812 1768.758056640625 1039.06201171875 1776.385009765625 1048.662963867188 C 1777.463012695312 1050.02001953125 1777.369018554688 1051.9599609375 1776.1689453125 1053.211059570312 C 1771.767944335938 1057.797973632812 1768.119995117188 1061.751953125 1765.984985351562 1064.093994140625 C 1765.308837890625 1064.835693359375 1764.378051757812 1065.21875 1763.436401367188 1065.21875 C 1762.7666015625 1065.21875 1762.091552734375 1065.025146484375 1761.498046875 1064.629028320312 C 1760.097045898438 1063.693969726562 1758.348999023438 1062.631958007812 1756.975952148438 1062.133056640625 C 1754.241943359375 1061.137939453125 1747.14697265625 1057.906982421875 1744.661987304688 1055.670043945312 C 1742.176025390625 1053.432006835938 1737.949951171875 1043.738037109375 1735.215942382812 1042.245971679688 C 1732.48095703125 1040.755004882812 1729.498046875 1037.399047851562 1729.0009765625 1035.782958984375 C 1728.59033203125 1034.448486328125 1730.23974609375 1031.629028320312 1733.000732421875 1031.629028320312 C 1733.386596679688 1031.629028320312 1733.794189453125 1031.684204101562 1734.220947265625 1031.806030273438 C 1737.701049804688 1032.800048828125 1743.995971679688 1036.557983398438 1746.899047851562 1040.755004882812 C 1747.288940429688 1041.318725585938 1747.751831054688 1041.552978515625 1748.19384765625 1041.552978515625 C 1749.05908203125 1041.552978515625 1749.843994140625 1040.655517578125 1749.843994140625 1039.573974609375 C 1749.843994140625 1037.89404296875 1749.843994140625 1003.0009765625 1749.843994140625 1003.0009765625 Z" stroke="none" fill="rgba(0,118,192,0.3)"/>
      </g>
      <path id="Path_2429" data-name="Path 2429" d="M1750.846,1039.773a1,1,0,0,1-1-1V1003a1,1,0,0,1,2,0v35.772A1,1,0,0,1,1750.846,1039.773Z" fill="#0076c0"/>
      <path id="Path_2430" data-name="Path 2430" d="M1715.417,995.6h-.043a.5.5,0,0,1-.344-.182l-1.3-1.591a.5.5,0,0,1,.774-.633l.975,1.193,3.075-2.665a.5.5,0,1,1,.654.755l-3.464,3A.493.493,0,0,1,1715.417,995.6Z" fill="#0076c0"/>
    </g>
  </g>
</svg>
