<svg xmlns="http://www.w3.org/2000/svg" xmlns:xlink="http://www.w3.org/1999/xlink" width="113" height="81" viewBox="0 0 113 81">
  <defs>
    <clipPath id="clip-path">
      <rect id="Visa" width="113" height="81" transform="translate(194 707)" fill="#b71010"/>
    </clipPath>
  </defs>
  <g id="Mask_Group_902" data-name="Mask Group 902" transform="translate(-194 -707)" clip-path="url(#clip-path)">
    <g id="Visa_Inc._logo" transform="translate(188.829 718.345)">
      <path id="polygon9" d="M57.494,45.424h-8.51l5.323-32.913h8.51Z" transform="translate(-2.799 -0.045)" fill="#1a1f71"/>
      <path id="path11" d="M89.391,13.271a20.973,20.973,0,0,0-7.633-1.4c-8.4,0-14.322,4.482-14.359,10.889-.07,4.727,4.237,7.353,7.459,8.929,3.293,1.611,4.412,2.662,4.412,4.1-.034,2.2-2.661,3.221-5.111,3.221a16.938,16.938,0,0,1-7.985-1.751l-1.121-.526-1.191,7.388a25.9,25.9,0,0,0,9.491,1.752c8.93,0,14.743-4.412,14.812-11.24.034-3.747-2.24-6.618-7.143-8.964-2.977-1.506-4.8-2.521-4.8-4.062.035-1.4,1.542-2.836,4.9-2.836a14.459,14.459,0,0,1,6.339,1.26l.77.349,1.157-7.107h0Z" transform="translate(-3.845)" fill="#1a1f71"/>
      <path id="path13" d="M102.492,33.765c.7-1.891,3.4-9.209,3.4-9.209-.035.07.7-1.926,1.12-3.151l.595,2.836s1.612,7.878,1.962,9.524ZM113,12.512h-6.583c-2.03,0-3.572.595-4.448,2.731L89.325,45.424h8.93s1.47-4.062,1.786-4.937h10.926c.244,1.156,1.015,4.937,1.015,4.937h7.88L113,12.512Z" transform="translate(-5.635 -0.045)" fill="#1a1f71"/>
      <path id="path15" d="M39.75,12.512,31.415,34.955,30.5,30.4c-1.541-5.252-6.373-10.959-11.766-13.8L26.373,45.39h9L48.748,12.512h-9Z" transform="translate(-0.673 -0.045)" fill="#1a1f71"/>
      <path id="path17" d="M23,12.512H9.311l-.14.665C19.852,15.908,26.926,22.491,29.832,30.4L26.855,15.278c-.49-2.1-2-2.7-3.852-2.767Z" transform="translate(0 -0.045)" fill="#1a1f71"/>
    </g>
  </g>
</svg>
