<svg xmlns="http://www.w3.org/2000/svg" width="186" height="81" viewBox="0 0 186 81">
  <g id="ico-alipay" transform="translate(-986.035 -707)">
    <g id="Group_4051" data-name="Group 4051" transform="translate(-183 -113)">
      <rect id="item-05" width="186" height="81" transform="translate(1169.035 820)" fill="rgba(255,255,255,0)"/>
      <g id="Group_4685" data-name="Group 4685" transform="translate(1100.123 597.538)">
        <g id="Group_4115" data-name="Group 4115" transform="translate(228.067 238.982)">
          <g id="Group_4114" data-name="Group 4114">
            <path id="Path_2493" data-name="Path 2493" d="M356.591,240.729v4.35h-.763v-4.35H354.44v-.686h3.537v.686Z" transform="translate(-354.44 -240.043)" fill="#3e3a39"/>
            <path id="Path_2494" data-name="Path 2494" d="M366.471,245.079v-3.367l-1.161,2.455h-.565l-1.189-2.455v3.367h-.765v-5.036h.765l1.471,3.134,1.444-3.134h.763v5.036Z" transform="translate(-358.384 -240.043)" fill="#3e3a39"/>
          </g>
        </g>
        <g id="Group_4121" data-name="Group 4121" transform="translate(86.837 237.796)">
          <g id="Group_4120" data-name="Group 4120">
            <g id="Group_4119" data-name="Group 4119">
              <g id="Group_4116" data-name="Group 4116">
                <path id="Path_2495" data-name="Path 2495" d="M128.619,237.8H94.806a7.956,7.956,0,0,0-7.969,7.948v33.713a7.957,7.957,0,0,0,7.969,7.946h33.812a7.955,7.955,0,0,0,7.966-7.946V245.744A7.954,7.954,0,0,0,128.619,237.8Z" transform="translate(-86.837 -237.796)" fill="#009fe8"/>
                <path id="Path_2496" data-name="Path 2496" d="M131.09,274.829c-1.99-.664-4.662-1.681-7.637-2.754a39.947,39.947,0,0,0,4.151-10.458H117.8V258.1h12.012v-1.966H117.8v-5.871h-4.9a.833.833,0,0,0-.86.847v5.025H99.887V258.1h12.149v3.522H102.005v1.965H121.46a34.511,34.511,0,0,1-2.8,6.828c-6.312-2.077-13.048-3.76-17.28-2.724a9.971,9.971,0,0,0-5.474,3.095c-4.7,5.7-1.329,14.363,8.6,14.363,5.869,0,11.523-3.263,15.9-8.639,6.535,3.133,19.474,8.511,19.474,8.511V277.35S138.253,277.221,131.09,274.829Zm-27.516,7c-7.74,0-10.028-6.079-6.2-9.4a9.768,9.768,0,0,1,4.852-1.8c4.6-.453,8.853,1.3,13.876,3.74C112.567,278.96,108.071,281.828,103.573,281.828Z" transform="translate(-90.131 -243.681)" fill="#fff"/>
              </g>
              <g id="Group_4118" data-name="Group 4118" transform="translate(57.781 3.237)">
                <g id="Group_4117" data-name="Group 4117">
                  <path id="Path_2497" data-name="Path 2497" d="M310.717,248.469h14.241v2.819h5.085v-3.36a1.356,1.356,0,0,0-1.317-1.371h-8.231v-2.628h-5.323v2.628h-9.539v4.731h5.085Z" transform="translate(-247.942 -243.929)" fill="#3e3a39"/>
                  <path id="Path_2498" data-name="Path 2498" d="M252.223,244.389l-5.214,12.332h4V271.4h4.375V251.932H253.8l3.294-7.542Z" transform="translate(-220.257 -244.146)" fill="#3e3a39"/>
                  <path id="Path_2499" data-name="Path 2499" d="M330.629,278.649l-1.6-5.4a.831.831,0,0,0-.788-.594h-4.235l1.227,4.146h-4.978v-8.029h9.777v-1.912h-9.777v-3.779h9.777V261.17h-24.4v1.912h9.777v3.779h-9.777v1.912h9.777V276.8h-9.777v1.912h25l-.021-.065Z" transform="translate(-247.942 -252.071)" fill="#3e3a39"/>
                  <path id="Path_2500" data-name="Path 2500" d="M273.891,263.03a1.012,1.012,0,0,0-.9-.576H269.2l2.95,9.29h4.481Z" transform="translate(-230.739 -252.677)" fill="#3e3a39"/>
                  <path id="Path_2501" data-name="Path 2501" d="M282.155,244.814H277.61v4.75h-11.2v1.912h11.2v17.078a.787.787,0,0,1-.734.716h-2.311v1.98h5.891a1.793,1.793,0,0,0,1.7-1.773v-18H284v-1.912h-1.847Z" transform="translate(-229.417 -244.347)" fill="#3e3a39"/>
                  <path id="Path_2502" data-name="Path 2502" d="M220.693,253.119h-8.734V249.99h10.127v-1.948H211.959v-3.966h-4.514a.91.91,0,0,0-.895.925h0v3.039H196.5v1.948h10.054v3.129h-8.485v1.948h16.9s-.937,3.657-5.574,7.588c-4.153-3.144-5.542-5.65-5.542-5.65h-4.535a25.239,25.239,0,0,0,7.248,7.746,39.346,39.346,0,0,1-10.246,4.584v2.335a45.764,45.764,0,0,0,13.118-5.058,46.982,46.982,0,0,0,12.943,5.058v-2.21a53.946,53.946,0,0,1-10.022-4.776A21.194,21.194,0,0,0,220.693,253.119Z" transform="translate(-196.32 -243.998)" fill="#3e3a39"/>
                </g>
                <path id="Path_2503" data-name="Path 2503" d="M209.02,312.173l.755,2.279h2.116l-4.168-11.318h-1.618l-4.153,11.318h2.118l.788-2.279Zm-2.047-6.12,1.566,4.694h-3.188Z" transform="translate(-198.98 -271.888)" fill="#3e3a39"/>
                <path id="Path_2504" data-name="Path 2504" d="M233.44,303.135v11.318h6.854v-1.541h-4.817v-9.777Z" transform="translate(-213.85 -271.888)" fill="#3e3a39"/>
                <rect id="Rectangle_3311" data-name="Rectangle 3311" width="2.037" height="11.318" transform="translate(33.911 31.247)" fill="#3e3a39"/>
                <path id="Path_2505" data-name="Path 2505" d="M284.47,303.135h-4.4v11.318h2.037V310.1h2.362a3.492,3.492,0,1,0,0-6.967Zm-.115,5.412h-2.248v-3.872h2.248a1.863,1.863,0,0,1,1.805,1.944A1.835,1.835,0,0,1,284.355,308.547Z" transform="translate(-235.871 -271.888)" fill="#3e3a39"/>
                <path id="Path_2506" data-name="Path 2506" d="M311.8,312.173l.755,2.279h2.116L310.5,303.135h-1.618l-4.154,11.318h2.118l.787-2.279Zm-2.048-6.12,1.566,4.694H308.13Z" transform="translate(-247.516 -271.888)" fill="#3e3a39"/>
                <path id="Path_2507" data-name="Path 2507" d="M339.079,303.135l-2.22,4.822-2.255-4.822h-2.2l3.427,6.668v4.649h2.021V309.8l.013-.026,3.414-6.643Z" transform="translate(-260.585 -271.888)" fill="#3e3a39"/>
              </g>
            </g>
          </g>
        </g>
      </g>
    </g>
  </g>
</svg>
