<svg xmlns="http://www.w3.org/2000/svg" viewBox="0 0 150 150">
  <defs>
    <style>
      .cls-1, .cls-7, .cls-9 {
        opacity: 0.3;
      }

      .cls-2, .cls-4, .cls-8 {
        fill: #fff;
      }

      .cls-2, .cls-3, .cls-4, .cls-8, .cls-9 {
        stroke: #0055b8;
        stroke-miterlimit: 10;
      }

      .cls-2, .cls-3, .cls-4, .cls-8 {
        stroke-width: 2px;
      }

      .cls-10, .cls-3, .cls-9 {
        fill: none;
      }

      .cls-4 {
        stroke-linejoin: round;
      }

      .cls-5, .cls-6, .cls-7 {
        fill: #0055b8;
      }

      .cls-6 {
        font-size: 15px;
        font-family: Helvetica-Bold, Helvetica;
        font-weight: 700;
      }

      .cls-8 {
        stroke-linecap: round;
      }

      .cls-9 {
        stroke-width: 3px;
      }
    </style>
  </defs>
  <g id="Group_3380" data-name="Group 3380" transform="translate(-153 -1688)">
    <g id="Group_3520" data-name="Group 3520" transform="translate(179 1702.25)">
      <g id="Group_3509" data-name="Group 3509" class="cls-1">
        <path id="Path_1643" data-name="Path 1643" class="cls-2" d="M94.8,98.6V92.9a1.985,1.985,0,0,0-1.9-2l-3.2-.2a1.781,1.781,0,0,1-1.6-1v-.1a2.126,2.126,0,0,1-.1-1.9l1.4-2.9a1.967,1.967,0,0,0-.8-2.6l-5-2.9a2.049,2.049,0,0,0-2.7.6l-1.8,2.6a1.965,1.965,0,0,1-1.7.9h0a1.965,1.965,0,0,1-1.7-.9L74,80a2.049,2.049,0,0,0-2.7-.6l-5,2.9a1.967,1.967,0,0,0-.8,2.6l1.4,2.9a1.857,1.857,0,0,1-.1,1.9v.1a1.781,1.781,0,0,1-1.6,1L62,91a2.054,2.054,0,0,0-1.9,2v5.7a1.985,1.985,0,0,0,1.9,2l3.2.2a1.781,1.781,0,0,1,1.6,1v.1a2.126,2.126,0,0,1,.1,1.9l-1.4,2.9a1.967,1.967,0,0,0,.8,2.6l5,2.9a2.049,2.049,0,0,0,2.7-.6l1.8-2.6a1.965,1.965,0,0,1,1.7-.9h0a1.965,1.965,0,0,1,1.7.9l1.8,2.6a2.049,2.049,0,0,0,2.7.6l5-2.9a1.967,1.967,0,0,0,.8-2.6l-1.4-2.9a1.857,1.857,0,0,1,.1-1.9v-.1a1.781,1.781,0,0,1,1.6-1l3.2-.2A2.072,2.072,0,0,0,94.8,98.6Z"/>
        <circle id="Ellipse_162" data-name="Ellipse 162" class="cls-3" cx="5.8" cy="5.8" r="5.8" transform="translate(71.7 90)"/>
      </g>
      <g id="Group_3510" data-name="Group 3510" class="cls-1">
        <path id="Path_1644" data-name="Path 1644" class="cls-2" d="M28.7,79.4V74.8a1.708,1.708,0,0,0-1.5-1.6L24.7,73a1.561,1.561,0,0,1-1.3-.8v-.1a1.6,1.6,0,0,1-.1-1.5l1.1-2.3a1.58,1.58,0,0,0-.6-2.1l-4-2.3a1.577,1.577,0,0,0-2.1.5l-1.4,2.1a1.513,1.513,0,0,1-1.4.7h0a1.622,1.622,0,0,1-1.4-.7l-1.5-2A1.6,1.6,0,0,0,9.9,64l-4,2.3a1.58,1.58,0,0,0-.6,2.1l1.1,2.3a1.6,1.6,0,0,1-.1,1.5v.1A1.561,1.561,0,0,1,5,73l-2.5.2A1.708,1.708,0,0,0,1,74.8v4.6A1.561,1.561,0,0,0,2.5,81l2.5.2a1.561,1.561,0,0,1,1.3.8v.1a1.6,1.6,0,0,1,.1,1.5L5.3,85.9A1.58,1.58,0,0,0,5.9,88l4,2.3a1.577,1.577,0,0,0,2.1-.5l1.4-2.1a1.513,1.513,0,0,1,1.4-.7h0a1.622,1.622,0,0,1,1.4.7l1.4,2.1a1.6,1.6,0,0,0,2.1.5l4-2.3a1.58,1.58,0,0,0,.6-2.1l-1.1-2.3a1.6,1.6,0,0,1,.1-1.5V82a1.441,1.441,0,0,1,1.3-.8l2.5-.2A1.58,1.58,0,0,0,28.7,79.4Z"/>
        <circle id="Ellipse_163" data-name="Ellipse 163" class="cls-3" cx="4.7" cy="4.7" r="4.7" transform="translate(10.1 72.4)"/>
      </g>
      <g id="Group_3517" data-name="Group 3517" class="cls-1">
        <g id="Group_3513" data-name="Group 3513">
          <g id="Group_3512" data-name="Group 3512">
            <g id="Group_3511" data-name="Group 3511">
              <path id="Path_1645" data-name="Path 1645" class="cls-4" d="M80.2,48.6c10.2-3.2,17.7-12.3,17.7-20.5,0-2.9,0-14.1.1-17.3A31.465,31.465,0,0,1,84.7,7.6a24.32,24.32,0,0,1-4.5-2.8,28.525,28.525,0,0,1-4.5,2.8,31.465,31.465,0,0,1-13.3,3.2c0,3.3.1,14.5.1,17.3C62.4,36.3,70,45.4,80.2,48.6Z"/>
            </g>
          </g>
        </g>
        <g id="Group_3516" data-name="Group 3516" class="cls-1">
          <g id="Group_3515" data-name="Group 3515">
            <g id="Group_3514" data-name="Group 3514">
              <path id="Path_1646" data-name="Path 1646" class="cls-5" d="M80.4,44.7C88.8,42,94.9,34.6,94.9,27.9V13.7A27.121,27.121,0,0,1,84,11.1a20.627,20.627,0,0,1-3.7-2.3V44.7Z"/>
            </g>
          </g>
        </g>
      </g>
      <text id="FREE_" data-name="FREE !" class="cls-6" transform="translate(6.624 12.75)"><tspan x="0" y="0">FREE !</tspan></text>
      <path id="Path_1647" data-name="Path 1647" class="cls-2" d="M68.8,100.1H25.6a3.8,3.8,0,0,1-3.8-3.8V22.8A3.8,3.8,0,0,1,25.6,19H68.8a3.8,3.8,0,0,1,3.8,3.8V96.3A3.8,3.8,0,0,1,68.8,100.1Z"/>
      <g id="Group_3518" data-name="Group 3518" class="cls-1">
        <path id="Path_1648" data-name="Path 1648" class="cls-5" d="M63,49.6H31.5a1.965,1.965,0,0,1-1.9-1.9L28,27.5a2,2,0,0,1,1.8-2.3h35a1.95,1.95,0,0,1,1.8,2.3L65,47.7A2.324,2.324,0,0,1,63,49.6Z"/>
      </g>
      <g id="Group_3519" data-name="Group 3519">
        <path id="Path_1649" data-name="Path 1649" class="cls-7" d="M37.8,68.5H30.6a.789.789,0,0,1-.8-.8V64.4a.789.789,0,0,1,.8-.8h7.2a.789.789,0,0,1,.8.8v3.3C38.5,68.1,38.2,68.5,37.8,68.5Z"/>
        <path id="Path_1650" data-name="Path 1650" class="cls-7" d="M50.8,68.5H43.6a.789.789,0,0,1-.8-.8V64.4a.789.789,0,0,1,.8-.8h7.2a.789.789,0,0,1,.8.8v3.3A.86.86,0,0,1,50.8,68.5Z"/>
        <path id="Path_1651" data-name="Path 1651" class="cls-7" d="M63.8,68.5H56.6a.789.789,0,0,1-.8-.8V64.4a.789.789,0,0,1,.8-.8h7.2a.789.789,0,0,1,.8.8v3.3A.86.86,0,0,1,63.8,68.5Z"/>
        <path id="Path_1652" data-name="Path 1652" class="cls-7" d="M37.8,59.8H30.6a.789.789,0,0,1-.8-.8V55.7a.789.789,0,0,1,.8-.8h7.2a.789.789,0,0,1,.8.8V59C38.5,59.5,38.2,59.8,37.8,59.8Z"/>
        <path id="Path_1653" data-name="Path 1653" class="cls-7" d="M50.8,59.8H43.6a.789.789,0,0,1-.8-.8V55.7a.789.789,0,0,1,.8-.8h7.2a.789.789,0,0,1,.8.8V59A.789.789,0,0,1,50.8,59.8Z"/>
        <path id="Path_1654" data-name="Path 1654" class="cls-7" d="M63.8,59.8H56.6a.789.789,0,0,1-.8-.8V55.7a.789.789,0,0,1,.8-.8h7.2a.789.789,0,0,1,.8.8V59A.789.789,0,0,1,63.8,59.8Z"/>
        <path id="Path_1655" data-name="Path 1655" class="cls-7" d="M37.8,77.1H30.6a.789.789,0,0,1-.8-.8V73a.789.789,0,0,1,.8-.8h7.2a.789.789,0,0,1,.8.8v3.3C38.5,76.8,38.2,77.1,37.8,77.1Z"/>
        <path id="Path_1656" data-name="Path 1656" class="cls-7" d="M50.8,77.1H43.6a.789.789,0,0,1-.8-.8V73a.789.789,0,0,1,.8-.8h7.2a.789.789,0,0,1,.8.8v3.3A.789.789,0,0,1,50.8,77.1Z"/>
        <path id="Path_1657" data-name="Path 1657" class="cls-7" d="M63.8,77.1H56.6a.789.789,0,0,1-.8-.8V73a.789.789,0,0,1,.8-.8h7.2a.789.789,0,0,1,.8.8v3.3A.789.789,0,0,1,63.8,77.1Z"/>
        <path id="Path_1658" data-name="Path 1658" class="cls-5" d="M37.2,85.6l-6.4-.8a1.063,1.063,0,0,1-.9-1V81.7a.9.9,0,0,1,.9-.9h6.4a1.266,1.266,0,0,1,1.4,1.1v2.7A1.174,1.174,0,0,1,37.2,85.6Z"/>
        <path id="Path_1659" data-name="Path 1659" class="cls-5" d="M57.3,85.6l6.4-.8a1.063,1.063,0,0,0,.9-1V81.7a.9.9,0,0,0-.9-.9H57.3a1.266,1.266,0,0,0-1.4,1.1v2.7C55.9,85.3,56.5,85.7,57.3,85.6Z"/>
        <path id="Path_1660" data-name="Path 1660" class="cls-5" d="M50.8,85.8H43.6a.789.789,0,0,1-.8-.8V81.7a.789.789,0,0,1,.8-.8h7.2a.789.789,0,0,1,.8.8V85A.86.86,0,0,1,50.8,85.8Z"/>
      </g>
      <path id="Path_1661" data-name="Path 1661" class="cls-2" d="M34.2,92.2v19.4c0,1.5,1.5,2.7,3.4,2.7H56.8c1.9,0,3.4-1.2,3.4-2.7V92.2Z"/>
      <line id="Line_1313" data-name="Line 1313" class="cls-8" x2="32.3" transform="translate(31.1 92.2)"/>
      <line id="Line_1314" data-name="Line 1314" class="cls-9" y1="22.1" transform="translate(52.4 92.2)"/>
    </g>
    <g id="Group_2652" data-name="Group 2652" transform="translate(152.5 1687.5)">
      <rect id="Rectangle_1962" data-name="Rectangle 1962" class="cls-10" width="150" height="150" transform="translate(0.5 0.5)"/>
    </g>
  </g>
</svg>
