<svg xmlns="http://www.w3.org/2000/svg" width="150" height="150" viewBox="0 0 150 150">
  <g id="Group_3991" data-name="Group 3991" transform="translate(-2337.809 -944.797)">
    <rect id="Rectangle_3228" data-name="Rectangle 3228" width="150" height="150" transform="translate(2337.809 944.797)" fill="none"/>
    <g id="Group_3990" data-name="Group 3990">
      <g id="Group_3975" data-name="Group 3975">
        <path id="Path_2345" data-name="Path 2345" d="M2439.313,1025.181v-39.5a4.579,4.579,0,0,0-9.159,0v44.063h13.737A4.578,4.578,0,0,1,2439.313,1025.181Z" fill="#fff"/>
        <path id="Path_2346" data-name="Path 2346" d="M2443.892,1030.741h-14.739V985.679a5.58,5.58,0,1,1,11.16,0v39.5a3.587,3.587,0,0,0,3.579,3.562Zm-12.739-2h8.465a5.562,5.562,0,0,1-1.3-3.556V985.679a3.58,3.58,0,1,0-7.16,0Z" fill="#0076c0"/>
      </g>
      <g id="Group_3976" data-name="Group 3976" opacity="0.3">
        <path id="Path_2347" data-name="Path 2347" d="M2439.313,1025.181v-39.5a4.579,4.579,0,0,0-9.159,0v44.063h13.737A4.578,4.578,0,0,1,2439.313,1025.181Z" fill="#0076c0"/>
        <path id="Path_2348" data-name="Path 2348" d="M2443.892,1030.741h-14.739V985.679a5.58,5.58,0,1,1,11.16,0v39.5a3.587,3.587,0,0,0,3.579,3.562Zm-12.739-2h8.465a5.562,5.562,0,0,1-1.3-3.556V985.679a3.58,3.58,0,1,0-7.16,0Z" fill="#0076c0"/>
      </g>
      <g id="Group_3982" data-name="Group 3982">
        <g id="Group_3977" data-name="Group 3977">
          <rect id="Rectangle_3229" data-name="Rectangle 3229" width="40.572" height="64.758" rx="3.812" transform="translate(2405.954 990.16)" fill="#fff"/>
          <path id="Path_2349" data-name="Path 2349" d="M2442.714,1055.918h-32.947a4.817,4.817,0,0,1-4.813-4.812V993.973a4.818,4.818,0,0,1,4.813-4.813h32.947a4.818,4.818,0,0,1,4.812,4.813v57.133A4.817,4.817,0,0,1,2442.714,1055.918Zm-32.947-64.758a2.816,2.816,0,0,0-2.813,2.813v57.133a2.816,2.816,0,0,0,2.813,2.812h32.947a2.815,2.815,0,0,0,2.812-2.812V993.973a2.815,2.815,0,0,0-2.812-2.813Z" fill="#fff"/>
        </g>
        <g id="Group_3978" data-name="Group 3978" opacity="0.3">
          <rect id="Rectangle_3230" data-name="Rectangle 3230" width="40.572" height="64.758" rx="3.812" transform="translate(2405.954 989.936)" fill="#fff"/>
          <path id="Path_2350" data-name="Path 2350" d="M2442.714,1055.693h-32.947a4.817,4.817,0,0,1-4.813-4.811V993.748a4.818,4.818,0,0,1,4.813-4.812h32.947a4.818,4.818,0,0,1,4.812,4.812v57.134A4.817,4.817,0,0,1,2442.714,1055.693Zm-32.947-64.757a2.815,2.815,0,0,0-2.813,2.812v57.134a2.815,2.815,0,0,0,2.813,2.811h32.947a2.814,2.814,0,0,0,2.812-2.811V993.748a2.815,2.815,0,0,0-2.812-2.812Z" fill="#0076c0"/>
        </g>
        <path id="Path_2351" data-name="Path 2351" d="M2438.816,1014.333h-25.151a1.6,1.6,0,0,1-1.537-1.485l-1.31-16.171a1.551,1.551,0,0,1,1.43-1.806h27.985a1.55,1.55,0,0,1,1.429,1.806l-1.309,16.171A1.6,1.6,0,0,1,2438.816,1014.333Z" fill="#0076c0" opacity="0.15"/>
        <g id="Group_3979" data-name="Group 3979">
          <rect id="Rectangle_3231" data-name="Rectangle 3231" width="6.948" height="3.896" rx="0.773" transform="translate(2412.366 1025.549)" fill="#e7f2f9"/>
          <rect id="Rectangle_3232" data-name="Rectangle 3232" width="6.948" height="3.896" rx="0.773" transform="translate(2422.767 1025.549)" fill="#e7f2f9"/>
          <rect id="Rectangle_3233" data-name="Rectangle 3233" width="6.948" height="3.896" rx="0.773" transform="translate(2433.167 1025.549)" fill="#e7f2f9"/>
          <rect id="Rectangle_3234" data-name="Rectangle 3234" width="6.948" height="3.896" rx="0.773" transform="translate(2412.366 1018.643)" fill="#e7f2f9"/>
          <rect id="Rectangle_3235" data-name="Rectangle 3235" width="6.948" height="3.896" rx="0.773" transform="translate(2422.767 1018.643)" fill="#e7f2f9"/>
          <rect id="Rectangle_3236" data-name="Rectangle 3236" width="6.948" height="3.896" rx="0.773" transform="translate(2433.167 1018.643)" fill="#e7f2f9"/>
          <rect id="Rectangle_3237" data-name="Rectangle 3237" width="6.948" height="3.896" rx="0.773" transform="translate(2412.366 1032.455)" fill="#e7f2f9"/>
          <rect id="Rectangle_3238" data-name="Rectangle 3238" width="6.948" height="3.896" rx="0.773" transform="translate(2422.767 1032.455)" fill="#e7f2f9"/>
          <rect id="Rectangle_3239" data-name="Rectangle 3239" width="6.948" height="3.896" rx="0.773" transform="translate(2433.167 1032.455)" fill="#e7f2f9"/>
          <path id="Path_2352" data-name="Path 2352" d="M2418.209,1043.116l-5.138-.655a.81.81,0,0,1-.7-.775v-1.641a.692.692,0,0,1,.7-.685h5.138a1.02,1.02,0,0,1,1.1.886v2.125C2419.314,1042.86,2418.81,1043.192,2418.209,1043.116Z" fill="#0076c0" opacity="0.3"/>
          <path id="Path_2353" data-name="Path 2353" d="M2434.271,1043.116l5.138-.655a.81.81,0,0,0,.705-.775v-1.641a.692.692,0,0,0-.705-.685h-5.138a1.02,1.02,0,0,0-1.1.886v2.125C2433.167,1042.86,2433.671,1043.192,2434.271,1043.116Z" fill="#0076c0" opacity="0.3"/>
          <rect id="Rectangle_3240" data-name="Rectangle 3240" width="6.948" height="3.896" rx="0.773" transform="translate(2422.767 1039.36)" fill="#0076c0" opacity="0.3"/>
        </g>
        <g id="Group_3980" data-name="Group 3980">
          <path id="Path_2354" data-name="Path 2354" d="M2415.84,1048.4v11.5a2.5,2.5,0,0,0,2.733,2.179h15.335a2.5,2.5,0,0,0,2.732-2.179v-11.5Z" fill="#fff"/>
          <path id="Path_2355" data-name="Path 2355" d="M2433.908,1063.073h-15.335a3.493,3.493,0,0,1-3.733-3.177v-12.5h22.8v12.5A3.494,3.494,0,0,1,2433.908,1063.073ZM2416.84,1049.4v10.5c0,.638.794,1.177,1.733,1.177h15.335c.94,0,1.733-.539,1.733-1.177v-10.5Z" fill="#b2d5ec"/>
        </g>
        <rect id="Rectangle_3241" data-name="Rectangle 3241" width="3" height="11.725" transform="translate(2428.91 1049.346)" fill="#0076c0" opacity="0.3"/>
        <g id="Group_3981" data-name="Group 3981">
          <line id="Line_1249" data-name="Line 1249" x2="25.787" transform="translate(2413.347 1048.396)" fill="#fff"/>
          <path id="Path_2356" data-name="Path 2356" d="M2439.134,1049.4h-25.787a1,1,0,0,1,0-2h25.787a1,1,0,0,1,0,2Z" fill="#b2d5ec"/>
        </g>
      </g>
      <g id="Group_3983" data-name="Group 3983">
        <path id="Path_2357" data-name="Path 2357" d="M2430.114,981.1h-28.142a4.757,4.757,0,0,0-4.757,4.757v59.2h28.319a4.579,4.579,0,0,0,4.58-4.579v-54.8a4.58,4.58,0,0,1,4.58-4.579Z" fill="#fff"/>
        <path id="Path_2358" data-name="Path 2358" d="M2425.534,1046.06h-29.319V985.855a5.763,5.763,0,0,1,5.757-5.756h32.722v2a3.585,3.585,0,0,0-3.58,3.58v54.8A5.586,5.586,0,0,1,2425.534,1046.06Zm-27.319-2h27.319a3.585,3.585,0,0,0,3.58-3.581v-54.8a5.552,5.552,0,0,1,1.3-3.58h-28.445a3.76,3.76,0,0,0-3.757,3.756Z" fill="#0076c0"/>
      </g>
      <g id="Group_3984" data-name="Group 3984">
        <path id="Path_2359" data-name="Path 2359" d="M2420.957,1040.5V1001a4.58,4.58,0,1,0-9.16,0v44.062h13.737A4.578,4.578,0,0,1,2420.957,1040.5Z" fill="#fff"/>
        <path id="Path_2360" data-name="Path 2360" d="M2425.534,1046.06H2410.8V1001a5.58,5.58,0,1,1,11.16,0v39.5a3.587,3.587,0,0,0,3.577,3.563Zm-12.737-2h8.465a5.558,5.558,0,0,1-1.3-3.557V1001a3.58,3.58,0,1,0-7.16,0Z" fill="#0076c0"/>
      </g>
      <g id="Group_3985" data-name="Group 3985" opacity="0.3">
        <path id="Path_2361" data-name="Path 2361" d="M2420.957,1040.5V1001a4.58,4.58,0,1,0-9.16,0v44.062h13.737A4.578,4.578,0,0,1,2420.957,1040.5Z" fill="#0076c0"/>
        <path id="Path_2362" data-name="Path 2362" d="M2425.534,1046.06H2410.8V1001a5.58,5.58,0,1,1,11.16,0v39.5a3.587,3.587,0,0,0,3.577,3.563Zm-12.737-2h8.465a5.558,5.558,0,0,1-1.3-3.557V1001a3.58,3.58,0,1,0-7.16,0Z" fill="#0076c0"/>
      </g>
      <path id="Path_2363" data-name="Path 2363" d="M2416.039,988.79h-13.676a.5.5,0,0,1,0-1h13.676a.5.5,0,0,1,0,1Z" fill="#0055b8" opacity="0.3"/>
      <path id="Path_2364" data-name="Path 2364" d="M2426.333,988.79h-4.721a.5.5,0,0,1,0-1h4.721a.5.5,0,0,1,0,1Z" fill="#0055b8" opacity="0.3"/>
      <path id="Path_2365" data-name="Path 2365" d="M2426.333,994.579h-4.721a.5.5,0,0,1,0-1h4.721a.5.5,0,0,1,0,1Z" fill="#0055b8" opacity="0.3"/>
      <g id="Group_3986" data-name="Group 3986">
        <path id="Path_2366" data-name="Path 2366" d="M2411.8,996.417h-27.586a6.159,6.159,0,0,0-6.158,6.159v66.156l3.956-3.881,4.293,4.211,4.293-4.211,4.293,4.211,4.294-4.211,4.293,4.211h.065l4.293-4.211,3.964,3.889V1001a4.58,4.58,0,0,1,4.58-4.58Z" fill="#fff"/>
        <path id="Path_2367" data-name="Path 2367" d="M2403.54,1070.063a1.161,1.161,0,0,1-.766-.287l-3.592-3.524-3.593,3.524a1,1,0,0,1-1.4,0l-3.593-3.524-3.593,3.524a1,1,0,0,1-1.4,0l-3.593-3.524-3.256,3.193a1,1,0,0,1-1.7-.714v-66.155a7.167,7.167,0,0,1,7.158-7.159h32.166a1,1,0,0,1,0,2,3.584,3.584,0,0,0-3.58,3.58v67.742a1,1,0,0,1-1.7.714l-3.264-3.2-3.593,3.524A1,1,0,0,1,2403.54,1070.063Zm-4.358-6.211a1,1,0,0,1,.7.286l3.626,3.555,3.625-3.555a1,1,0,0,1,1.4,0l2.264,2.219V1001a5.556,5.556,0,0,1,1.3-3.58h-27.889a5.164,5.164,0,0,0-5.158,5.159v63.774l2.256-2.212a1,1,0,0,1,1.4,0l3.593,3.524,3.593-3.524a1,1,0,0,1,1.4,0l3.594,3.524,3.592-3.524A1,1,0,0,1,2399.182,1063.852Z" fill="#0076c0"/>
      </g>
      <g id="Group_3989" data-name="Group 3989">
        <path id="Path_2368" data-name="Path 2368" d="M2395.771,1008.558H2382.1a.5.5,0,0,1,0-1h13.674a.5.5,0,0,1,0,1Z" fill="#0055b8" opacity="0.3"/>
        <path id="Path_2369" data-name="Path 2369" d="M2390.4,1014.192h-8.3a.5.5,0,0,1,0-1h8.3a.5.5,0,0,1,0,1Z" fill="#0055b8" opacity="0.3"/>
        <path id="Path_2370" data-name="Path 2370" d="M2393.33,1020.4H2382.1a.5.5,0,0,1,0-1h11.233a.5.5,0,0,1,0,1Z" fill="#0055b8" opacity="0.3"/>
        <path id="Path_2371" data-name="Path 2371" d="M2407.085,1027.4H2382.1a.5.5,0,0,1,0-1h24.988a.5.5,0,0,1,0,1Z" fill="#0055b8" opacity="0.3"/>
        <path id="Path_2372" data-name="Path 2372" d="M2407.085,1034.121H2382.1a.5.5,0,0,1,0-1h24.988a.5.5,0,0,1,0,1Z" fill="#0055b8" opacity="0.3"/>
        <path id="Path_2373" data-name="Path 2373" d="M2407.085,1043.673H2400.8a.5.5,0,0,1,0-1h6.285a.5.5,0,0,1,0,1Z" fill="#0055b8" opacity="0.3"/>
        <path id="Path_2374" data-name="Path 2374" d="M2407.085,1051.535H2400.8a.5.5,0,0,1,0-1h6.285a.5.5,0,0,1,0,1Z" fill="#0055b8" opacity="0.3"/>
        <path id="Path_2375" data-name="Path 2375" d="M2407.085,1008.558h-4.722a.5.5,0,0,1,0-1h4.722a.5.5,0,0,1,0,1Z" fill="#0055b8" opacity="0.3"/>
        <path id="Path_2376" data-name="Path 2376" d="M2407.085,1020.4h-4.722a.5.5,0,0,1,0-1h4.722a.5.5,0,0,1,0,1Z" fill="#0055b8" opacity="0.3"/>
        <g id="Group_3988" data-name="Group 3988" opacity="0.3">
          <g id="Group_3987" data-name="Group 3987">
            <path id="Path_2377" data-name="Path 2377" d="M2383.618,1042.243a1.033,1.033,0,0,1,1.048-1.049h4.261a4.27,4.27,0,0,1,3.094,1.049,2.649,2.649,0,0,1,.794,1.961v.034a2.817,2.817,0,0,1-1.69,2.637c1.387.474,2.35,1.269,2.35,2.874v.034c0,2.113-1.742,3.246-4.379,3.246h-4.43a1.032,1.032,0,0,1-1.048-1.048Zm4.886,3.939c1.336,0,2.232-.524,2.232-1.606v-.034c0-.93-.744-1.505-2.08-1.505h-2.992v3.145Zm.609,5.005c1.42,0,2.283-.558,2.283-1.624v-.034c0-1-.795-1.589-2.435-1.589h-3.3v3.247Z" fill="#0055b8"/>
          </g>
          <path id="Path_2378" data-name="Path 2378" d="M2387.759,1042.93a1,1,0,0,1-1-1v-1.837a1,1,0,0,1,2,0v1.837A1,1,0,0,1,2387.759,1042.93Z" fill="#0055b8"/>
          <path id="Path_2379" data-name="Path 2379" d="M2387.759,1055.054a1,1,0,0,1-1-1v-1.736a1,1,0,0,1,2,0v1.736A1,1,0,0,1,2387.759,1055.054Z" fill="#0055b8"/>
        </g>
      </g>
    </g>
  </g>
</svg>
