<svg xmlns="http://www.w3.org/2000/svg" xmlns:xlink="http://www.w3.org/1999/xlink" width="150" height="150" viewBox="0 0 150 150">
  <defs>
    <clipPath id="clip-path">
      <rect id="Rectangle_3220" data-name="Rectangle 3220" width="11.319" height="16.377" transform="translate(2373.965 818.546)" fill="none"/>
    </clipPath>
  </defs>
  <g id="Group_3974" data-name="Group 3974" transform="translate(-2336.809 -773.252)">
    <rect id="Rectangle_3218" data-name="Rectangle 3218" width="150" height="150" transform="translate(2336.809 773.252)" fill="none"/>
    <g id="Group_3973" data-name="Group 3973">
      <rect id="Rectangle_3219" data-name="Rectangle 3219" width="61.193" height="29.815" rx="2.5" transform="translate(2389.482 806.04)" fill="#0076c0" opacity="0.3"/>
      <g id="Group_3964" data-name="Group 3964">
        <g id="Group_3963" data-name="Group 3963" clip-path="url(#clip-path)">
          <g id="Group_3962" data-name="Group 3962" opacity="0.3">
            <g id="Group_3960" data-name="Group 3960">
              <circle id="Ellipse_167" data-name="Ellipse 167" cx="6.289" cy="6.289" r="6.289" transform="translate(2375.817 821.014)" fill="#fff"/>
              <path id="Path_2324" data-name="Path 2324" d="M2382.106,834.342a7.039,7.039,0,1,1,7.039-7.039A7.047,7.047,0,0,1,2382.106,834.342Zm0-12.578a5.539,5.539,0,1,0,5.539,5.539A5.545,5.545,0,0,0,2382.106,821.764Z" fill="#0076c0"/>
            </g>
            <g id="Group_3961" data-name="Group 3961">
              <path id="Path_2325" data-name="Path 2325" d="M2379.838,824.7a.524.524,0,0,1,.532-.533h2.165a2.167,2.167,0,0,1,1.572.533,1.347,1.347,0,0,1,.4,1v.018a1.432,1.432,0,0,1-.859,1.34,1.474,1.474,0,0,1,1.194,1.46v.017c0,1.074-.885,1.65-2.225,1.65h-2.251a.525.525,0,0,1-.532-.533Zm2.482,2c.679,0,1.134-.265,1.134-.815v-.018c0-.472-.378-.764-1.057-.764h-1.52v1.6Zm.31,2.543c.722,0,1.159-.283,1.159-.824V828.4c0-.506-.4-.807-1.236-.807h-1.676v1.649Z" fill="#0076c0"/>
            </g>
            <path id="Path_2326" data-name="Path 2326" d="M2381.918,824.724a.5.5,0,0,1-.5-.5v-.489a.5.5,0,0,1,1,0v.489A.5.5,0,0,1,2381.918,824.724Z" fill="#0076c0"/>
            <path id="Path_2327" data-name="Path 2327" d="M2381.918,831.126a.5.5,0,0,1-.5-.5v-.656a.5.5,0,0,1,1,0v.656A.5.5,0,0,1,2381.918,831.126Z" fill="#0076c0"/>
          </g>
        </g>
      </g>
      <g id="Group_3965" data-name="Group 3965" opacity="0.3">
        <path id="Path_2328" data-name="Path 2328" d="M2447.138,847.278a.206.206,0,0,1,.206.206v24.09a.206.206,0,0,1-.206.206h-53.991a.206.206,0,0,1-.206-.206v-24.09a.206.206,0,0,1,.206-.206h53.991m0-1h-53.991a1.206,1.206,0,0,0-1.206,1.206v24.09a1.206,1.206,0,0,0,1.206,1.206h53.991a1.206,1.206,0,0,0,1.206-1.206v-24.09a1.206,1.206,0,0,0-1.206-1.206Z" fill="#0076c0"/>
        <path id="Rectangle_3221" data-name="Rectangle 3221" d="M1.206,0H55.2A1.206,1.206,0,0,1,56.4,1.206V3.837a0,0,0,0,1,0,0H0a0,0,0,0,1,0,0V1.206A1.206,1.206,0,0,1,1.206,0Z" transform="translate(2391.941 846.278)" fill="#0076c0"/>
        <rect id="Rectangle_3222" data-name="Rectangle 3222" width="1" height="26.503" transform="translate(2436.645 846.277)" fill="#0076c0"/>
        <rect id="Rectangle_3223" data-name="Rectangle 3223" width="1" height="26.503" transform="translate(2424.654 846.277)" fill="#0076c0"/>
      </g>
      <g id="Group_3966" data-name="Group 3966">
        <path id="Path_2329" data-name="Path 2329" d="M2372.984,882.249l4.571-4.018-4.571-4.018,2.285,4.018Z" fill="#0076c0"/>
        <path id="Path_2330" data-name="Path 2330" d="M2372.984,883.249a1,1,0,0,1-.869-1.494l2-3.524-2-3.523a1,1,0,0,1,1.53-1.245l4.57,4.017a1,1,0,0,1,0,1.5l-4.57,4.018A1,1,0,0,1,2372.984,883.249Z" fill="#0076c0"/>
      </g>
      <path id="Path_2331" data-name="Path 2331" d="M2451.595,879.813H2388.69a4.412,4.412,0,0,1-4.406-4.407V843.7a4.4,4.4,0,0,0,0-6.813v-31.71a4.412,4.412,0,0,1,4.406-4.407h62.905a4.412,4.412,0,0,1,4.406,4.407v31.71a4.4,4.4,0,0,0,0,6.813v31.711A4.412,4.412,0,0,1,2451.595,879.813Zm-62.905-38.524a2.408,2.408,0,0,0-2.406,2.406v31.711a2.409,2.409,0,0,0,2.406,2.407h62.905a2.409,2.409,0,0,0,2.406-2.407V843.7a2.408,2.408,0,0,0-2.406-2.406,1,1,0,0,1,0-2,2.409,2.409,0,0,0,2.406-2.407v-31.71a2.409,2.409,0,0,0-2.406-2.407H2388.69a2.409,2.409,0,0,0-2.406,2.407v31.71a2.409,2.409,0,0,0,2.406,2.407,1,1,0,0,1,0,2Z" fill="#0076c0"/>
      <rect id="Rectangle_3224" data-name="Rectangle 3224" width="23.77" height="4.072" rx="0.573" transform="translate(2423.912 810.484)" fill="#0076c0" opacity="0.3"/>
      <rect id="Rectangle_3225" data-name="Rectangle 3225" width="37.771" height="2.363" rx="0.573" transform="translate(2409.911 817.431)" fill="#0076c0" opacity="0.3"/>
      <rect id="Rectangle_3226" data-name="Rectangle 3226" width="14.164" height="1.283" rx="0.527" transform="translate(2433.518 822.837)" fill="#0076c0" opacity="0.3"/>
      <rect id="Rectangle_3227" data-name="Rectangle 3227" width="14.164" height="1.283" rx="0.527" transform="translate(2414.737 822.837)" fill="#0076c0" opacity="0.3"/>
      <g id="Group_3969" data-name="Group 3969" opacity="0.3">
        <g id="Group_3967" data-name="Group 3967">
          <circle id="Ellipse_168" data-name="Ellipse 168" cx="11.459" cy="11.459" r="11.459" transform="translate(2358.377 833.358)" fill="#fff"/>
          <path id="Path_2332" data-name="Path 2332" d="M2369.836,857.277a12.46,12.46,0,1,1,12.46-12.46A12.473,12.473,0,0,1,2369.836,857.277Zm0-22.919a10.46,10.46,0,1,0,10.46,10.459A10.47,10.47,0,0,0,2369.836,834.358Z" fill="#0076c0"/>
        </g>
        <g id="Group_3968" data-name="Group 3968">
          <path id="Path_2333" data-name="Path 2333" d="M2365.7,840.074a.955.955,0,0,1,.971-.97h3.945a3.955,3.955,0,0,1,2.864.97,2.454,2.454,0,0,1,.737,1.817v.031a2.611,2.611,0,0,1-1.566,2.442,2.688,2.688,0,0,1,2.176,2.661v.032c0,1.957-1.612,3.006-4.055,3.006h-4.1a.956.956,0,0,1-.971-.971Zm4.525,3.648c1.236,0,2.066-.486,2.066-1.488V842.2c0-.86-.689-1.392-1.926-1.392h-2.77v2.911Zm.563,4.634c1.315,0,2.113-.516,2.113-1.5v-.032c0-.924-.735-1.471-2.254-1.471H2367.6v3.005Z" fill="#0076c0"/>
        </g>
        <path id="Path_2334" data-name="Path 2334" d="M2369.532,840.08a.5.5,0,0,1-.5-.5v-1.262a.5.5,0,0,1,1,0v1.262A.5.5,0,0,1,2369.532,840.08Z" fill="#0076c0"/>
        <path id="Path_2335" data-name="Path 2335" d="M2369.532,851.374a.5.5,0,0,1-.5-.5v-1.551a.5.5,0,0,1,1,0v1.551A.5.5,0,0,1,2369.532,851.374Z" fill="#0076c0"/>
      </g>
      <g id="Group_3972" data-name="Group 3972">
        <g id="Group_3970" data-name="Group 3970">
          <circle id="Ellipse_169" data-name="Ellipse 169" cx="18.245" cy="18.245" r="18.245" transform="translate(2383.652 857.768)" fill="#fff"/>
          <path id="Path_2336" data-name="Path 2336" d="M2401.9,895.259a19.245,19.245,0,1,1,19.246-19.245A19.268,19.268,0,0,1,2401.9,895.259Zm0-36.49a17.245,17.245,0,1,0,17.246,17.245A17.265,17.265,0,0,0,2401.9,858.769Z" fill="#0076c0"/>
        </g>
        <g id="Group_3971" data-name="Group 3971">
          <path id="Path_2337" data-name="Path 2337" d="M2395.316,868.458a1.522,1.522,0,0,1,1.546-1.546h6.284a6.3,6.3,0,0,1,4.562,1.546,3.914,3.914,0,0,1,1.172,2.893v.049a4.158,4.158,0,0,1-2.493,3.89c2.044.7,3.466,1.869,3.466,4.238v.05c0,3.116-2.569,4.787-6.458,4.787h-6.533a1.522,1.522,0,0,1-1.546-1.546Zm7.205,5.81c1.97,0,3.292-.774,3.292-2.37v-.049c0-1.371-1.1-2.219-3.067-2.219h-4.413v4.638Zm.9,7.379c2.095,0,3.366-.822,3.366-2.393v-.05c0-1.471-1.172-2.344-3.59-2.344h-4.862v4.787Z" fill="#0076c0"/>
        </g>
        <path id="Path_2338" data-name="Path 2338" d="M2401.472,869.246a1,1,0,0,1-1-1v-2.99a1,1,0,0,1,2,0v2.99A1,1,0,0,1,2401.472,869.246Z" fill="#0076c0"/>
        <path id="Path_2339" data-name="Path 2339" d="M2401.472,887.153a1,1,0,0,1-1-1v-3.078a1,1,0,0,1,2,0v3.078A1,1,0,0,1,2401.472,887.153Z" fill="#0076c0"/>
      </g>
      <path id="Path_2340" data-name="Path 2340" d="M2360.068,858.862a12.358,12.358,0,0,0-.578,7.109,12.549,12.549,0,0,0,3.143,6.128,12.845,12.845,0,0,0,5.673,3.485,20.462,20.462,0,0,0,6.678.648l.082,0a2.007,2.007,0,1,1,.183,4.009,2.331,2.331,0,0,1-.265-.005,23.852,23.852,0,0,1-7.763-1.851,15.347,15.347,0,0,1-6.146-5.028,14.048,14.048,0,0,1-2.576-7.247A12.856,12.856,0,0,1,2360.068,858.862Z" fill="#0076c0"/>
      <path id="Path_2341" data-name="Path 2341" d="M2389.673,896.278h-16.045a.5.5,0,0,1,0-1h16.045a.5.5,0,0,1,0,1Z" fill="#0076c0" opacity="0.3"/>
      <path id="Path_2342" data-name="Path 2342" d="M2382.879,892.7h-6.4a.5.5,0,0,1,0-1h6.4a.5.5,0,0,1,0,1Z" fill="#0076c0" opacity="0.3"/>
      <path id="Path_2343" data-name="Path 2343" d="M2379.632,889.121h-10.415a.5.5,0,0,1,0-1h10.415a.5.5,0,0,1,0,1Z" fill="#0076c0" opacity="0.3"/>
      <path id="Path_2344" data-name="Path 2344" d="M2451.595,841.289H2388.69a1,1,0,0,1,0-2h62.905a1,1,0,0,1,0,2Z" fill="#0076c0" opacity="0.3"/>
    </g>
  </g>
</svg>
