<svg xmlns="http://www.w3.org/2000/svg" width="150" height="150" viewBox="0 0 150 150">
  <g id="Group_3959" data-name="Group 3959" transform="translate(-2336.446 -602.813)">
    <rect id="Rectangle_3205" data-name="Rectangle 3205" width="150" height="150" transform="translate(2336.446 602.813)" fill="none"/>
    <g id="Group_3958" data-name="Group 3958">
      <g id="Group_3943" data-name="Group 3943" opacity="0.3">
        <g id="Group_3942" data-name="Group 3942">
          <path id="Path_2308" data-name="Path 2308" d="M2456,716.344v-5.32a1.867,1.867,0,0,0-1.732-1.862l-2.94-.214a1.859,1.859,0,0,1-1.479-.934l-.044-.078a1.855,1.855,0,0,1-.066-1.741l1.285-2.653a1.868,1.868,0,0,0-.747-2.431l-4.608-2.66a1.867,1.867,0,0,0-2.478.568l-1.653,2.435a1.889,1.889,0,0,1-1.582.81h-.02a1.889,1.889,0,0,1-1.582-.81l-1.653-2.435a1.867,1.867,0,0,0-2.478-.568l-4.608,2.66a1.869,1.869,0,0,0-.747,2.431l1.285,2.653a1.855,1.855,0,0,1-.066,1.741l-.044.077a1.857,1.857,0,0,1-1.479.935l-2.94.214a1.867,1.867,0,0,0-1.732,1.862v5.32a1.867,1.867,0,0,0,1.732,1.862l2.94.214a1.859,1.859,0,0,1,1.479.934l.044.078a1.857,1.857,0,0,1,.066,1.742l-1.285,2.652a1.869,1.869,0,0,0,.747,2.431l4.608,2.66a1.867,1.867,0,0,0,2.478-.568l1.653-2.435a1.888,1.888,0,0,1,1.582-.809h.02a1.888,1.888,0,0,1,1.582.809l1.653,2.435a1.867,1.867,0,0,0,2.478.568l4.608-2.66a1.868,1.868,0,0,0,.747-2.431l-1.285-2.652a1.857,1.857,0,0,1,.066-1.742l.044-.078a1.859,1.859,0,0,1,1.48-.934l2.939-.214A1.867,1.867,0,0,0,2456,716.344Z" fill="#fff"/>
          <path id="Path_2309" data-name="Path 2309" d="M2435.148,730.164a2.838,2.838,0,0,1-1.424-.381l-4.608-2.66a2.879,2.879,0,0,1-1.147-3.732l1.285-2.654a.854.854,0,0,0-.03-.8.917.917,0,0,0-.732-.518l-2.939-.214a2.876,2.876,0,0,1-2.659-2.859v-5.321a2.875,2.875,0,0,1,2.659-2.858l2.939-.214a.858.858,0,0,0,.683-.431.919.919,0,0,0,.079-.89l-1.285-2.651a2.881,2.881,0,0,1,1.147-3.734l4.608-2.66a2.877,2.877,0,0,1,3.8.873l1.653,2.435a.9.9,0,0,0,.752.371h0a.911.911,0,0,0,.775-.371l1.652-2.435a2.88,2.88,0,0,1,3.806-.873l4.607,2.66a2.88,2.88,0,0,1,1.148,3.733l-1.284,2.652a.855.855,0,0,0,.03.8.911.911,0,0,0,.73.516l2.941.214a2.875,2.875,0,0,1,2.659,2.858v5.321a2.876,2.876,0,0,1-2.659,2.859l-2.941.214a.855.855,0,0,0-.681.432.911.911,0,0,0-.08.888l1.285,2.654a2.879,2.879,0,0,1-1.148,3.732l-4.607,2.66a2.878,2.878,0,0,1-3.806-.873l-1.652-2.434a.9.9,0,0,0-.752-.372h0a.909.909,0,0,0-.775.372l-1.653,2.434A2.876,2.876,0,0,1,2435.148,730.164Zm.006-30.962a.856.856,0,0,0-.43.115l-4.608,2.661a.868.868,0,0,0-.346,1.128l1.285,2.652a2.853,2.853,0,0,1-.1,2.68,2.884,2.884,0,0,1-2.315,1.507l-2.94.214a.869.869,0,0,0-.8.864v5.321a.87.87,0,0,0,.8.865l2.94.214a2.852,2.852,0,0,1,2.275,1.435,2.894,2.894,0,0,1,.143,2.751l-1.285,2.654a.869.869,0,0,0,.346,1.128l4.608,2.66a.869.869,0,0,0,1.151-.264l1.652-2.434a2.893,2.893,0,0,1,2.407-1.249h.009a2.9,2.9,0,0,1,2.423,1.249l1.653,2.434a.869.869,0,0,0,1.151.264l4.607-2.66a.87.87,0,0,0,.347-1.129l-1.284-2.653a2.853,2.853,0,0,1,.1-2.677,2.892,2.892,0,0,1,2.317-1.509l2.94-.214a.871.871,0,0,0,.8-.865v-5.321a.87.87,0,0,0-.8-.864l-2.94-.214a2.852,2.852,0,0,1-2.276-1.437l-.049-.087a2.843,2.843,0,0,1-.091-2.663l1.283-2.652a.869.869,0,0,0-.347-1.128l-4.607-2.661a.87.87,0,0,0-1.151.264l-1.653,2.435a2.892,2.892,0,0,1-2.406,1.248h-.01a2.9,2.9,0,0,1-2.423-1.248l-1.652-2.435A.87.87,0,0,0,2435.154,699.2Z" fill="#0076c0"/>
        </g>
        <path id="Path_2310" data-name="Path 2310" d="M2439.947,720.085a6.4,6.4,0,1,1,6.4-6.4A6.409,6.409,0,0,1,2439.947,720.085Zm0-10.8a4.4,4.4,0,1,0,4.4,4.4A4.406,4.406,0,0,0,2439.947,709.283Z" fill="#0076c0"/>
      </g>
      <g id="Group_3945" data-name="Group 3945" opacity="0.3">
        <g id="Group_3944" data-name="Group 3944">
          <path id="Path_2311" data-name="Path 2311" d="M2394.624,698.5v-4.257a1.494,1.494,0,0,0-1.386-1.49l-2.352-.171a1.488,1.488,0,0,1-1.184-.748l-.035-.062a1.485,1.485,0,0,1-.053-1.393l1.028-2.123a1.5,1.5,0,0,0-.6-1.945l-3.687-2.128a1.493,1.493,0,0,0-1.983.455l-1.322,1.948a1.511,1.511,0,0,1-1.266.647h-.017a1.512,1.512,0,0,1-1.266-.647l-1.322-1.948a1.493,1.493,0,0,0-1.983-.455l-3.687,2.128a1.494,1.494,0,0,0-.6,1.945l1.028,2.123a1.485,1.485,0,0,1-.053,1.393l-.036.062a1.485,1.485,0,0,1-1.183.748l-2.352.171a1.494,1.494,0,0,0-1.386,1.49V698.5a1.494,1.494,0,0,0,1.386,1.49l2.352.171a1.484,1.484,0,0,1,1.183.747l.036.063a1.485,1.485,0,0,1,.053,1.393l-1.028,2.123a1.494,1.494,0,0,0,.6,1.945l3.687,2.128a1.493,1.493,0,0,0,1.983-.455l1.322-1.948a1.515,1.515,0,0,1,1.266-.648h.017a1.514,1.514,0,0,1,1.266.648l1.322,1.948a1.493,1.493,0,0,0,1.983.455l3.687-2.128a1.5,1.5,0,0,0,.6-1.945l-1.028-2.123a1.484,1.484,0,0,1,.053-1.393l.036-.062a1.483,1.483,0,0,1,1.183-.748l2.352-.171A1.494,1.494,0,0,0,2394.624,698.5Z" fill="#fff"/>
          <path id="Path_2312" data-name="Path 2312" d="M2385.617,709.759a2.5,2.5,0,0,1-2.069-1.091l-1.322-1.948a.512.512,0,0,0-.436-.209h0a.523.523,0,0,0-.456.21l-1.321,1.947a2.506,2.506,0,0,1-3.311.759l-3.686-2.128a2.5,2.5,0,0,1-1-3.248l1.026-2.121a.482.482,0,0,0-.018-.456.533.533,0,0,0-.426-.315l-2.352-.171a2.5,2.5,0,0,1-2.313-2.487v-4.257a2.5,2.5,0,0,1,2.313-2.487l2.353-.171a.488.488,0,0,0,.386-.245l.055-.094a.479.479,0,0,0,0-.431l-1.028-2.124a2.5,2.5,0,0,1,1-3.246l3.686-2.129a2.5,2.5,0,0,1,3.311.76l1.321,1.948a.513.513,0,0,0,.437.209h0a.522.522,0,0,0,.455-.21l1.322-1.947a2.5,2.5,0,0,1,3.309-.76l3.688,2.129a2.5,2.5,0,0,1,1,3.246l-1.028,2.123a.48.48,0,0,0,.017.456.538.538,0,0,0,.427.315l2.352.171a2.5,2.5,0,0,1,2.313,2.487V698.5a2.5,2.5,0,0,1-2.312,2.487l-2.354.171a.486.486,0,0,0-.386.245.532.532,0,0,0-.058.525l1.029,2.122a2.508,2.508,0,0,1-1,3.248l-3.688,2.128A2.475,2.475,0,0,1,2385.617,709.759Zm-3.84-5.248a2.521,2.521,0,0,1,2.1,1.085l1.322,1.949a.5.5,0,0,0,.655.149l3.688-2.128a.5.5,0,0,0,.2-.643l-1.028-2.121a2.483,2.483,0,0,1,.088-2.332,2.512,2.512,0,0,1,2.011-1.3l2.353-.171a.5.5,0,0,0,.458-.493v-4.257a.5.5,0,0,0-.458-.493l-2.353-.171a2.482,2.482,0,0,1-1.98-1.25,2.513,2.513,0,0,1-.118-2.387l1.027-2.122a.5.5,0,0,0-.2-.642l-3.688-2.129a.494.494,0,0,0-.654.149l-1.323,1.949a2.511,2.511,0,0,1-2.09,1.086h-.01a2.521,2.521,0,0,1-2.1-1.085l-1.322-1.949a.5.5,0,0,0-.656-.15l-3.686,2.129a.494.494,0,0,0-.2.641l1.029,2.124a2.487,2.487,0,0,1-.086,2.329,2.514,2.514,0,0,1-2.013,1.307l-2.353.171a.5.5,0,0,0-.458.493V698.5a.5.5,0,0,0,.459.493l2.351.171a2.485,2.485,0,0,1,1.98,1.248,2.515,2.515,0,0,1,.119,2.389l-1.027,2.121a.494.494,0,0,0,.2.643l3.686,2.128a.5.5,0,0,0,.656-.15l1.322-1.947a2.512,2.512,0,0,1,2.091-1.086Z" fill="#0076c0"/>
        </g>
        <path id="Path_2313" data-name="Path 2313" d="M2381.778,701.693a5.321,5.321,0,1,1,5.322-5.321A5.326,5.326,0,0,1,2381.778,701.693Zm0-8.642a3.321,3.321,0,1,0,3.322,3.321A3.325,3.325,0,0,0,2381.778,693.051Z" fill="#0076c0"/>
      </g>
      <g id="Group_3953" data-name="Group 3953" opacity="0.3">
        <g id="Group_3949" data-name="Group 3949">
          <g id="Group_3948" data-name="Group 3948">
            <g id="Group_3947" data-name="Group 3947">
              <g id="Group_3946" data-name="Group 3946">
                <path id="Path_2314" data-name="Path 2314" d="M2442.394,669.924c9.481-3,16.465-11.432,16.465-19.009,0-2.677.041-13.068.051-16.087a29.584,29.584,0,0,1-12.309-2.976,24.285,24.285,0,0,1-4.207-2.595,24.225,24.225,0,0,1-4.206,2.595,29.585,29.585,0,0,1-12.309,2.976c.01,3.019.051,13.41.051,16.087C2425.93,658.492,2432.914,666.922,2442.394,669.924Z" fill="#fff"/>
                <path id="Path_2315" data-name="Path 2315" d="M2442.4,670.924a1,1,0,0,1-.3-.047c-9.624-3.047-17.163-11.816-17.163-19.963,0-1.986-.023-8.22-.038-12.535l-.013-3.548a1,1,0,0,1,.976-1,28.589,28.589,0,0,0,11.891-2.874,23.237,23.237,0,0,0,4.031-2.483,1,1,0,0,1,1.235,0,23.227,23.227,0,0,0,4.031,2.483,28.589,28.589,0,0,0,11.891,2.874,1,1,0,0,1,.976,1l-.013,3.548c-.015,4.315-.038,10.549-.038,12.535,0,8.147-7.539,16.916-17.163,19.963A1,1,0,0,1,2442.4,670.924Zm-15.513-35.135.01,2.582c.015,4.319.038,10.556.038,12.543,0,7.242,6.768,15.076,15.465,17.959,8.7-2.883,15.464-10.717,15.464-17.959,0-1.987.023-8.224.038-12.543l.01-2.582a30.546,30.546,0,0,1-11.747-3.04,26.492,26.492,0,0,1-3.765-2.242,26.59,26.59,0,0,1-3.766,2.242A30.544,30.544,0,0,1,2426.882,635.789Z" fill="#0076c0"/>
              </g>
            </g>
          </g>
        </g>
        <g id="Group_3952" data-name="Group 3952" opacity="0.3">
          <g id="Group_3951" data-name="Group 3951">
            <g id="Group_3950" data-name="Group 3950">
              <path id="Path_2316" data-name="Path 2316" d="M2442.6,666.257c7.771-2.46,13.5-9.37,13.5-15.581,0-2.194.034-10.712.042-13.186a24.242,24.242,0,0,1-10.089-2.439,19.869,19.869,0,0,1-3.449-2.127Z" fill="#0076c0"/>
            </g>
          </g>
        </g>
      </g>
      <g id="Group_3954" data-name="Group 3954">
        <rect id="Rectangle_3206" data-name="Rectangle 3206" width="47.142" height="75.245" rx="3.812" transform="translate(2388.238 642.441)" fill="#fff"/>
        <path id="Path_2317" data-name="Path 2317" d="M2431.567,718.686H2392.05a4.817,4.817,0,0,1-4.812-4.812v-67.62a4.818,4.818,0,0,1,4.812-4.813h39.517a4.819,4.819,0,0,1,4.813,4.813v67.62A4.818,4.818,0,0,1,2431.567,718.686Zm-39.517-75.245a2.816,2.816,0,0,0-2.812,2.813v67.62a2.816,2.816,0,0,0,2.812,2.812h39.517a2.816,2.816,0,0,0,2.813-2.812v-67.62a2.816,2.816,0,0,0-2.813-2.813Z" fill="#0076c0"/>
      </g>
      <path id="Path_2318" data-name="Path 2318" d="M2426.421,670.79H2397.2a1.862,1.862,0,0,1-1.786-1.726l-1.521-18.79a1.8,1.8,0,0,1,1.661-2.1h32.516a1.8,1.8,0,0,1,1.661,2.1l-1.521,18.79A1.862,1.862,0,0,1,2426.421,670.79Z" fill="#0076c0" opacity="0.3"/>
      <g id="Group_3955" data-name="Group 3955">
        <rect id="Rectangle_3207" data-name="Rectangle 3207" width="8.073" height="4.527" rx="0.773" transform="translate(2395.688 683.822)" fill="#0076c0" opacity="0.3"/>
        <rect id="Rectangle_3208" data-name="Rectangle 3208" width="8.073" height="4.527" rx="0.773" transform="translate(2407.772 683.822)" fill="#0076c0" opacity="0.3"/>
        <rect id="Rectangle_3209" data-name="Rectangle 3209" width="8.073" height="4.527" rx="0.773" transform="translate(2419.857 683.822)" fill="#0076c0" opacity="0.3"/>
        <rect id="Rectangle_3210" data-name="Rectangle 3210" width="8.073" height="4.527" rx="0.773" transform="translate(2395.688 675.798)" fill="#0076c0" opacity="0.3"/>
        <rect id="Rectangle_3211" data-name="Rectangle 3211" width="8.073" height="4.527" rx="0.773" transform="translate(2407.772 675.798)" fill="#0076c0" opacity="0.3"/>
        <rect id="Rectangle_3212" data-name="Rectangle 3212" width="8.073" height="4.527" rx="0.773" transform="translate(2419.857 675.798)" fill="#0076c0" opacity="0.3"/>
        <rect id="Rectangle_3213" data-name="Rectangle 3213" width="8.073" height="4.527" rx="0.773" transform="translate(2395.688 691.846)" fill="#0076c0" opacity="0.3"/>
        <rect id="Rectangle_3214" data-name="Rectangle 3214" width="8.073" height="4.527" rx="0.773" transform="translate(2407.772 691.846)" fill="#0076c0" opacity="0.3"/>
        <rect id="Rectangle_3215" data-name="Rectangle 3215" width="8.073" height="4.527" rx="0.773" transform="translate(2419.857 691.846)" fill="#0076c0" opacity="0.3"/>
        <path id="Path_2319" data-name="Path 2319" d="M2402.478,704.233l-5.971-.761a.942.942,0,0,1-.819-.9v-1.907a.8.8,0,0,1,.819-.8h5.971a1.185,1.185,0,0,1,1.283,1.029v2.469C2403.761,703.936,2403.175,704.322,2402.478,704.233Z" fill="#0076c0"/>
        <path id="Path_2320" data-name="Path 2320" d="M2421.14,704.233l5.971-.761a.94.94,0,0,0,.818-.9v-1.907a.8.8,0,0,0-.818-.8h-5.971a1.185,1.185,0,0,0-1.283,1.029v2.469C2419.857,703.936,2420.443,704.322,2421.14,704.233Z" fill="#0076c0"/>
        <rect id="Rectangle_3216" data-name="Rectangle 3216" width="8.073" height="4.527" rx="0.773" transform="translate(2407.772 699.869)" fill="#0076c0"/>
      </g>
      <g id="Group_3956" data-name="Group 3956">
        <path id="Path_2321" data-name="Path 2321" d="M2399.725,710.368v18.009c0,1.4,1.421,2.531,3.175,2.531h17.818c1.754,0,3.175-1.133,3.175-2.531V710.368Z" fill="#fff"/>
        <path id="Path_2322" data-name="Path 2322" d="M2420.718,731.908H2402.9c-2.3,0-4.174-1.584-4.174-3.531V709.368h26.169v19.009C2424.894,730.324,2423.021,731.908,2420.718,731.908Zm-19.993-20.54v17.009c0,.83,1,1.531,2.174,1.531h17.819c1.179,0,2.176-.7,2.176-1.531V711.368Z" fill="#0076c0"/>
      </g>
      <g id="Group_3957" data-name="Group 3957">
        <line id="Line_1248" data-name="Line 1248" x2="29.963" transform="translate(2396.827 710.368)" fill="#fff"/>
        <path id="Path_2323" data-name="Path 2323" d="M2426.79,711.368h-29.963a1,1,0,0,1,0-2h29.963a1,1,0,0,1,0,2Z" fill="#0076c0"/>
      </g>
      <rect id="Rectangle_3217" data-name="Rectangle 3217" width="3" height="20.54" transform="translate(2415.154 710.368)" fill="#0076c0" opacity="0.3"/>
    </g>
  </g>
</svg>
