<svg xmlns="http://www.w3.org/2000/svg" width="125" height="45" viewBox="0 0 125 45">
  <g id="Group_4010" data-name="Group 4010" transform="translate(-948 -744)">
    <rect id="Rectangle_3047" data-name="Rectangle 3047" width="125" height="45" transform="translate(948 744)" fill="none"/>
    <g id="Group_4009" data-name="Group 4009" transform="translate(950.5 746)">
      <g id="Group_3966" data-name="Group 3966" transform="translate(51.513 0)">
        <g id="Group_3965" data-name="Group 3965">
          <path id="Path_2146" data-name="Path 2146" d="M267.731,122.029l-2.334-8.071q-.378-1.324-.646-2.759t-.425-2.853h-.095q-.158,1.418-.425,2.853t-.646,2.759l-2.334,8.071h-4.508l-3-17.655h4l1.387,8.67q.158.914.3,2.317t.173,3.515h.094q.19-2.08.394-3.4a20.028,20.028,0,0,1,.52-2.427l2.176-7.787h3.814l2.176,7.787q.126.567.252,1.151t.237,1.276q.11.694.221,1.529t.2,1.876h.095q.03-2.112.173-3.515t.3-2.317l1.387-8.67h4l-3,17.655Z" transform="translate(-253.323 -88.674)" fill="#c11d2a"/>
          <path id="Path_2147" data-name="Path 2147" d="M267.763,91.473v-3.09H278.45v-3h3.657v6.085Z" transform="translate(-261.457 -77.979)" fill="#c11d2a"/>
          <path id="Path_2148" data-name="Path 2148" d="M292.235,74.821v-5.17h3.657v5.17Z" transform="translate(-275.242 -69.115)" fill="#c11d2a"/>
          <path id="Path_2149" data-name="Path 2149" d="M310.212,122.029V104.374h4.1v17.655Z" transform="translate(-285.369 -88.674)" fill="#c11d2a"/>
          <path id="Path_2150" data-name="Path 2150" d="M340.673,104.374h4.1v10.94a6.673,6.673,0,0,1-2.033,5.344,10.339,10.339,0,0,1-11.508,0,6.67,6.67,0,0,1-2.033-5.344v-10.94h4.1v10.94a3.853,3.853,0,0,0,.976,2.822,4.2,4.2,0,0,0,5.422,0,3.852,3.852,0,0,0,.978-2.822Z" transform="translate(-296.063 -88.674)" fill="#c11d2a"/>
          <path id="Path_2151" data-name="Path 2151" d="M332.012,95.337v-3.09h14.344v3.09Z" transform="translate(-297.649 -81.843)" fill="#c11d2a"/>
          <path id="Path_2152" data-name="Path 2152" d="M352.2,74.129a1.646,1.646,0,0,1-1.167-.41,1.432,1.432,0,0,1-.441-1.1v-.788q0-.472-.441-.473h-1.828V68.423h3.184a2.4,2.4,0,0,1,1.466.41,1.541,1.541,0,0,1,.552,1.324v.6q0,.472.441.473h4.446v2.9Z" transform="translate(-306.839 -68.423)" fill="#c11d2a"/>
          <path id="Path_2153" data-name="Path 2153" d="M385.706,104.374h4.1v11.318a7.078,7.078,0,0,1-1.592,5.029,5.838,5.838,0,0,1-4.46,1.687,5.951,5.951,0,0,1-1.687-.236,7.824,7.824,0,0,1-1.482-.6,6.806,6.806,0,0,1-1.213-.82,6.324,6.324,0,0,1-.883-.9l-.441,2.176h-3.658V104.374h4.1V116.26a5.244,5.244,0,0,0,1.734,2.034,4.245,4.245,0,0,0,2.522.835q2.964,0,2.963-3.626Z" transform="translate(-321.519 -88.674)" fill="#c11d2a"/>
        </g>
      </g>
      <g id="Group_3970" data-name="Group 3970" transform="translate(0 8.733)">
        <path id="Path_2154" data-name="Path 2154" d="M176.121,101.654l-9.2-8.175a7.842,7.842,0,0,0-5.134-1.7l-19.074,1.689a2.242,2.242,0,0,0-2,3.081l.038.115-.847.161a2.247,2.247,0,0,0-1.693,3.263l.579,1.319-1.862.709a2.247,2.247,0,0,0-1.1,3.515l10.287,15.217a2.7,2.7,0,0,0,3.98.606l14.374-11.518,3.294-1.8,7.866-3.356A1.727,1.727,0,0,0,176.121,101.654Z" transform="translate(-135.364 -90.3)" fill="#fff"/>
        <g id="Group_3969" data-name="Group 3969">
          <g id="Group_3968" data-name="Group 3968">
            <path id="Path_2155" data-name="Path 2155" d="M135.823,109.636a2.247,2.247,0,0,1,1.1-3.515l18.06-6.871a7.945,7.945,0,0,1,5.444.229l11.142,5.342a1.72,1.72,0,0,1,.358,3.136l-21.841,17.5a2.7,2.7,0,0,1-3.98-.606Z" transform="translate(-135.364 -94.31)" fill="#47545d" opacity="0.3"/>
            <path id="Path_2156" data-name="Path 2156" d="M141.578,101.929a2.247,2.247,0,0,1,1.693-3.263l18.824-3.55a7.824,7.824,0,0,1,5.272,1.191l9.942,7.239a1.727,1.727,0,0,1-.2,3.151l-24.367,13.341a2.671,2.671,0,0,1-3.779-1.3Z" transform="translate(-138.731 -92.145)" fill="#47545d" opacity="0.4"/>
            <path id="Path_2157" data-name="Path 2157" d="M147.428,96.545a2.242,2.242,0,0,1,2-3.081L168.5,91.775a7.843,7.843,0,0,1,5.134,1.7l9.2,8.175a1.727,1.727,0,0,1-.5,3.118l-25.526,10.892A2.677,2.677,0,0,1,153.175,114Z" transform="translate(-142.079 -90.3)" fill="#47545d" opacity="0.5"/>
            <path id="Path_2158" data-name="Path 2158" d="M156.56,91.174a2.234,2.234,0,0,1,2.425-2.748l19.11,1.2a7.882,7.882,0,0,1,4.828,2.458l7.9,9.474a1.723,1.723,0,0,1-.949,3.007l-26.839,6.927a2.688,2.688,0,0,1-3.353-2.2Z" transform="translate(-147.279 -88.42)" fill="#47545d"/>
            <g id="Group_3967" data-name="Group 3967" transform="translate(15.012 6.851)">
              <path id="Path_2159" data-name="Path 2159" d="M169.739,105.224a.6.6,0,0,1,.185-.482.74.74,0,0,1,.5-.155,1.209,1.209,0,0,1,.38.058c.117.038.191.065.228.08v3.226c.18-.185.409-.415.683-.688s.555-.548.84-.826.555-.535.808-.774.448-.42.586-.543a5.825,5.825,0,0,1,.493-.382,1.07,1.07,0,0,1,1.1,0,1.334,1.334,0,0,1,.282.25c-.037.04-.13.129-.282.272s-.334.314-.543.514-.441.421-.694.659-.5.475-.748.707-.474.45-.69.658-.388.378-.524.51q1.082,1.018,2.026,2.063a22.418,22.418,0,0,1,1.724,2.156H174.5q-.282-.36-.682-.829c-.268-.313-.556-.634-.862-.967s-.628-.659-.959-.981-.655-.612-.966-.874v3.651h-1.29Z" transform="translate(-169.739 -104.378)" fill="#fff"/>
              <path id="Path_2160" data-name="Path 2160" d="M187.728,105.848H185.56a.559.559,0,0,1-.64-.624,1.135,1.135,0,0,1,.066-.4,1.7,1.7,0,0,1,.1-.238h6.191a.559.559,0,0,1,.64.624,1.269,1.269,0,0,1-.061.4.858.858,0,0,1-.1.238h-2.732v6.68h-1.291Z" transform="translate(-178.29 -104.378)" fill="#fff"/>
              <path id="Path_2161" data-name="Path 2161" d="M207.442,111.726a3.565,3.565,0,0,1-.33.22,3.017,3.017,0,0,1-.531.242,4.721,4.721,0,0,1-.755.2,5.341,5.341,0,0,1-.985.082,4.271,4.271,0,0,1-1.519-.271,3.792,3.792,0,0,1-1.263-.793,3.73,3.73,0,0,1-.868-1.3,4.658,4.658,0,0,1-.318-1.783,4.84,4.84,0,0,1,.308-1.783,3.852,3.852,0,0,1,.845-1.326,3.641,3.641,0,0,1,1.252-.82,4.077,4.077,0,0,1,1.529-.285,4.826,4.826,0,0,1,1.28.139,2.6,2.6,0,0,1,.787.341,1.265,1.265,0,0,1,.4.417.8.8,0,0,1,.114.353.753.753,0,0,1-.059.291,1.319,1.319,0,0,1-.31.438.678.678,0,0,1-.152.115,2.283,2.283,0,0,0-.3-.278,2.462,2.462,0,0,0-.45-.276,3.106,3.106,0,0,0-.585-.217,2.793,2.793,0,0,0-.7-.085,2.6,2.6,0,0,0-1.03.2,2.326,2.326,0,0,0-.825.591,2.837,2.837,0,0,0-.547.938,3.617,3.617,0,0,0-.2,1.243,3.384,3.384,0,0,0,.21,1.244,2.56,2.56,0,0,0,.581.9,2.408,2.408,0,0,0,.867.552,3.076,3.076,0,0,0,1.073.185,3.4,3.4,0,0,0,1.9-.534l.575,1.053Z" transform="translate(-187.277 -104.108)" fill="#fff"/>
            </g>
          </g>
        </g>
      </g>
    </g>
  </g>
</svg>
