<svg xmlns="http://www.w3.org/2000/svg" width="150" height="150" viewBox="0 0 150 150">
  <g id="Group_3605" data-name="Group 3605" transform="translate(-305 -3170)">
    <rect id="Rectangle_3044" data-name="Rectangle 3044" width="150" height="150" transform="translate(305 3170)" fill="#fff"/>
    <g id="Group_3642" data-name="Group 3642" transform="translate(-0.386 5.854)">
      <g id="Group_3641" data-name="Group 3641" transform="translate(315.062 3202.495)">
        <g id="Group_3637" data-name="Group 3637" transform="translate(0 0)" opacity="0.7">
          <path id="Path_2127" data-name="Path 2127" d="M75,88.521H9.636A8.634,8.634,0,0,1,1,79.885V14.526A8.634,8.634,0,0,1,9.636,5.89H75a8.634,8.634,0,0,1,8.636,8.636v65.36A8.634,8.634,0,0,1,75,88.521Z" transform="translate(-1 -0.145)" fill="none" stroke="#e01731" stroke-linecap="round" stroke-linejoin="round" stroke-miterlimit="10" stroke-width="2"/>
          <path id="Path_2128" data-name="Path 2128" d="M75.16,5.89H9.471A8.474,8.474,0,0,0,1,14.361v9.305H83.631V14.361A8.474,8.474,0,0,0,75.16,5.89Z" transform="translate(-1 -0.145)" fill="#e01731" opacity="0.3"/>
          <path id="Path_2129" data-name="Path 2129" d="M49.329,39.285H40.094a1.309,1.309,0,0,1-1.3-1.3V29.6a1.309,1.309,0,0,1,1.3-1.3h9.235a1.309,1.309,0,0,1,1.3,1.3v8.377A1.309,1.309,0,0,1,49.329,39.285Z" transform="translate(5.61 3.775)" fill="#e01731" opacity="0.3"/>
          <path id="Path_2130" data-name="Path 2130" d="M63.6,39.285H54.364a1.309,1.309,0,0,1-1.3-1.3V29.6a1.309,1.309,0,0,1,1.3-1.3H63.6a1.309,1.309,0,0,1,1.3,1.3v8.377A1.309,1.309,0,0,1,63.6,39.285Z" transform="translate(8.105 3.775)" fill="#e01731" opacity="0.3"/>
          <path id="Path_2131" data-name="Path 2131" d="M20.779,54.715H11.544a1.309,1.309,0,0,1-1.3-1.3V45.034a1.309,1.309,0,0,1,1.3-1.3h9.235a1.309,1.309,0,0,1,1.3,1.3v8.377A1.294,1.294,0,0,1,20.779,54.715Z" transform="translate(0.616 6.474)" fill="#e01731" opacity="0.3"/>
          <path id="Path_2132" data-name="Path 2132" d="M35.049,54.715H25.814a1.309,1.309,0,0,1-1.3-1.3V45.034a1.309,1.309,0,0,1,1.3-1.3h9.235a1.309,1.309,0,0,1,1.3,1.3v8.377A1.294,1.294,0,0,1,35.049,54.715Z" transform="translate(3.112 6.474)" fill="#e01731" opacity="0.3"/>
          <path id="Path_2133" data-name="Path 2133" d="M49.329,54.715H40.094a1.309,1.309,0,0,1-1.3-1.3V45.034a1.309,1.309,0,0,1,1.3-1.3h9.235a1.309,1.309,0,0,1,1.3,1.3v8.377A1.309,1.309,0,0,1,49.329,54.715Z" transform="translate(5.61 6.474)" fill="#e01731" opacity="0.3"/>
          <path id="Path_2134" data-name="Path 2134" d="M63.6,54.715H54.364a1.309,1.309,0,0,1-1.3-1.3V45.034a1.309,1.309,0,0,1,1.3-1.3H63.6a1.309,1.309,0,0,1,1.3,1.3v8.377A1.309,1.309,0,0,1,63.6,54.715Z" transform="translate(8.105 6.474)" fill="#e01731" opacity="0.3"/>
          <path id="Path_2135" data-name="Path 2135" d="M20.779,70.145H11.544a1.309,1.309,0,0,1-1.3-1.3V60.464a1.309,1.309,0,0,1,1.3-1.3h9.235a1.309,1.309,0,0,1,1.3,1.3v8.377A1.294,1.294,0,0,1,20.779,70.145Z" transform="translate(0.616 9.172)" fill="#e01731" opacity="0.3"/>
          <path id="Path_2136" data-name="Path 2136" d="M35.049,70.145H25.814a1.309,1.309,0,0,1-1.3-1.3V60.464a1.309,1.309,0,0,1,1.3-1.3h9.235a1.309,1.309,0,0,1,1.3,1.3v8.377A1.294,1.294,0,0,1,35.049,70.145Z" transform="translate(3.112 9.172)" fill="#e01731" opacity="0.3"/>
          <path id="Path_2137" data-name="Path 2137" d="M49.329,70.145H40.094a1.309,1.309,0,0,1-1.3-1.3V60.464a1.309,1.309,0,0,1,1.3-1.3h9.235a1.309,1.309,0,0,1,1.3,1.3v8.377A1.309,1.309,0,0,1,49.329,70.145Z" transform="translate(5.61 9.172)" fill="#e01731" opacity="0.3"/>
          <path id="Path_2138" data-name="Path 2138" d="M63.6,70.145H54.364a1.309,1.309,0,0,1-1.3-1.3V60.464a1.309,1.309,0,0,1,1.3-1.3H63.6a1.309,1.309,0,0,1,1.3,1.3v8.377A1.309,1.309,0,0,1,63.6,70.145Z" transform="translate(8.105 9.172)" fill="#e01731" opacity="0.3"/>
          <line id="Line_1351" data-name="Line 1351" y1="11.773" transform="translate(16.789)" fill="none" stroke="#e01731" stroke-linecap="round" stroke-linejoin="round" stroke-miterlimit="10" stroke-width="2"/>
          <line id="Line_1352" data-name="Line 1352" y1="11.773" transform="translate(33.062)" fill="none" stroke="#e01731" stroke-linecap="round" stroke-linejoin="round" stroke-miterlimit="10" stroke-width="2"/>
          <line id="Line_1353" data-name="Line 1353" y1="11.773" transform="translate(49.346)" fill="none" stroke="#e01731" stroke-linecap="round" stroke-linejoin="round" stroke-miterlimit="10" stroke-width="2"/>
          <line id="Line_1354" data-name="Line 1354" y1="11.773" transform="translate(65.63)" fill="none" stroke="#e01731" stroke-linecap="round" stroke-linejoin="round" stroke-miterlimit="10" stroke-width="2"/>
        </g>
        <g id="Group_3639" data-name="Group 3639" transform="translate(48.194 40.464)">
          <path id="Path_2139" data-name="Path 2139" d="M46.708,83.353h59.509a4.686,4.686,0,0,0,4.688-4.688V40.128a4.686,4.686,0,0,0-4.688-4.688H46.708a4.686,4.686,0,0,0-4.688,4.688V78.665A4.678,4.678,0,0,0,46.708,83.353Z" transform="translate(-42.02 -35.44)" fill="#fff" stroke="#e01731" stroke-linejoin="round" stroke-miterlimit="10" stroke-width="2"/>
          <g id="Group_3638" data-name="Group 3638" transform="translate(0.623 15.156)">
            <line id="Line_1355" data-name="Line 1355" x2="68.262" opacity="0.3" stroke="#e01731" stroke-linejoin="round" stroke-miterlimit="10" stroke-width="5" fill="none"/>
            <path id="Path_2140" data-name="Path 2140" d="M94.912,71.768H84.738A2.261,2.261,0,0,1,82.47,69.5V64.378a2.261,2.261,0,0,1,2.268-2.268H94.912a2.261,2.261,0,0,1,2.268,2.268V69.5A2.269,2.269,0,0,1,94.912,71.768Z" transform="translate(-35.568 -45.932)" fill="#e01731" opacity="0.3"/>
          </g>
        </g>
        <g id="Group_3640" data-name="Group 3640" transform="translate(91.854 14.851)">
          <path id="Path_2141" data-name="Path 2141" d="M101.129,56.537a20.949,20.949,0,1,1,20.949-20.949A20.975,20.975,0,0,1,101.129,56.537Z" transform="translate(-79.005 -13.465)" fill="#e01731"/>
          <path id="Path_2142" data-name="Path 2142" d="M101.3,15.99A19.774,19.774,0,1,1,81.53,35.763,19.774,19.774,0,0,1,101.3,15.99m0-2.35a22.123,22.123,0,1,0,22.123,22.123A22.153,22.153,0,0,0,101.3,13.64Z" transform="translate(-79.18 -13.64)" fill="#fff"/>
        </g>
        <text id="NO" transform="translate(104.242 36.575)" fill="#fff" font-size="11" font-family="GothamRounded-Bold, Gotham Rounded" font-weight="700"><tspan x="0" y="0">NO</tspan></text>
        <text id="FEE" transform="translate(104.489 43.543)" fill="#fff" font-size="8" font-family="GothamRounded-Bold, Gotham Rounded" font-weight="700"><tspan x="0" y="0">FEE</tspan></text>
      </g>
    </g>
  </g>
</svg>
