<svg xmlns="http://www.w3.org/2000/svg" width="80" height="80" viewBox="0 0 80 80">
  <g id="ico-payment-gateway" transform="translate(-948 -3227)">
    <rect id="Rectangle_2985" data-name="Rectangle 2985" width="80" height="80" transform="translate(948 3227)" fill="none" opacity="0.278"/>
    <path id="Path_2145" data-name="Path 2145" d="M24.5,0A24.5,24.5,0,0,1,49,24.5c0,13.531-24.5,39.022-24.5,39.022S0,38.031,0,24.5A24.5,24.5,0,0,1,24.5,0Z" transform="translate(957 3235)" fill="#fff" stroke="#cf3339" stroke-linecap="round" stroke-linejoin="round" stroke-width="2"/>
    <circle id="Ellipse_205" data-name="Ellipse 205" cx="13" cy="13" r="13" transform="translate(968.5 3247)" stroke-width="2" stroke="#f1c1c3" stroke-linecap="round" stroke-linejoin="round" fill="#fff"/>
    <ellipse id="Ellipse_206" data-name="Ellipse 206" cx="19.327" cy="18.329" rx="19.327" ry="18.329" transform="translate(976.636 3248.107)" fill="#fff"/>
    <path id="Path_1620" data-name="Path 1620" d="M.117.11A25.567,25.567,0,0,0,2.99.282,21.049,21.049,0,0,0,6.125,0L6.1,16.523a2.932,2.932,0,0,1-3.051,2.8A2.932,2.932,0,0,1,0,16.523Z" transform="matrix(0.788, -0.616, 0.616, 0.788, 1002.418, 3279.421)" fill="none" stroke="#cf3339" stroke-width="2"/>
    <line id="Line_1302" data-name="Line 1302" x1="3.671" y2="2.937" transform="translate(1006.832 3281.384)" fill="none" stroke="#cf3339" stroke-width="2" opacity="0.3"/>
    <g id="Group_3499" data-name="Group 3499" transform="translate(980.849 3251.319)">
      <g id="Group_3494" data-name="Group 3494" transform="translate(0)">
        <ellipse id="Ellipse_159" data-name="Ellipse 159" cx="15.114" cy="15.117" rx="15.114" ry="15.117" transform="translate(0)" fill="#fff" stroke="#cf3339" stroke-linecap="round" stroke-linejoin="round" stroke-width="2"/>
        <ellipse id="Ellipse_56" data-name="Ellipse 56" cx="13.327" cy="13.329" rx="13.327" ry="13.329" transform="translate(1.787 1.788)" fill="#fff" stroke="#f1c1c3" stroke-linecap="round" stroke-linejoin="round" stroke-width="2"/>
      </g>
    </g>
  </g>
</svg>
