<svg xmlns="http://www.w3.org/2000/svg" width="30" height="30" viewBox="0 0 30 30">
  <g id="Group_3483" data-name="Group 3483" transform="translate(-1238 -1123)" opacity="0.699">
    <g id="Symbol_356_1" data-name="Symbol 356 – 1">
      <rect id="Rectangle_2750" data-name="Rectangle 2750" width="30" height="30" transform="translate(1238 1123)" fill="none"/>
    </g>
    <g id="Group_3527" data-name="Group 3527" transform="translate(1242 1126.998)">
      <path id="Path_2170" data-name="Path 2170" d="M21,12.3V8.99a1.159,1.159,0,0,0-1.08-1.16L18.09,7.7a1.161,1.161,0,0,1-.92-.58c-.01-.02-.02-.03-.03-.05a1.149,1.149,0,0,1-.04-1.08l.8-1.65a1.152,1.152,0,0,0-.47-1.51L14.56,1.17a1.165,1.165,0,0,0-1.54.35L11.99,3.04a1.162,1.162,0,0,1-.99.5h-.02a1.213,1.213,0,0,1-.99-.5L8.98,1.51a1.158,1.158,0,0,0-1.54-.35L4.57,2.81A1.167,1.167,0,0,0,4.1,4.33l.8,1.65a1.148,1.148,0,0,1-.04,1.08.219.219,0,0,1-.03.05,1.116,1.116,0,0,1-.92.58l-1.83.14A1.159,1.159,0,0,0,1,8.99V12.3a1.159,1.159,0,0,0,1.08,1.16l1.83.13a1.161,1.161,0,0,1,.92.58c.01.02.02.03.03.05A1.149,1.149,0,0,1,4.9,15.3l-.8,1.65a1.152,1.152,0,0,0,.47,1.51l2.87,1.66a1.165,1.165,0,0,0,1.54-.35l1.03-1.52a1.162,1.162,0,0,1,.99-.5h.02a1.213,1.213,0,0,1,.99.5l1.03,1.52a1.158,1.158,0,0,0,1.54.35l2.87-1.66a1.165,1.165,0,0,0,.47-1.51l-.8-1.65a1.148,1.148,0,0,1,.04-1.08c.01-.02.02-.03.03-.05a1.153,1.153,0,0,1,.92-.58l1.83-.13A1.157,1.157,0,0,0,21,12.3Z" fill="#fff" stroke="#5b6670" stroke-miterlimit="10" stroke-width="2"/>
      <circle id="Ellipse_785" data-name="Ellipse 785" cx="3.36" cy="3.36" r="3.36" transform="translate(7.64 7.28)" fill="none" stroke="#5b6670" stroke-miterlimit="10" stroke-width="2"/>
    </g>
  </g>
</svg>
