<svg xmlns="http://www.w3.org/2000/svg" width="186" height="81" viewBox="0 0 186 81">
  <g id="Group_4051" data-name="Group 4051" transform="translate(-1169.035 -820)">
    <rect id="item-05" width="186" height="81" transform="translate(1169.035 820)" fill="rgba(255,255,255,0)"/>
    <g id="Group_4052" data-name="Group 4052">
      <path id="Path_2484" data-name="Path 2484" d="M-.009,0,1.723-4.51h.643L4.211,0h-.68L3.005-1.366H1.12L.624,0Zm1.3-1.852H2.821L2.35-3.1q-.215-.569-.32-.935a5.749,5.749,0,0,1-.243.861ZM8.019,0V-3.267h.5V-2.8a1.174,1.174,0,0,1,1.04-.538,1.364,1.364,0,0,1,.543.106.854.854,0,0,1,.371.278,1.069,1.069,0,0,1,.172.409,3.171,3.171,0,0,1,.031.538V0H10.12V-1.987a1.492,1.492,0,0,0-.065-.506.532.532,0,0,0-.229-.268.729.729,0,0,0-.386-.1.9.9,0,0,0-.611.225,1.108,1.108,0,0,0-.257.852V0ZM19.305,0l1.732-4.51h.643L23.526,0h-.68L22.32-1.366H20.434L19.939,0Zm1.3-1.852h1.529L21.665-3.1q-.215-.569-.32-.935a5.749,5.749,0,0,1-.243.861ZM27.334,0V-3.267h.5V-2.8a1.174,1.174,0,0,1,1.04-.538,1.364,1.364,0,0,1,.543.106.854.854,0,0,1,.371.278,1.069,1.069,0,0,1,.172.409,3.171,3.171,0,0,1,.031.538V0h-.554V-1.987a1.492,1.492,0,0,0-.065-.506.532.532,0,0,0-.229-.268.729.729,0,0,0-.386-.1.9.9,0,0,0-.611.225,1.108,1.108,0,0,0-.257.852V0Zm8.115-.5.08.489a2.054,2.054,0,0,1-.418.049.947.947,0,0,1-.468-.1A.534.534,0,0,1,34.409-.3a1.983,1.983,0,0,1-.068-.654v-1.88h-.406v-.431h.406v-.809l.551-.332v1.141h.557v.431h-.557v1.91a.965.965,0,0,0,.029.3.231.231,0,0,0,.1.108.368.368,0,0,0,.189.04A1.8,1.8,0,0,0,35.449-.5Zm9.2.5V-4.51h3.042v.532H45.243v1.4h2.116v.532H45.243V0ZM51.8-3.873V-4.51h.554v.637ZM51.8,0V-3.267h.554V0Zm4.8,0V-3.267h.5V-2.8a1.174,1.174,0,0,1,1.04-.538,1.364,1.364,0,0,1,.543.106.854.854,0,0,1,.371.278,1.069,1.069,0,0,1,.172.409,3.171,3.171,0,0,1,.031.538V0H58.7V-1.987a1.492,1.492,0,0,0-.065-.506.532.532,0,0,0-.229-.268.729.729,0,0,0-.386-.1.9.9,0,0,0-.611.225,1.108,1.108,0,0,0-.257.852V0Zm9.038-.4a2.062,2.062,0,0,1-.592.369,1.711,1.711,0,0,1-.611.108A1.188,1.188,0,0,1,63.6-.189a.868.868,0,0,1-.289-.672.894.894,0,0,1,.109-.438.9.9,0,0,1,.286-.318,1.345,1.345,0,0,1,.4-.181,3.956,3.956,0,0,1,.492-.083,5.061,5.061,0,0,0,.987-.191q0-.114,0-.145a.611.611,0,0,0-.157-.477.927.927,0,0,0-.631-.188.978.978,0,0,0-.577.137.836.836,0,0,0-.275.484l-.541-.074a1.342,1.342,0,0,1,.243-.561,1.065,1.065,0,0,1,.489-.329,2.182,2.182,0,0,1,.741-.115,1.962,1.962,0,0,1,.68.1.9.9,0,0,1,.385.248.871.871,0,0,1,.172.377,3.118,3.118,0,0,1,.028.511v.738a7.836,7.836,0,0,0,.035.977,1.232,1.232,0,0,0,.14.392h-.578A1.174,1.174,0,0,1,65.634-.4ZM65.588-1.64a4.062,4.062,0,0,1-.9.209,2.092,2.092,0,0,0-.483.111.481.481,0,0,0-.218.18.473.473,0,0,0-.077.263.472.472,0,0,0,.168.369.721.721,0,0,0,.491.148,1.142,1.142,0,0,0,.569-.14A.862.862,0,0,0,65.5-.883a1.338,1.338,0,0,0,.089-.554ZM70.408,0V-3.267h.5V-2.8a1.174,1.174,0,0,1,1.04-.538,1.364,1.364,0,0,1,.543.106.854.854,0,0,1,.371.278,1.069,1.069,0,0,1,.172.409,3.171,3.171,0,0,1,.031.538V0h-.554V-1.987a1.492,1.492,0,0,0-.065-.506.532.532,0,0,0-.229-.268.729.729,0,0,0-.386-.1.9.9,0,0,0-.611.225,1.108,1.108,0,0,0-.257.852V0Zm9.038-1.2.544.071a1.412,1.412,0,0,1-.457.881,1.331,1.331,0,0,1-.9.318,1.4,1.4,0,0,1-1.078-.438,1.779,1.779,0,0,1-.408-1.257,2.274,2.274,0,0,1,.175-.926,1.223,1.223,0,0,1,.534-.6,1.584,1.584,0,0,1,.78-.2,1.356,1.356,0,0,1,.871.269,1.234,1.234,0,0,1,.434.764l-.538.083a.894.894,0,0,0-.272-.5.7.7,0,0,0-.472-.166.859.859,0,0,0-.68.3,1.424,1.424,0,0,0-.261.949,1.472,1.472,0,0,0,.252.957.821.821,0,0,0,.658.3.776.776,0,0,0,.544-.2A.992.992,0,0,0,79.445-1.2Zm4.423-2.676V-4.51h.554v.637Zm0,3.873V-3.267h.554V0ZM90.8-.4a2.062,2.062,0,0,1-.592.369A1.711,1.711,0,0,1,89.6.074a1.188,1.188,0,0,1-.827-.263.868.868,0,0,1-.289-.672.894.894,0,0,1,.109-.438.9.9,0,0,1,.286-.318,1.345,1.345,0,0,1,.4-.181,3.957,3.957,0,0,1,.492-.083,5.061,5.061,0,0,0,.987-.191q0-.114,0-.145a.611.611,0,0,0-.157-.477.927.927,0,0,0-.631-.188.978.978,0,0,0-.577.137.836.836,0,0,0-.275.484l-.541-.074a1.341,1.341,0,0,1,.243-.561,1.065,1.065,0,0,1,.489-.329,2.182,2.182,0,0,1,.741-.115,1.962,1.962,0,0,1,.68.1.9.9,0,0,1,.385.248.871.871,0,0,1,.172.377,3.118,3.118,0,0,1,.028.511v.738a7.836,7.836,0,0,0,.035.977,1.232,1.232,0,0,0,.14.392H90.91A1.174,1.174,0,0,1,90.8-.4ZM90.753-1.64a4.062,4.062,0,0,1-.9.209,2.092,2.092,0,0,0-.483.111.481.481,0,0,0-.218.18.473.473,0,0,0-.077.263.472.472,0,0,0,.168.369.721.721,0,0,0,.491.148A1.142,1.142,0,0,0,90.3-.5a.862.862,0,0,0,.366-.383,1.338,1.338,0,0,0,.089-.554ZM95.561,0V-4.51h.554V0Zm10.012,0V-4.51h1.692a2.094,2.094,0,0,1,.829.137,1.066,1.066,0,0,1,.489.421,1.111,1.111,0,0,1,.177.6,1.023,1.023,0,0,1-.157.544,1.12,1.12,0,0,1-.474.412,1.178,1.178,0,0,1,.629.409,1.1,1.1,0,0,1,.22.683,1.317,1.317,0,0,1-.134.589,1.141,1.141,0,0,1-.331.42,1.38,1.38,0,0,1-.494.223,3,3,0,0,1-.728.075Zm.6-2.615h.975a2.176,2.176,0,0,0,.569-.052.633.633,0,0,0,.343-.225.647.647,0,0,0,.115-.394.725.725,0,0,0-.108-.4.545.545,0,0,0-.308-.234,2.569,2.569,0,0,0-.686-.063h-.9Zm0,2.083h1.123a2.584,2.584,0,0,0,.406-.022.973.973,0,0,0,.345-.123.653.653,0,0,0,.228-.251.785.785,0,0,0,.089-.38.749.749,0,0,0-.129-.438.682.682,0,0,0-.358-.261,2.222,2.222,0,0,0-.66-.075H106.17ZM113.125,0V-3.267h.5v.5a1.351,1.351,0,0,1,.352-.458.615.615,0,0,1,.355-.111,1.08,1.08,0,0,1,.569.178l-.191.514a.792.792,0,0,0-.406-.12.527.527,0,0,0-.326.109.592.592,0,0,0-.206.3,2.157,2.157,0,0,0-.092.646V0Zm7.638-.4a2.062,2.062,0,0,1-.592.369,1.711,1.711,0,0,1-.611.108,1.188,1.188,0,0,1-.827-.263.868.868,0,0,1-.289-.672.894.894,0,0,1,.109-.438.9.9,0,0,1,.286-.318,1.345,1.345,0,0,1,.4-.181,3.957,3.957,0,0,1,.492-.083,5.061,5.061,0,0,0,.987-.191q0-.114,0-.145a.611.611,0,0,0-.157-.477.927.927,0,0,0-.631-.188.978.978,0,0,0-.577.137.836.836,0,0,0-.275.484l-.541-.074a1.341,1.341,0,0,1,.243-.561,1.065,1.065,0,0,1,.489-.329,2.182,2.182,0,0,1,.741-.115,1.962,1.962,0,0,1,.68.1.9.9,0,0,1,.385.248.871.871,0,0,1,.172.377,3.118,3.118,0,0,1,.028.511v.738a7.836,7.836,0,0,0,.035.977,1.232,1.232,0,0,0,.14.392h-.578A1.174,1.174,0,0,1,120.763-.4Zm-.046-1.237a4.062,4.062,0,0,1-.9.209,2.092,2.092,0,0,0-.483.111.481.481,0,0,0-.218.18.473.473,0,0,0-.077.263.472.472,0,0,0,.168.369.721.721,0,0,0,.491.148,1.142,1.142,0,0,0,.569-.14.862.862,0,0,0,.366-.383,1.338,1.338,0,0,0,.089-.554ZM125.537,0V-3.267h.5V-2.8a1.174,1.174,0,0,1,1.04-.538,1.364,1.364,0,0,1,.543.106.854.854,0,0,1,.371.278,1.068,1.068,0,0,1,.172.409,3.171,3.171,0,0,1,.031.538V0h-.554V-1.987a1.492,1.492,0,0,0-.065-.506.532.532,0,0,0-.229-.268.729.729,0,0,0-.386-.1.9.9,0,0,0-.611.225,1.108,1.108,0,0,0-.257.852V0Zm9.025,0V-.412a1.016,1.016,0,0,1-.914.486,1.281,1.281,0,0,1-.718-.215,1.416,1.416,0,0,1-.508-.6,2.078,2.078,0,0,1-.18-.887,2.323,2.323,0,0,1,.163-.887,1.286,1.286,0,0,1,.489-.611,1.308,1.308,0,0,1,.729-.212,1.089,1.089,0,0,1,.526.125,1.1,1.1,0,0,1,.375.325V-4.51h.551V0Zm-1.75-1.63a1.419,1.419,0,0,0,.265.938.8.8,0,0,0,.624.311.783.783,0,0,0,.617-.3,1.369,1.369,0,0,0,.254-.906,1.536,1.536,0,0,0-.258-.984.8.8,0,0,0-.637-.314.767.767,0,0,0-.617.3A1.488,1.488,0,0,0,132.812-1.63Z" transform="translate(1191.3 891)" fill="#b9baba"/>
      <g id="alipay-logo" transform="translate(1190.681 832.538)">
        <g id="XMLID_647_" transform="translate(0.059 0.092)">
          <g id="XMLID_648_">
            <g id="XMLID_649_">
              <g id="XMLID_653_" transform="translate(42.376 5.432)">
                <g id="XMLID_655_" transform="translate(0 1.331)">
                  <g id="XMLID_656_">
                    <path id="XMLID_669_" d="M71.238,29.956h5.183l-9.7-21.174H65.307a1.227,1.227,0,0,0-.665.194,1.1,1.1,0,0,0-.444.5L54.416,29.928H57.88l1.746-3.464H69.6ZM64.725,15.683l4.24,9.146H60.291Z" transform="translate(-54.416 -8.782)" fill="#404041"/>
                    <path id="XMLID_667_" d="M89.921,29.972H85.238V9.74a.854.854,0,0,1,.887-.887h3.8V29.972Z" transform="translate(-61.209 -8.798)" fill="#404041"/>
                    <path id="XMLID_665_" d="M96.543,16.85a.854.854,0,0,1,.887-.887h3.825v15.6H96.542V16.85Z" transform="translate(-63.701 -10.365)" fill="#404041"/>
                    <path id="XMLID_662_" d="M107.67,16.784a.842.842,0,0,1,.277-.637.955.955,0,0,1,.637-.277h3.853v1.219a8.23,8.23,0,0,1,1.857-1.109,6.641,6.641,0,0,1,2.467-.443,6.194,6.194,0,0,1,2.716.582,6.9,6.9,0,0,1,2.106,1.58,7.455,7.455,0,0,1,1.358,2.328,8.637,8.637,0,0,1,.471,2.827,11.2,11.2,0,0,1-.554,3.548,8.347,8.347,0,0,1-1.607,2.827,7.031,7.031,0,0,1-2.522,1.857,8.1,8.1,0,0,1-3.326.665c-.61,0-1.164-.028-1.607-.055a5.873,5.873,0,0,1-1.33-.333v6.263H107.7V16.784Zm4.767,10.337a2.778,2.778,0,0,0,.194,1.081,2.735,2.735,0,0,0,.582.887,2.476,2.476,0,0,0,.942.582,3.369,3.369,0,0,0,1.192.194,1.874,1.874,0,0,0,1.164-.416,3.558,3.558,0,0,0,.942-1.136,7.692,7.692,0,0,0,.637-1.718,9.146,9.146,0,0,0,.222-2.189,15.348,15.348,0,0,0-.194-2.661,7.454,7.454,0,0,0-.582-1.912,3.06,3.06,0,0,0-.914-1.164,1.9,1.9,0,0,0-1.164-.388,3.289,3.289,0,0,0-.887.138,2.475,2.475,0,0,0-.8.416,7.2,7.2,0,0,0-.748.61,8.3,8.3,0,0,0-.637.748v6.873h.056v.055Z" transform="translate(-66.154 -10.271)" fill="#404041"/>
                    <path id="XMLID_659_" d="M140.575,16.035a16.925,16.925,0,0,0-9.063.249c.111.388.305,1.081.415,1.5,6.208-1.108,7.4-.249,7.4,2.439v.831c-1.136-.083-2.466-.277-3.575-.277a5.463,5.463,0,0,0-5.792,5.46c0,3.742,3.547,7.206,9.34,4.628v.582h4.85V20.054C144.177,17.864,142.265,16.506,140.575,16.035Zm-6.762,10.254a3.419,3.419,0,0,1,3.27-3.326,3.8,3.8,0,0,1,2.245.361v5.349a3.274,3.274,0,0,1-5.515-2.384Z" transform="translate(-71.067 -10.271)" fill="#404041"/>
                    <path id="XMLID_657_" d="M149.833,15.572h5.016l4.933,9.645,4.074-9.007a.984.984,0,0,1,.387-.443,1.091,1.091,0,0,1,.582-.166h2.688l-7.871,17.377c-1.884,4.712-6.485,4.074-7.344,4.074V34.418c.637,0,2.743.028,3.686-1.025a4.666,4.666,0,0,0,.555-.97c.139-.3.249-.554.36-.8l.554-1.247Z" transform="translate(-75.447 -10.279)" fill="#404041"/>
                  </g>
                </g>
                <path id="XMLID_654_" d="M101.393,9.376a2.563,2.563,0,0,1-5.1,0,2.563,2.563,0,0,1,5.1,0Z" transform="translate(-63.646 -7.075)" fill="#00adee"/>
              </g>
              <g id="XMLID_650_">
                <path id="XMLID_652_" d="M22.812,24.746c-3.3,4.046-7.538,6.485-11.945,6.485-7.455,0-10-6.513-6.457-10.781a7.447,7.447,0,0,1,4.129-2.328c3.187-.776,8.231.471,12.97,2.051a26.493,26.493,0,0,0,2.106-5.127H8.983V13.577h7.538V10.916H7.4V9.447h9.118V5.678a.624.624,0,0,1,.638-.638h3.686V9.447H29.88v1.469H20.872v2.661h7.344a29.518,29.518,0,0,1-3.1,7.843c2.245.8,4.241,1.552,5.737,2.079,5.377,1.8,6.6,1.885,6.6,1.885h0V6.066A5.973,5.973,0,0,0,31.459.107H6.045A5.991,5.991,0,0,0,.059,6.066V31.4a5.973,5.973,0,0,0,5.986,5.959H31.459A5.991,5.991,0,0,0,37.446,31.4v-.249S27.718,27.1,22.812,24.746Z" transform="translate(-0.059 -0.107)" fill="#00adee"/>
                <path id="XMLID_651_" d="M10.3,26.045A7.185,7.185,0,0,0,6.639,27.4C3.757,29.9,5.475,34.47,11.3,34.47c3.381,0,6.762-2.162,9.423-5.6C16.977,27.015,13.762,25.712,10.3,26.045Z" transform="translate(-1.207 -5.813)" fill="#00adee"/>
              </g>
            </g>
          </g>
        </g>
        <g id="XMLID_86_" transform="translate(138.666 5.008)">
          <path id="XMLID_96_" d="M176.82.407v2.3h-.4V.407h-.74V.037h1.866v.37Z" transform="translate(-175.678 -0.037)" fill="#3e3b3b"/>
          <path id="XMLID_90_" d="M182.779,2.742V.957l-.611,1.3h-.306l-.627-1.3V2.742h-.4V.072h.4l.788,1.673.772-1.673h.4v2.67Z" transform="translate(-178.5 -0.056)" fill="#3e3b3b"/>
        </g>
      </g>
      <line id="Line_1250" data-name="Line 1250" x2="135" transform="translate(1192 877.5)" fill="none" stroke="#b9baba" stroke-width="0.7"/>
      <path id="Path_2483" data-name="Path 2483" d="M337.666,26.144h.72L338,25.288c1.058-.362,1.736-1.2,1.537-1.933-.214-.792-1.348-1.172-2.531-.855a2.452,2.452,0,0,0-1.733,1.376.961.961,0,0,0-.83-.518,1.435,1.435,0,0,0,.068-.447,1.482,1.482,0,0,0-1.211-1.426l-.027-1.178a.318.318,0,0,0-.325-.311h-.016a.319.319,0,0,0-.313.325l.026,1.19a1.472,1.472,0,0,0-.505.241l-.764-.857a.317.317,0,0,0-.246-.111.329.329,0,0,0-.208.079l-.009.01a.328.328,0,0,0-.109.22.334.334,0,0,0,.08.232l.826.928a1.454,1.454,0,0,0-.176.716,1.483,1.483,0,0,0,1.518,1.448,1.438,1.438,0,0,0,.383-.063.968.968,0,0,0,.3.678l-.576,1.111h.736m2.3,0h.666m-1.429,0h-.658m2.57-.7.315.7h-.8l-.088-.683a2.968,2.968,0,0,0,.577-.02m-1.254-.117.1.821h-.763L335.556,25a1.529,1.529,0,0,0,.541.321m-2.933.821h.736l.443-.856a.514.514,0,0,0,.09.01,1.016,1.016,0,0,0,.45-.124l-.1.97" transform="translate(961.157 851.004)" fill="#b9baba"/>
    </g>
  </g>
</svg>
