<svg xmlns="http://www.w3.org/2000/svg" width="60" height="60" viewBox="0 0 60 60">
  <g id="ico-detail-list" transform="translate(-3 -3)">
    <rect id="Rectangle_1" data-name="Rectangle 1" width="60" height="60" transform="translate(3 3)" fill="#fff"/>
    <g id="Group_4" data-name="Group 4" transform="translate(14.6 8.335)">
      <g id="Group_2" data-name="Group 2">
        <path id="Path_1" data-name="Path 1" d="M344.485,532.273H314.493a3.363,3.363,0,0,1-3.359-3.36V491.046a3.362,3.362,0,0,1,3.359-3.358h7.3v1.278h-7.3a2.083,2.083,0,0,0-2.081,2.08v37.867A2.085,2.085,0,0,0,314.493,531h29.992a2.085,2.085,0,0,0,2.083-2.083V491.046a2.083,2.083,0,0,0-2.083-2.08h-7.3v-1.278h7.3a3.363,3.363,0,0,1,3.36,3.358v37.867A3.364,3.364,0,0,1,344.485,532.273Z" transform="translate(-311.134 -483.69)" stroke="#000" stroke-width="0.15"/>
        <path id="Path_2" data-name="Path 2" d="M343.177,528.172H314.364a.637.637,0,0,1-.639-.639v-36.57a.638.638,0,0,1,.639-.639h2.748a.639.639,0,1,1,0,1.278H315v35.293h27.535V491.6h-2.3a.639.639,0,1,1,0-1.278h2.943a.639.639,0,0,1,.639.639v36.57A.638.638,0,0,1,343.177,528.172Z" transform="translate(-310.415 -482.958)" stroke="#000" stroke-width="0.15"/>
        <path id="Path_3" data-name="Path 3" d="M335.125,493.2H319.54a.638.638,0,0,1-.639-.639v-2.685a3.252,3.252,0,0,1,3.249-3.249h2.272a3.084,3.084,0,0,1,5.822,0h2.272a3.252,3.252,0,0,1,3.248,3.249v2.685A.638.638,0,0,1,335.125,493.2Zm-14.946-1.278h14.308v-2.046a1.973,1.973,0,0,0-1.97-1.971h-2.767a.642.642,0,0,1-.631-.538,1.807,1.807,0,0,0-3.57,0,.639.639,0,0,1-.631.538H322.15a1.973,1.973,0,0,0-1.971,1.971Z" transform="translate(-308.977 -484.559)" stroke="#000" stroke-width="0.15"/>
        <g id="Group_1" data-name="Group 1" transform="translate(7.362 16.851)">
          <path id="Path_4" data-name="Path 4" d="M319.184,502.89h-.026a.64.64,0,0,1-.461-.224l-1.648-1.933a.638.638,0,1,1,.971-.828l1.2,1.4,3.358-3.373a.639.639,0,0,1,.906.9l-3.847,3.865A.636.636,0,0,1,319.184,502.89Z" transform="translate(-316.896 -497.747)" stroke="#000" stroke-width="0.15"/>
          <path id="Path_5" data-name="Path 5" d="M336.276,500.28H324.622a.639.639,0,1,1,0-1.278h11.654a.639.639,0,1,1,0,1.278Z" transform="translate(-314.928 -497.399)" stroke="#000" stroke-width="0.15"/>
          <path id="Path_6" data-name="Path 6" d="M319.184,509.114h-.026a.641.641,0,0,1-.461-.225l-1.648-1.932a.639.639,0,1,1,.971-.829l1.2,1.406,3.358-3.374a.639.639,0,1,1,.906.9l-3.847,3.866A.641.641,0,0,1,319.184,509.114Z" transform="translate(-316.896 -496.019)" stroke="#000" stroke-width="0.15"/>
          <path id="Path_7" data-name="Path 7" d="M336.276,506.5H324.622a.639.639,0,0,1,0-1.278h11.654a.639.639,0,1,1,0,1.278Z" transform="translate(-314.928 -495.671)" stroke="#000" stroke-width="0.15"/>
          <path id="Path_8" data-name="Path 8" d="M319.184,515.159h-.026a.641.641,0,0,1-.461-.225L317.049,513a.638.638,0,1,1,.971-.829l1.2,1.405,3.358-3.374a.639.639,0,1,1,.906.9l-3.847,3.866A.641.641,0,0,1,319.184,515.159Z" transform="translate(-316.896 -494.34)" stroke="#000" stroke-width="0.15"/>
          <path id="Path_9" data-name="Path 9" d="M336.276,512.549H324.622a.639.639,0,0,1,0-1.278h11.654a.639.639,0,1,1,0,1.278Z" transform="translate(-314.928 -493.992)" stroke="#000" stroke-width="0.15"/>
        </g>
      </g>
    </g>
  </g>
</svg>
