<svg xmlns="http://www.w3.org/2000/svg" width="60" height="60" viewBox="0 0 60 60">
  <g id="ico-mobile-touch" transform="translate(-40 -3)">
    <rect id="Rectangle_1" data-name="Rectangle 1" width="60" height="60" transform="translate(40 3)" fill="#fff"/>
    <g id="Group_7" data-name="Group 7" transform="translate(51.5 15)">
      <path id="Path_10" data-name="Path 10" d="M316.918,582.907h-7.508a4.2,4.2,0,0,1-4.193-4.193V559.542a4.2,4.2,0,0,1,4.193-4.191h28.608a4.2,4.2,0,0,1,4.192,4.191V573.3a.506.506,0,1,1-1.011,0V559.542a3.184,3.184,0,0,0-3.181-3.18H309.409a3.184,3.184,0,0,0-3.181,3.18v19.171a3.185,3.185,0,0,0,3.181,3.182h7.508a.506.506,0,1,1,0,1.011Z" transform="translate(-305.217 -555.351)" stroke="#000" stroke-width="0.15"/>
      <path id="Path_11" data-name="Path 11" d="M336.861,592.212h-8.693a2.512,2.512,0,0,1-2.184-1.275l-5.4-9.571a2.628,2.628,0,0,1,2.288-3.919,3.887,3.887,0,0,1,3.057,1.5l.569.738V567.241a1.83,1.83,0,0,1,1.827-1.828H330.1a1.83,1.83,0,0,1,1.828,1.828v8.3l7.458,2.672a3.063,3.063,0,0,1,1.948,3.6l-2.033,8.477A2.5,2.5,0,0,1,336.861,592.212Zm-13.993-13.755a1.616,1.616,0,0,0-1.408,2.411l5.4,9.571a1.5,1.5,0,0,0,1.3.761h8.693a1.492,1.492,0,0,0,1.455-1.148l2.032-8.477a2.052,2.052,0,0,0-1.3-2.413l-7.794-2.793a.507.507,0,0,1-.335-.476v-8.653a.817.817,0,0,0-.817-.817h-1.778a.817.817,0,0,0-.816.817V581.17a.506.506,0,0,1-.906.309l-1.475-1.913A2.868,2.868,0,0,0,322.868,578.458Z" transform="translate(-305.049 -555.238)" stroke="#000" stroke-width="0.15"/>
      <path id="Path_12" data-name="Path 12" d="M316.848,579.993h-4.926a.506.506,0,0,1-.506-.506v-20.2a.506.506,0,0,1,.506-.506H336.63a.506.506,0,0,1,.506.506v13.975a.506.506,0,1,1-1.011,0V559.8h-23.7v19.187h4.42a.506.506,0,0,1,0,1.011Z" transform="translate(-305.147 -555.313)" stroke="#000" stroke-width="0.15"/>
      <circle id="Ellipse_1" data-name="Ellipse 1" cx="1.177" cy="1.177" r="1.177" transform="translate(2.543 12.898)"/>
      <circle id="Ellipse_2" data-name="Ellipse 2" cx="0.812" cy="0.812" r="0.812" transform="translate(32.996 13.263)"/>
    </g>
  </g>
</svg>
