<svg xmlns="http://www.w3.org/2000/svg" xmlns:xlink="http://www.w3.org/1999/xlink" viewBox="0 0 60 43">
  <defs>
    <style>
      .cls-1 {
        fill: rgba(255,96,96,0.1);
        stroke: #707070;
      }

      .cls-2 {
        clip-path: url(#clip-path);
      }

      .cls-3 {
        fill: none;
      }

      .cls-4 {
        fill: #231f20;
      }

      .cls-5 {
        fill: #ff5f00;
      }

      .cls-6 {
        fill: #eb001b;
      }

      .cls-7 {
        fill: #f79e1b;
      }
    </style>
    <clipPath id="clip-path">
      <rect id="Rectangle_1910" data-name="Rectangle 1910" class="cls-1" width="60" height="43" transform="translate(945 2912)"/>
    </clipPath>
  </defs>
  <g id="Mask_Group_893" data-name="Mask Group 893" class="cls-2" transform="translate(-945 -2912)">
    <g id="Mastercard" transform="translate(945 2908.786)">
      <g id="Layer_1" data-name="Layer 1" transform="translate(0.229 0.428)">
        <rect id="Rectangle_1913" data-name="Rectangle 1913" class="cls-3" width="59.5" height="48.804"/>
        <path id="Path_1282" data-name="Path 1282" class="cls-4" d="M13.712,38.236V35.8a1.443,1.443,0,0,0-1.524-1.54,1.5,1.5,0,0,0-1.362.689,1.423,1.423,0,0,0-1.281-.689,1.281,1.281,0,0,0-1.135.576v-.478H7.567v3.875h.851V36.1a.908.908,0,0,1,.948-1.03c.559,0,.843.365.843,1.021v2.156h.851V36.1a.912.912,0,0,1,.948-1.029c.576,0,.851.365.851,1.021v2.156ZM26.3,34.361H24.919V33.185h-.851v1.175H23.3v.77h.786v1.783c0,.9.349,1.435,1.346,1.435a1.978,1.978,0,0,0,1.054-.3l-.243-.721a1.557,1.557,0,0,1-.746.219c-.405,0-.559-.259-.559-.649V35.131h1.378Zm7.19-.1a1.143,1.143,0,0,0-1.021.567v-.47h-.835v3.875h.843V36.063c0-.64.276-1,.811-1a1.374,1.374,0,0,1,.527.1l.259-.811a1.8,1.8,0,0,0-.6-.105Zm-10.871.405a2.9,2.9,0,0,0-1.581-.405c-.981,0-1.621.47-1.621,1.24,0,.632.47,1.021,1.338,1.143l.405.057c.462.065.681.186.681.405,0,.3-.308.47-.884.47a2.063,2.063,0,0,1-1.289-.405l-.405.657a2.8,2.8,0,0,0,1.678.5c1.119,0,1.767-.527,1.767-1.265s-.511-1.038-1.354-1.159l-.405-.057c-.365-.049-.657-.122-.657-.381s.276-.454.738-.454a2.5,2.5,0,0,1,1.216.332Zm22.58-.405a1.143,1.143,0,0,0-1.021.567v-.47h-.835v3.875h.843V36.063c0-.64.276-1,.811-1a1.374,1.374,0,0,1,.527.1l.259-.811a1.8,1.8,0,0,0-.6-.105ZM34.342,36.29a1.958,1.958,0,0,0,2.067,2.027,2.027,2.027,0,0,0,1.394-.462l-.405-.681a1.7,1.7,0,0,1-1.013.349,1.244,1.244,0,0,1,0-2.481,1.7,1.7,0,0,1,1.013.349l.405-.681a2.027,2.027,0,0,0-1.394-.462,1.958,1.958,0,0,0-2.067,2.027Zm7.9,0V34.361h-.843v.47a1.471,1.471,0,0,0-1.216-.567,2.027,2.027,0,0,0,0,4.053,1.471,1.471,0,0,0,1.216-.567v.47h.843Zm-3.137,0a1.163,1.163,0,1,1,.316.877,1.171,1.171,0,0,1-.316-.877ZM28.927,34.264a2.027,2.027,0,1,0,.057,4.053,2.355,2.355,0,0,0,1.609-.527l-.405-.624a1.844,1.844,0,0,1-1.127.405,1.074,1.074,0,0,1-1.159-.948H30.78V36.3a1.842,1.842,0,0,0-1.84-2.027Zm0,.754a.961.961,0,0,1,.981.94H27.882a1,1,0,0,1,1.029-.94ZM50.048,36.3V32.8h-.811v2.027a1.471,1.471,0,0,0-1.216-.567,2.027,2.027,0,0,0,0,4.053,1.471,1.471,0,0,0,1.216-.567v.47h.811Zm1.406,1.374a.39.39,0,0,1,.365.231.377.377,0,0,1,0,.3.387.387,0,0,1-.211.2.381.381,0,0,1-.154.032.405.405,0,0,1-.365-.235.381.381,0,0,1,0-.3.393.393,0,0,1,.377-.231Zm0,.685a.288.288,0,0,0,.118-.024.3.3,0,0,0,.093-.065.292.292,0,0,0-.093-.47.292.292,0,0,0-.118-.024.3.3,0,0,0-.118.024.3.3,0,0,0-.1.065.294.294,0,0,0,.227.494Zm.024-.482a.162.162,0,0,1,.105.032.1.1,0,0,1,.036.085.1.1,0,0,1-.028.073.142.142,0,0,1-.085.036l.118.134h-.093l-.109-.134h-.036v.134h-.077v-.357Zm-.089.069v.1h.089a.085.085,0,0,0,.049,0,116.31,116.31,0,0,1,0-.073.085.085,0,0,0-.049,0ZM46.931,36.3a1.163,1.163,0,1,1,.316.877A1.171,1.171,0,0,1,46.931,36.3Zm-28.465,0V34.361h-.843v.47a1.471,1.471,0,0,0-1.216-.567,2.027,2.027,0,1,0,0,4.053,1.471,1.471,0,0,0,1.216-.567v.47h.843Zm-3.137,0a.5.5,0,1,1-.008,0Z" transform="translate(1.021 4.428)"/>
        <g id="_Group_" data-name="&lt;Group&gt;" transform="translate(6.143 6.141)">
          <rect id="Rectangle_1914" data-name="Rectangle 1914" class="cls-5" width="12.767" height="22.945" transform="translate(17.224 3.121)"/>
          <path id="_Path_" data-name="&lt;Path&gt;" class="cls-6" d="M23.446,20.005A14.567,14.567,0,0,1,29.02,8.531a14.591,14.591,0,1,0,0,22.945A14.567,14.567,0,0,1,23.446,20.005Z" transform="translate(-5.412 -5.41)"/>
          <path id="Path_1283" data-name="Path 1283" class="cls-7" d="M49.822,20.006a14.591,14.591,0,0,1-23.61,11.47,14.591,14.591,0,0,0,0-22.945A14.591,14.591,0,0,1,49.822,20Z" transform="translate(-2.605 -5.41)"/>
          <path id="Path_1284" data-name="Path 1284" class="cls-7" d="M45.82,26.3v-.47h.19v-.1h-.482v.1h.207v.47Zm.936,0v-.567h-.146l-.17.405-.17-.405h-.13V26.3h.105v-.426l.158.369h.109l.158-.369v.43Z" transform="translate(0.002 -2.667)"/>
        </g>
      </g>
    </g>
  </g>
</svg>
