<svg xmlns="http://www.w3.org/2000/svg" xmlns:xlink="http://www.w3.org/1999/xlink" width="113" height="81" viewBox="0 0 113 81">
  <defs>
    <clipPath id="clip-path">
      <rect id="UnionPay" width="113" height="81" transform="translate(788.035 707)" fill="#be3e3e"/>
    </clipPath>
  </defs>
  <g id="Mask_Group_903" data-name="Mask Group 903" transform="translate(-788.035 -707)" clip-path="url(#clip-path)">
    <g id="UnionPay_logo" transform="translate(798.485 718.694)">
      <path id="Path_2477" data-name="Path 2477" d="M18.037,0H41.025c3.209,0,5.2,2.616,4.456,5.835l-10.7,45.951A7.812,7.812,0,0,1,27.6,57.612H4.613c-3.2,0-5.2-2.618-4.456-5.826L10.864,5.835A7.791,7.791,0,0,1,18.037,0" transform="translate(0)" fill="#e21836"/>
      <path id="Path_2478" data-name="Path 2478" d="M43.895,0H70.33c3.208,0,1.762,2.616,1.007,5.835l-10.7,45.951c-.751,3.208-.517,5.826-3.732,5.826H30.469c-3.215,0-5.2-2.618-4.449-5.826L36.72,5.835A7.807,7.807,0,0,1,43.895,0" transform="translate(-4.783)" fill="#00447c"/>
      <path id="Path_2479" data-name="Path 2479" d="M75.043,0H98.031c3.213,0,5.209,2.616,4.455,5.835l-10.7,45.951A7.815,7.815,0,0,1,84.6,57.612H61.624c-3.215,0-5.209-2.618-4.456-5.826L67.87,5.835A7.789,7.789,0,0,1,75.043,0" transform="translate(-10.544)" fill="#007b84"/>
      <path id="Path_2480" data-name="Path 2480" d="M26.389,18.049A24.7,24.7,0,0,1,23.1,18c-.086.407-1.681,7.766-1.685,7.772-.343,1.489-.593,2.55-1.442,3.235a2.57,2.57,0,0,1-1.7.591,1.568,1.568,0,0,1-1.762-1.508l-.02-.339s.319-1.994.319-2.005,1.674-6.706,1.974-7.592a.646.646,0,0,0,.024-.1A24.6,24.6,0,0,1,14.939,18c-.022.072-.1.488-.1.488l-1.71,7.558-.147.641-.284,2.1a3.085,3.085,0,0,0,.365,1.559c.779,1.361,3,1.565,4.257,1.565a8.262,8.262,0,0,0,4.165-.972c1.782-1.053,2.248-2.7,2.664-4.161l.193-.75s1.725-6.965,2.018-7.871A.317.317,0,0,1,26.389,18.049Zm5.868,5.619A4.555,4.555,0,0,0,30.4,24.1c-.248.127-.482.274-.729.42l.223-.805-.122-.136c-1.447.293-1.771.332-3.108.521l-.112.075a39.546,39.546,0,0,1-.868,4.785c-.219.932-.447,1.874-.675,2.8l.062.118c1.37-.072,1.786-.072,2.976-.053l.1-.1c.151-.775.171-.956.506-2.526.157-.744.486-2.379.648-2.961a2.219,2.219,0,0,1,.871-.273c.667,0,.586.582.56.814-.029.389-.272,1.661-.521,2.753l-.166.7c-.116.521-.243,1.027-.359,1.543l.05.1c1.35-.072,1.762-.072,2.915-.053l.136-.1c.208-1.21.27-1.534.639-3.3l.186-.81c.361-1.585.543-2.388.27-3.043A1.572,1.572,0,0,0,32.257,23.668Zm6.555,1.659c-.718.138-1.176.23-1.631.289s-.891.138-1.585.234l-.055.05-.05.04c-.072.517-.123.963-.219,1.488-.081.543-.206,1.16-.41,2.046a8.039,8.039,0,0,1-.328,1.154,9.976,9.976,0,0,0-.361,1.138l.041.062.035.057c.648-.031,1.072-.053,1.508-.057s.886,0,1.585,0l.061-.05.066-.055c.1-.6.116-.764.178-1.057.061-.315.166-.751.425-1.915.122-.547.258-1.092.385-1.65s.27-1.1.4-1.65l-.02-.066Zm.015-2.237a2.63,2.63,0,0,0-2.567.269c-.768.521-.856,1.261-.206,1.651a2.623,2.623,0,0,0,2.554-.273C39.374,24.2,39.47,23.471,38.827,23.09ZM42.771,32a4.9,4.9,0,0,0,3.69-1.443,6.537,6.537,0,0,0,1.267-2.714c.405-1.777.09-2.607-.306-3.113a3.4,3.4,0,0,0-2.769-1.018,5.083,5.083,0,0,0-3.478,1.2,5.7,5.7,0,0,0-1.543,3c-.249,1.088-.536,3.047,1.265,3.776A5.276,5.276,0,0,0,42.771,32Zm-.1-4c.3-1.346.663-2.475,1.58-2.475.718,0,.77.84.451,2.191a6.037,6.037,0,0,1-.674,1.889,1.113,1.113,0,0,1-.865.563c-.1,0-.67,0-.679-.851A5.8,5.8,0,0,1,42.668,28.006Zm8.359,3.826.1-.1c.146-.775.17-.957.494-2.526.162-.744.5-2.379.654-2.961a2.19,2.19,0,0,1,.876-.274c.663,0,.582.582.556.814a26.465,26.465,0,0,1-.521,2.753l-.157.7c-.12.521-.252,1.027-.368,1.543l.05.1c1.355-.072,1.751-.072,2.911-.053l.14-.1c.2-1.211.258-1.535.639-3.3l.182-.81c.363-1.585.547-2.388.278-3.042a1.591,1.591,0,0,0-1.624-.911,4.533,4.533,0,0,0-1.859.435c-.243.127-.486.273-.724.42l.208-.805-.112-.136c-1.447.294-1.777.333-3.113.521l-.1.075a41.016,41.016,0,0,1-.869,4.785c-.219.932-.447,1.874-.674,2.8l.061.118C49.429,31.812,49.839,31.812,51.027,31.832Zm9.954.052c.085-.416.591-2.88.6-2.88s.431-1.808.457-1.874a1.071,1.071,0,0,1,.271-.263h.2c1.882,0,4.007,0,5.673-1.225a6.047,6.047,0,0,0,2.254-3.59,5.426,5.426,0,0,0,.156-1.25,2.626,2.626,0,0,0-.451-1.6c-.849-1.188-2.541-1.21-4.494-1.219L64.681,18c-2.5.031-3.5.022-3.914-.029-.035.182-.1.506-.1.506s-.9,4.15-.9,4.156l-2.243,9.239C59.71,31.843,60.6,31.843,60.981,31.884Zm1.659-7.372s.952-4.141.947-4.126l.031-.212.013-.162.38.039,2.009.173a1.636,1.636,0,0,1,.871,2.081,3.027,3.027,0,0,1-1.569,2.071,4.959,4.959,0,0,1-2.206.343H62.6Zm5.927,3.57c-.252,1.072-.541,3.031,1.252,3.729a3.5,3.5,0,0,0,1.6.289,2.648,2.648,0,0,0,1.531-.7l-.128.49.081.1c1.289-.054,1.689-.054,3.086-.044l.127-.1c.2-1.2.4-2.363.926-4.657.258-1.1.516-2.187.781-3.281l-.041-.12c-1.442.267-1.828.324-3.215.521l-.105.086c-.014.112-.029.219-.042.326a1.982,1.982,0,0,0-1.011-.832A3.863,3.863,0,0,0,70.1,25.1,5.624,5.624,0,0,0,68.568,28.082Zm3.029.066c.309-1.322.663-2.44,1.582-2.44.581,0,.887.536.825,1.451-.049.228-.1.468-.166.74-.092.393-.192.782-.289,1.172a2.842,2.842,0,0,1-.34.686,1.588,1.588,0,0,1-1.123.543c-.092,0-.659,0-.679-.836A5.744,5.744,0,0,1,71.6,28.148Zm15.818-4.364-.112-.127c-1.427.289-1.685.335-3,.512l-.1.1c0,.016-.008.04-.015.062l0-.022c-.976,2.252-.947,1.766-1.742,3.539,0-.081,0-.131-.009-.217l-.2-3.843-.125-.127c-1.495.289-1.53.335-2.911.512l-.108.1a1.043,1.043,0,0,0-.024.151l.009.02a19.393,19.393,0,0,1,.3,2.077c.081.683.188,1.37.269,2.045.136,1.129.212,1.685.379,3.408-.932,1.539-1.153,2.121-2.051,3.471l.006.013-.632,1a.479.479,0,0,1-.23.208.954.954,0,0,1-.414.059h-.35l-.521,1.731,1.786.031a2.2,2.2,0,0,0,2.062-1.154L80.814,35.4H80.8l.118-.136C81.669,33.64,87.415,23.784,87.415,23.784ZM68.568,46.523H67.81l2.8-9.274h.93l.3-.955.029,1.062c-.035.657.482,1.239,1.839,1.142h1.569l.54-1.786h-.591c-.34,0-.5-.086-.477-.27l-.029-1.081H71.813v.006a40.743,40.743,0,0,0-4.314.241,5.079,5.079,0,0,0-1.412.7l.285-.956H63.654l-.566,1.9-2.841,9.416h-.551l-.541,1.773h5.415l-.182.591h2.668l.177-.591h.749Zm-2.222-7.389a12.151,12.151,0,0,0-1.246.486l.721-2.37h2.16l-.521,1.727A7.021,7.021,0,0,0,66.346,39.133Zm.041,3.386s-.679.085-1.125.186A11.007,11.007,0,0,0,64,43.259l.744-2.467h2.171Zm-1.21,4.025H63.01l.628-2.082H65.8ZM70.4,40.792h3.123l-.449,1.453H69.9l-.475,1.589H72.2l-2.1,2.952a.864.864,0,0,1-.425.355,1.244,1.244,0,0,1-.563.162h-.768l-.528,1.74h2.009a2.443,2.443,0,0,0,2.117-1.1l1.438-1.968.309,2a.939.939,0,0,0,.517.679,1.861,1.861,0,0,0,.7.3c.315.013.542.024.694.024h.987l.593-1.948H76.8a1.628,1.628,0,0,1-.674-.108,1.058,1.058,0,0,1-.1-.416l-.313-2H74.424l.563-.67h3.158l.486-1.589H75.707l.456-1.453h2.915L79.618,39H70.927ZM44.017,46.949l.729-2.425h3l.547-1.8h-3l.458-1.493h2.93l.543-1.747H41.889l-.532,1.747h1.666l-.444,1.493h-1.67l-.554,1.834H42.02l-.972,3.208a.765.765,0,0,0,.184.784.8.8,0,0,0,.536.392,3.229,3.229,0,0,0,.768.1h3.378l.6-2-1.5.206C44.73,47.251,43.929,47.217,44.017,46.949ZM44.36,35.34,43.6,36.712a1.592,1.592,0,0,1-.44.572,1.458,1.458,0,0,1-.679.1h-.4l-.529,1.755h1.316a2.982,2.982,0,0,0,1.35-.348c.249-.133.315-.057.508-.243l.444-.385h4.108l.545-1.828H46.82l.525-1Zm6.065,11.644c-.07-.1-.02-.278.087-.648l1.123-3.717H55.63c.582-.008,1-.015,1.276-.035a2.61,2.61,0,0,0,.961-.324,1.8,1.8,0,0,0,.7-.644,5.485,5.485,0,0,0,.69-1.563l1.411-4.7-4.145.024a13.136,13.136,0,0,0-1.838.4,7.515,7.515,0,0,0-1.377.88l.374-1.289H51.119L47.534,47.251a7.332,7.332,0,0,0-.232,1c-.007.217.273.431.455.593a1.633,1.633,0,0,0,.836.162c.32.024.775.039,1.4.039h1.968l.6-2.04-1.762.166A.463.463,0,0,1,50.425,46.985Zm1.935-6.875h4.2l-.267.836a3.022,3.022,0,0,0-.554.009H52.1Zm.84-2.8h4.231l-.3,1.007s-1.994-.02-2.314.039a4.719,4.719,0,0,0-2.226.994Zm3.182,6.439a.448.448,0,0,1-.166.258.829.829,0,0,1-.429.075h-.6l.035-1.018H52.739l-.1,4.977c0,.359.031.567.294.733A4.99,4.99,0,0,0,55.094,49h1.558l.563-1.863-1.357.075-.451.026a.516.516,0,0,1-.186-.116c-.057-.057-.154-.022-.138-.381l.011-1.276,1.423-.059a1.843,1.843,0,0,0,1.377-.488,1.525,1.525,0,0,0,.456-.845l.239-1.13H56.632Z" transform="translate(-2.348 -3.323)" fill="#fefefe"/>
    </g>
  </g>
</svg>
