<svg xmlns="http://www.w3.org/2000/svg" width="366.046" height="72.252" viewBox="0 0 366.046 72.252">
  <g id="Group_1959" data-name="Group 1959" transform="translate(-162.4 -880)">
    <path id="Path_2139" data-name="Path 2139" d="M17.9-3.5a3.992,3.992,0,0,0,3.9,4,3.927,3.927,0,0,0,3.9-4V-66.9a3.842,3.842,0,0,0-3.9-3.9h-.2a15.046,15.046,0,0,0-4.3.9l-11.5,4C4.1-65.3,3-64.2,3-62.5a3.436,3.436,0,0,0,3.4,3.4,5.547,5.547,0,0,0,1.7-.3l9.8-3.2Z" transform="translate(423 951)" fill="#e0005a"/>
    <path id="Path_2140" data-name="Path 2140" d="M4.4-3.7A3.709,3.709,0,0,0,8.4,0H50.5a3.671,3.671,0,0,0,3.7-3.6,3.671,3.671,0,0,0-3.7-3.6H16.6L35.3-23.8C47.6-34.5,53-40.8,53-51v-.2C53-62.6,43.9-71,31.3-71,19.8-71,13.4-66.2,7.6-58.1a3.5,3.5,0,0,0-.8,2.2,3.585,3.585,0,0,0,3.6,3.6,3.552,3.552,0,0,0,2.9-1.4c5-6.6,10-10.2,17.4-10.2,7.6,0,14.1,5.2,14.1,13.4,0,7-3.8,12.4-14.6,22L6.3-7.4A4.55,4.55,0,0,0,4.4-3.7ZM90.3,1.2c14.5,0,24.9-9.5,24.9-23V-22c0-13.4-10.6-21.4-24.2-21.4a31.586,31.586,0,0,0-13.8,3.1l1.5-22.4h30.2a3.585,3.585,0,0,0,3.6-3.6,3.608,3.608,0,0,0-3.6-3.7H75.3a3.731,3.731,0,0,0-3.8,3.8L69.9-38.8a4.66,4.66,0,0,0,1.7,4.3,7.085,7.085,0,0,0,4,1.5c1.8,0,6-3.4,14.2-3.4,10.2,0,17.4,5.9,17.4,14.7v.2c0,9.1-7,15.5-16.8,15.5-6.5,0-12.5-2.9-18-7.9a4.268,4.268,0,0,0-2.7-1,3.846,3.846,0,0,0-3.8,3.7,3.938,3.938,0,0,0,1.6,3.3A34.575,34.575,0,0,0,90.3,1.2Z" transform="translate(158 951)" fill="#e0005a"/>
    <g id="Group_924" data-name="Group 924" transform="translate(-1368 -5603)">
      <line id="Line_1686" data-name="Line 1686" x2="20" transform="translate(1734 6519)" fill="none" stroke="#000" stroke-linecap="round" stroke-width="4"/>
      <line id="Line_1687" data-name="Line 1687" x2="20" transform="translate(1734 6529)" fill="none" stroke="#000" stroke-linecap="round" stroke-width="4"/>
    </g>
    <path id="Path_2141" data-name="Path 2141" d="M-10.99-5.712c0,2.576-1.316,4.144-4.116,4.144s-4.116-1.568-4.116-4.144V-15.68H-21.35v9.968c0,3.836,2.128,5.964,6.244,5.964s6.244-2.128,6.244-5.964V-15.68H-10.99ZM4.214,0V-10.164c0-3.668-1.792-5.768-5.4-5.768a9.009,9.009,0,0,0-5.236,1.848l.56,1.6A7.522,7.522,0,0,1-1.33-14.112c2.268,0,3.416,1.26,3.416,3.948V0ZM21.35,0V-10.164c0-3.612-1.708-5.768-4.984-5.768a7.623,7.623,0,0,0-5.656,2.716l-.14-2.464H8.582V0H10.71V-10.78a6.711,6.711,0,0,1,5.544-3.332c1.9,0,2.968,1.232,2.968,3.948V0Z" transform="translate(303 952)" fill="#e0005a"/>
    <path id="Path_2138" data-name="Path 2138" d="M-20.538,0V-9.94c0-3.36-2.3-5.992-6.5-5.992-4.172,0-6.468,2.632-6.468,5.992V0h2.128V-3.92a3.341,3.341,0,0,1,3.3-2.688h1.932V-8.484H-28.07a3.517,3.517,0,0,0-3.3,2.072V-9.968c0-2.464,1.428-4.144,4.34-4.144s4.368,1.68,4.368,4.144V0Zm9.044-10.36V-12.1h-2.912c-.532,0-.7-.2-.7-.672v-1.008h-2.016v1.232c0,1.568.952,2.184,2.436,2.184Zm0,7.868V-4.228h-2.912c-.532,0-.7-.2-.7-.644V-5.908h-2.016v1.26c0,1.568.952,2.156,2.436,2.156ZM-5.782,0V-15.68H-7.854V0ZM-.294,0V-15.68H-2.366V0ZM16.59,0V-15.68H14.462V-4.928A5.469,5.469,0,0,1,9.7-1.568c-2.548,0-3.472-1.4-3.472-4.06V-15.68H4.1V-5.6C4.1-1.876,5.782.252,9.394.252a5.723,5.723,0,0,0,5.068-2.716L14.6,0ZM33.446,0V-15.68H31.318V-4.928a5.469,5.469,0,0,1-4.76,3.36c-2.548,0-3.472-1.4-3.472-4.06V-15.68H20.958V-5.6c0,3.724,1.68,5.852,5.292,5.852a5.723,5.723,0,0,0,5.068-2.716L31.458,0Z" transform="translate(495 952)" fill="#e0005a"/>
  </g>
</svg>
