<svg xmlns="http://www.w3.org/2000/svg" width="270" height="168" viewBox="0 0 270 168">
  <g id="Group_3994" data-name="Group 3994" transform="translate(-959 -235)">
    <rect id="Rectangle_3037" data-name="Rectangle 3037" width="270" height="168" transform="translate(959 235)" fill="none"/>
    <g id="Group_3971" data-name="Group 3971" transform="translate(851.636 214.577)">
      <g id="Group_3966" data-name="Group 3966" transform="translate(227.813 68.423)">
        <g id="Group_3965" data-name="Group 3965">
          <path id="Path_2146" data-name="Path 2146" d="M279.181,136.06l-4.188-14.485q-.678-2.376-1.16-4.951t-.763-5.12h-.17q-.283,2.545-.763,5.12t-1.16,4.951l-4.188,14.485H258.7l-5.376-31.686h7.185L263,119.935q.283,1.641.538,4.159t.31,6.308h.169q.341-3.734.708-6.111a35.92,35.92,0,0,1,.933-4.356l3.905-13.976h6.845l3.9,13.976q.226,1.017.452,2.065t.425,2.291q.2,1.246.4,2.745t.368,3.366h.17q.054-3.79.31-6.308t.538-4.159l2.49-15.561h7.185l-5.376,31.686Z" transform="translate(-253.323 -76.198)" fill="#c11d2a"/>
          <path id="Path_2147" data-name="Path 2147" d="M267.763,96.309V90.764h19.18V85.388h6.563V96.309Z" transform="translate(-256.446 -72.092)" fill="#c11d2a"/>
          <path id="Path_2148" data-name="Path 2148" d="M292.235,78.93V69.651H298.8V78.93Z" transform="translate(-261.738 -68.689)" fill="#c11d2a"/>
          <path id="Path_2149" data-name="Path 2149" d="M310.212,136.06V104.374h7.355V136.06Z" transform="translate(-265.626 -76.198)" fill="#c11d2a"/>
          <path id="Path_2150" data-name="Path 2150" d="M349.792,104.374h7.355v19.634q0,6.451-3.648,9.591t-10.327,3.139q-6.676,0-10.326-3.139t-3.649-9.591V104.374h7.356v19.634a6.915,6.915,0,0,0,1.752,5.065,7.533,7.533,0,0,0,9.732,0,6.913,6.913,0,0,0,1.755-5.065Z" transform="translate(-269.732 -76.198)" fill="#c11d2a"/>
          <path id="Path_2151" data-name="Path 2151" d="M332.012,97.792V92.247h25.743v5.545Z" transform="translate(-270.34 -73.575)" fill="#c11d2a"/>
          <path id="Path_2152" data-name="Path 2152" d="M355.287,78.664a2.955,2.955,0,0,1-2.095-.736,2.571,2.571,0,0,1-.792-1.981V74.534q0-.848-.792-.849h-3.282V68.423h5.714a4.31,4.31,0,0,1,2.631.736,2.766,2.766,0,0,1,.991,2.376v1.075q0,.848.792.849h7.978v5.2Z" transform="translate(-273.869 -68.423)" fill="#c11d2a"/>
          <path id="Path_2153" data-name="Path 2153" d="M394.7,104.374h7.355v20.312q0,6-2.857,9.025t-8.005,3.027a10.682,10.682,0,0,1-3.028-.424,14.048,14.048,0,0,1-2.659-1.075,12.212,12.212,0,0,1-2.177-1.471,11.341,11.341,0,0,1-1.584-1.613l-.792,3.9h-6.565V104.374h7.356v21.331a9.412,9.412,0,0,0,3.111,3.65,7.618,7.618,0,0,0,4.526,1.5q5.318,0,5.318-6.507Z" transform="translate(-279.505 -76.198)" fill="#c11d2a"/>
        </g>
      </g>
      <g id="Group_3970" data-name="Group 3970" transform="translate(135.363 84.095)">
        <path id="Path_2154" data-name="Path 2154" d="M208.511,109.518l-16.52-14.673a14.075,14.075,0,0,0-9.214-3.057l-34.232,3.031a4.023,4.023,0,0,0-3.582,5.53l.067.206-1.52.289a4.033,4.033,0,0,0-3.039,5.856l1.04,2.368-3.342,1.272a4.033,4.033,0,0,0-1.982,6.308l18.462,27.31a4.847,4.847,0,0,0,7.144,1.088l25.8-20.672,5.911-3.237,14.117-6.022C210.29,113.975,210.69,111.459,208.511,109.518Z" transform="translate(-135.363 -89.142)" fill="#fff"/>
        <g id="Group_3969" data-name="Group 3969">
          <g id="Group_3968" data-name="Group 3968">
            <path id="Path_2155" data-name="Path 2155" d="M136.188,118.188a4.033,4.033,0,0,1,1.982-6.308l32.412-12.331a14.26,14.26,0,0,1,9.771.411l20,9.587c2.639,1.262,2.927,3.795.642,5.628l-39.2,31.412a4.847,4.847,0,0,1-7.144-1.088Z" transform="translate(-135.363 -90.681)" fill="#47545d" opacity="0.3"/>
            <path id="Path_2156" data-name="Path 2156" d="M141.765,107.409a4.033,4.033,0,0,1,3.039-5.856l33.783-6.371a14.041,14.041,0,0,1,9.461,2.138l17.843,12.992c2.355,1.713,2.194,4.257-.357,5.656L161.8,139.911a4.793,4.793,0,0,1-6.782-2.339Z" transform="translate(-136.656 -89.85)" fill="#47545d" opacity="0.4"/>
            <path id="Path_2157" data-name="Path 2157" d="M147.542,100.349a4.023,4.023,0,0,1,3.582-5.53l34.232-3.031a14.075,14.075,0,0,1,9.214,3.057l16.52,14.673c2.18,1.941,1.779,4.456-.892,5.6l-45.812,19.547a4.8,4.8,0,0,1-6.529-2.995Z" transform="translate(-137.942 -89.142)" fill="#47545d" opacity="0.5"/>
            <path id="Path_2158" data-name="Path 2158" d="M156.594,93.362a4.009,4.009,0,0,1,4.352-4.932l34.3,2.158A14.144,14.144,0,0,1,203.908,95l14.186,17c1.871,2.245,1.1,4.673-1.7,5.4l-48.168,12.432a4.824,4.824,0,0,1-6.018-3.945Z" transform="translate(-139.938 -88.42)" fill="#47545d"/>
            <g id="Group_3967" data-name="Group 3967" transform="translate(26.941 12.296)">
              <path id="Path_2159" data-name="Path 2159" d="M169.739,105.73a1.074,1.074,0,0,1,.332-.865,1.328,1.328,0,0,1,.892-.277,2.169,2.169,0,0,1,.683.1c.21.068.342.117.408.143v5.79c.324-.332.734-.745,1.227-1.235s1-.984,1.507-1.483,1-.96,1.451-1.39.8-.754,1.052-.974a10.462,10.462,0,0,1,.885-.686,1.921,1.921,0,0,1,1.975.009,2.4,2.4,0,0,1,.506.448c-.066.071-.234.232-.506.488s-.6.563-.974.922-.792.756-1.245,1.183-.9.852-1.342,1.268-.851.808-1.238,1.18-.7.678-.94.915q1.942,1.827,3.637,3.7a40.233,40.233,0,0,1,3.093,3.869h-2.859q-.506-.645-1.224-1.488c-.481-.561-1-1.137-1.548-1.736s-1.126-1.183-1.722-1.76-1.175-1.1-1.733-1.569v6.553h-2.315Z" transform="translate(-169.739 -104.212)" fill="#fff"/>
              <path id="Path_2160" data-name="Path 2160" d="M189.959,106.85h-3.89a1,1,0,0,1-1.148-1.12,2.036,2.036,0,0,1,.118-.716,3.05,3.05,0,0,1,.175-.427h11.112a1,1,0,0,1,1.148,1.121,2.277,2.277,0,0,1-.109.716,1.541,1.541,0,0,1-.185.426h-4.9v11.989h-2.318Z" transform="translate(-173.022 -104.212)" fill="#fff"/>
              <path id="Path_2161" data-name="Path 2161" d="M212.663,117.78a6.4,6.4,0,0,1-.593.4,5.414,5.414,0,0,1-.953.435,8.469,8.469,0,0,1-1.354.353,9.586,9.586,0,0,1-1.768.147,7.667,7.667,0,0,1-2.726-.487A6.8,6.8,0,0,1,203,117.2a6.694,6.694,0,0,1-1.558-2.331,8.361,8.361,0,0,1-.571-3.2,8.687,8.687,0,0,1,.553-3.2,6.913,6.913,0,0,1,1.517-2.38,6.535,6.535,0,0,1,2.247-1.471,7.318,7.318,0,0,1,2.745-.512,8.662,8.662,0,0,1,2.3.25,4.657,4.657,0,0,1,1.412.612,2.271,2.271,0,0,1,.718.748,1.442,1.442,0,0,1,.2.633,1.352,1.352,0,0,1-.106.523,2.365,2.365,0,0,1-.556.786,1.215,1.215,0,0,1-.272.207,4.1,4.1,0,0,0-.535-.5,4.419,4.419,0,0,0-.808-.495,5.574,5.574,0,0,0-1.05-.389,5.012,5.012,0,0,0-1.263-.153,4.665,4.665,0,0,0-1.849.362,4.176,4.176,0,0,0-1.48,1.06,5.09,5.09,0,0,0-.982,1.684,6.49,6.49,0,0,0-.359,2.231,6.073,6.073,0,0,0,.378,2.233,4.594,4.594,0,0,0,1.042,1.622,4.321,4.321,0,0,0,1.557.99,5.52,5.52,0,0,0,1.926.332,6.107,6.107,0,0,0,3.405-.958l1.031,1.89Z" transform="translate(-176.472 -104.108)" fill="#fff"/>
            </g>
          </g>
        </g>
      </g>
    </g>
  </g>
</svg>
